<?xml version="1.0" encoding="utf-8" standalone="no"?>
<!DOCTYPE svg PUBLIC "-//W3C//DTD SVG 1.1//EN"
  "http://www.w3.org/Graphics/SVG/1.1/DTD/svg11.dtd">
<svg xmlns:xlink="http://www.w3.org/1999/xlink" width="720pt" height="432pt" viewBox="0 0 720 432" xmlns="http://www.w3.org/2000/svg" version="1.1">
 <metadata>
  <rdf:RDF xmlns:dc="http://purl.org/dc/elements/1.1/" xmlns:cc="http://creativecommons.org/ns#" xmlns:rdf="http://www.w3.org/1999/02/22-rdf-syntax-ns#">
   <cc:Work>
    <dc:type rdf:resource="http://purl.org/dc/dcmitype/StillImage"/>
    <dc:date>2025-07-07T16:07:43.638514</dc:date>
    <dc:format>image/svg+xml</dc:format>
    <dc:creator>
     <cc:Agent>
      <dc:title>Matplotlib v3.9.4, https://matplotlib.org/</dc:title>
     </cc:Agent>
    </dc:creator>
   </cc:Work>
  </rdf:RDF>
 </metadata>
 <defs>
  <style type="text/css">*{stroke-linejoin: round; stroke-linecap: butt}</style>
 </defs>
 <g id="figure_1">
  <g id="patch_1">
   <path d="M 0 432 
L 720 432 
L 720 0 
L 0 0 
z
" style="fill: #ffffff"/>
  </g>
  <g id="axes_1">
   <g id="patch_2">
    <path d="M 133.38 388.94 
L 699.525 388.94 
L 699.525 10.8 
L 133.38 10.8 
z
" style="fill: #ffffff"/>
   </g>
   <g id="patch_3">
    <path d="M 699.525 27.988182 
L 160.339286 27.988182 
L 160.339286 51.294191 
L 699.525 51.294191 
z
" clip-path="url(#p164d59c737)" style="fill: #008000"/>
   </g>
   <g id="patch_4">
    <path d="M 699.525 57.120693 
L 254.769511 57.120693 
L 254.769511 80.426703 
L 699.525 80.426703 
z
" clip-path="url(#p164d59c737)" style="fill: #008000"/>
   </g>
   <g id="patch_5">
    <path d="M 699.525 86.253205 
L 273.66185 86.253205 
L 273.66185 109.559214 
L 699.525 109.559214 
z
" clip-path="url(#p164d59c737)" style="fill: #008000"/>
   </g>
   <g id="patch_6">
    <path d="M 699.525 115.385716 
L 310.9051 115.385716 
L 310.9051 138.691726 
L 699.525 138.691726 
z
" clip-path="url(#p164d59c737)" style="fill: #008000"/>
   </g>
   <g id="patch_7">
    <path d="M 699.525 144.518228 
L 327.51885 144.518228 
L 327.51885 167.824237 
L 699.525 167.824237 
z
" clip-path="url(#p164d59c737)" style="fill: #008000"/>
   </g>
   <g id="patch_8">
    <path d="M 699.525 173.65074 
L 339.764059 173.65074 
L 339.764059 196.956749 
L 699.525 196.956749 
z
" clip-path="url(#p164d59c737)" style="fill: #008000"/>
   </g>
   <g id="patch_9">
    <path d="M 699.525 202.783251 
L 343.197501 202.783251 
L 343.197501 226.08926 
L 699.525 226.08926 
z
" clip-path="url(#p164d59c737)" style="fill: #008000"/>
   </g>
   <g id="patch_10">
    <path d="M 699.525 231.915763 
L 348.214731 231.915763 
L 348.214731 255.221772 
L 699.525 255.221772 
z
" clip-path="url(#p164d59c737)" style="fill: #008000"/>
   </g>
   <g id="patch_11">
    <path d="M 699.525 261.048274 
L 383.929715 261.048274 
L 383.929715 284.354284 
L 699.525 284.354284 
z
" clip-path="url(#p164d59c737)" style="fill: #008000"/>
   </g>
   <g id="patch_12">
    <path d="M 699.525 290.180786 
L 513.888007 290.180786 
L 513.888007 313.486795 
L 699.525 313.486795 
z
" clip-path="url(#p164d59c737)" style="fill: #008000"/>
   </g>
   <g id="patch_13">
    <path d="M 699.525 319.313297 
L 527.005168 319.313297 
L 527.005168 342.619307 
L 699.525 342.619307 
z
" clip-path="url(#p164d59c737)" style="fill: #008000"/>
   </g>
   <g id="patch_14">
    <path d="M 699.525 348.445809 
L 630.950719 348.445809 
L 630.950719 371.751818 
L 699.525 371.751818 
z
" clip-path="url(#p164d59c737)" style="fill: #808080"/>
   </g>
   <g id="matplotlib.axis_1">
    <g id="xtick_1">
     <g id="line2d_1">
      <defs>
       <path id="maf718099e2" d="M 0 0 
L 0 3.5 
" style="stroke: #000000; stroke-width: 0.8"/>
      </defs>
      <g>
       <use xlink:href="#maf718099e2" x="173.815998" y="388.94" style="stroke: #000000; stroke-width: 0.8"/>
      </g>
     </g>
     <g id="text_1">
      <!-- −0.6 -->
      <g transform="translate(159.464435 401.798281) scale(0.11 -0.11)">
       <defs>
        <path id="DejaVuSans-Bold-2212" d="M 678 2375 
L 4684 2375 
L 4684 1638 
L 678 1638 
L 678 2375 
z
" transform="scale(0.015625)"/>
        <path id="DejaVuSans-Bold-30" d="M 2944 2338 
Q 2944 3213 2780 3570 
Q 2616 3928 2228 3928 
Q 1841 3928 1675 3570 
Q 1509 3213 1509 2338 
Q 1509 1453 1675 1090 
Q 1841 728 2228 728 
Q 2613 728 2778 1090 
Q 2944 1453 2944 2338 
z
M 4147 2328 
Q 4147 1169 3647 539 
Q 3147 -91 2228 -91 
Q 1306 -91 806 539 
Q 306 1169 306 2328 
Q 306 3491 806 4120 
Q 1306 4750 2228 4750 
Q 3147 4750 3647 4120 
Q 4147 3491 4147 2328 
z
" transform="scale(0.015625)"/>
        <path id="DejaVuSans-Bold-2e" d="M 653 1209 
L 1778 1209 
L 1778 0 
L 653 0 
L 653 1209 
z
" transform="scale(0.015625)"/>
        <path id="DejaVuSans-Bold-36" d="M 2316 2303 
Q 2000 2303 1842 2098 
Q 1684 1894 1684 1484 
Q 1684 1075 1842 870 
Q 2000 666 2316 666 
Q 2634 666 2792 870 
Q 2950 1075 2950 1484 
Q 2950 1894 2792 2098 
Q 2634 2303 2316 2303 
z
M 3803 4544 
L 3803 3681 
Q 3506 3822 3243 3889 
Q 2981 3956 2731 3956 
Q 2194 3956 1894 3657 
Q 1594 3359 1544 2772 
Q 1750 2925 1990 3001 
Q 2231 3078 2516 3078 
Q 3231 3078 3670 2659 
Q 4109 2241 4109 1563 
Q 4109 813 3618 361 
Q 3128 -91 2303 -91 
Q 1394 -91 895 523 
Q 397 1138 397 2266 
Q 397 3422 980 4083 
Q 1563 4744 2578 4744 
Q 2900 4744 3203 4694 
Q 3506 4644 3803 4544 
z
" transform="scale(0.015625)"/>
       </defs>
       <use xlink:href="#DejaVuSans-Bold-2212"/>
       <use xlink:href="#DejaVuSans-Bold-30" x="83.789062"/>
       <use xlink:href="#DejaVuSans-Bold-2e" x="153.369141"/>
       <use xlink:href="#DejaVuSans-Bold-36" x="191.357422"/>
      </g>
     </g>
    </g>
    <g id="xtick_2">
     <g id="line2d_2">
      <g>
       <use xlink:href="#maf718099e2" x="261.434165" y="388.94" style="stroke: #000000; stroke-width: 0.8"/>
      </g>
     </g>
     <g id="text_2">
      <!-- −0.5 -->
      <g transform="translate(247.082602 401.798281) scale(0.11 -0.11)">
       <defs>
        <path id="DejaVuSans-Bold-35" d="M 678 4666 
L 3669 4666 
L 3669 3781 
L 1638 3781 
L 1638 3059 
Q 1775 3097 1914 3117 
Q 2053 3138 2203 3138 
Q 3056 3138 3531 2711 
Q 4006 2284 4006 1522 
Q 4006 766 3489 337 
Q 2972 -91 2053 -91 
Q 1656 -91 1267 -14 
Q 878 63 494 219 
L 494 1166 
Q 875 947 1217 837 
Q 1559 728 1863 728 
Q 2300 728 2551 942 
Q 2803 1156 2803 1522 
Q 2803 1891 2551 2103 
Q 2300 2316 1863 2316 
Q 1603 2316 1309 2248 
Q 1016 2181 678 2041 
L 678 4666 
z
" transform="scale(0.015625)"/>
       </defs>
       <use xlink:href="#DejaVuSans-Bold-2212"/>
       <use xlink:href="#DejaVuSans-Bold-30" x="83.789062"/>
       <use xlink:href="#DejaVuSans-Bold-2e" x="153.369141"/>
       <use xlink:href="#DejaVuSans-Bold-35" x="191.357422"/>
      </g>
     </g>
    </g>
    <g id="xtick_3">
     <g id="line2d_3">
      <g>
       <use xlink:href="#maf718099e2" x="349.052332" y="388.94" style="stroke: #000000; stroke-width: 0.8"/>
      </g>
     </g>
     <g id="text_3">
      <!-- −0.4 -->
      <g transform="translate(334.700769 401.798281) scale(0.11 -0.11)">
       <defs>
        <path id="DejaVuSans-Bold-34" d="M 2356 3675 
L 1038 1722 
L 2356 1722 
L 2356 3675 
z
M 2156 4666 
L 3494 4666 
L 3494 1722 
L 4159 1722 
L 4159 850 
L 3494 850 
L 3494 0 
L 2356 0 
L 2356 850 
L 288 850 
L 288 1881 
L 2156 4666 
z
" transform="scale(0.015625)"/>
       </defs>
       <use xlink:href="#DejaVuSans-Bold-2212"/>
       <use xlink:href="#DejaVuSans-Bold-30" x="83.789062"/>
       <use xlink:href="#DejaVuSans-Bold-2e" x="153.369141"/>
       <use xlink:href="#DejaVuSans-Bold-34" x="191.357422"/>
      </g>
     </g>
    </g>
    <g id="xtick_4">
     <g id="line2d_4">
      <g>
       <use xlink:href="#maf718099e2" x="436.670499" y="388.94" style="stroke: #000000; stroke-width: 0.8"/>
      </g>
     </g>
     <g id="text_4">
      <!-- −0.3 -->
      <g transform="translate(422.318936 401.798281) scale(0.11 -0.11)">
       <defs>
        <path id="DejaVuSans-Bold-33" d="M 2981 2516 
Q 3453 2394 3698 2092 
Q 3944 1791 3944 1325 
Q 3944 631 3412 270 
Q 2881 -91 1863 -91 
Q 1503 -91 1142 -33 
Q 781 25 428 141 
L 428 1069 
Q 766 900 1098 814 
Q 1431 728 1753 728 
Q 2231 728 2486 893 
Q 2741 1059 2741 1369 
Q 2741 1688 2480 1852 
Q 2219 2016 1709 2016 
L 1228 2016 
L 1228 2791 
L 1734 2791 
Q 2188 2791 2409 2933 
Q 2631 3075 2631 3366 
Q 2631 3634 2415 3781 
Q 2200 3928 1806 3928 
Q 1516 3928 1219 3862 
Q 922 3797 628 3669 
L 628 4550 
Q 984 4650 1334 4700 
Q 1684 4750 2022 4750 
Q 2931 4750 3382 4451 
Q 3834 4153 3834 3553 
Q 3834 3144 3618 2883 
Q 3403 2622 2981 2516 
z
" transform="scale(0.015625)"/>
       </defs>
       <use xlink:href="#DejaVuSans-Bold-2212"/>
       <use xlink:href="#DejaVuSans-Bold-30" x="83.789062"/>
       <use xlink:href="#DejaVuSans-Bold-2e" x="153.369141"/>
       <use xlink:href="#DejaVuSans-Bold-33" x="191.357422"/>
      </g>
     </g>
    </g>
    <g id="xtick_5">
     <g id="line2d_5">
      <g>
       <use xlink:href="#maf718099e2" x="524.288666" y="388.94" style="stroke: #000000; stroke-width: 0.8"/>
      </g>
     </g>
     <g id="text_5">
      <!-- −0.2 -->
      <g transform="translate(509.937103 401.798281) scale(0.11 -0.11)">
       <defs>
        <path id="DejaVuSans-Bold-32" d="M 1844 884 
L 3897 884 
L 3897 0 
L 506 0 
L 506 884 
L 2209 2388 
Q 2438 2594 2547 2791 
Q 2656 2988 2656 3200 
Q 2656 3528 2436 3728 
Q 2216 3928 1850 3928 
Q 1569 3928 1234 3808 
Q 900 3688 519 3450 
L 519 4475 
Q 925 4609 1322 4679 
Q 1719 4750 2100 4750 
Q 2938 4750 3402 4381 
Q 3866 4013 3866 3353 
Q 3866 2972 3669 2642 
Q 3472 2313 2841 1759 
L 1844 884 
z
" transform="scale(0.015625)"/>
       </defs>
       <use xlink:href="#DejaVuSans-Bold-2212"/>
       <use xlink:href="#DejaVuSans-Bold-30" x="83.789062"/>
       <use xlink:href="#DejaVuSans-Bold-2e" x="153.369141"/>
       <use xlink:href="#DejaVuSans-Bold-32" x="191.357422"/>
      </g>
     </g>
    </g>
    <g id="xtick_6">
     <g id="line2d_6">
      <g>
       <use xlink:href="#maf718099e2" x="611.906833" y="388.94" style="stroke: #000000; stroke-width: 0.8"/>
      </g>
     </g>
     <g id="text_6">
      <!-- −0.1 -->
      <g transform="translate(597.55527 401.798281) scale(0.11 -0.11)">
       <defs>
        <path id="DejaVuSans-Bold-31" d="M 750 831 
L 1813 831 
L 1813 3847 
L 722 3622 
L 722 4441 
L 1806 4666 
L 2950 4666 
L 2950 831 
L 4013 831 
L 4013 0 
L 750 0 
L 750 831 
z
" transform="scale(0.015625)"/>
       </defs>
       <use xlink:href="#DejaVuSans-Bold-2212"/>
       <use xlink:href="#DejaVuSans-Bold-30" x="83.789062"/>
       <use xlink:href="#DejaVuSans-Bold-2e" x="153.369141"/>
       <use xlink:href="#DejaVuSans-Bold-31" x="191.357422"/>
      </g>
     </g>
    </g>
    <g id="xtick_7">
     <g id="line2d_7">
      <g>
       <use xlink:href="#maf718099e2" x="699.525" y="388.94" style="stroke: #000000; stroke-width: 0.8"/>
      </g>
     </g>
     <g id="text_7">
      <!-- 0.0 -->
      <g transform="translate(689.782266 401.798281) scale(0.11 -0.11)">
       <use xlink:href="#DejaVuSans-Bold-30"/>
       <use xlink:href="#DejaVuSans-Bold-2e" x="69.580078"/>
       <use xlink:href="#DejaVuSans-Bold-30" x="107.568359"/>
      </g>
     </g>
    </g>
    <g id="text_8">
     <!-- Pearson Correlation with Amount Radiation Absorbed -->
     <g transform="translate(219.692422 417.963906) scale(0.13 -0.13)">
      <defs>
       <path id="DejaVuSans-Bold-50" d="M 588 4666 
L 2584 4666 
Q 3475 4666 3951 4270 
Q 4428 3875 4428 3144 
Q 4428 2409 3951 2014 
Q 3475 1619 2584 1619 
L 1791 1619 
L 1791 0 
L 588 0 
L 588 4666 
z
M 1791 3794 
L 1791 2491 
L 2456 2491 
Q 2806 2491 2997 2661 
Q 3188 2831 3188 3144 
Q 3188 3456 2997 3625 
Q 2806 3794 2456 3794 
L 1791 3794 
z
" transform="scale(0.015625)"/>
       <path id="DejaVuSans-Bold-65" d="M 4031 1759 
L 4031 1441 
L 1416 1441 
Q 1456 1047 1700 850 
Q 1944 653 2381 653 
Q 2734 653 3104 758 
Q 3475 863 3866 1075 
L 3866 213 
Q 3469 63 3072 -14 
Q 2675 -91 2278 -91 
Q 1328 -91 801 392 
Q 275 875 275 1747 
Q 275 2603 792 3093 
Q 1309 3584 2216 3584 
Q 3041 3584 3536 3087 
Q 4031 2591 4031 1759 
z
M 2881 2131 
Q 2881 2450 2695 2645 
Q 2509 2841 2209 2841 
Q 1884 2841 1681 2658 
Q 1478 2475 1428 2131 
L 2881 2131 
z
" transform="scale(0.015625)"/>
       <path id="DejaVuSans-Bold-61" d="M 2106 1575 
Q 1756 1575 1579 1456 
Q 1403 1338 1403 1106 
Q 1403 894 1545 773 
Q 1688 653 1941 653 
Q 2256 653 2472 879 
Q 2688 1106 2688 1447 
L 2688 1575 
L 2106 1575 
z
M 3816 1997 
L 3816 0 
L 2688 0 
L 2688 519 
Q 2463 200 2181 54 
Q 1900 -91 1497 -91 
Q 953 -91 614 226 
Q 275 544 275 1050 
Q 275 1666 698 1953 
Q 1122 2241 2028 2241 
L 2688 2241 
L 2688 2328 
Q 2688 2594 2478 2717 
Q 2269 2841 1825 2841 
Q 1466 2841 1156 2769 
Q 847 2697 581 2553 
L 581 3406 
Q 941 3494 1303 3539 
Q 1666 3584 2028 3584 
Q 2975 3584 3395 3211 
Q 3816 2838 3816 1997 
z
" transform="scale(0.015625)"/>
       <path id="DejaVuSans-Bold-72" d="M 3138 2547 
Q 2991 2616 2845 2648 
Q 2700 2681 2553 2681 
Q 2122 2681 1889 2404 
Q 1656 2128 1656 1613 
L 1656 0 
L 538 0 
L 538 3500 
L 1656 3500 
L 1656 2925 
Q 1872 3269 2151 3426 
Q 2431 3584 2822 3584 
Q 2878 3584 2943 3579 
Q 3009 3575 3134 3559 
L 3138 2547 
z
" transform="scale(0.015625)"/>
       <path id="DejaVuSans-Bold-73" d="M 3272 3391 
L 3272 2541 
Q 2913 2691 2578 2766 
Q 2244 2841 1947 2841 
Q 1628 2841 1473 2761 
Q 1319 2681 1319 2516 
Q 1319 2381 1436 2309 
Q 1553 2238 1856 2203 
L 2053 2175 
Q 2913 2066 3209 1816 
Q 3506 1566 3506 1031 
Q 3506 472 3093 190 
Q 2681 -91 1863 -91 
Q 1516 -91 1145 -36 
Q 775 19 384 128 
L 384 978 
Q 719 816 1070 734 
Q 1422 653 1784 653 
Q 2113 653 2278 743 
Q 2444 834 2444 1013 
Q 2444 1163 2330 1236 
Q 2216 1309 1875 1350 
L 1678 1375 
Q 931 1469 631 1722 
Q 331 1975 331 2491 
Q 331 3047 712 3315 
Q 1094 3584 1881 3584 
Q 2191 3584 2531 3537 
Q 2872 3491 3272 3391 
z
" transform="scale(0.015625)"/>
       <path id="DejaVuSans-Bold-6f" d="M 2203 2784 
Q 1831 2784 1636 2517 
Q 1441 2250 1441 1747 
Q 1441 1244 1636 976 
Q 1831 709 2203 709 
Q 2569 709 2762 976 
Q 2956 1244 2956 1747 
Q 2956 2250 2762 2517 
Q 2569 2784 2203 2784 
z
M 2203 3584 
Q 3106 3584 3614 3096 
Q 4122 2609 4122 1747 
Q 4122 884 3614 396 
Q 3106 -91 2203 -91 
Q 1297 -91 786 396 
Q 275 884 275 1747 
Q 275 2609 786 3096 
Q 1297 3584 2203 3584 
z
" transform="scale(0.015625)"/>
       <path id="DejaVuSans-Bold-6e" d="M 4056 2131 
L 4056 0 
L 2931 0 
L 2931 347 
L 2931 1631 
Q 2931 2084 2911 2256 
Q 2891 2428 2841 2509 
Q 2775 2619 2662 2680 
Q 2550 2741 2406 2741 
Q 2056 2741 1856 2470 
Q 1656 2200 1656 1722 
L 1656 0 
L 538 0 
L 538 3500 
L 1656 3500 
L 1656 2988 
Q 1909 3294 2193 3439 
Q 2478 3584 2822 3584 
Q 3428 3584 3742 3212 
Q 4056 2841 4056 2131 
z
" transform="scale(0.015625)"/>
       <path id="DejaVuSans-Bold-20" transform="scale(0.015625)"/>
       <path id="DejaVuSans-Bold-43" d="M 4288 256 
Q 3956 84 3597 -3 
Q 3238 -91 2847 -91 
Q 1681 -91 1000 561 
Q 319 1213 319 2328 
Q 319 3447 1000 4098 
Q 1681 4750 2847 4750 
Q 3238 4750 3597 4662 
Q 3956 4575 4288 4403 
L 4288 3438 
Q 3953 3666 3628 3772 
Q 3303 3878 2944 3878 
Q 2300 3878 1931 3465 
Q 1563 3053 1563 2328 
Q 1563 1606 1931 1193 
Q 2300 781 2944 781 
Q 3303 781 3628 887 
Q 3953 994 4288 1222 
L 4288 256 
z
" transform="scale(0.015625)"/>
       <path id="DejaVuSans-Bold-6c" d="M 538 4863 
L 1656 4863 
L 1656 0 
L 538 0 
L 538 4863 
z
" transform="scale(0.015625)"/>
       <path id="DejaVuSans-Bold-74" d="M 1759 4494 
L 1759 3500 
L 2913 3500 
L 2913 2700 
L 1759 2700 
L 1759 1216 
Q 1759 972 1856 886 
Q 1953 800 2241 800 
L 2816 800 
L 2816 0 
L 1856 0 
Q 1194 0 917 276 
Q 641 553 641 1216 
L 641 2700 
L 84 2700 
L 84 3500 
L 641 3500 
L 641 4494 
L 1759 4494 
z
" transform="scale(0.015625)"/>
       <path id="DejaVuSans-Bold-69" d="M 538 3500 
L 1656 3500 
L 1656 0 
L 538 0 
L 538 3500 
z
M 538 4863 
L 1656 4863 
L 1656 3950 
L 538 3950 
L 538 4863 
z
" transform="scale(0.015625)"/>
       <path id="DejaVuSans-Bold-77" d="M 225 3500 
L 1313 3500 
L 1900 1088 
L 2491 3500 
L 3425 3500 
L 4013 1113 
L 4603 3500 
L 5691 3500 
L 4769 0 
L 3547 0 
L 2956 2406 
L 2369 0 
L 1147 0 
L 225 3500 
z
" transform="scale(0.015625)"/>
       <path id="DejaVuSans-Bold-68" d="M 4056 2131 
L 4056 0 
L 2931 0 
L 2931 347 
L 2931 1625 
Q 2931 2084 2911 2256 
Q 2891 2428 2841 2509 
Q 2775 2619 2662 2680 
Q 2550 2741 2406 2741 
Q 2056 2741 1856 2470 
Q 1656 2200 1656 1722 
L 1656 0 
L 538 0 
L 538 4863 
L 1656 4863 
L 1656 2988 
Q 1909 3294 2193 3439 
Q 2478 3584 2822 3584 
Q 3428 3584 3742 3212 
Q 4056 2841 4056 2131 
z
" transform="scale(0.015625)"/>
       <path id="DejaVuSans-Bold-41" d="M 3419 850 
L 1538 850 
L 1241 0 
L 31 0 
L 1759 4666 
L 3194 4666 
L 4922 0 
L 3713 0 
L 3419 850 
z
M 1838 1716 
L 3116 1716 
L 2478 3572 
L 1838 1716 
z
" transform="scale(0.015625)"/>
       <path id="DejaVuSans-Bold-6d" d="M 3781 2919 
Q 3994 3244 4286 3414 
Q 4578 3584 4928 3584 
Q 5531 3584 5847 3212 
Q 6163 2841 6163 2131 
L 6163 0 
L 5038 0 
L 5038 1825 
Q 5041 1866 5042 1909 
Q 5044 1953 5044 2034 
Q 5044 2406 4934 2573 
Q 4825 2741 4581 2741 
Q 4263 2741 4089 2478 
Q 3916 2216 3909 1719 
L 3909 0 
L 2784 0 
L 2784 1825 
Q 2784 2406 2684 2573 
Q 2584 2741 2328 2741 
Q 2006 2741 1831 2477 
Q 1656 2213 1656 1722 
L 1656 0 
L 531 0 
L 531 3500 
L 1656 3500 
L 1656 2988 
Q 1863 3284 2130 3434 
Q 2397 3584 2719 3584 
Q 3081 3584 3359 3409 
Q 3638 3234 3781 2919 
z
" transform="scale(0.015625)"/>
       <path id="DejaVuSans-Bold-75" d="M 500 1363 
L 500 3500 
L 1625 3500 
L 1625 3150 
Q 1625 2866 1622 2436 
Q 1619 2006 1619 1863 
Q 1619 1441 1641 1255 
Q 1663 1069 1716 984 
Q 1784 875 1895 815 
Q 2006 756 2150 756 
Q 2500 756 2700 1025 
Q 2900 1294 2900 1772 
L 2900 3500 
L 4019 3500 
L 4019 0 
L 2900 0 
L 2900 506 
Q 2647 200 2364 54 
Q 2081 -91 1741 -91 
Q 1134 -91 817 281 
Q 500 653 500 1363 
z
" transform="scale(0.015625)"/>
       <path id="DejaVuSans-Bold-52" d="M 2297 2597 
Q 2675 2597 2839 2737 
Q 3003 2878 3003 3200 
Q 3003 3519 2839 3656 
Q 2675 3794 2297 3794 
L 1791 3794 
L 1791 2597 
L 2297 2597 
z
M 1791 1766 
L 1791 0 
L 588 0 
L 588 4666 
L 2425 4666 
Q 3347 4666 3776 4356 
Q 4206 4047 4206 3378 
Q 4206 2916 3982 2619 
Q 3759 2322 3309 2181 
Q 3556 2125 3751 1926 
Q 3947 1728 4147 1325 
L 4800 0 
L 3519 0 
L 2950 1159 
Q 2778 1509 2601 1637 
Q 2425 1766 2131 1766 
L 1791 1766 
z
" transform="scale(0.015625)"/>
       <path id="DejaVuSans-Bold-64" d="M 2919 2988 
L 2919 4863 
L 4044 4863 
L 4044 0 
L 2919 0 
L 2919 506 
Q 2688 197 2409 53 
Q 2131 -91 1766 -91 
Q 1119 -91 703 423 
Q 288 938 288 1747 
Q 288 2556 703 3070 
Q 1119 3584 1766 3584 
Q 2128 3584 2408 3439 
Q 2688 3294 2919 2988 
z
M 2181 722 
Q 2541 722 2730 984 
Q 2919 1247 2919 1747 
Q 2919 2247 2730 2509 
Q 2541 2772 2181 2772 
Q 1825 2772 1636 2509 
Q 1447 2247 1447 1747 
Q 1447 1247 1636 984 
Q 1825 722 2181 722 
z
" transform="scale(0.015625)"/>
       <path id="DejaVuSans-Bold-62" d="M 2400 722 
Q 2759 722 2948 984 
Q 3138 1247 3138 1747 
Q 3138 2247 2948 2509 
Q 2759 2772 2400 2772 
Q 2041 2772 1848 2508 
Q 1656 2244 1656 1747 
Q 1656 1250 1848 986 
Q 2041 722 2400 722 
z
M 1656 2988 
Q 1888 3294 2169 3439 
Q 2450 3584 2816 3584 
Q 3463 3584 3878 3070 
Q 4294 2556 4294 1747 
Q 4294 938 3878 423 
Q 3463 -91 2816 -91 
Q 2450 -91 2169 54 
Q 1888 200 1656 506 
L 1656 0 
L 538 0 
L 538 4863 
L 1656 4863 
L 1656 2988 
z
" transform="scale(0.015625)"/>
      </defs>
      <use xlink:href="#DejaVuSans-Bold-50"/>
      <use xlink:href="#DejaVuSans-Bold-65" x="73.291016"/>
      <use xlink:href="#DejaVuSans-Bold-61" x="141.113281"/>
      <use xlink:href="#DejaVuSans-Bold-72" x="208.59375"/>
      <use xlink:href="#DejaVuSans-Bold-73" x="257.910156"/>
      <use xlink:href="#DejaVuSans-Bold-6f" x="317.431641"/>
      <use xlink:href="#DejaVuSans-Bold-6e" x="386.132812"/>
      <use xlink:href="#DejaVuSans-Bold-20" x="457.324219"/>
      <use xlink:href="#DejaVuSans-Bold-43" x="492.138672"/>
      <use xlink:href="#DejaVuSans-Bold-6f" x="565.527344"/>
      <use xlink:href="#DejaVuSans-Bold-72" x="634.228516"/>
      <use xlink:href="#DejaVuSans-Bold-72" x="683.544922"/>
      <use xlink:href="#DejaVuSans-Bold-65" x="732.861328"/>
      <use xlink:href="#DejaVuSans-Bold-6c" x="800.683594"/>
      <use xlink:href="#DejaVuSans-Bold-61" x="834.960938"/>
      <use xlink:href="#DejaVuSans-Bold-74" x="902.441406"/>
      <use xlink:href="#DejaVuSans-Bold-69" x="950.244141"/>
      <use xlink:href="#DejaVuSans-Bold-6f" x="984.521484"/>
      <use xlink:href="#DejaVuSans-Bold-6e" x="1053.222656"/>
      <use xlink:href="#DejaVuSans-Bold-20" x="1124.414062"/>
      <use xlink:href="#DejaVuSans-Bold-77" x="1159.228516"/>
      <use xlink:href="#DejaVuSans-Bold-69" x="1251.611328"/>
      <use xlink:href="#DejaVuSans-Bold-74" x="1285.888672"/>
      <use xlink:href="#DejaVuSans-Bold-68" x="1333.691406"/>
      <use xlink:href="#DejaVuSans-Bold-20" x="1404.882812"/>
      <use xlink:href="#DejaVuSans-Bold-41" x="1439.697266"/>
      <use xlink:href="#DejaVuSans-Bold-6d" x="1517.089844"/>
      <use xlink:href="#DejaVuSans-Bold-6f" x="1621.289062"/>
      <use xlink:href="#DejaVuSans-Bold-75" x="1689.990234"/>
      <use xlink:href="#DejaVuSans-Bold-6e" x="1761.181641"/>
      <use xlink:href="#DejaVuSans-Bold-74" x="1832.373047"/>
      <use xlink:href="#DejaVuSans-Bold-20" x="1880.175781"/>
      <use xlink:href="#DejaVuSans-Bold-52" x="1914.990234"/>
      <use xlink:href="#DejaVuSans-Bold-61" x="1991.992188"/>
      <use xlink:href="#DejaVuSans-Bold-64" x="2059.472656"/>
      <use xlink:href="#DejaVuSans-Bold-69" x="2131.054688"/>
      <use xlink:href="#DejaVuSans-Bold-61" x="2165.332031"/>
      <use xlink:href="#DejaVuSans-Bold-74" x="2232.8125"/>
      <use xlink:href="#DejaVuSans-Bold-69" x="2280.615234"/>
      <use xlink:href="#DejaVuSans-Bold-6f" x="2314.892578"/>
      <use xlink:href="#DejaVuSans-Bold-6e" x="2383.59375"/>
      <use xlink:href="#DejaVuSans-Bold-20" x="2454.785156"/>
      <use xlink:href="#DejaVuSans-Bold-41" x="2489.599609"/>
      <use xlink:href="#DejaVuSans-Bold-62" x="2566.992188"/>
      <use xlink:href="#DejaVuSans-Bold-73" x="2638.574219"/>
      <use xlink:href="#DejaVuSans-Bold-6f" x="2698.095703"/>
      <use xlink:href="#DejaVuSans-Bold-72" x="2766.796875"/>
      <use xlink:href="#DejaVuSans-Bold-62" x="2816.113281"/>
      <use xlink:href="#DejaVuSans-Bold-65" x="2887.695312"/>
      <use xlink:href="#DejaVuSans-Bold-64" x="2955.517578"/>
     </g>
    </g>
   </g>
   <g id="matplotlib.axis_2">
    <g id="ytick_1">
     <g id="line2d_8">
      <defs>
       <path id="mc1f3ddf61d" d="M 0 0 
L -3.5 0 
" style="stroke: #000000; stroke-width: 0.8"/>
      </defs>
      <g>
       <use xlink:href="#mc1f3ddf61d" x="133.38" y="39.641186" style="stroke: #000000; stroke-width: 0.8"/>
      </g>
     </g>
     <g id="text_9">
      <!-- MT_Central_Dogma -->
      <g transform="translate(10.74 43.820327) scale(0.11 -0.11)">
       <defs>
        <path id="DejaVuSans-Bold-4d" d="M 588 4666 
L 2119 4666 
L 3181 2169 
L 4250 4666 
L 5778 4666 
L 5778 0 
L 4641 0 
L 4641 3413 
L 3566 897 
L 2803 897 
L 1728 3413 
L 1728 0 
L 588 0 
L 588 4666 
z
" transform="scale(0.015625)"/>
        <path id="DejaVuSans-Bold-54" d="M 31 4666 
L 4331 4666 
L 4331 3756 
L 2784 3756 
L 2784 0 
L 1581 0 
L 1581 3756 
L 31 3756 
L 31 4666 
z
" transform="scale(0.015625)"/>
        <path id="DejaVuSans-Bold-5f" d="M 3200 -916 
L 3200 -1509 
L 0 -1509 
L 0 -916 
L 3200 -916 
z
" transform="scale(0.015625)"/>
        <path id="DejaVuSans-Bold-44" d="M 1791 3756 
L 1791 909 
L 2222 909 
Q 2959 909 3348 1275 
Q 3738 1641 3738 2338 
Q 3738 3031 3350 3393 
Q 2963 3756 2222 3756 
L 1791 3756 
z
M 588 4666 
L 1856 4666 
Q 2919 4666 3439 4514 
Q 3959 4363 4331 4000 
Q 4659 3684 4818 3271 
Q 4978 2859 4978 2338 
Q 4978 1809 4818 1395 
Q 4659 981 4331 666 
Q 3956 303 3431 151 
Q 2906 0 1856 0 
L 588 0 
L 588 4666 
z
" transform="scale(0.015625)"/>
        <path id="DejaVuSans-Bold-67" d="M 2919 594 
Q 2688 288 2409 144 
Q 2131 0 1766 0 
Q 1125 0 706 504 
Q 288 1009 288 1791 
Q 288 2575 706 3076 
Q 1125 3578 1766 3578 
Q 2131 3578 2409 3434 
Q 2688 3291 2919 2981 
L 2919 3500 
L 4044 3500 
L 4044 353 
Q 4044 -491 3511 -936 
Q 2978 -1381 1966 -1381 
Q 1638 -1381 1331 -1331 
Q 1025 -1281 716 -1178 
L 716 -306 
Q 1009 -475 1290 -558 
Q 1572 -641 1856 -641 
Q 2406 -641 2662 -400 
Q 2919 -159 2919 353 
L 2919 594 
z
M 2181 2772 
Q 1834 2772 1640 2515 
Q 1447 2259 1447 1791 
Q 1447 1309 1634 1061 
Q 1822 813 2181 813 
Q 2531 813 2725 1069 
Q 2919 1325 2919 1791 
Q 2919 2259 2725 2515 
Q 2531 2772 2181 2772 
z
" transform="scale(0.015625)"/>
       </defs>
       <use xlink:href="#DejaVuSans-Bold-4d"/>
       <use xlink:href="#DejaVuSans-Bold-54" x="99.511719"/>
       <use xlink:href="#DejaVuSans-Bold-5f" x="167.724609"/>
       <use xlink:href="#DejaVuSans-Bold-43" x="217.724609"/>
       <use xlink:href="#DejaVuSans-Bold-65" x="291.113281"/>
       <use xlink:href="#DejaVuSans-Bold-6e" x="358.935547"/>
       <use xlink:href="#DejaVuSans-Bold-74" x="430.126953"/>
       <use xlink:href="#DejaVuSans-Bold-72" x="477.929688"/>
       <use xlink:href="#DejaVuSans-Bold-61" x="527.246094"/>
       <use xlink:href="#DejaVuSans-Bold-6c" x="594.726562"/>
       <use xlink:href="#DejaVuSans-Bold-5f" x="629.003906"/>
       <use xlink:href="#DejaVuSans-Bold-44" x="679.003906"/>
       <use xlink:href="#DejaVuSans-Bold-6f" x="762.011719"/>
       <use xlink:href="#DejaVuSans-Bold-67" x="830.712891"/>
       <use xlink:href="#DejaVuSans-Bold-6d" x="902.294922"/>
       <use xlink:href="#DejaVuSans-Bold-61" x="1006.494141"/>
      </g>
     </g>
    </g>
    <g id="ytick_2">
     <g id="line2d_9">
      <g>
       <use xlink:href="#mc1f3ddf61d" x="133.38" y="68.773698" style="stroke: #000000; stroke-width: 0.8"/>
      </g>
     </g>
     <g id="text_10">
      <!-- MT_Ribosome -->
      <g transform="translate(44.229844 72.952839) scale(0.11 -0.11)">
       <use xlink:href="#DejaVuSans-Bold-4d"/>
       <use xlink:href="#DejaVuSans-Bold-54" x="99.511719"/>
       <use xlink:href="#DejaVuSans-Bold-5f" x="167.724609"/>
       <use xlink:href="#DejaVuSans-Bold-52" x="217.724609"/>
       <use xlink:href="#DejaVuSans-Bold-69" x="294.726562"/>
       <use xlink:href="#DejaVuSans-Bold-62" x="329.003906"/>
       <use xlink:href="#DejaVuSans-Bold-6f" x="400.585938"/>
       <use xlink:href="#DejaVuSans-Bold-73" x="469.287109"/>
       <use xlink:href="#DejaVuSans-Bold-6f" x="528.808594"/>
       <use xlink:href="#DejaVuSans-Bold-6d" x="597.509766"/>
       <use xlink:href="#DejaVuSans-Bold-65" x="701.708984"/>
      </g>
     </g>
    </g>
    <g id="ytick_3">
     <g id="line2d_10">
      <g>
       <use xlink:href="#mc1f3ddf61d" x="133.38" y="97.90621" style="stroke: #000000; stroke-width: 0.8"/>
      </g>
     </g>
     <g id="text_11">
      <!-- OXPHOS -->
      <g transform="translate(76.905 102.08535) scale(0.11 -0.11)">
       <defs>
        <path id="DejaVuSans-Bold-4f" d="M 2719 3878 
Q 2169 3878 1866 3472 
Q 1563 3066 1563 2328 
Q 1563 1594 1866 1187 
Q 2169 781 2719 781 
Q 3272 781 3575 1187 
Q 3878 1594 3878 2328 
Q 3878 3066 3575 3472 
Q 3272 3878 2719 3878 
z
M 2719 4750 
Q 3844 4750 4481 4106 
Q 5119 3463 5119 2328 
Q 5119 1197 4481 553 
Q 3844 -91 2719 -91 
Q 1597 -91 958 553 
Q 319 1197 319 2328 
Q 319 3463 958 4106 
Q 1597 4750 2719 4750 
z
" transform="scale(0.015625)"/>
        <path id="DejaVuSans-Bold-58" d="M 3188 2381 
L 4806 0 
L 3553 0 
L 2463 1594 
L 1381 0 
L 122 0 
L 1741 2381 
L 184 4666 
L 1441 4666 
L 2463 3163 
L 3481 4666 
L 4744 4666 
L 3188 2381 
z
" transform="scale(0.015625)"/>
        <path id="DejaVuSans-Bold-48" d="M 588 4666 
L 1791 4666 
L 1791 2888 
L 3566 2888 
L 3566 4666 
L 4769 4666 
L 4769 0 
L 3566 0 
L 3566 1978 
L 1791 1978 
L 1791 0 
L 588 0 
L 588 4666 
z
" transform="scale(0.015625)"/>
        <path id="DejaVuSans-Bold-53" d="M 3834 4519 
L 3834 3531 
Q 3450 3703 3084 3790 
Q 2719 3878 2394 3878 
Q 1963 3878 1756 3759 
Q 1550 3641 1550 3391 
Q 1550 3203 1689 3098 
Q 1828 2994 2194 2919 
L 2706 2816 
Q 3484 2659 3812 2340 
Q 4141 2022 4141 1434 
Q 4141 663 3683 286 
Q 3225 -91 2284 -91 
Q 1841 -91 1394 -6 
Q 947 78 500 244 
L 500 1259 
Q 947 1022 1364 901 
Q 1781 781 2169 781 
Q 2563 781 2772 912 
Q 2981 1044 2981 1288 
Q 2981 1506 2839 1625 
Q 2697 1744 2272 1838 
L 1806 1941 
Q 1106 2091 782 2419 
Q 459 2747 459 3303 
Q 459 4000 909 4375 
Q 1359 4750 2203 4750 
Q 2588 4750 2994 4692 
Q 3400 4634 3834 4519 
z
" transform="scale(0.015625)"/>
       </defs>
       <use xlink:href="#DejaVuSans-Bold-4f"/>
       <use xlink:href="#DejaVuSans-Bold-58" x="81.384766"/>
       <use xlink:href="#DejaVuSans-Bold-50" x="158.484375"/>
       <use xlink:href="#DejaVuSans-Bold-48" x="231.775391"/>
       <use xlink:href="#DejaVuSans-Bold-4f" x="315.466797"/>
       <use xlink:href="#DejaVuSans-Bold-53" x="400.476562"/>
      </g>
     </g>
    </g>
    <g id="ytick_4">
     <g id="line2d_11">
      <g>
       <use xlink:href="#mc1f3ddf61d" x="133.38" y="127.038721" style="stroke: #000000; stroke-width: 0.8"/>
      </g>
     </g>
     <g id="text_12">
      <!-- Complex_I_V -->
      <g transform="translate(51.981406 131.217862) scale(0.11 -0.11)">
       <defs>
        <path id="DejaVuSans-Bold-70" d="M 1656 506 
L 1656 -1331 
L 538 -1331 
L 538 3500 
L 1656 3500 
L 1656 2988 
Q 1888 3294 2169 3439 
Q 2450 3584 2816 3584 
Q 3463 3584 3878 3070 
Q 4294 2556 4294 1747 
Q 4294 938 3878 423 
Q 3463 -91 2816 -91 
Q 2450 -91 2169 54 
Q 1888 200 1656 506 
z
M 2400 2772 
Q 2041 2772 1848 2508 
Q 1656 2244 1656 1747 
Q 1656 1250 1848 986 
Q 2041 722 2400 722 
Q 2759 722 2948 984 
Q 3138 1247 3138 1747 
Q 3138 2247 2948 2509 
Q 2759 2772 2400 2772 
z
" transform="scale(0.015625)"/>
        <path id="DejaVuSans-Bold-78" d="M 1422 1791 
L 159 3500 
L 1344 3500 
L 2059 2463 
L 2784 3500 
L 3969 3500 
L 2706 1797 
L 4031 0 
L 2847 0 
L 2059 1106 
L 1281 0 
L 97 0 
L 1422 1791 
z
" transform="scale(0.015625)"/>
        <path id="DejaVuSans-Bold-49" d="M 588 4666 
L 1791 4666 
L 1791 0 
L 588 0 
L 588 4666 
z
" transform="scale(0.015625)"/>
        <path id="DejaVuSans-Bold-56" d="M 31 4666 
L 1241 4666 
L 2478 1222 
L 3713 4666 
L 4922 4666 
L 3194 0 
L 1759 0 
L 31 4666 
z
" transform="scale(0.015625)"/>
       </defs>
       <use xlink:href="#DejaVuSans-Bold-43"/>
       <use xlink:href="#DejaVuSans-Bold-6f" x="73.388672"/>
       <use xlink:href="#DejaVuSans-Bold-6d" x="142.089844"/>
       <use xlink:href="#DejaVuSans-Bold-70" x="246.289062"/>
       <use xlink:href="#DejaVuSans-Bold-6c" x="317.871094"/>
       <use xlink:href="#DejaVuSans-Bold-65" x="352.148438"/>
       <use xlink:href="#DejaVuSans-Bold-78" x="419.970703"/>
       <use xlink:href="#DejaVuSans-Bold-5f" x="484.472656"/>
       <use xlink:href="#DejaVuSans-Bold-49" x="534.472656"/>
       <use xlink:href="#DejaVuSans-Bold-5f" x="571.679688"/>
       <use xlink:href="#DejaVuSans-Bold-56" x="621.679688"/>
      </g>
     </g>
    </g>
    <g id="ytick_5">
     <g id="line2d_12">
      <g>
       <use xlink:href="#mc1f3ddf61d" x="133.38" y="156.171233" style="stroke: #000000; stroke-width: 0.8"/>
      </g>
     </g>
     <g id="text_13">
      <!-- Complex_IV -->
      <g transform="translate(57.481406 160.350373) scale(0.11 -0.11)">
       <use xlink:href="#DejaVuSans-Bold-43"/>
       <use xlink:href="#DejaVuSans-Bold-6f" x="73.388672"/>
       <use xlink:href="#DejaVuSans-Bold-6d" x="142.089844"/>
       <use xlink:href="#DejaVuSans-Bold-70" x="246.289062"/>
       <use xlink:href="#DejaVuSans-Bold-6c" x="317.871094"/>
       <use xlink:href="#DejaVuSans-Bold-65" x="352.148438"/>
       <use xlink:href="#DejaVuSans-Bold-78" x="419.970703"/>
       <use xlink:href="#DejaVuSans-Bold-5f" x="484.472656"/>
       <use xlink:href="#DejaVuSans-Bold-49" x="534.472656"/>
       <use xlink:href="#DejaVuSans-Bold-56" x="571.679688"/>
      </g>
     </g>
    </g>
    <g id="ytick_6">
     <g id="line2d_13">
      <g>
       <use xlink:href="#mc1f3ddf61d" x="133.38" y="185.303744" style="stroke: #000000; stroke-width: 0.8"/>
      </g>
     </g>
     <g id="text_14">
      <!-- MT_Protein_Import -->
      <g transform="translate(12.396875 189.482885) scale(0.11 -0.11)">
       <use xlink:href="#DejaVuSans-Bold-4d"/>
       <use xlink:href="#DejaVuSans-Bold-54" x="99.511719"/>
       <use xlink:href="#DejaVuSans-Bold-5f" x="167.724609"/>
       <use xlink:href="#DejaVuSans-Bold-50" x="217.724609"/>
       <use xlink:href="#DejaVuSans-Bold-72" x="291.015625"/>
       <use xlink:href="#DejaVuSans-Bold-6f" x="340.332031"/>
       <use xlink:href="#DejaVuSans-Bold-74" x="409.033203"/>
       <use xlink:href="#DejaVuSans-Bold-65" x="456.835938"/>
       <use xlink:href="#DejaVuSans-Bold-69" x="524.658203"/>
       <use xlink:href="#DejaVuSans-Bold-6e" x="558.935547"/>
       <use xlink:href="#DejaVuSans-Bold-5f" x="630.126953"/>
       <use xlink:href="#DejaVuSans-Bold-49" x="680.126953"/>
       <use xlink:href="#DejaVuSans-Bold-6d" x="717.333984"/>
       <use xlink:href="#DejaVuSans-Bold-70" x="821.533203"/>
       <use xlink:href="#DejaVuSans-Bold-6f" x="893.115234"/>
       <use xlink:href="#DejaVuSans-Bold-72" x="961.816406"/>
       <use xlink:href="#DejaVuSans-Bold-74" x="1011.132812"/>
      </g>
     </g>
    </g>
    <g id="ytick_7">
     <g id="line2d_14">
      <g>
       <use xlink:href="#mc1f3ddf61d" x="133.38" y="214.436256" style="stroke: #000000; stroke-width: 0.8"/>
      </g>
     </g>
     <g id="text_15">
      <!-- Complex_I -->
      <g transform="translate(65.994375 218.615396) scale(0.11 -0.11)">
       <use xlink:href="#DejaVuSans-Bold-43"/>
       <use xlink:href="#DejaVuSans-Bold-6f" x="73.388672"/>
       <use xlink:href="#DejaVuSans-Bold-6d" x="142.089844"/>
       <use xlink:href="#DejaVuSans-Bold-70" x="246.289062"/>
       <use xlink:href="#DejaVuSans-Bold-6c" x="317.871094"/>
       <use xlink:href="#DejaVuSans-Bold-65" x="352.148438"/>
       <use xlink:href="#DejaVuSans-Bold-78" x="419.970703"/>
       <use xlink:href="#DejaVuSans-Bold-5f" x="484.472656"/>
       <use xlink:href="#DejaVuSans-Bold-49" x="534.472656"/>
      </g>
     </g>
    </g>
    <g id="ytick_8">
     <g id="line2d_15">
      <g>
       <use xlink:href="#mc1f3ddf61d" x="133.38" y="243.568767" style="stroke: #000000; stroke-width: 0.8"/>
      </g>
     </g>
     <g id="text_16">
      <!-- Complex_III -->
      <g transform="translate(57.809688 247.747908) scale(0.11 -0.11)">
       <use xlink:href="#DejaVuSans-Bold-43"/>
       <use xlink:href="#DejaVuSans-Bold-6f" x="73.388672"/>
       <use xlink:href="#DejaVuSans-Bold-6d" x="142.089844"/>
       <use xlink:href="#DejaVuSans-Bold-70" x="246.289062"/>
       <use xlink:href="#DejaVuSans-Bold-6c" x="317.871094"/>
       <use xlink:href="#DejaVuSans-Bold-65" x="352.148438"/>
       <use xlink:href="#DejaVuSans-Bold-78" x="419.970703"/>
       <use xlink:href="#DejaVuSans-Bold-5f" x="484.472656"/>
       <use xlink:href="#DejaVuSans-Bold-49" x="534.472656"/>
       <use xlink:href="#DejaVuSans-Bold-49" x="571.679688"/>
       <use xlink:href="#DejaVuSans-Bold-49" x="608.886719"/>
      </g>
     </g>
    </g>
    <g id="ytick_9">
     <g id="line2d_16">
      <g>
       <use xlink:href="#mc1f3ddf61d" x="133.38" y="272.701279" style="stroke: #000000; stroke-width: 0.8"/>
      </g>
     </g>
     <g id="text_17">
      <!-- Complex_V -->
      <g transform="translate(61.57375 276.88042) scale(0.11 -0.11)">
       <use xlink:href="#DejaVuSans-Bold-43"/>
       <use xlink:href="#DejaVuSans-Bold-6f" x="73.388672"/>
       <use xlink:href="#DejaVuSans-Bold-6d" x="142.089844"/>
       <use xlink:href="#DejaVuSans-Bold-70" x="246.289062"/>
       <use xlink:href="#DejaVuSans-Bold-6c" x="317.871094"/>
       <use xlink:href="#DejaVuSans-Bold-65" x="352.148438"/>
       <use xlink:href="#DejaVuSans-Bold-78" x="419.970703"/>
       <use xlink:href="#DejaVuSans-Bold-5f" x="484.472656"/>
       <use xlink:href="#DejaVuSans-Bold-56" x="534.472656"/>
      </g>
     </g>
    </g>
    <g id="ytick_10">
     <g id="line2d_17">
      <g>
       <use xlink:href="#mc1f3ddf61d" x="133.38" y="301.83379" style="stroke: #000000; stroke-width: 0.8"/>
      </g>
     </g>
     <g id="text_18">
      <!-- MT_Biogenesis -->
      <g transform="translate(37.726094 306.012931) scale(0.11 -0.11)">
       <defs>
        <path id="DejaVuSans-Bold-42" d="M 2456 2859 
Q 2741 2859 2887 2984 
Q 3034 3109 3034 3353 
Q 3034 3594 2887 3720 
Q 2741 3847 2456 3847 
L 1791 3847 
L 1791 2859 
L 2456 2859 
z
M 2497 819 
Q 2859 819 3042 972 
Q 3225 1125 3225 1434 
Q 3225 1738 3044 1889 
Q 2863 2041 2497 2041 
L 1791 2041 
L 1791 819 
L 2497 819 
z
M 3616 2497 
Q 4003 2384 4215 2081 
Q 4428 1778 4428 1338 
Q 4428 663 3972 331 
Q 3516 0 2584 0 
L 588 0 
L 588 4666 
L 2394 4666 
Q 3366 4666 3802 4372 
Q 4238 4078 4238 3431 
Q 4238 3091 4078 2852 
Q 3919 2613 3616 2497 
z
" transform="scale(0.015625)"/>
       </defs>
       <use xlink:href="#DejaVuSans-Bold-4d"/>
       <use xlink:href="#DejaVuSans-Bold-54" x="99.511719"/>
       <use xlink:href="#DejaVuSans-Bold-5f" x="167.724609"/>
       <use xlink:href="#DejaVuSans-Bold-42" x="217.724609"/>
       <use xlink:href="#DejaVuSans-Bold-69" x="293.945312"/>
       <use xlink:href="#DejaVuSans-Bold-6f" x="328.222656"/>
       <use xlink:href="#DejaVuSans-Bold-67" x="396.923828"/>
       <use xlink:href="#DejaVuSans-Bold-65" x="468.505859"/>
       <use xlink:href="#DejaVuSans-Bold-6e" x="536.328125"/>
       <use xlink:href="#DejaVuSans-Bold-65" x="607.519531"/>
       <use xlink:href="#DejaVuSans-Bold-73" x="675.341797"/>
       <use xlink:href="#DejaVuSans-Bold-69" x="734.863281"/>
       <use xlink:href="#DejaVuSans-Bold-73" x="769.140625"/>
      </g>
     </g>
    </g>
    <g id="ytick_11">
     <g id="line2d_18">
      <g>
       <use xlink:href="#mc1f3ddf61d" x="133.38" y="330.966302" style="stroke: #000000; stroke-width: 0.8"/>
      </g>
     </g>
     <g id="text_19">
      <!-- Complex_II -->
      <g transform="translate(61.902031 335.145443) scale(0.11 -0.11)">
       <use xlink:href="#DejaVuSans-Bold-43"/>
       <use xlink:href="#DejaVuSans-Bold-6f" x="73.388672"/>
       <use xlink:href="#DejaVuSans-Bold-6d" x="142.089844"/>
       <use xlink:href="#DejaVuSans-Bold-70" x="246.289062"/>
       <use xlink:href="#DejaVuSans-Bold-6c" x="317.871094"/>
       <use xlink:href="#DejaVuSans-Bold-65" x="352.148438"/>
       <use xlink:href="#DejaVuSans-Bold-78" x="419.970703"/>
       <use xlink:href="#DejaVuSans-Bold-5f" x="484.472656"/>
       <use xlink:href="#DejaVuSans-Bold-49" x="534.472656"/>
       <use xlink:href="#DejaVuSans-Bold-49" x="571.679688"/>
      </g>
     </g>
    </g>
    <g id="ytick_12">
     <g id="line2d_19">
      <g>
       <use xlink:href="#mc1f3ddf61d" x="133.38" y="360.098814" style="stroke: #000000; stroke-width: 0.8"/>
      </g>
     </g>
     <g id="text_20">
      <!-- MT_CoQ_Synthesis -->
      <g transform="translate(14.110469 364.277954) scale(0.11 -0.11)">
       <defs>
        <path id="DejaVuSans-Bold-51" d="M 2847 -84 
L 2753 -84 
Q 1600 -84 959 553 
Q 319 1191 319 2328 
Q 319 3463 958 4106 
Q 1597 4750 2719 4750 
Q 3853 4750 4486 4112 
Q 5119 3475 5119 2328 
Q 5119 1541 4783 972 
Q 4447 403 3816 116 
L 4756 -934 
L 3609 -934 
L 2847 -84 
z
M 2719 3878 
Q 2169 3878 1866 3472 
Q 1563 3066 1563 2328 
Q 1563 1578 1859 1179 
Q 2156 781 2719 781 
Q 3272 781 3575 1187 
Q 3878 1594 3878 2328 
Q 3878 3066 3575 3472 
Q 3272 3878 2719 3878 
z
" transform="scale(0.015625)"/>
        <path id="DejaVuSans-Bold-79" d="M 78 3500 
L 1197 3500 
L 2138 1125 
L 2938 3500 
L 4056 3500 
L 2584 -331 
Q 2363 -916 2067 -1148 
Q 1772 -1381 1288 -1381 
L 641 -1381 
L 641 -647 
L 991 -647 
Q 1275 -647 1404 -556 
Q 1534 -466 1606 -231 
L 1638 -134 
L 78 3500 
z
" transform="scale(0.015625)"/>
       </defs>
       <use xlink:href="#DejaVuSans-Bold-4d"/>
       <use xlink:href="#DejaVuSans-Bold-54" x="99.511719"/>
       <use xlink:href="#DejaVuSans-Bold-5f" x="167.724609"/>
       <use xlink:href="#DejaVuSans-Bold-43" x="217.724609"/>
       <use xlink:href="#DejaVuSans-Bold-6f" x="291.113281"/>
       <use xlink:href="#DejaVuSans-Bold-51" x="359.814453"/>
       <use xlink:href="#DejaVuSans-Bold-5f" x="444.824219"/>
       <use xlink:href="#DejaVuSans-Bold-53" x="494.824219"/>
       <use xlink:href="#DejaVuSans-Bold-79" x="566.845703"/>
       <use xlink:href="#DejaVuSans-Bold-6e" x="632.03125"/>
       <use xlink:href="#DejaVuSans-Bold-74" x="703.222656"/>
       <use xlink:href="#DejaVuSans-Bold-68" x="751.025391"/>
       <use xlink:href="#DejaVuSans-Bold-65" x="822.216797"/>
       <use xlink:href="#DejaVuSans-Bold-73" x="890.039062"/>
       <use xlink:href="#DejaVuSans-Bold-69" x="949.560547"/>
       <use xlink:href="#DejaVuSans-Bold-73" x="983.837891"/>
      </g>
     </g>
    </g>
   </g>
   <g id="line2d_20">
    <path d="M 699.525 388.94 
L 699.525 10.8 
" clip-path="url(#p164d59c737)" style="fill: none; stroke: #000000; stroke-width: 0.8; stroke-linecap: square"/>
   </g>
   <g id="patch_15">
    <path d="M 133.38 388.94 
L 133.38 10.8 
" style="fill: none; stroke: #000000; stroke-width: 3; stroke-linejoin: miter; stroke-linecap: square"/>
   </g>
   <g id="patch_16">
    <path d="M 699.525 388.94 
L 699.525 10.8 
" style="fill: none; stroke: #000000; stroke-width: 3; stroke-linejoin: miter; stroke-linecap: square"/>
   </g>
   <g id="patch_17">
    <path d="M 133.38 388.94 
L 699.525 388.94 
" style="fill: none; stroke: #000000; stroke-width: 3; stroke-linejoin: miter; stroke-linecap: square"/>
   </g>
   <g id="patch_18">
    <path d="M 133.38 10.8 
L 699.525 10.8 
" style="fill: none; stroke: #000000; stroke-width: 3; stroke-linejoin: miter; stroke-linecap: square"/>
   </g>
  </g>
 </g>
 <defs>
  <clipPath id="p164d59c737">
   <rect x="133.38" y="10.8" width="566.145" height="378.14"/>
  </clipPath>
 </defs>
</svg>
