<?xml version="1.0" encoding="utf-8" standalone="no"?>
<!DOCTYPE svg PUBLIC "-//W3C//DTD SVG 1.1//EN"
  "http://www.w3.org/Graphics/SVG/1.1/DTD/svg11.dtd">
<svg xmlns:xlink="http://www.w3.org/1999/xlink" width="720pt" height="432pt" viewBox="0 0 720 432" xmlns="http://www.w3.org/2000/svg" version="1.1">
 <metadata>
  <rdf:RDF xmlns:dc="http://purl.org/dc/elements/1.1/" xmlns:cc="http://creativecommons.org/ns#" xmlns:rdf="http://www.w3.org/1999/02/22-rdf-syntax-ns#">
   <cc:Work>
    <dc:type rdf:resource="http://purl.org/dc/dcmitype/StillImage"/>
    <dc:date>2025-07-07T18:03:27.183876</dc:date>
    <dc:format>image/svg+xml</dc:format>
    <dc:creator>
     <cc:Agent>
      <dc:title>Matplotlib v3.9.4, https://matplotlib.org/</dc:title>
     </cc:Agent>
    </dc:creator>
   </cc:Work>
  </rdf:RDF>
 </metadata>
 <defs>
  <style type="text/css">*{stroke-linejoin: round; stroke-linecap: butt}</style>
 </defs>
 <g id="figure_1">
  <g id="patch_1">
   <path d="M 0 432 
L 720 432 
L 720 0 
L 0 0 
z
" style="fill: #ffffff"/>
  </g>
  <g id="axes_1">
   <g id="patch_2">
    <path d="M 161.17 385 
L 707.04 385 
L 707.04 12.96 
L 161.17 12.96 
z
" style="fill: #ffffff"/>
   </g>
   <g id="matplotlib.axis_1">
    <g id="xtick_1">
     <g id="text_1">
      <!-- −0.2 -->
      <g style="fill: #262626" transform="translate(208.530799 399.873594) scale(0.11 -0.11)">
       <defs>
        <path id="Arial-BoldMT-2212" d="M 266 1850 
L 266 2672 
L 3469 2672 
L 3469 1850 
L 266 1850 
z
" transform="scale(0.015625)"/>
        <path id="Arial-BoldMT-30" d="M 1756 4600 
Q 2422 4600 2797 4125 
Q 3244 3563 3244 2259 
Q 3244 959 2794 391 
Q 2422 -78 1756 -78 
Q 1088 -78 678 436 
Q 269 950 269 2269 
Q 269 3563 719 4131 
Q 1091 4600 1756 4600 
z
M 1756 3872 
Q 1597 3872 1472 3770 
Q 1347 3669 1278 3406 
Q 1188 3066 1188 2259 
Q 1188 1453 1269 1151 
Q 1350 850 1473 750 
Q 1597 650 1756 650 
Q 1916 650 2041 751 
Q 2166 853 2234 1116 
Q 2325 1453 2325 2259 
Q 2325 3066 2244 3367 
Q 2163 3669 2039 3770 
Q 1916 3872 1756 3872 
z
" transform="scale(0.015625)"/>
        <path id="Arial-BoldMT-2e" d="M 459 0 
L 459 878 
L 1338 878 
L 1338 0 
L 459 0 
z
" transform="scale(0.015625)"/>
        <path id="Arial-BoldMT-32" d="M 3238 816 
L 3238 0 
L 159 0 
Q 209 463 459 877 
Q 709 1291 1447 1975 
Q 2041 2528 2175 2725 
Q 2356 2997 2356 3263 
Q 2356 3556 2198 3714 
Q 2041 3872 1763 3872 
Q 1488 3872 1325 3706 
Q 1163 3541 1138 3156 
L 263 3244 
Q 341 3969 753 4284 
Q 1166 4600 1784 4600 
Q 2463 4600 2850 4234 
Q 3238 3869 3238 3325 
Q 3238 3016 3127 2736 
Q 3016 2456 2775 2150 
Q 2616 1947 2200 1565 
Q 1784 1184 1673 1059 
Q 1563 934 1494 816 
L 3238 816 
z
" transform="scale(0.015625)"/>
       </defs>
       <use xlink:href="#Arial-BoldMT-2212"/>
       <use xlink:href="#Arial-BoldMT-30" x="58.398438"/>
       <use xlink:href="#Arial-BoldMT-2e" x="114.013672"/>
       <use xlink:href="#Arial-BoldMT-32" x="141.796875"/>
      </g>
     </g>
    </g>
    <g id="xtick_2">
     <g id="text_2">
      <!-- −0.1 -->
      <g style="fill: #262626" transform="translate(286.962265 399.873594) scale(0.11 -0.11)">
       <defs>
        <path id="Arial-BoldMT-31" d="M 2519 0 
L 1641 0 
L 1641 3309 
Q 1159 2859 506 2644 
L 506 3441 
Q 850 3553 1253 3867 
Q 1656 4181 1806 4600 
L 2519 4600 
L 2519 0 
z
" transform="scale(0.015625)"/>
       </defs>
       <use xlink:href="#Arial-BoldMT-2212"/>
       <use xlink:href="#Arial-BoldMT-30" x="58.398438"/>
       <use xlink:href="#Arial-BoldMT-2e" x="114.013672"/>
       <use xlink:href="#Arial-BoldMT-31" x="141.796875"/>
      </g>
     </g>
    </g>
    <g id="xtick_3">
     <g id="text_3">
      <!-- 0.0 -->
      <g style="fill: #262626" transform="translate(368.606075 399.873594) scale(0.11 -0.11)">
       <use xlink:href="#Arial-BoldMT-30"/>
       <use xlink:href="#Arial-BoldMT-2e" x="55.615234"/>
       <use xlink:href="#Arial-BoldMT-30" x="83.398438"/>
      </g>
     </g>
    </g>
    <g id="xtick_4">
     <g id="text_4">
      <!-- 0.1 -->
      <g style="fill: #262626" transform="translate(447.037541 399.873594) scale(0.11 -0.11)">
       <use xlink:href="#Arial-BoldMT-30"/>
       <use xlink:href="#Arial-BoldMT-2e" x="55.615234"/>
       <use xlink:href="#Arial-BoldMT-31" x="83.398438"/>
      </g>
     </g>
    </g>
    <g id="xtick_5">
     <g id="text_5">
      <!-- 0.2 -->
      <g style="fill: #262626" transform="translate(525.469007 399.873594) scale(0.11 -0.11)">
       <use xlink:href="#Arial-BoldMT-30"/>
       <use xlink:href="#Arial-BoldMT-2e" x="55.615234"/>
       <use xlink:href="#Arial-BoldMT-32" x="83.398438"/>
      </g>
     </g>
    </g>
    <g id="xtick_6">
     <g id="text_6">
      <!-- 0.3 -->
      <g style="fill: #262626" transform="translate(603.900473 399.873594) scale(0.11 -0.11)">
       <defs>
        <path id="Arial-BoldMT-33" d="M 241 1216 
L 1091 1319 
Q 1131 994 1309 822 
Q 1488 650 1741 650 
Q 2013 650 2198 856 
Q 2384 1063 2384 1413 
Q 2384 1744 2206 1937 
Q 2028 2131 1772 2131 
Q 1603 2131 1369 2066 
L 1466 2781 
Q 1822 2772 2009 2936 
Q 2197 3100 2197 3372 
Q 2197 3603 2059 3740 
Q 1922 3878 1694 3878 
Q 1469 3878 1309 3722 
Q 1150 3566 1116 3266 
L 306 3403 
Q 391 3819 561 4067 
Q 731 4316 1036 4458 
Q 1341 4600 1719 4600 
Q 2366 4600 2756 4188 
Q 3078 3850 3078 3425 
Q 3078 2822 2419 2463 
Q 2813 2378 3048 2084 
Q 3284 1791 3284 1375 
Q 3284 772 2843 347 
Q 2403 -78 1747 -78 
Q 1125 -78 715 280 
Q 306 638 241 1216 
z
" transform="scale(0.015625)"/>
       </defs>
       <use xlink:href="#Arial-BoldMT-30"/>
       <use xlink:href="#Arial-BoldMT-2e" x="55.615234"/>
       <use xlink:href="#Arial-BoldMT-33" x="83.398438"/>
      </g>
     </g>
    </g>
    <g id="xtick_7">
     <g id="text_7">
      <!-- 0.4 -->
      <g style="fill: #262626" transform="translate(682.331939 399.873594) scale(0.11 -0.11)">
       <defs>
        <path id="Arial-BoldMT-34" d="M 1994 0 
L 1994 922 
L 119 922 
L 119 1691 
L 2106 4600 
L 2844 4600 
L 2844 1694 
L 3413 1694 
L 3413 922 
L 2844 922 
L 2844 0 
L 1994 0 
z
M 1994 1694 
L 1994 3259 
L 941 1694 
L 1994 1694 
z
" transform="scale(0.015625)"/>
       </defs>
       <use xlink:href="#Arial-BoldMT-30"/>
       <use xlink:href="#Arial-BoldMT-2e" x="55.615234"/>
       <use xlink:href="#Arial-BoldMT-34" x="83.398438"/>
      </g>
     </g>
    </g>
    <g id="text_8">
     <!-- Pearson Correlation with Amount Radiation Absorbed -->
     <g style="fill: #262626" transform="translate(267.756797 415.349531) scale(0.13 -0.13)">
      <defs>
       <path id="Arial-BoldMT-50" d="M 466 0 
L 466 4581 
L 1950 4581 
Q 2794 4581 3050 4513 
Q 3444 4409 3709 4064 
Q 3975 3719 3975 3172 
Q 3975 2750 3822 2462 
Q 3669 2175 3433 2011 
Q 3197 1847 2953 1794 
Q 2622 1728 1994 1728 
L 1391 1728 
L 1391 0 
L 466 0 
z
M 1391 3806 
L 1391 2506 
L 1897 2506 
Q 2444 2506 2628 2578 
Q 2813 2650 2917 2803 
Q 3022 2956 3022 3159 
Q 3022 3409 2875 3571 
Q 2728 3734 2503 3775 
Q 2338 3806 1838 3806 
L 1391 3806 
z
" transform="scale(0.015625)"/>
       <path id="Arial-BoldMT-65" d="M 2381 1056 
L 3256 909 
Q 3088 428 2723 176 
Q 2359 -75 1813 -75 
Q 947 -75 531 491 
Q 203 944 203 1634 
Q 203 2459 634 2926 
Q 1066 3394 1725 3394 
Q 2466 3394 2894 2905 
Q 3322 2416 3303 1406 
L 1103 1406 
Q 1113 1016 1316 798 
Q 1519 581 1822 581 
Q 2028 581 2168 693 
Q 2309 806 2381 1056 
z
M 2431 1944 
Q 2422 2325 2234 2523 
Q 2047 2722 1778 2722 
Q 1491 2722 1303 2513 
Q 1116 2303 1119 1944 
L 2431 1944 
z
" transform="scale(0.015625)"/>
       <path id="Arial-BoldMT-61" d="M 1116 2306 
L 319 2450 
Q 453 2931 781 3162 
Q 1109 3394 1756 3394 
Q 2344 3394 2631 3255 
Q 2919 3116 3036 2902 
Q 3153 2688 3153 2116 
L 3144 1091 
Q 3144 653 3186 445 
Q 3228 238 3344 0 
L 2475 0 
Q 2441 88 2391 259 
Q 2369 338 2359 363 
Q 2134 144 1878 34 
Q 1622 -75 1331 -75 
Q 819 -75 523 203 
Q 228 481 228 906 
Q 228 1188 362 1408 
Q 497 1628 739 1745 
Q 981 1863 1438 1950 
Q 2053 2066 2291 2166 
L 2291 2253 
Q 2291 2506 2166 2614 
Q 2041 2722 1694 2722 
Q 1459 2722 1328 2630 
Q 1197 2538 1116 2306 
z
M 2291 1594 
Q 2122 1538 1756 1459 
Q 1391 1381 1278 1306 
Q 1106 1184 1106 997 
Q 1106 813 1243 678 
Q 1381 544 1594 544 
Q 1831 544 2047 700 
Q 2206 819 2256 991 
Q 2291 1103 2291 1419 
L 2291 1594 
z
" transform="scale(0.015625)"/>
       <path id="Arial-BoldMT-72" d="M 1300 0 
L 422 0 
L 422 3319 
L 1238 3319 
L 1238 2847 
Q 1447 3181 1614 3287 
Q 1781 3394 1994 3394 
Q 2294 3394 2572 3228 
L 2300 2463 
Q 2078 2606 1888 2606 
Q 1703 2606 1575 2504 
Q 1447 2403 1373 2137 
Q 1300 1872 1300 1025 
L 1300 0 
z
" transform="scale(0.015625)"/>
       <path id="Arial-BoldMT-73" d="M 150 947 
L 1031 1081 
Q 1088 825 1259 692 
Q 1431 559 1741 559 
Q 2081 559 2253 684 
Q 2369 772 2369 919 
Q 2369 1019 2306 1084 
Q 2241 1147 2013 1200 
Q 950 1434 666 1628 
Q 272 1897 272 2375 
Q 272 2806 612 3100 
Q 953 3394 1669 3394 
Q 2350 3394 2681 3172 
Q 3013 2950 3138 2516 
L 2309 2363 
Q 2256 2556 2107 2659 
Q 1959 2763 1684 2763 
Q 1338 2763 1188 2666 
Q 1088 2597 1088 2488 
Q 1088 2394 1175 2328 
Q 1294 2241 1995 2081 
Q 2697 1922 2975 1691 
Q 3250 1456 3250 1038 
Q 3250 581 2869 253 
Q 2488 -75 1741 -75 
Q 1063 -75 667 200 
Q 272 475 150 947 
z
" transform="scale(0.015625)"/>
       <path id="Arial-BoldMT-6f" d="M 256 1706 
Q 256 2144 472 2553 
Q 688 2963 1083 3178 
Q 1478 3394 1966 3394 
Q 2719 3394 3200 2905 
Q 3681 2416 3681 1669 
Q 3681 916 3195 420 
Q 2709 -75 1972 -75 
Q 1516 -75 1102 131 
Q 688 338 472 736 
Q 256 1134 256 1706 
z
M 1156 1659 
Q 1156 1166 1390 903 
Q 1625 641 1969 641 
Q 2313 641 2545 903 
Q 2778 1166 2778 1666 
Q 2778 2153 2545 2415 
Q 2313 2678 1969 2678 
Q 1625 2678 1390 2415 
Q 1156 2153 1156 1659 
z
" transform="scale(0.015625)"/>
       <path id="Arial-BoldMT-6e" d="M 3478 0 
L 2600 0 
L 2600 1694 
Q 2600 2231 2544 2389 
Q 2488 2547 2361 2634 
Q 2234 2722 2056 2722 
Q 1828 2722 1647 2597 
Q 1466 2472 1398 2265 
Q 1331 2059 1331 1503 
L 1331 0 
L 453 0 
L 453 3319 
L 1269 3319 
L 1269 2831 
Q 1703 3394 2363 3394 
Q 2653 3394 2893 3289 
Q 3134 3184 3257 3021 
Q 3381 2859 3429 2653 
Q 3478 2447 3478 2063 
L 3478 0 
z
" transform="scale(0.015625)"/>
       <path id="Arial-BoldMT-20" transform="scale(0.015625)"/>
       <path id="Arial-BoldMT-43" d="M 3397 1684 
L 4294 1400 
Q 4088 650 3608 286 
Q 3128 -78 2391 -78 
Q 1478 -78 890 545 
Q 303 1169 303 2250 
Q 303 3394 893 4026 
Q 1484 4659 2447 4659 
Q 3288 4659 3813 4163 
Q 4125 3869 4281 3319 
L 3366 3100 
Q 3284 3456 3026 3662 
Q 2769 3869 2400 3869 
Q 1891 3869 1573 3503 
Q 1256 3138 1256 2319 
Q 1256 1450 1568 1081 
Q 1881 713 2381 713 
Q 2750 713 3015 947 
Q 3281 1181 3397 1684 
z
" transform="scale(0.015625)"/>
       <path id="Arial-BoldMT-6c" d="M 459 0 
L 459 4581 
L 1338 4581 
L 1338 0 
L 459 0 
z
" transform="scale(0.015625)"/>
       <path id="Arial-BoldMT-74" d="M 1981 3319 
L 1981 2619 
L 1381 2619 
L 1381 1281 
Q 1381 875 1398 808 
Q 1416 741 1477 697 
Q 1538 653 1625 653 
Q 1747 653 1978 738 
L 2053 56 
Q 1747 -75 1359 -75 
Q 1122 -75 931 4 
Q 741 84 652 211 
Q 563 338 528 553 
Q 500 706 500 1172 
L 500 2619 
L 97 2619 
L 97 3319 
L 500 3319 
L 500 3978 
L 1381 4491 
L 1381 3319 
L 1981 3319 
z
" transform="scale(0.015625)"/>
       <path id="Arial-BoldMT-69" d="M 459 3769 
L 459 4581 
L 1338 4581 
L 1338 3769 
L 459 3769 
z
M 459 0 
L 459 3319 
L 1338 3319 
L 1338 0 
L 459 0 
z
" transform="scale(0.015625)"/>
       <path id="Arial-BoldMT-77" d="M 1078 0 
L 28 3319 
L 881 3319 
L 1503 1144 
L 2075 3319 
L 2922 3319 
L 3475 1144 
L 4109 3319 
L 4975 3319 
L 3909 0 
L 3066 0 
L 2494 2134 
L 1931 0 
L 1078 0 
z
" transform="scale(0.015625)"/>
       <path id="Arial-BoldMT-68" d="M 1334 4581 
L 1334 2897 
Q 1759 3394 2350 3394 
Q 2653 3394 2897 3281 
Q 3141 3169 3264 2994 
Q 3388 2819 3433 2606 
Q 3478 2394 3478 1947 
L 3478 0 
L 2600 0 
L 2600 1753 
Q 2600 2275 2550 2415 
Q 2500 2556 2373 2639 
Q 2247 2722 2056 2722 
Q 1838 2722 1666 2615 
Q 1494 2509 1414 2295 
Q 1334 2081 1334 1663 
L 1334 0 
L 456 0 
L 456 4581 
L 1334 4581 
z
" transform="scale(0.015625)"/>
       <path id="Arial-BoldMT-41" d="M 4597 0 
L 3591 0 
L 3191 1041 
L 1359 1041 
L 981 0 
L 0 0 
L 1784 4581 
L 2763 4581 
L 4597 0 
z
M 2894 1813 
L 2263 3513 
L 1644 1813 
L 2894 1813 
z
" transform="scale(0.015625)"/>
       <path id="Arial-BoldMT-6d" d="M 394 3319 
L 1203 3319 
L 1203 2866 
Q 1638 3394 2238 3394 
Q 2556 3394 2790 3262 
Q 3025 3131 3175 2866 
Q 3394 3131 3647 3262 
Q 3900 3394 4188 3394 
Q 4553 3394 4806 3245 
Q 5059 3097 5184 2809 
Q 5275 2597 5275 2122 
L 5275 0 
L 4397 0 
L 4397 1897 
Q 4397 2391 4306 2534 
Q 4184 2722 3931 2722 
Q 3747 2722 3584 2609 
Q 3422 2497 3350 2280 
Q 3278 2063 3278 1594 
L 3278 0 
L 2400 0 
L 2400 1819 
Q 2400 2303 2353 2443 
Q 2306 2584 2207 2653 
Q 2109 2722 1941 2722 
Q 1738 2722 1575 2612 
Q 1413 2503 1342 2297 
Q 1272 2091 1272 1613 
L 1272 0 
L 394 0 
L 394 3319 
z
" transform="scale(0.015625)"/>
       <path id="Arial-BoldMT-75" d="M 2644 0 
L 2644 497 
Q 2463 231 2167 78 
Q 1872 -75 1544 -75 
Q 1209 -75 943 72 
Q 678 219 559 484 
Q 441 750 441 1219 
L 441 3319 
L 1319 3319 
L 1319 1794 
Q 1319 1094 1367 936 
Q 1416 778 1544 686 
Q 1672 594 1869 594 
Q 2094 594 2272 717 
Q 2450 841 2515 1023 
Q 2581 1206 2581 1919 
L 2581 3319 
L 3459 3319 
L 3459 0 
L 2644 0 
z
" transform="scale(0.015625)"/>
       <path id="Arial-BoldMT-52" d="M 469 0 
L 469 4581 
L 2416 4581 
Q 3150 4581 3483 4457 
Q 3816 4334 4016 4018 
Q 4216 3703 4216 3297 
Q 4216 2781 3912 2445 
Q 3609 2109 3006 2022 
Q 3306 1847 3501 1637 
Q 3697 1428 4028 894 
L 4588 0 
L 3481 0 
L 2813 997 
Q 2456 1531 2325 1670 
Q 2194 1809 2047 1861 
Q 1900 1913 1581 1913 
L 1394 1913 
L 1394 0 
L 469 0 
z
M 1394 2644 
L 2078 2644 
Q 2744 2644 2909 2700 
Q 3075 2756 3169 2893 
Q 3263 3031 3263 3238 
Q 3263 3469 3139 3611 
Q 3016 3753 2791 3791 
Q 2678 3806 2116 3806 
L 1394 3806 
L 1394 2644 
z
" transform="scale(0.015625)"/>
       <path id="Arial-BoldMT-64" d="M 3503 0 
L 2688 0 
L 2688 488 
Q 2484 203 2207 64 
Q 1931 -75 1650 -75 
Q 1078 -75 670 386 
Q 263 847 263 1672 
Q 263 2516 659 2955 
Q 1056 3394 1663 3394 
Q 2219 3394 2625 2931 
L 2625 4581 
L 3503 4581 
L 3503 0 
z
M 1159 1731 
Q 1159 1200 1306 963 
Q 1519 619 1900 619 
Q 2203 619 2415 876 
Q 2628 1134 2628 1647 
Q 2628 2219 2422 2470 
Q 2216 2722 1894 2722 
Q 1581 2722 1370 2473 
Q 1159 2225 1159 1731 
z
" transform="scale(0.015625)"/>
       <path id="Arial-BoldMT-62" d="M 422 0 
L 422 4581 
L 1300 4581 
L 1300 2931 
Q 1706 3394 2263 3394 
Q 2869 3394 3266 2955 
Q 3663 2516 3663 1694 
Q 3663 844 3258 384 
Q 2853 -75 2275 -75 
Q 1991 -75 1714 67 
Q 1438 209 1238 488 
L 1238 0 
L 422 0 
z
M 1294 1731 
Q 1294 1216 1456 969 
Q 1684 619 2063 619 
Q 2353 619 2558 867 
Q 2763 1116 2763 1650 
Q 2763 2219 2556 2470 
Q 2350 2722 2028 2722 
Q 1713 2722 1503 2476 
Q 1294 2231 1294 1731 
z
" transform="scale(0.015625)"/>
      </defs>
      <use xlink:href="#Arial-BoldMT-50"/>
      <use xlink:href="#Arial-BoldMT-65" x="66.699219"/>
      <use xlink:href="#Arial-BoldMT-61" x="122.314453"/>
      <use xlink:href="#Arial-BoldMT-72" x="177.929688"/>
      <use xlink:href="#Arial-BoldMT-73" x="216.845703"/>
      <use xlink:href="#Arial-BoldMT-6f" x="272.460938"/>
      <use xlink:href="#Arial-BoldMT-6e" x="333.544922"/>
      <use xlink:href="#Arial-BoldMT-20" x="394.628906"/>
      <use xlink:href="#Arial-BoldMT-43" x="422.412109"/>
      <use xlink:href="#Arial-BoldMT-6f" x="494.628906"/>
      <use xlink:href="#Arial-BoldMT-72" x="555.712891"/>
      <use xlink:href="#Arial-BoldMT-72" x="594.628906"/>
      <use xlink:href="#Arial-BoldMT-65" x="633.544922"/>
      <use xlink:href="#Arial-BoldMT-6c" x="689.160156"/>
      <use xlink:href="#Arial-BoldMT-61" x="716.943359"/>
      <use xlink:href="#Arial-BoldMT-74" x="772.558594"/>
      <use xlink:href="#Arial-BoldMT-69" x="805.859375"/>
      <use xlink:href="#Arial-BoldMT-6f" x="833.642578"/>
      <use xlink:href="#Arial-BoldMT-6e" x="894.726562"/>
      <use xlink:href="#Arial-BoldMT-20" x="955.810547"/>
      <use xlink:href="#Arial-BoldMT-77" x="983.59375"/>
      <use xlink:href="#Arial-BoldMT-69" x="1061.376953"/>
      <use xlink:href="#Arial-BoldMT-74" x="1089.160156"/>
      <use xlink:href="#Arial-BoldMT-68" x="1122.460938"/>
      <use xlink:href="#Arial-BoldMT-20" x="1183.544922"/>
      <use xlink:href="#Arial-BoldMT-41" x="1207.578125"/>
      <use xlink:href="#Arial-BoldMT-6d" x="1279.794922"/>
      <use xlink:href="#Arial-BoldMT-6f" x="1368.710938"/>
      <use xlink:href="#Arial-BoldMT-75" x="1429.794922"/>
      <use xlink:href="#Arial-BoldMT-6e" x="1490.878906"/>
      <use xlink:href="#Arial-BoldMT-74" x="1551.962891"/>
      <use xlink:href="#Arial-BoldMT-20" x="1585.263672"/>
      <use xlink:href="#Arial-BoldMT-52" x="1613.046875"/>
      <use xlink:href="#Arial-BoldMT-61" x="1685.263672"/>
      <use xlink:href="#Arial-BoldMT-64" x="1740.878906"/>
      <use xlink:href="#Arial-BoldMT-69" x="1801.962891"/>
      <use xlink:href="#Arial-BoldMT-61" x="1829.746094"/>
      <use xlink:href="#Arial-BoldMT-74" x="1885.361328"/>
      <use xlink:href="#Arial-BoldMT-69" x="1918.662109"/>
      <use xlink:href="#Arial-BoldMT-6f" x="1946.445312"/>
      <use xlink:href="#Arial-BoldMT-6e" x="2007.529297"/>
      <use xlink:href="#Arial-BoldMT-20" x="2068.613281"/>
      <use xlink:href="#Arial-BoldMT-41" x="2092.646484"/>
      <use xlink:href="#Arial-BoldMT-62" x="2164.863281"/>
      <use xlink:href="#Arial-BoldMT-73" x="2225.947266"/>
      <use xlink:href="#Arial-BoldMT-6f" x="2281.5625"/>
      <use xlink:href="#Arial-BoldMT-72" x="2342.646484"/>
      <use xlink:href="#Arial-BoldMT-62" x="2381.5625"/>
      <use xlink:href="#Arial-BoldMT-65" x="2442.646484"/>
      <use xlink:href="#Arial-BoldMT-64" x="2498.261719"/>
     </g>
    </g>
   </g>
   <g id="matplotlib.axis_2">
    <g id="ytick_1">
     <g id="text_9">
      <!-- HIF1a -->
      <g style="fill: #262626" transform="translate(124.217344 42.370192) scale(0.11 -0.11)">
       <defs>
        <path id="Arial-BoldMT-48" d="M 469 0 
L 469 4581 
L 1394 4581 
L 1394 2778 
L 3206 2778 
L 3206 4581 
L 4131 4581 
L 4131 0 
L 3206 0 
L 3206 2003 
L 1394 2003 
L 1394 0 
L 469 0 
z
" transform="scale(0.015625)"/>
        <path id="Arial-BoldMT-49" d="M 438 0 
L 438 4581 
L 1363 4581 
L 1363 0 
L 438 0 
z
" transform="scale(0.015625)"/>
        <path id="Arial-BoldMT-46" d="M 472 0 
L 472 4581 
L 3613 4581 
L 3613 3806 
L 1397 3806 
L 1397 2722 
L 3309 2722 
L 3309 1947 
L 1397 1947 
L 1397 0 
L 472 0 
z
" transform="scale(0.015625)"/>
       </defs>
       <use xlink:href="#Arial-BoldMT-48"/>
       <use xlink:href="#Arial-BoldMT-49" x="72.216797"/>
       <use xlink:href="#Arial-BoldMT-46" x="100"/>
       <use xlink:href="#Arial-BoldMT-31" x="161.083984"/>
       <use xlink:href="#Arial-BoldMT-61" x="216.699219"/>
      </g>
     </g>
    </g>
    <g id="ytick_2">
     <g id="text_10">
      <!-- Metabolism -->
      <g style="fill: #262626" transform="translate(93.663125 63.776406) scale(0.11 -0.11)">
       <defs>
        <path id="Arial-BoldMT-4d" d="M 453 0 
L 453 4581 
L 1838 4581 
L 2669 1456 
L 3491 4581 
L 4878 4581 
L 4878 0 
L 4019 0 
L 4019 3606 
L 3109 0 
L 2219 0 
L 1313 3606 
L 1313 0 
L 453 0 
z
" transform="scale(0.015625)"/>
       </defs>
       <use xlink:href="#Arial-BoldMT-4d"/>
       <use xlink:href="#Arial-BoldMT-65" x="83.300781"/>
       <use xlink:href="#Arial-BoldMT-74" x="138.916016"/>
       <use xlink:href="#Arial-BoldMT-61" x="172.216797"/>
       <use xlink:href="#Arial-BoldMT-62" x="227.832031"/>
       <use xlink:href="#Arial-BoldMT-6f" x="288.916016"/>
       <use xlink:href="#Arial-BoldMT-6c" x="350"/>
       <use xlink:href="#Arial-BoldMT-69" x="377.783203"/>
       <use xlink:href="#Arial-BoldMT-73" x="405.566406"/>
       <use xlink:href="#Arial-BoldMT-6d" x="461.181641"/>
      </g>
     </g>
    </g>
    <g id="ytick_3">
     <g id="text_11">
      <!-- Fatty_Acid_Synthesis -->
      <g style="fill: #262626" transform="translate(39.861094 85.249651) scale(0.11 -0.11)">
       <defs>
        <path id="Arial-BoldMT-79" d="M 44 3319 
L 978 3319 
L 1772 963 
L 2547 3319 
L 3456 3319 
L 2284 125 
L 2075 -453 
Q 1959 -744 1854 -897 
Q 1750 -1050 1614 -1145 
Q 1478 -1241 1279 -1294 
Q 1081 -1347 831 -1347 
Q 578 -1347 334 -1294 
L 256 -606 
Q 463 -647 628 -647 
Q 934 -647 1081 -467 
Q 1228 -288 1306 -9 
L 44 3319 
z
" transform="scale(0.015625)"/>
        <path id="Arial-BoldMT-5f" d="M -59 -1266 
L -59 -697 
L 3591 -697 
L 3591 -1266 
L -59 -1266 
z
" transform="scale(0.015625)"/>
        <path id="Arial-BoldMT-63" d="M 3353 2338 
L 2488 2181 
Q 2444 2441 2289 2572 
Q 2134 2703 1888 2703 
Q 1559 2703 1364 2476 
Q 1169 2250 1169 1719 
Q 1169 1128 1367 884 
Q 1566 641 1900 641 
Q 2150 641 2309 783 
Q 2469 925 2534 1272 
L 3397 1125 
Q 3263 531 2881 228 
Q 2500 -75 1859 -75 
Q 1131 -75 698 384 
Q 266 844 266 1656 
Q 266 2478 700 2936 
Q 1134 3394 1875 3394 
Q 2481 3394 2839 3133 
Q 3197 2872 3353 2338 
z
" transform="scale(0.015625)"/>
        <path id="Arial-BoldMT-53" d="M 231 1491 
L 1131 1578 
Q 1213 1125 1461 912 
Q 1709 700 2131 700 
Q 2578 700 2804 889 
Q 3031 1078 3031 1331 
Q 3031 1494 2936 1608 
Q 2841 1722 2603 1806 
Q 2441 1863 1863 2006 
Q 1119 2191 819 2459 
Q 397 2838 397 3381 
Q 397 3731 595 4036 
Q 794 4341 1167 4500 
Q 1541 4659 2069 4659 
Q 2931 4659 3367 4281 
Q 3803 3903 3825 3272 
L 2900 3231 
Q 2841 3584 2645 3739 
Q 2450 3894 2059 3894 
Q 1656 3894 1428 3728 
Q 1281 3622 1281 3444 
Q 1281 3281 1419 3166 
Q 1594 3019 2269 2859 
Q 2944 2700 3267 2529 
Q 3591 2359 3773 2064 
Q 3956 1769 3956 1334 
Q 3956 941 3737 597 
Q 3519 253 3119 86 
Q 2719 -81 2122 -81 
Q 1253 -81 787 320 
Q 322 722 231 1491 
z
" transform="scale(0.015625)"/>
       </defs>
       <use xlink:href="#Arial-BoldMT-46"/>
       <use xlink:href="#Arial-BoldMT-61" x="61.083984"/>
       <use xlink:href="#Arial-BoldMT-74" x="116.699219"/>
       <use xlink:href="#Arial-BoldMT-74" x="150"/>
       <use xlink:href="#Arial-BoldMT-79" x="183.300781"/>
       <use xlink:href="#Arial-BoldMT-5f" x="238.916016"/>
       <use xlink:href="#Arial-BoldMT-41" x="294.53125"/>
       <use xlink:href="#Arial-BoldMT-63" x="366.748047"/>
       <use xlink:href="#Arial-BoldMT-69" x="422.363281"/>
       <use xlink:href="#Arial-BoldMT-64" x="450.146484"/>
       <use xlink:href="#Arial-BoldMT-5f" x="511.230469"/>
       <use xlink:href="#Arial-BoldMT-53" x="566.845703"/>
       <use xlink:href="#Arial-BoldMT-79" x="633.544922"/>
       <use xlink:href="#Arial-BoldMT-6e" x="689.160156"/>
       <use xlink:href="#Arial-BoldMT-74" x="750.244141"/>
       <use xlink:href="#Arial-BoldMT-68" x="783.544922"/>
       <use xlink:href="#Arial-BoldMT-65" x="844.628906"/>
       <use xlink:href="#Arial-BoldMT-73" x="900.244141"/>
       <use xlink:href="#Arial-BoldMT-69" x="955.859375"/>
       <use xlink:href="#Arial-BoldMT-73" x="983.642578"/>
      </g>
     </g>
    </g>
    <g id="ytick_4">
     <g id="text_12">
      <!-- Folate_Single_Carbon -->
      <g style="fill: #262626" transform="translate(38.044375 106.655865) scale(0.11 -0.11)">
       <defs>
        <path id="Arial-BoldMT-67" d="M 378 -219 
L 1381 -341 
Q 1406 -516 1497 -581 
Q 1622 -675 1891 -675 
Q 2234 -675 2406 -572 
Q 2522 -503 2581 -350 
Q 2622 -241 2622 53 
L 2622 538 
Q 2228 0 1628 0 
Q 959 0 569 566 
Q 263 1013 263 1678 
Q 263 2513 664 2953 
Q 1066 3394 1663 3394 
Q 2278 3394 2678 2853 
L 2678 3319 
L 3500 3319 
L 3500 341 
Q 3500 -247 3403 -537 
Q 3306 -828 3131 -993 
Q 2956 -1159 2664 -1253 
Q 2372 -1347 1925 -1347 
Q 1081 -1347 728 -1058 
Q 375 -769 375 -325 
Q 375 -281 378 -219 
z
M 1163 1728 
Q 1163 1200 1367 954 
Q 1572 709 1872 709 
Q 2194 709 2416 961 
Q 2638 1213 2638 1706 
Q 2638 2222 2425 2472 
Q 2213 2722 1888 2722 
Q 1572 2722 1367 2476 
Q 1163 2231 1163 1728 
z
" transform="scale(0.015625)"/>
       </defs>
       <use xlink:href="#Arial-BoldMT-46"/>
       <use xlink:href="#Arial-BoldMT-6f" x="61.083984"/>
       <use xlink:href="#Arial-BoldMT-6c" x="122.167969"/>
       <use xlink:href="#Arial-BoldMT-61" x="149.951172"/>
       <use xlink:href="#Arial-BoldMT-74" x="205.566406"/>
       <use xlink:href="#Arial-BoldMT-65" x="238.867188"/>
       <use xlink:href="#Arial-BoldMT-5f" x="294.482422"/>
       <use xlink:href="#Arial-BoldMT-53" x="350.097656"/>
       <use xlink:href="#Arial-BoldMT-69" x="416.796875"/>
       <use xlink:href="#Arial-BoldMT-6e" x="444.580078"/>
       <use xlink:href="#Arial-BoldMT-67" x="505.664062"/>
       <use xlink:href="#Arial-BoldMT-6c" x="566.748047"/>
       <use xlink:href="#Arial-BoldMT-65" x="594.53125"/>
       <use xlink:href="#Arial-BoldMT-5f" x="650.146484"/>
       <use xlink:href="#Arial-BoldMT-43" x="705.761719"/>
       <use xlink:href="#Arial-BoldMT-61" x="777.978516"/>
       <use xlink:href="#Arial-BoldMT-72" x="833.59375"/>
       <use xlink:href="#Arial-BoldMT-62" x="872.509766"/>
       <use xlink:href="#Arial-BoldMT-6f" x="933.59375"/>
       <use xlink:href="#Arial-BoldMT-6e" x="994.677734"/>
      </g>
     </g>
    </g>
    <g id="ytick_5">
     <g id="text_13">
      <!-- HIF1a_mTOR -->
      <g style="fill: #262626" transform="translate(85.292813 128.062079) scale(0.11 -0.11)">
       <defs>
        <path id="Arial-BoldMT-54" d="M 1497 0 
L 1497 3806 
L 138 3806 
L 138 4581 
L 3778 4581 
L 3778 3806 
L 2422 3806 
L 2422 0 
L 1497 0 
z
" transform="scale(0.015625)"/>
        <path id="Arial-BoldMT-4f" d="M 278 2263 
Q 278 2963 488 3438 
Q 644 3788 914 4066 
Q 1184 4344 1506 4478 
Q 1934 4659 2494 4659 
Q 3506 4659 4114 4031 
Q 4722 3403 4722 2284 
Q 4722 1175 4119 548 
Q 3516 -78 2506 -78 
Q 1484 -78 881 545 
Q 278 1169 278 2263 
z
M 1231 2294 
Q 1231 1516 1590 1114 
Q 1950 713 2503 713 
Q 3056 713 3411 1111 
Q 3766 1509 3766 2306 
Q 3766 3094 3420 3481 
Q 3075 3869 2503 3869 
Q 1931 3869 1581 3476 
Q 1231 3084 1231 2294 
z
" transform="scale(0.015625)"/>
       </defs>
       <use xlink:href="#Arial-BoldMT-48"/>
       <use xlink:href="#Arial-BoldMT-49" x="72.216797"/>
       <use xlink:href="#Arial-BoldMT-46" x="100"/>
       <use xlink:href="#Arial-BoldMT-31" x="161.083984"/>
       <use xlink:href="#Arial-BoldMT-61" x="216.699219"/>
       <use xlink:href="#Arial-BoldMT-5f" x="272.314453"/>
       <use xlink:href="#Arial-BoldMT-6d" x="327.929688"/>
       <use xlink:href="#Arial-BoldMT-54" x="416.845703"/>
       <use xlink:href="#Arial-BoldMT-4f" x="476.179688"/>
       <use xlink:href="#Arial-BoldMT-52" x="553.962891"/>
      </g>
     </g>
    </g>
    <g id="ytick_6">
     <g id="text_14">
      <!-- Gluconeogenesis -->
      <g style="fill: #262626" transform="translate(62.488438 149.468293) scale(0.11 -0.11)">
       <defs>
        <path id="Arial-BoldMT-47" d="M 2597 1684 
L 2597 2456 
L 4591 2456 
L 4591 631 
Q 4300 350 3748 136 
Q 3197 -78 2631 -78 
Q 1913 -78 1378 223 
Q 844 525 575 1086 
Q 306 1647 306 2306 
Q 306 3022 606 3578 
Q 906 4134 1484 4431 
Q 1925 4659 2581 4659 
Q 3434 4659 3914 4301 
Q 4394 3944 4531 3313 
L 3613 3141 
Q 3516 3478 3248 3673 
Q 2981 3869 2581 3869 
Q 1975 3869 1617 3484 
Q 1259 3100 1259 2344 
Q 1259 1528 1621 1120 
Q 1984 713 2572 713 
Q 2863 713 3155 827 
Q 3447 941 3656 1103 
L 3656 1684 
L 2597 1684 
z
" transform="scale(0.015625)"/>
       </defs>
       <use xlink:href="#Arial-BoldMT-47"/>
       <use xlink:href="#Arial-BoldMT-6c" x="77.783203"/>
       <use xlink:href="#Arial-BoldMT-75" x="105.566406"/>
       <use xlink:href="#Arial-BoldMT-63" x="166.650391"/>
       <use xlink:href="#Arial-BoldMT-6f" x="222.265625"/>
       <use xlink:href="#Arial-BoldMT-6e" x="283.349609"/>
       <use xlink:href="#Arial-BoldMT-65" x="344.433594"/>
       <use xlink:href="#Arial-BoldMT-6f" x="400.048828"/>
       <use xlink:href="#Arial-BoldMT-67" x="461.132812"/>
       <use xlink:href="#Arial-BoldMT-65" x="522.216797"/>
       <use xlink:href="#Arial-BoldMT-6e" x="577.832031"/>
       <use xlink:href="#Arial-BoldMT-65" x="638.916016"/>
       <use xlink:href="#Arial-BoldMT-73" x="694.53125"/>
       <use xlink:href="#Arial-BoldMT-69" x="750.146484"/>
       <use xlink:href="#Arial-BoldMT-73" x="777.929688"/>
      </g>
     </g>
    </g>
    <g id="ytick_7">
     <g id="text_15">
      <!-- Nucleotide_Synthesis -->
      <g style="fill: #262626" transform="translate(39.86625 170.874507) scale(0.11 -0.11)">
       <defs>
        <path id="Arial-BoldMT-4e" d="M 475 0 
L 475 4581 
L 1375 4581 
L 3250 1522 
L 3250 4581 
L 4109 4581 
L 4109 0 
L 3181 0 
L 1334 2988 
L 1334 0 
L 475 0 
z
" transform="scale(0.015625)"/>
       </defs>
       <use xlink:href="#Arial-BoldMT-4e"/>
       <use xlink:href="#Arial-BoldMT-75" x="72.216797"/>
       <use xlink:href="#Arial-BoldMT-63" x="133.300781"/>
       <use xlink:href="#Arial-BoldMT-6c" x="188.916016"/>
       <use xlink:href="#Arial-BoldMT-65" x="216.699219"/>
       <use xlink:href="#Arial-BoldMT-6f" x="272.314453"/>
       <use xlink:href="#Arial-BoldMT-74" x="333.398438"/>
       <use xlink:href="#Arial-BoldMT-69" x="366.699219"/>
       <use xlink:href="#Arial-BoldMT-64" x="394.482422"/>
       <use xlink:href="#Arial-BoldMT-65" x="455.566406"/>
       <use xlink:href="#Arial-BoldMT-5f" x="511.181641"/>
       <use xlink:href="#Arial-BoldMT-53" x="566.796875"/>
       <use xlink:href="#Arial-BoldMT-79" x="633.496094"/>
       <use xlink:href="#Arial-BoldMT-6e" x="689.111328"/>
       <use xlink:href="#Arial-BoldMT-74" x="750.195312"/>
       <use xlink:href="#Arial-BoldMT-68" x="783.496094"/>
       <use xlink:href="#Arial-BoldMT-65" x="844.580078"/>
       <use xlink:href="#Arial-BoldMT-73" x="900.195312"/>
       <use xlink:href="#Arial-BoldMT-69" x="955.810547"/>
       <use xlink:href="#Arial-BoldMT-73" x="983.59375"/>
      </g>
     </g>
    </g>
    <g id="ytick_8">
     <g id="text_16">
      <!-- Urea_Cycle -->
      <g style="fill: #262626" transform="translate(94.242344 192.280721) scale(0.11 -0.11)">
       <defs>
        <path id="Arial-BoldMT-55" d="M 459 4581 
L 1384 4581 
L 1384 2100 
Q 1384 1509 1419 1334 
Q 1478 1053 1701 883 
Q 1925 713 2313 713 
Q 2706 713 2906 873 
Q 3106 1034 3147 1268 
Q 3188 1503 3188 2047 
L 3188 4581 
L 4113 4581 
L 4113 2175 
Q 4113 1350 4038 1009 
Q 3963 669 3761 434 
Q 3559 200 3221 61 
Q 2884 -78 2341 -78 
Q 1684 -78 1345 73 
Q 1006 225 809 467 
Q 613 709 550 975 
Q 459 1369 459 2138 
L 459 4581 
z
" transform="scale(0.015625)"/>
       </defs>
       <use xlink:href="#Arial-BoldMT-55"/>
       <use xlink:href="#Arial-BoldMT-72" x="72.216797"/>
       <use xlink:href="#Arial-BoldMT-65" x="111.132812"/>
       <use xlink:href="#Arial-BoldMT-61" x="166.748047"/>
       <use xlink:href="#Arial-BoldMT-5f" x="222.363281"/>
       <use xlink:href="#Arial-BoldMT-43" x="277.978516"/>
       <use xlink:href="#Arial-BoldMT-79" x="350.195312"/>
       <use xlink:href="#Arial-BoldMT-63" x="405.810547"/>
       <use xlink:href="#Arial-BoldMT-6c" x="461.425781"/>
       <use xlink:href="#Arial-BoldMT-65" x="489.208984"/>
      </g>
     </g>
    </g>
    <g id="ytick_9">
     <g id="text_17">
      <!-- Fatty_Acid_Oxidation -->
      <g style="fill: #262626" transform="translate(41.102031 213.686935) scale(0.11 -0.11)">
       <defs>
        <path id="Arial-BoldMT-78" d="M 38 0 
L 1234 1709 
L 88 3319 
L 1159 3319 
L 1747 2406 
L 2366 3319 
L 3397 3319 
L 2272 1747 
L 3500 0 
L 2422 0 
L 1747 1028 
L 1066 0 
L 38 0 
z
" transform="scale(0.015625)"/>
       </defs>
       <use xlink:href="#Arial-BoldMT-46"/>
       <use xlink:href="#Arial-BoldMT-61" x="61.083984"/>
       <use xlink:href="#Arial-BoldMT-74" x="116.699219"/>
       <use xlink:href="#Arial-BoldMT-74" x="150"/>
       <use xlink:href="#Arial-BoldMT-79" x="183.300781"/>
       <use xlink:href="#Arial-BoldMT-5f" x="238.916016"/>
       <use xlink:href="#Arial-BoldMT-41" x="294.53125"/>
       <use xlink:href="#Arial-BoldMT-63" x="366.748047"/>
       <use xlink:href="#Arial-BoldMT-69" x="422.363281"/>
       <use xlink:href="#Arial-BoldMT-64" x="450.146484"/>
       <use xlink:href="#Arial-BoldMT-5f" x="511.230469"/>
       <use xlink:href="#Arial-BoldMT-4f" x="566.845703"/>
       <use xlink:href="#Arial-BoldMT-78" x="644.628906"/>
       <use xlink:href="#Arial-BoldMT-69" x="700.244141"/>
       <use xlink:href="#Arial-BoldMT-64" x="728.027344"/>
       <use xlink:href="#Arial-BoldMT-61" x="789.111328"/>
       <use xlink:href="#Arial-BoldMT-74" x="844.726562"/>
       <use xlink:href="#Arial-BoldMT-69" x="878.027344"/>
       <use xlink:href="#Arial-BoldMT-6f" x="905.810547"/>
       <use xlink:href="#Arial-BoldMT-6e" x="966.894531"/>
      </g>
     </g>
    </g>
    <g id="ytick_10">
     <g id="text_18">
      <!-- Glycolysis -->
      <g style="fill: #262626" transform="translate(99.1425 235.093149) scale(0.11 -0.11)">
       <use xlink:href="#Arial-BoldMT-47"/>
       <use xlink:href="#Arial-BoldMT-6c" x="77.783203"/>
       <use xlink:href="#Arial-BoldMT-79" x="105.566406"/>
       <use xlink:href="#Arial-BoldMT-63" x="161.181641"/>
       <use xlink:href="#Arial-BoldMT-6f" x="216.796875"/>
       <use xlink:href="#Arial-BoldMT-6c" x="277.880859"/>
       <use xlink:href="#Arial-BoldMT-79" x="305.664062"/>
       <use xlink:href="#Arial-BoldMT-73" x="361.279297"/>
       <use xlink:href="#Arial-BoldMT-69" x="416.894531"/>
       <use xlink:href="#Arial-BoldMT-73" x="444.677734"/>
      </g>
     </g>
    </g>
    <g id="ytick_11">
     <g id="text_19">
      <!-- Antioxidant_Defenses -->
      <g style="fill: #262626" transform="translate(38.652813 256.499363) scale(0.11 -0.11)">
       <defs>
        <path id="Arial-BoldMT-44" d="M 463 4581 
L 2153 4581 
Q 2725 4581 3025 4494 
Q 3428 4375 3715 4072 
Q 4003 3769 4153 3330 
Q 4303 2891 4303 2247 
Q 4303 1681 4163 1272 
Q 3991 772 3672 463 
Q 3431 228 3022 97 
Q 2716 0 2203 0 
L 463 0 
L 463 4581 
z
M 1388 3806 
L 1388 772 
L 2078 772 
Q 2466 772 2638 816 
Q 2863 872 3011 1006 
Q 3159 1141 3253 1448 
Q 3347 1756 3347 2288 
Q 3347 2819 3253 3103 
Q 3159 3388 2990 3547 
Q 2822 3706 2563 3763 
Q 2369 3806 1803 3806 
L 1388 3806 
z
" transform="scale(0.015625)"/>
        <path id="Arial-BoldMT-66" d="M 75 3319 
L 563 3319 
L 563 3569 
Q 563 3988 652 4194 
Q 741 4400 980 4529 
Q 1219 4659 1584 4659 
Q 1959 4659 2319 4547 
L 2200 3934 
Q 1991 3984 1797 3984 
Q 1606 3984 1523 3895 
Q 1441 3806 1441 3553 
L 1441 3319 
L 2097 3319 
L 2097 2628 
L 1441 2628 
L 1441 0 
L 563 0 
L 563 2628 
L 75 2628 
L 75 3319 
z
" transform="scale(0.015625)"/>
       </defs>
       <use xlink:href="#Arial-BoldMT-41"/>
       <use xlink:href="#Arial-BoldMT-6e" x="72.216797"/>
       <use xlink:href="#Arial-BoldMT-74" x="133.300781"/>
       <use xlink:href="#Arial-BoldMT-69" x="166.601562"/>
       <use xlink:href="#Arial-BoldMT-6f" x="194.384766"/>
       <use xlink:href="#Arial-BoldMT-78" x="255.46875"/>
       <use xlink:href="#Arial-BoldMT-69" x="311.083984"/>
       <use xlink:href="#Arial-BoldMT-64" x="338.867188"/>
       <use xlink:href="#Arial-BoldMT-61" x="399.951172"/>
       <use xlink:href="#Arial-BoldMT-6e" x="455.566406"/>
       <use xlink:href="#Arial-BoldMT-74" x="516.650391"/>
       <use xlink:href="#Arial-BoldMT-5f" x="549.951172"/>
       <use xlink:href="#Arial-BoldMT-44" x="605.566406"/>
       <use xlink:href="#Arial-BoldMT-65" x="677.783203"/>
       <use xlink:href="#Arial-BoldMT-66" x="733.398438"/>
       <use xlink:href="#Arial-BoldMT-65" x="766.699219"/>
       <use xlink:href="#Arial-BoldMT-6e" x="822.314453"/>
       <use xlink:href="#Arial-BoldMT-73" x="883.398438"/>
       <use xlink:href="#Arial-BoldMT-65" x="939.013672"/>
       <use xlink:href="#Arial-BoldMT-73" x="994.628906"/>
      </g>
     </g>
    </g>
    <g id="ytick_12">
     <g id="text_20">
      <!-- ATP_NAD_Carriers -->
      <g style="fill: #262626" transform="translate(54.719688 277.905577) scale(0.11 -0.11)">
       <use xlink:href="#Arial-BoldMT-41"/>
       <use xlink:href="#Arial-BoldMT-54" x="64.841797"/>
       <use xlink:href="#Arial-BoldMT-50" x="125.925781"/>
       <use xlink:href="#Arial-BoldMT-5f" x="192.625"/>
       <use xlink:href="#Arial-BoldMT-4e" x="248.240234"/>
       <use xlink:href="#Arial-BoldMT-41" x="320.457031"/>
       <use xlink:href="#Arial-BoldMT-44" x="392.673828"/>
       <use xlink:href="#Arial-BoldMT-5f" x="464.890625"/>
       <use xlink:href="#Arial-BoldMT-43" x="520.505859"/>
       <use xlink:href="#Arial-BoldMT-61" x="592.722656"/>
       <use xlink:href="#Arial-BoldMT-72" x="648.337891"/>
       <use xlink:href="#Arial-BoldMT-72" x="687.253906"/>
       <use xlink:href="#Arial-BoldMT-69" x="726.169922"/>
       <use xlink:href="#Arial-BoldMT-65" x="753.953125"/>
       <use xlink:href="#Arial-BoldMT-72" x="809.568359"/>
       <use xlink:href="#Arial-BoldMT-73" x="848.484375"/>
      </g>
     </g>
    </g>
    <g id="ytick_13">
     <g id="text_21">
      <!-- mTOR -->
      <g style="fill: #262626" transform="translate(121.3625 299.24476) scale(0.11 -0.11)">
       <use xlink:href="#Arial-BoldMT-6d"/>
       <use xlink:href="#Arial-BoldMT-54" x="88.916016"/>
       <use xlink:href="#Arial-BoldMT-4f" x="148.25"/>
       <use xlink:href="#Arial-BoldMT-52" x="226.033203"/>
      </g>
     </g>
    </g>
    <g id="ytick_14">
     <g id="text_22">
      <!-- Pentose_Phosphate_Cycle -->
      <g style="fill: #262626" transform="translate(13.571094 320.718005) scale(0.11 -0.11)">
       <defs>
        <path id="Arial-BoldMT-70" d="M 434 3319 
L 1253 3319 
L 1253 2831 
Q 1413 3081 1684 3237 
Q 1956 3394 2288 3394 
Q 2866 3394 3269 2941 
Q 3672 2488 3672 1678 
Q 3672 847 3265 386 
Q 2859 -75 2281 -75 
Q 2006 -75 1782 34 
Q 1559 144 1313 409 
L 1313 -1263 
L 434 -1263 
L 434 3319 
z
M 1303 1716 
Q 1303 1156 1525 889 
Q 1747 622 2066 622 
Q 2372 622 2575 867 
Q 2778 1113 2778 1672 
Q 2778 2194 2568 2447 
Q 2359 2700 2050 2700 
Q 1728 2700 1515 2451 
Q 1303 2203 1303 1716 
z
" transform="scale(0.015625)"/>
       </defs>
       <use xlink:href="#Arial-BoldMT-50"/>
       <use xlink:href="#Arial-BoldMT-65" x="66.699219"/>
       <use xlink:href="#Arial-BoldMT-6e" x="122.314453"/>
       <use xlink:href="#Arial-BoldMT-74" x="183.398438"/>
       <use xlink:href="#Arial-BoldMT-6f" x="216.699219"/>
       <use xlink:href="#Arial-BoldMT-73" x="277.783203"/>
       <use xlink:href="#Arial-BoldMT-65" x="333.398438"/>
       <use xlink:href="#Arial-BoldMT-5f" x="389.013672"/>
       <use xlink:href="#Arial-BoldMT-50" x="444.628906"/>
       <use xlink:href="#Arial-BoldMT-68" x="511.328125"/>
       <use xlink:href="#Arial-BoldMT-6f" x="572.412109"/>
       <use xlink:href="#Arial-BoldMT-73" x="633.496094"/>
       <use xlink:href="#Arial-BoldMT-70" x="689.111328"/>
       <use xlink:href="#Arial-BoldMT-68" x="750.195312"/>
       <use xlink:href="#Arial-BoldMT-61" x="811.279297"/>
       <use xlink:href="#Arial-BoldMT-74" x="866.894531"/>
       <use xlink:href="#Arial-BoldMT-65" x="900.195312"/>
       <use xlink:href="#Arial-BoldMT-5f" x="955.810547"/>
       <use xlink:href="#Arial-BoldMT-43" x="1011.425781"/>
       <use xlink:href="#Arial-BoldMT-79" x="1083.642578"/>
       <use xlink:href="#Arial-BoldMT-63" x="1139.257812"/>
       <use xlink:href="#Arial-BoldMT-6c" x="1194.873047"/>
       <use xlink:href="#Arial-BoldMT-65" x="1222.65625"/>
      </g>
     </g>
    </g>
    <g id="ytick_15">
     <g id="text_23">
      <!-- TCA_Cycle -->
      <g style="fill: #262626" transform="translate(96.095156 342.124219) scale(0.11 -0.11)">
       <use xlink:href="#Arial-BoldMT-54"/>
       <use xlink:href="#Arial-BoldMT-43" x="61.083984"/>
       <use xlink:href="#Arial-BoldMT-41" x="133.300781"/>
       <use xlink:href="#Arial-BoldMT-5f" x="205.517578"/>
       <use xlink:href="#Arial-BoldMT-43" x="261.132812"/>
       <use xlink:href="#Arial-BoldMT-79" x="333.349609"/>
       <use xlink:href="#Arial-BoldMT-63" x="388.964844"/>
       <use xlink:href="#Arial-BoldMT-6c" x="444.580078"/>
       <use xlink:href="#Arial-BoldMT-65" x="472.363281"/>
      </g>
     </g>
    </g>
    <g id="ytick_16">
     <g id="text_24">
      <!-- Peroxisome -->
      <g style="fill: #262626" transform="translate(91.808594 363.463402) scale(0.11 -0.11)">
       <use xlink:href="#Arial-BoldMT-50"/>
       <use xlink:href="#Arial-BoldMT-65" x="66.699219"/>
       <use xlink:href="#Arial-BoldMT-72" x="122.314453"/>
       <use xlink:href="#Arial-BoldMT-6f" x="161.230469"/>
       <use xlink:href="#Arial-BoldMT-78" x="222.314453"/>
       <use xlink:href="#Arial-BoldMT-69" x="277.929688"/>
       <use xlink:href="#Arial-BoldMT-73" x="305.712891"/>
       <use xlink:href="#Arial-BoldMT-6f" x="361.328125"/>
       <use xlink:href="#Arial-BoldMT-6d" x="422.412109"/>
       <use xlink:href="#Arial-BoldMT-65" x="511.328125"/>
      </g>
     </g>
    </g>
   </g>
   <g id="patch_3">
    <path d="M 376.251075 29.870909 
L 682.227727 29.870909 
L 682.227727 46.99588 
L 376.251075 46.99588 
z
" clip-path="url(#p680f6d601e)" style="fill: #008000; stroke: #ffffff; stroke-linejoin: miter"/>
   </g>
   <g id="patch_4">
    <path d="M 376.251075 51.277123 
L 185.982273 51.277123 
L 185.982273 68.402094 
L 376.251075 68.402094 
z
" clip-path="url(#p680f6d601e)" style="fill: #008000; stroke: #ffffff; stroke-linejoin: miter"/>
   </g>
   <g id="patch_5">
    <path d="M 376.251075 72.683337 
L 214.617356 72.683337 
L 214.617356 89.808308 
L 376.251075 89.808308 
z
" clip-path="url(#p680f6d601e)" style="fill: #008000; stroke: #ffffff; stroke-linejoin: miter"/>
   </g>
   <g id="patch_6">
    <path d="M 376.251075 94.089551 
L 219.503794 94.089551 
L 219.503794 111.214522 
L 376.251075 111.214522 
z
" clip-path="url(#p680f6d601e)" style="fill: #008000; stroke: #ffffff; stroke-linejoin: miter"/>
   </g>
   <g id="patch_7">
    <path d="M 376.251075 115.495765 
L 232.356369 115.495765 
L 232.356369 132.620736 
L 376.251075 132.620736 
z
" clip-path="url(#p680f6d601e)" style="fill: #008000; stroke: #ffffff; stroke-linejoin: miter"/>
   </g>
   <g id="patch_8">
    <path d="M 376.251075 136.901979 
L 259.653149 136.901979 
L 259.653149 154.026951 
L 376.251075 154.026951 
z
" clip-path="url(#p680f6d601e)" style="fill: #808080; stroke: #ffffff; stroke-linejoin: miter"/>
   </g>
   <g id="patch_9">
    <path d="M 376.251075 158.308193 
L 264.005088 158.308193 
L 264.005088 175.433165 
L 376.251075 175.433165 
z
" clip-path="url(#p680f6d601e)" style="fill: #808080; stroke: #ffffff; stroke-linejoin: miter"/>
   </g>
   <g id="patch_10">
    <path d="M 376.251075 179.714407 
L 271.509358 179.714407 
L 271.509358 196.839379 
L 376.251075 196.839379 
z
" clip-path="url(#p680f6d601e)" style="fill: #808080; stroke: #ffffff; stroke-linejoin: miter"/>
   </g>
   <g id="patch_11">
    <path d="M 376.251075 201.120621 
L 320.58544 201.120621 
L 320.58544 218.245593 
L 376.251075 218.245593 
z
" clip-path="url(#p680f6d601e)" style="fill: #808080; stroke: #ffffff; stroke-linejoin: miter"/>
   </g>
   <g id="patch_12">
    <path d="M 376.251075 222.526835 
L 429.676953 222.526835 
L 429.676953 239.651807 
L 376.251075 239.651807 
z
" clip-path="url(#p680f6d601e)" style="fill: #808080; stroke: #ffffff; stroke-linejoin: miter"/>
   </g>
   <g id="patch_13">
    <path d="M 376.251075 243.933049 
L 324.328157 243.933049 
L 324.328157 261.058021 
L 376.251075 261.058021 
z
" clip-path="url(#p680f6d601e)" style="fill: #808080; stroke: #ffffff; stroke-linejoin: miter"/>
   </g>
   <g id="patch_14">
    <path d="M 376.251075 265.339264 
L 326.445194 265.339264 
L 326.445194 282.464235 
L 376.251075 282.464235 
z
" clip-path="url(#p680f6d601e)" style="fill: #808080; stroke: #ffffff; stroke-linejoin: miter"/>
   </g>
   <g id="patch_15">
    <path d="M 376.251075 286.745478 
L 327.111338 286.745478 
L 327.111338 303.870449 
L 376.251075 303.870449 
z
" clip-path="url(#p680f6d601e)" style="fill: #808080; stroke: #ffffff; stroke-linejoin: miter"/>
   </g>
   <g id="patch_16">
    <path d="M 376.251075 308.151692 
L 331.003031 308.151692 
L 331.003031 325.276663 
L 376.251075 325.276663 
z
" clip-path="url(#p680f6d601e)" style="fill: #808080; stroke: #ffffff; stroke-linejoin: miter"/>
   </g>
   <g id="patch_17">
    <path d="M 376.251075 329.557906 
L 336.499871 329.557906 
L 336.499871 346.682877 
L 376.251075 346.682877 
z
" clip-path="url(#p680f6d601e)" style="fill: #808080; stroke: #ffffff; stroke-linejoin: miter"/>
   </g>
   <g id="patch_18">
    <path d="M 376.251075 350.96412 
L 398.666666 350.96412 
L 398.666666 368.089091 
L 376.251075 368.089091 
z
" clip-path="url(#p680f6d601e)" style="fill: #808080; stroke: #ffffff; stroke-linejoin: miter"/>
   </g>
   <g id="line2d_1">
    <path d="M 376.251075 385 
L 376.251075 12.96 
" clip-path="url(#p680f6d601e)" style="fill: none; stroke: #000000; stroke-width: 0.8; stroke-linecap: round"/>
   </g>
   <g id="patch_19">
    <path d="M 161.17 385 
L 161.17 12.96 
" style="fill: none; stroke: #262626; stroke-width: 3; stroke-linejoin: miter; stroke-linecap: square"/>
   </g>
   <g id="patch_20">
    <path d="M 707.04 385 
L 707.04 12.96 
" style="fill: none; stroke: #262626; stroke-width: 3; stroke-linejoin: miter; stroke-linecap: square"/>
   </g>
   <g id="patch_21">
    <path d="M 161.17 385 
L 707.04 385 
" style="fill: none; stroke: #262626; stroke-width: 3; stroke-linejoin: miter; stroke-linecap: square"/>
   </g>
   <g id="patch_22">
    <path d="M 161.17 12.96 
L 707.04 12.96 
" style="fill: none; stroke: #262626; stroke-width: 3; stroke-linejoin: miter; stroke-linecap: square"/>
   </g>
  </g>
 </g>
 <defs>
  <clipPath id="p680f6d601e">
   <rect x="161.17" y="12.96" width="545.87" height="372.04"/>
  </clipPath>
 </defs>
</svg>
