<?xml version="1.0" encoding="utf-8" standalone="no"?>
<!DOCTYPE svg PUBLIC "-//W3C//DTD SVG 1.1//EN"
  "http://www.w3.org/Graphics/SVG/1.1/DTD/svg11.dtd">
<svg xmlns:xlink="http://www.w3.org/1999/xlink" width="576pt" height="432pt" viewBox="0 0 576 432" xmlns="http://www.w3.org/2000/svg" version="1.1">
 <metadata>
  <rdf:RDF xmlns:dc="http://purl.org/dc/elements/1.1/" xmlns:cc="http://creativecommons.org/ns#" xmlns:rdf="http://www.w3.org/1999/02/22-rdf-syntax-ns#">
   <cc:Work>
    <dc:type rdf:resource="http://purl.org/dc/dcmitype/StillImage"/>
    <dc:date>2025-07-07T18:22:38.812743</dc:date>
    <dc:format>image/svg+xml</dc:format>
    <dc:creator>
     <cc:Agent>
      <dc:title>Matplotlib v3.9.4, https://matplotlib.org/</dc:title>
     </cc:Agent>
    </dc:creator>
   </cc:Work>
  </rdf:RDF>
 </metadata>
 <defs>
  <style type="text/css">*{stroke-linejoin: round; stroke-linecap: butt}</style>
 </defs>
 <g id="figure_1">
  <g id="patch_1">
   <path d="M 0 432 
L 576 432 
L 576 0 
L 0 0 
z
" style="fill: #ffffff"/>
  </g>
  <g id="axes_1">
   <g id="patch_2">
    <path d="M 169.47 388.94 
L 558.034867 388.94 
L 558.034867 10.8 
L 169.47 10.8 
z
" style="fill: #ffffff"/>
   </g>
   <g id="patch_3">
    <path d="M 296.639704 27.988182 
L 540.372828 27.988182 
L 540.372828 47.916509 
L 296.639704 47.916509 
z
" clip-path="url(#pc1542a1253)" style="fill: #008000"/>
   </g>
   <g id="patch_4">
    <path d="M 296.639704 52.89859 
L 530.552836 52.89859 
L 530.552836 72.826917 
L 296.639704 72.826917 
z
" clip-path="url(#pc1542a1253)" style="fill: #008000"/>
   </g>
   <g id="patch_5">
    <path d="M 296.639704 77.808999 
L 458.673225 77.808999 
L 458.673225 97.737325 
L 296.639704 97.737325 
z
" clip-path="url(#pc1542a1253)" style="fill: #008000"/>
   </g>
   <g id="patch_6">
    <path d="M 296.639704 102.719407 
L 450.934966 102.719407 
L 450.934966 122.647734 
L 296.639704 122.647734 
z
" clip-path="url(#pc1542a1253)" style="fill: #008000"/>
   </g>
   <g id="patch_7">
    <path d="M 296.639704 127.629816 
L 448.738546 127.629816 
L 448.738546 147.558142 
L 296.639704 147.558142 
z
" clip-path="url(#pc1542a1253)" style="fill: #008000"/>
   </g>
   <g id="patch_8">
    <path d="M 296.639704 152.540224 
L 441.507778 152.540224 
L 441.507778 172.468551 
L 296.639704 172.468551 
z
" clip-path="url(#pc1542a1253)" style="fill: #008000"/>
   </g>
   <g id="patch_9">
    <path d="M 296.639704 177.450632 
L 437.79068 177.450632 
L 437.79068 197.378959 
L 296.639704 197.378959 
z
" clip-path="url(#pc1542a1253)" style="fill: #008000"/>
   </g>
   <g id="patch_10">
    <path d="M 296.639704 202.361041 
L 420.573977 202.361041 
L 420.573977 222.289368 
L 296.639704 222.289368 
z
" clip-path="url(#pc1542a1253)" style="fill: #008000"/>
   </g>
   <g id="patch_11">
    <path d="M 296.639704 227.271449 
L 187.132039 227.271449 
L 187.132039 247.199776 
L 296.639704 247.199776 
z
" clip-path="url(#pc1542a1253)" style="fill: #008000"/>
   </g>
   <g id="patch_12">
    <path d="M 296.639704 252.181858 
L 401.911182 252.181858 
L 401.911182 272.110184 
L 296.639704 272.110184 
z
" clip-path="url(#pc1542a1253)" style="fill: #008000"/>
   </g>
   <g id="patch_13">
    <path d="M 296.639704 277.092266 
L 387.131365 277.092266 
L 387.131365 297.020593 
L 296.639704 297.020593 
z
" clip-path="url(#pc1542a1253)" style="fill: #008000"/>
   </g>
   <g id="patch_14">
    <path d="M 296.639704 302.002675 
L 381.325598 302.002675 
L 381.325598 321.931001 
L 296.639704 321.931001 
z
" clip-path="url(#pc1542a1253)" style="fill: #008000"/>
   </g>
   <g id="patch_15">
    <path d="M 296.639704 326.913083 
L 378.834292 326.913083 
L 378.834292 346.84141 
L 296.639704 346.84141 
z
" clip-path="url(#pc1542a1253)" style="fill: #008000"/>
   </g>
   <g id="patch_16">
    <path d="M 296.639704 351.823491 
L 376.358548 351.823491 
L 376.358548 371.751818 
L 296.639704 371.751818 
z
" clip-path="url(#pc1542a1253)" style="fill: #008000"/>
   </g>
   <g id="matplotlib.axis_1">
    <g id="xtick_1">
     <g id="line2d_1">
      <defs>
       <path id="m7affcbd656" d="M 0 0 
L 0 3.5 
" style="stroke: #000000; stroke-width: 0.8"/>
      </defs>
      <g>
       <use xlink:href="#m7affcbd656" x="210.236213" y="388.94" style="stroke: #000000; stroke-width: 0.8"/>
      </g>
     </g>
     <g id="text_1">
      <!-- −0.2 -->
      <g transform="translate(195.884651 401.798281) scale(0.11 -0.11)">
       <defs>
        <path id="DejaVuSans-Bold-2212" d="M 678 2375 
L 4684 2375 
L 4684 1638 
L 678 1638 
L 678 2375 
z
" transform="scale(0.015625)"/>
        <path id="DejaVuSans-Bold-30" d="M 2944 2338 
Q 2944 3213 2780 3570 
Q 2616 3928 2228 3928 
Q 1841 3928 1675 3570 
Q 1509 3213 1509 2338 
Q 1509 1453 1675 1090 
Q 1841 728 2228 728 
Q 2613 728 2778 1090 
Q 2944 1453 2944 2338 
z
M 4147 2328 
Q 4147 1169 3647 539 
Q 3147 -91 2228 -91 
Q 1306 -91 806 539 
Q 306 1169 306 2328 
Q 306 3491 806 4120 
Q 1306 4750 2228 4750 
Q 3147 4750 3647 4120 
Q 4147 3491 4147 2328 
z
" transform="scale(0.015625)"/>
        <path id="DejaVuSans-Bold-2e" d="M 653 1209 
L 1778 1209 
L 1778 0 
L 653 0 
L 653 1209 
z
" transform="scale(0.015625)"/>
        <path id="DejaVuSans-Bold-32" d="M 1844 884 
L 3897 884 
L 3897 0 
L 506 0 
L 506 884 
L 2209 2388 
Q 2438 2594 2547 2791 
Q 2656 2988 2656 3200 
Q 2656 3528 2436 3728 
Q 2216 3928 1850 3928 
Q 1569 3928 1234 3808 
Q 900 3688 519 3450 
L 519 4475 
Q 925 4609 1322 4679 
Q 1719 4750 2100 4750 
Q 2938 4750 3402 4381 
Q 3866 4013 3866 3353 
Q 3866 2972 3669 2642 
Q 3472 2313 2841 1759 
L 1844 884 
z
" transform="scale(0.015625)"/>
       </defs>
       <use xlink:href="#DejaVuSans-Bold-2212"/>
       <use xlink:href="#DejaVuSans-Bold-30" x="83.789062"/>
       <use xlink:href="#DejaVuSans-Bold-2e" x="153.369141"/>
       <use xlink:href="#DejaVuSans-Bold-32" x="191.357422"/>
      </g>
     </g>
    </g>
    <g id="xtick_2">
     <g id="line2d_2">
      <g>
       <use xlink:href="#m7affcbd656" x="253.437959" y="388.94" style="stroke: #000000; stroke-width: 0.8"/>
      </g>
     </g>
     <g id="text_2">
      <!-- −0.1 -->
      <g transform="translate(239.086396 401.798281) scale(0.11 -0.11)">
       <defs>
        <path id="DejaVuSans-Bold-31" d="M 750 831 
L 1813 831 
L 1813 3847 
L 722 3622 
L 722 4441 
L 1806 4666 
L 2950 4666 
L 2950 831 
L 4013 831 
L 4013 0 
L 750 0 
L 750 831 
z
" transform="scale(0.015625)"/>
       </defs>
       <use xlink:href="#DejaVuSans-Bold-2212"/>
       <use xlink:href="#DejaVuSans-Bold-30" x="83.789062"/>
       <use xlink:href="#DejaVuSans-Bold-2e" x="153.369141"/>
       <use xlink:href="#DejaVuSans-Bold-31" x="191.357422"/>
      </g>
     </g>
    </g>
    <g id="xtick_3">
     <g id="line2d_3">
      <g>
       <use xlink:href="#m7affcbd656" x="296.639704" y="388.94" style="stroke: #000000; stroke-width: 0.8"/>
      </g>
     </g>
     <g id="text_3">
      <!-- 0.0 -->
      <g transform="translate(286.89697 401.798281) scale(0.11 -0.11)">
       <use xlink:href="#DejaVuSans-Bold-30"/>
       <use xlink:href="#DejaVuSans-Bold-2e" x="69.580078"/>
       <use xlink:href="#DejaVuSans-Bold-30" x="107.568359"/>
      </g>
     </g>
    </g>
    <g id="xtick_4">
     <g id="line2d_4">
      <g>
       <use xlink:href="#m7affcbd656" x="339.841449" y="388.94" style="stroke: #000000; stroke-width: 0.8"/>
      </g>
     </g>
     <g id="text_4">
      <!-- 0.1 -->
      <g transform="translate(330.098715 401.798281) scale(0.11 -0.11)">
       <use xlink:href="#DejaVuSans-Bold-30"/>
       <use xlink:href="#DejaVuSans-Bold-2e" x="69.580078"/>
       <use xlink:href="#DejaVuSans-Bold-31" x="107.568359"/>
      </g>
     </g>
    </g>
    <g id="xtick_5">
     <g id="line2d_5">
      <g>
       <use xlink:href="#m7affcbd656" x="383.043195" y="388.94" style="stroke: #000000; stroke-width: 0.8"/>
      </g>
     </g>
     <g id="text_5">
      <!-- 0.2 -->
      <g transform="translate(373.30046 401.798281) scale(0.11 -0.11)">
       <use xlink:href="#DejaVuSans-Bold-30"/>
       <use xlink:href="#DejaVuSans-Bold-2e" x="69.580078"/>
       <use xlink:href="#DejaVuSans-Bold-32" x="107.568359"/>
      </g>
     </g>
    </g>
    <g id="xtick_6">
     <g id="line2d_6">
      <g>
       <use xlink:href="#m7affcbd656" x="426.24494" y="388.94" style="stroke: #000000; stroke-width: 0.8"/>
      </g>
     </g>
     <g id="text_6">
      <!-- 0.3 -->
      <g transform="translate(416.502206 401.798281) scale(0.11 -0.11)">
       <defs>
        <path id="DejaVuSans-Bold-33" d="M 2981 2516 
Q 3453 2394 3698 2092 
Q 3944 1791 3944 1325 
Q 3944 631 3412 270 
Q 2881 -91 1863 -91 
Q 1503 -91 1142 -33 
Q 781 25 428 141 
L 428 1069 
Q 766 900 1098 814 
Q 1431 728 1753 728 
Q 2231 728 2486 893 
Q 2741 1059 2741 1369 
Q 2741 1688 2480 1852 
Q 2219 2016 1709 2016 
L 1228 2016 
L 1228 2791 
L 1734 2791 
Q 2188 2791 2409 2933 
Q 2631 3075 2631 3366 
Q 2631 3634 2415 3781 
Q 2200 3928 1806 3928 
Q 1516 3928 1219 3862 
Q 922 3797 628 3669 
L 628 4550 
Q 984 4650 1334 4700 
Q 1684 4750 2022 4750 
Q 2931 4750 3382 4451 
Q 3834 4153 3834 3553 
Q 3834 3144 3618 2883 
Q 3403 2622 2981 2516 
z
" transform="scale(0.015625)"/>
       </defs>
       <use xlink:href="#DejaVuSans-Bold-30"/>
       <use xlink:href="#DejaVuSans-Bold-2e" x="69.580078"/>
       <use xlink:href="#DejaVuSans-Bold-33" x="107.568359"/>
      </g>
     </g>
    </g>
    <g id="xtick_7">
     <g id="line2d_7">
      <g>
       <use xlink:href="#m7affcbd656" x="469.446685" y="388.94" style="stroke: #000000; stroke-width: 0.8"/>
      </g>
     </g>
     <g id="text_7">
      <!-- 0.4 -->
      <g transform="translate(459.703951 401.798281) scale(0.11 -0.11)">
       <defs>
        <path id="DejaVuSans-Bold-34" d="M 2356 3675 
L 1038 1722 
L 2356 1722 
L 2356 3675 
z
M 2156 4666 
L 3494 4666 
L 3494 1722 
L 4159 1722 
L 4159 850 
L 3494 850 
L 3494 0 
L 2356 0 
L 2356 850 
L 288 850 
L 288 1881 
L 2156 4666 
z
" transform="scale(0.015625)"/>
       </defs>
       <use xlink:href="#DejaVuSans-Bold-30"/>
       <use xlink:href="#DejaVuSans-Bold-2e" x="69.580078"/>
       <use xlink:href="#DejaVuSans-Bold-34" x="107.568359"/>
      </g>
     </g>
    </g>
    <g id="xtick_8">
     <g id="line2d_8">
      <g>
       <use xlink:href="#m7affcbd656" x="512.648431" y="388.94" style="stroke: #000000; stroke-width: 0.8"/>
      </g>
     </g>
     <g id="text_8">
      <!-- 0.5 -->
      <g transform="translate(502.905696 401.798281) scale(0.11 -0.11)">
       <defs>
        <path id="DejaVuSans-Bold-35" d="M 678 4666 
L 3669 4666 
L 3669 3781 
L 1638 3781 
L 1638 3059 
Q 1775 3097 1914 3117 
Q 2053 3138 2203 3138 
Q 3056 3138 3531 2711 
Q 4006 2284 4006 1522 
Q 4006 766 3489 337 
Q 2972 -91 2053 -91 
Q 1656 -91 1267 -14 
Q 878 63 494 219 
L 494 1166 
Q 875 947 1217 837 
Q 1559 728 1863 728 
Q 2300 728 2551 942 
Q 2803 1156 2803 1522 
Q 2803 1891 2551 2103 
Q 2300 2316 1863 2316 
Q 1603 2316 1309 2248 
Q 1016 2181 678 2041 
L 678 4666 
z
" transform="scale(0.015625)"/>
       </defs>
       <use xlink:href="#DejaVuSans-Bold-30"/>
       <use xlink:href="#DejaVuSans-Bold-2e" x="69.580078"/>
       <use xlink:href="#DejaVuSans-Bold-35" x="107.568359"/>
      </g>
     </g>
    </g>
    <g id="xtick_9">
     <g id="line2d_9">
      <g>
       <use xlink:href="#m7affcbd656" x="555.850176" y="388.94" style="stroke: #000000; stroke-width: 0.8"/>
      </g>
     </g>
     <g id="text_9">
      <!-- 0.6 -->
      <g transform="translate(546.107441 401.798281) scale(0.11 -0.11)">
       <defs>
        <path id="DejaVuSans-Bold-36" d="M 2316 2303 
Q 2000 2303 1842 2098 
Q 1684 1894 1684 1484 
Q 1684 1075 1842 870 
Q 2000 666 2316 666 
Q 2634 666 2792 870 
Q 2950 1075 2950 1484 
Q 2950 1894 2792 2098 
Q 2634 2303 2316 2303 
z
M 3803 4544 
L 3803 3681 
Q 3506 3822 3243 3889 
Q 2981 3956 2731 3956 
Q 2194 3956 1894 3657 
Q 1594 3359 1544 2772 
Q 1750 2925 1990 3001 
Q 2231 3078 2516 3078 
Q 3231 3078 3670 2659 
Q 4109 2241 4109 1563 
Q 4109 813 3618 361 
Q 3128 -91 2303 -91 
Q 1394 -91 895 523 
Q 397 1138 397 2266 
Q 397 3422 980 4083 
Q 1563 4744 2578 4744 
Q 2900 4744 3203 4694 
Q 3506 4644 3803 4544 
z
" transform="scale(0.015625)"/>
       </defs>
       <use xlink:href="#DejaVuSans-Bold-30"/>
       <use xlink:href="#DejaVuSans-Bold-2e" x="69.580078"/>
       <use xlink:href="#DejaVuSans-Bold-36" x="107.568359"/>
      </g>
     </g>
    </g>
    <g id="text_10">
     <!-- Pearson Correlation with Time (Days) at ISS -->
     <g transform="translate(202.931262 417.963906) scale(0.13 -0.13)">
      <defs>
       <path id="DejaVuSans-Bold-50" d="M 588 4666 
L 2584 4666 
Q 3475 4666 3951 4270 
Q 4428 3875 4428 3144 
Q 4428 2409 3951 2014 
Q 3475 1619 2584 1619 
L 1791 1619 
L 1791 0 
L 588 0 
L 588 4666 
z
M 1791 3794 
L 1791 2491 
L 2456 2491 
Q 2806 2491 2997 2661 
Q 3188 2831 3188 3144 
Q 3188 3456 2997 3625 
Q 2806 3794 2456 3794 
L 1791 3794 
z
" transform="scale(0.015625)"/>
       <path id="DejaVuSans-Bold-65" d="M 4031 1759 
L 4031 1441 
L 1416 1441 
Q 1456 1047 1700 850 
Q 1944 653 2381 653 
Q 2734 653 3104 758 
Q 3475 863 3866 1075 
L 3866 213 
Q 3469 63 3072 -14 
Q 2675 -91 2278 -91 
Q 1328 -91 801 392 
Q 275 875 275 1747 
Q 275 2603 792 3093 
Q 1309 3584 2216 3584 
Q 3041 3584 3536 3087 
Q 4031 2591 4031 1759 
z
M 2881 2131 
Q 2881 2450 2695 2645 
Q 2509 2841 2209 2841 
Q 1884 2841 1681 2658 
Q 1478 2475 1428 2131 
L 2881 2131 
z
" transform="scale(0.015625)"/>
       <path id="DejaVuSans-Bold-61" d="M 2106 1575 
Q 1756 1575 1579 1456 
Q 1403 1338 1403 1106 
Q 1403 894 1545 773 
Q 1688 653 1941 653 
Q 2256 653 2472 879 
Q 2688 1106 2688 1447 
L 2688 1575 
L 2106 1575 
z
M 3816 1997 
L 3816 0 
L 2688 0 
L 2688 519 
Q 2463 200 2181 54 
Q 1900 -91 1497 -91 
Q 953 -91 614 226 
Q 275 544 275 1050 
Q 275 1666 698 1953 
Q 1122 2241 2028 2241 
L 2688 2241 
L 2688 2328 
Q 2688 2594 2478 2717 
Q 2269 2841 1825 2841 
Q 1466 2841 1156 2769 
Q 847 2697 581 2553 
L 581 3406 
Q 941 3494 1303 3539 
Q 1666 3584 2028 3584 
Q 2975 3584 3395 3211 
Q 3816 2838 3816 1997 
z
" transform="scale(0.015625)"/>
       <path id="DejaVuSans-Bold-72" d="M 3138 2547 
Q 2991 2616 2845 2648 
Q 2700 2681 2553 2681 
Q 2122 2681 1889 2404 
Q 1656 2128 1656 1613 
L 1656 0 
L 538 0 
L 538 3500 
L 1656 3500 
L 1656 2925 
Q 1872 3269 2151 3426 
Q 2431 3584 2822 3584 
Q 2878 3584 2943 3579 
Q 3009 3575 3134 3559 
L 3138 2547 
z
" transform="scale(0.015625)"/>
       <path id="DejaVuSans-Bold-73" d="M 3272 3391 
L 3272 2541 
Q 2913 2691 2578 2766 
Q 2244 2841 1947 2841 
Q 1628 2841 1473 2761 
Q 1319 2681 1319 2516 
Q 1319 2381 1436 2309 
Q 1553 2238 1856 2203 
L 2053 2175 
Q 2913 2066 3209 1816 
Q 3506 1566 3506 1031 
Q 3506 472 3093 190 
Q 2681 -91 1863 -91 
Q 1516 -91 1145 -36 
Q 775 19 384 128 
L 384 978 
Q 719 816 1070 734 
Q 1422 653 1784 653 
Q 2113 653 2278 743 
Q 2444 834 2444 1013 
Q 2444 1163 2330 1236 
Q 2216 1309 1875 1350 
L 1678 1375 
Q 931 1469 631 1722 
Q 331 1975 331 2491 
Q 331 3047 712 3315 
Q 1094 3584 1881 3584 
Q 2191 3584 2531 3537 
Q 2872 3491 3272 3391 
z
" transform="scale(0.015625)"/>
       <path id="DejaVuSans-Bold-6f" d="M 2203 2784 
Q 1831 2784 1636 2517 
Q 1441 2250 1441 1747 
Q 1441 1244 1636 976 
Q 1831 709 2203 709 
Q 2569 709 2762 976 
Q 2956 1244 2956 1747 
Q 2956 2250 2762 2517 
Q 2569 2784 2203 2784 
z
M 2203 3584 
Q 3106 3584 3614 3096 
Q 4122 2609 4122 1747 
Q 4122 884 3614 396 
Q 3106 -91 2203 -91 
Q 1297 -91 786 396 
Q 275 884 275 1747 
Q 275 2609 786 3096 
Q 1297 3584 2203 3584 
z
" transform="scale(0.015625)"/>
       <path id="DejaVuSans-Bold-6e" d="M 4056 2131 
L 4056 0 
L 2931 0 
L 2931 347 
L 2931 1631 
Q 2931 2084 2911 2256 
Q 2891 2428 2841 2509 
Q 2775 2619 2662 2680 
Q 2550 2741 2406 2741 
Q 2056 2741 1856 2470 
Q 1656 2200 1656 1722 
L 1656 0 
L 538 0 
L 538 3500 
L 1656 3500 
L 1656 2988 
Q 1909 3294 2193 3439 
Q 2478 3584 2822 3584 
Q 3428 3584 3742 3212 
Q 4056 2841 4056 2131 
z
" transform="scale(0.015625)"/>
       <path id="DejaVuSans-Bold-20" transform="scale(0.015625)"/>
       <path id="DejaVuSans-Bold-43" d="M 4288 256 
Q 3956 84 3597 -3 
Q 3238 -91 2847 -91 
Q 1681 -91 1000 561 
Q 319 1213 319 2328 
Q 319 3447 1000 4098 
Q 1681 4750 2847 4750 
Q 3238 4750 3597 4662 
Q 3956 4575 4288 4403 
L 4288 3438 
Q 3953 3666 3628 3772 
Q 3303 3878 2944 3878 
Q 2300 3878 1931 3465 
Q 1563 3053 1563 2328 
Q 1563 1606 1931 1193 
Q 2300 781 2944 781 
Q 3303 781 3628 887 
Q 3953 994 4288 1222 
L 4288 256 
z
" transform="scale(0.015625)"/>
       <path id="DejaVuSans-Bold-6c" d="M 538 4863 
L 1656 4863 
L 1656 0 
L 538 0 
L 538 4863 
z
" transform="scale(0.015625)"/>
       <path id="DejaVuSans-Bold-74" d="M 1759 4494 
L 1759 3500 
L 2913 3500 
L 2913 2700 
L 1759 2700 
L 1759 1216 
Q 1759 972 1856 886 
Q 1953 800 2241 800 
L 2816 800 
L 2816 0 
L 1856 0 
Q 1194 0 917 276 
Q 641 553 641 1216 
L 641 2700 
L 84 2700 
L 84 3500 
L 641 3500 
L 641 4494 
L 1759 4494 
z
" transform="scale(0.015625)"/>
       <path id="DejaVuSans-Bold-69" d="M 538 3500 
L 1656 3500 
L 1656 0 
L 538 0 
L 538 3500 
z
M 538 4863 
L 1656 4863 
L 1656 3950 
L 538 3950 
L 538 4863 
z
" transform="scale(0.015625)"/>
       <path id="DejaVuSans-Bold-77" d="M 225 3500 
L 1313 3500 
L 1900 1088 
L 2491 3500 
L 3425 3500 
L 4013 1113 
L 4603 3500 
L 5691 3500 
L 4769 0 
L 3547 0 
L 2956 2406 
L 2369 0 
L 1147 0 
L 225 3500 
z
" transform="scale(0.015625)"/>
       <path id="DejaVuSans-Bold-68" d="M 4056 2131 
L 4056 0 
L 2931 0 
L 2931 347 
L 2931 1625 
Q 2931 2084 2911 2256 
Q 2891 2428 2841 2509 
Q 2775 2619 2662 2680 
Q 2550 2741 2406 2741 
Q 2056 2741 1856 2470 
Q 1656 2200 1656 1722 
L 1656 0 
L 538 0 
L 538 4863 
L 1656 4863 
L 1656 2988 
Q 1909 3294 2193 3439 
Q 2478 3584 2822 3584 
Q 3428 3584 3742 3212 
Q 4056 2841 4056 2131 
z
" transform="scale(0.015625)"/>
       <path id="DejaVuSans-Bold-54" d="M 31 4666 
L 4331 4666 
L 4331 3756 
L 2784 3756 
L 2784 0 
L 1581 0 
L 1581 3756 
L 31 3756 
L 31 4666 
z
" transform="scale(0.015625)"/>
       <path id="DejaVuSans-Bold-6d" d="M 3781 2919 
Q 3994 3244 4286 3414 
Q 4578 3584 4928 3584 
Q 5531 3584 5847 3212 
Q 6163 2841 6163 2131 
L 6163 0 
L 5038 0 
L 5038 1825 
Q 5041 1866 5042 1909 
Q 5044 1953 5044 2034 
Q 5044 2406 4934 2573 
Q 4825 2741 4581 2741 
Q 4263 2741 4089 2478 
Q 3916 2216 3909 1719 
L 3909 0 
L 2784 0 
L 2784 1825 
Q 2784 2406 2684 2573 
Q 2584 2741 2328 2741 
Q 2006 2741 1831 2477 
Q 1656 2213 1656 1722 
L 1656 0 
L 531 0 
L 531 3500 
L 1656 3500 
L 1656 2988 
Q 1863 3284 2130 3434 
Q 2397 3584 2719 3584 
Q 3081 3584 3359 3409 
Q 3638 3234 3781 2919 
z
" transform="scale(0.015625)"/>
       <path id="DejaVuSans-Bold-28" d="M 2413 -844 
L 1484 -844 
Q 1006 -72 778 623 
Q 550 1319 550 2003 
Q 550 2688 779 3389 
Q 1009 4091 1484 4856 
L 2413 4856 
Q 2013 4116 1813 3408 
Q 1613 2700 1613 2009 
Q 1613 1319 1811 609 
Q 2009 -100 2413 -844 
z
" transform="scale(0.015625)"/>
       <path id="DejaVuSans-Bold-44" d="M 1791 3756 
L 1791 909 
L 2222 909 
Q 2959 909 3348 1275 
Q 3738 1641 3738 2338 
Q 3738 3031 3350 3393 
Q 2963 3756 2222 3756 
L 1791 3756 
z
M 588 4666 
L 1856 4666 
Q 2919 4666 3439 4514 
Q 3959 4363 4331 4000 
Q 4659 3684 4818 3271 
Q 4978 2859 4978 2338 
Q 4978 1809 4818 1395 
Q 4659 981 4331 666 
Q 3956 303 3431 151 
Q 2906 0 1856 0 
L 588 0 
L 588 4666 
z
" transform="scale(0.015625)"/>
       <path id="DejaVuSans-Bold-79" d="M 78 3500 
L 1197 3500 
L 2138 1125 
L 2938 3500 
L 4056 3500 
L 2584 -331 
Q 2363 -916 2067 -1148 
Q 1772 -1381 1288 -1381 
L 641 -1381 
L 641 -647 
L 991 -647 
Q 1275 -647 1404 -556 
Q 1534 -466 1606 -231 
L 1638 -134 
L 78 3500 
z
" transform="scale(0.015625)"/>
       <path id="DejaVuSans-Bold-29" d="M 513 -844 
Q 913 -100 1113 609 
Q 1313 1319 1313 2009 
Q 1313 2700 1113 3408 
Q 913 4116 513 4856 
L 1441 4856 
Q 1916 4091 2145 3389 
Q 2375 2688 2375 2003 
Q 2375 1319 2147 623 
Q 1919 -72 1441 -844 
L 513 -844 
z
" transform="scale(0.015625)"/>
       <path id="DejaVuSans-Bold-49" d="M 588 4666 
L 1791 4666 
L 1791 0 
L 588 0 
L 588 4666 
z
" transform="scale(0.015625)"/>
       <path id="DejaVuSans-Bold-53" d="M 3834 4519 
L 3834 3531 
Q 3450 3703 3084 3790 
Q 2719 3878 2394 3878 
Q 1963 3878 1756 3759 
Q 1550 3641 1550 3391 
Q 1550 3203 1689 3098 
Q 1828 2994 2194 2919 
L 2706 2816 
Q 3484 2659 3812 2340 
Q 4141 2022 4141 1434 
Q 4141 663 3683 286 
Q 3225 -91 2284 -91 
Q 1841 -91 1394 -6 
Q 947 78 500 244 
L 500 1259 
Q 947 1022 1364 901 
Q 1781 781 2169 781 
Q 2563 781 2772 912 
Q 2981 1044 2981 1288 
Q 2981 1506 2839 1625 
Q 2697 1744 2272 1838 
L 1806 1941 
Q 1106 2091 782 2419 
Q 459 2747 459 3303 
Q 459 4000 909 4375 
Q 1359 4750 2203 4750 
Q 2588 4750 2994 4692 
Q 3400 4634 3834 4519 
z
" transform="scale(0.015625)"/>
      </defs>
      <use xlink:href="#DejaVuSans-Bold-50"/>
      <use xlink:href="#DejaVuSans-Bold-65" x="73.291016"/>
      <use xlink:href="#DejaVuSans-Bold-61" x="141.113281"/>
      <use xlink:href="#DejaVuSans-Bold-72" x="208.59375"/>
      <use xlink:href="#DejaVuSans-Bold-73" x="257.910156"/>
      <use xlink:href="#DejaVuSans-Bold-6f" x="317.431641"/>
      <use xlink:href="#DejaVuSans-Bold-6e" x="386.132812"/>
      <use xlink:href="#DejaVuSans-Bold-20" x="457.324219"/>
      <use xlink:href="#DejaVuSans-Bold-43" x="492.138672"/>
      <use xlink:href="#DejaVuSans-Bold-6f" x="565.527344"/>
      <use xlink:href="#DejaVuSans-Bold-72" x="634.228516"/>
      <use xlink:href="#DejaVuSans-Bold-72" x="683.544922"/>
      <use xlink:href="#DejaVuSans-Bold-65" x="732.861328"/>
      <use xlink:href="#DejaVuSans-Bold-6c" x="800.683594"/>
      <use xlink:href="#DejaVuSans-Bold-61" x="834.960938"/>
      <use xlink:href="#DejaVuSans-Bold-74" x="902.441406"/>
      <use xlink:href="#DejaVuSans-Bold-69" x="950.244141"/>
      <use xlink:href="#DejaVuSans-Bold-6f" x="984.521484"/>
      <use xlink:href="#DejaVuSans-Bold-6e" x="1053.222656"/>
      <use xlink:href="#DejaVuSans-Bold-20" x="1124.414062"/>
      <use xlink:href="#DejaVuSans-Bold-77" x="1159.228516"/>
      <use xlink:href="#DejaVuSans-Bold-69" x="1251.611328"/>
      <use xlink:href="#DejaVuSans-Bold-74" x="1285.888672"/>
      <use xlink:href="#DejaVuSans-Bold-68" x="1333.691406"/>
      <use xlink:href="#DejaVuSans-Bold-20" x="1404.882812"/>
      <use xlink:href="#DejaVuSans-Bold-54" x="1439.697266"/>
      <use xlink:href="#DejaVuSans-Bold-69" x="1507.910156"/>
      <use xlink:href="#DejaVuSans-Bold-6d" x="1542.1875"/>
      <use xlink:href="#DejaVuSans-Bold-65" x="1646.386719"/>
      <use xlink:href="#DejaVuSans-Bold-20" x="1714.208984"/>
      <use xlink:href="#DejaVuSans-Bold-28" x="1749.023438"/>
      <use xlink:href="#DejaVuSans-Bold-44" x="1794.726562"/>
      <use xlink:href="#DejaVuSans-Bold-61" x="1877.734375"/>
      <use xlink:href="#DejaVuSans-Bold-79" x="1942.089844"/>
      <use xlink:href="#DejaVuSans-Bold-73" x="2007.275391"/>
      <use xlink:href="#DejaVuSans-Bold-29" x="2066.796875"/>
      <use xlink:href="#DejaVuSans-Bold-20" x="2112.5"/>
      <use xlink:href="#DejaVuSans-Bold-61" x="2147.314453"/>
      <use xlink:href="#DejaVuSans-Bold-74" x="2214.794922"/>
      <use xlink:href="#DejaVuSans-Bold-20" x="2262.597656"/>
      <use xlink:href="#DejaVuSans-Bold-49" x="2297.412109"/>
      <use xlink:href="#DejaVuSans-Bold-53" x="2334.619141"/>
      <use xlink:href="#DejaVuSans-Bold-53" x="2402.140625"/>
     </g>
    </g>
   </g>
   <g id="matplotlib.axis_2">
    <g id="ytick_1">
     <g id="line2d_10">
      <defs>
       <path id="mc4e145565e" d="M 0 0 
L -3.5 0 
" style="stroke: #000000; stroke-width: 0.8"/>
      </defs>
      <g>
       <use xlink:href="#mc4e145565e" x="169.47" y="37.952345" style="stroke: #000000; stroke-width: 0.8"/>
      </g>
     </g>
     <g id="text_11">
      <!-- Adaptive_Immune -->
      <g transform="translate(53.986875 42.131486) scale(0.11 -0.11)">
       <defs>
        <path id="DejaVuSans-Bold-41" d="M 3419 850 
L 1538 850 
L 1241 0 
L 31 0 
L 1759 4666 
L 3194 4666 
L 4922 0 
L 3713 0 
L 3419 850 
z
M 1838 1716 
L 3116 1716 
L 2478 3572 
L 1838 1716 
z
" transform="scale(0.015625)"/>
        <path id="DejaVuSans-Bold-64" d="M 2919 2988 
L 2919 4863 
L 4044 4863 
L 4044 0 
L 2919 0 
L 2919 506 
Q 2688 197 2409 53 
Q 2131 -91 1766 -91 
Q 1119 -91 703 423 
Q 288 938 288 1747 
Q 288 2556 703 3070 
Q 1119 3584 1766 3584 
Q 2128 3584 2408 3439 
Q 2688 3294 2919 2988 
z
M 2181 722 
Q 2541 722 2730 984 
Q 2919 1247 2919 1747 
Q 2919 2247 2730 2509 
Q 2541 2772 2181 2772 
Q 1825 2772 1636 2509 
Q 1447 2247 1447 1747 
Q 1447 1247 1636 984 
Q 1825 722 2181 722 
z
" transform="scale(0.015625)"/>
        <path id="DejaVuSans-Bold-70" d="M 1656 506 
L 1656 -1331 
L 538 -1331 
L 538 3500 
L 1656 3500 
L 1656 2988 
Q 1888 3294 2169 3439 
Q 2450 3584 2816 3584 
Q 3463 3584 3878 3070 
Q 4294 2556 4294 1747 
Q 4294 938 3878 423 
Q 3463 -91 2816 -91 
Q 2450 -91 2169 54 
Q 1888 200 1656 506 
z
M 2400 2772 
Q 2041 2772 1848 2508 
Q 1656 2244 1656 1747 
Q 1656 1250 1848 986 
Q 2041 722 2400 722 
Q 2759 722 2948 984 
Q 3138 1247 3138 1747 
Q 3138 2247 2948 2509 
Q 2759 2772 2400 2772 
z
" transform="scale(0.015625)"/>
        <path id="DejaVuSans-Bold-76" d="M 97 3500 
L 1216 3500 
L 2088 1081 
L 2956 3500 
L 4078 3500 
L 2700 0 
L 1472 0 
L 97 3500 
z
" transform="scale(0.015625)"/>
        <path id="DejaVuSans-Bold-5f" d="M 3200 -916 
L 3200 -1509 
L 0 -1509 
L 0 -916 
L 3200 -916 
z
" transform="scale(0.015625)"/>
        <path id="DejaVuSans-Bold-75" d="M 500 1363 
L 500 3500 
L 1625 3500 
L 1625 3150 
Q 1625 2866 1622 2436 
Q 1619 2006 1619 1863 
Q 1619 1441 1641 1255 
Q 1663 1069 1716 984 
Q 1784 875 1895 815 
Q 2006 756 2150 756 
Q 2500 756 2700 1025 
Q 2900 1294 2900 1772 
L 2900 3500 
L 4019 3500 
L 4019 0 
L 2900 0 
L 2900 506 
Q 2647 200 2364 54 
Q 2081 -91 1741 -91 
Q 1134 -91 817 281 
Q 500 653 500 1363 
z
" transform="scale(0.015625)"/>
       </defs>
       <use xlink:href="#DejaVuSans-Bold-41"/>
       <use xlink:href="#DejaVuSans-Bold-64" x="77.392578"/>
       <use xlink:href="#DejaVuSans-Bold-61" x="148.974609"/>
       <use xlink:href="#DejaVuSans-Bold-70" x="216.455078"/>
       <use xlink:href="#DejaVuSans-Bold-74" x="288.037109"/>
       <use xlink:href="#DejaVuSans-Bold-69" x="335.839844"/>
       <use xlink:href="#DejaVuSans-Bold-76" x="370.117188"/>
       <use xlink:href="#DejaVuSans-Bold-65" x="435.302734"/>
       <use xlink:href="#DejaVuSans-Bold-5f" x="503.125"/>
       <use xlink:href="#DejaVuSans-Bold-49" x="553.125"/>
       <use xlink:href="#DejaVuSans-Bold-6d" x="590.332031"/>
       <use xlink:href="#DejaVuSans-Bold-6d" x="694.53125"/>
       <use xlink:href="#DejaVuSans-Bold-75" x="798.730469"/>
       <use xlink:href="#DejaVuSans-Bold-6e" x="869.921875"/>
       <use xlink:href="#DejaVuSans-Bold-65" x="941.113281"/>
      </g>
     </g>
    </g>
    <g id="ytick_2">
     <g id="line2d_11">
      <g>
       <use xlink:href="#mc4e145565e" x="169.47" y="62.862754" style="stroke: #000000; stroke-width: 0.8"/>
      </g>
     </g>
     <g id="text_12">
      <!-- Antigen_Presentation -->
      <g transform="translate(31.048438 67.041894) scale(0.11 -0.11)">
       <defs>
        <path id="DejaVuSans-Bold-67" d="M 2919 594 
Q 2688 288 2409 144 
Q 2131 0 1766 0 
Q 1125 0 706 504 
Q 288 1009 288 1791 
Q 288 2575 706 3076 
Q 1125 3578 1766 3578 
Q 2131 3578 2409 3434 
Q 2688 3291 2919 2981 
L 2919 3500 
L 4044 3500 
L 4044 353 
Q 4044 -491 3511 -936 
Q 2978 -1381 1966 -1381 
Q 1638 -1381 1331 -1331 
Q 1025 -1281 716 -1178 
L 716 -306 
Q 1009 -475 1290 -558 
Q 1572 -641 1856 -641 
Q 2406 -641 2662 -400 
Q 2919 -159 2919 353 
L 2919 594 
z
M 2181 2772 
Q 1834 2772 1640 2515 
Q 1447 2259 1447 1791 
Q 1447 1309 1634 1061 
Q 1822 813 2181 813 
Q 2531 813 2725 1069 
Q 2919 1325 2919 1791 
Q 2919 2259 2725 2515 
Q 2531 2772 2181 2772 
z
" transform="scale(0.015625)"/>
       </defs>
       <use xlink:href="#DejaVuSans-Bold-41"/>
       <use xlink:href="#DejaVuSans-Bold-6e" x="77.392578"/>
       <use xlink:href="#DejaVuSans-Bold-74" x="148.583984"/>
       <use xlink:href="#DejaVuSans-Bold-69" x="196.386719"/>
       <use xlink:href="#DejaVuSans-Bold-67" x="230.664062"/>
       <use xlink:href="#DejaVuSans-Bold-65" x="302.246094"/>
       <use xlink:href="#DejaVuSans-Bold-6e" x="370.068359"/>
       <use xlink:href="#DejaVuSans-Bold-5f" x="441.259766"/>
       <use xlink:href="#DejaVuSans-Bold-50" x="491.259766"/>
       <use xlink:href="#DejaVuSans-Bold-72" x="564.550781"/>
       <use xlink:href="#DejaVuSans-Bold-65" x="613.867188"/>
       <use xlink:href="#DejaVuSans-Bold-73" x="681.689453"/>
       <use xlink:href="#DejaVuSans-Bold-65" x="741.210938"/>
       <use xlink:href="#DejaVuSans-Bold-6e" x="809.033203"/>
       <use xlink:href="#DejaVuSans-Bold-74" x="880.224609"/>
       <use xlink:href="#DejaVuSans-Bold-61" x="928.027344"/>
       <use xlink:href="#DejaVuSans-Bold-74" x="995.507812"/>
       <use xlink:href="#DejaVuSans-Bold-69" x="1043.310547"/>
       <use xlink:href="#DejaVuSans-Bold-6f" x="1077.587891"/>
       <use xlink:href="#DejaVuSans-Bold-6e" x="1146.289062"/>
      </g>
     </g>
    </g>
    <g id="ytick_3">
     <g id="line2d_12">
      <g>
       <use xlink:href="#mc4e145565e" x="169.47" y="87.773162" style="stroke: #000000; stroke-width: 0.8"/>
      </g>
     </g>
     <g id="text_13">
      <!-- mtDNA_dsRNA_Activated -->
      <g transform="translate(10.542031 91.952303) scale(0.11 -0.11)">
       <defs>
        <path id="DejaVuSans-Bold-4e" d="M 588 4666 
L 1931 4666 
L 3628 1466 
L 3628 4666 
L 4769 4666 
L 4769 0 
L 3425 0 
L 1728 3200 
L 1728 0 
L 588 0 
L 588 4666 
z
" transform="scale(0.015625)"/>
        <path id="DejaVuSans-Bold-52" d="M 2297 2597 
Q 2675 2597 2839 2737 
Q 3003 2878 3003 3200 
Q 3003 3519 2839 3656 
Q 2675 3794 2297 3794 
L 1791 3794 
L 1791 2597 
L 2297 2597 
z
M 1791 1766 
L 1791 0 
L 588 0 
L 588 4666 
L 2425 4666 
Q 3347 4666 3776 4356 
Q 4206 4047 4206 3378 
Q 4206 2916 3982 2619 
Q 3759 2322 3309 2181 
Q 3556 2125 3751 1926 
Q 3947 1728 4147 1325 
L 4800 0 
L 3519 0 
L 2950 1159 
Q 2778 1509 2601 1637 
Q 2425 1766 2131 1766 
L 1791 1766 
z
" transform="scale(0.015625)"/>
        <path id="DejaVuSans-Bold-63" d="M 3366 3391 
L 3366 2478 
Q 3138 2634 2908 2709 
Q 2678 2784 2431 2784 
Q 1963 2784 1702 2511 
Q 1441 2238 1441 1747 
Q 1441 1256 1702 982 
Q 1963 709 2431 709 
Q 2694 709 2930 787 
Q 3166 866 3366 1019 
L 3366 103 
Q 3103 6 2833 -42 
Q 2563 -91 2291 -91 
Q 1344 -91 809 395 
Q 275 881 275 1747 
Q 275 2613 809 3098 
Q 1344 3584 2291 3584 
Q 2566 3584 2833 3536 
Q 3100 3488 3366 3391 
z
" transform="scale(0.015625)"/>
       </defs>
       <use xlink:href="#DejaVuSans-Bold-6d"/>
       <use xlink:href="#DejaVuSans-Bold-74" x="104.199219"/>
       <use xlink:href="#DejaVuSans-Bold-44" x="152.001953"/>
       <use xlink:href="#DejaVuSans-Bold-4e" x="235.009766"/>
       <use xlink:href="#DejaVuSans-Bold-41" x="318.701172"/>
       <use xlink:href="#DejaVuSans-Bold-5f" x="396.09375"/>
       <use xlink:href="#DejaVuSans-Bold-64" x="446.09375"/>
       <use xlink:href="#DejaVuSans-Bold-73" x="517.675781"/>
       <use xlink:href="#DejaVuSans-Bold-52" x="577.197266"/>
       <use xlink:href="#DejaVuSans-Bold-4e" x="654.199219"/>
       <use xlink:href="#DejaVuSans-Bold-41" x="737.890625"/>
       <use xlink:href="#DejaVuSans-Bold-5f" x="815.283203"/>
       <use xlink:href="#DejaVuSans-Bold-41" x="865.283203"/>
       <use xlink:href="#DejaVuSans-Bold-63" x="942.675781"/>
       <use xlink:href="#DejaVuSans-Bold-74" x="1001.953125"/>
       <use xlink:href="#DejaVuSans-Bold-69" x="1049.755859"/>
       <use xlink:href="#DejaVuSans-Bold-76" x="1084.033203"/>
       <use xlink:href="#DejaVuSans-Bold-61" x="1149.21875"/>
       <use xlink:href="#DejaVuSans-Bold-74" x="1216.699219"/>
       <use xlink:href="#DejaVuSans-Bold-65" x="1264.501953"/>
       <use xlink:href="#DejaVuSans-Bold-64" x="1332.324219"/>
      </g>
     </g>
    </g>
    <g id="ytick_4">
     <g id="line2d_13">
      <g>
       <use xlink:href="#mc4e145565e" x="169.47" y="112.68357" style="stroke: #000000; stroke-width: 0.8"/>
      </g>
     </g>
     <g id="text_14">
      <!-- Interleukins -->
      <g transform="translate(90.377969 116.862711) scale(0.11 -0.11)">
       <defs>
        <path id="DejaVuSans-Bold-6b" d="M 538 4863 
L 1656 4863 
L 1656 2216 
L 2944 3500 
L 4244 3500 
L 2534 1894 
L 4378 0 
L 3022 0 
L 1656 1459 
L 1656 0 
L 538 0 
L 538 4863 
z
" transform="scale(0.015625)"/>
       </defs>
       <use xlink:href="#DejaVuSans-Bold-49"/>
       <use xlink:href="#DejaVuSans-Bold-6e" x="37.207031"/>
       <use xlink:href="#DejaVuSans-Bold-74" x="108.398438"/>
       <use xlink:href="#DejaVuSans-Bold-65" x="156.201172"/>
       <use xlink:href="#DejaVuSans-Bold-72" x="224.023438"/>
       <use xlink:href="#DejaVuSans-Bold-6c" x="273.339844"/>
       <use xlink:href="#DejaVuSans-Bold-65" x="307.617188"/>
       <use xlink:href="#DejaVuSans-Bold-75" x="375.439453"/>
       <use xlink:href="#DejaVuSans-Bold-6b" x="446.630859"/>
       <use xlink:href="#DejaVuSans-Bold-69" x="513.134766"/>
       <use xlink:href="#DejaVuSans-Bold-6e" x="547.412109"/>
       <use xlink:href="#DejaVuSans-Bold-73" x="618.603516"/>
      </g>
     </g>
    </g>
    <g id="ytick_5">
     <g id="line2d_14">
      <g>
       <use xlink:href="#mc4e145565e" x="169.47" y="137.593979" style="stroke: #000000; stroke-width: 0.8"/>
      </g>
     </g>
     <g id="text_15">
      <!-- Extracellular_Matrix -->
      <g transform="translate(40.864219 141.77312) scale(0.11 -0.11)">
       <defs>
        <path id="DejaVuSans-Bold-45" d="M 588 4666 
L 3834 4666 
L 3834 3756 
L 1791 3756 
L 1791 2888 
L 3713 2888 
L 3713 1978 
L 1791 1978 
L 1791 909 
L 3903 909 
L 3903 0 
L 588 0 
L 588 4666 
z
" transform="scale(0.015625)"/>
        <path id="DejaVuSans-Bold-78" d="M 1422 1791 
L 159 3500 
L 1344 3500 
L 2059 2463 
L 2784 3500 
L 3969 3500 
L 2706 1797 
L 4031 0 
L 2847 0 
L 2059 1106 
L 1281 0 
L 97 0 
L 1422 1791 
z
" transform="scale(0.015625)"/>
        <path id="DejaVuSans-Bold-4d" d="M 588 4666 
L 2119 4666 
L 3181 2169 
L 4250 4666 
L 5778 4666 
L 5778 0 
L 4641 0 
L 4641 3413 
L 3566 897 
L 2803 897 
L 1728 3413 
L 1728 0 
L 588 0 
L 588 4666 
z
" transform="scale(0.015625)"/>
       </defs>
       <use xlink:href="#DejaVuSans-Bold-45"/>
       <use xlink:href="#DejaVuSans-Bold-78" x="68.310547"/>
       <use xlink:href="#DejaVuSans-Bold-74" x="132.8125"/>
       <use xlink:href="#DejaVuSans-Bold-72" x="180.615234"/>
       <use xlink:href="#DejaVuSans-Bold-61" x="229.931641"/>
       <use xlink:href="#DejaVuSans-Bold-63" x="297.412109"/>
       <use xlink:href="#DejaVuSans-Bold-65" x="356.689453"/>
       <use xlink:href="#DejaVuSans-Bold-6c" x="424.511719"/>
       <use xlink:href="#DejaVuSans-Bold-6c" x="458.789062"/>
       <use xlink:href="#DejaVuSans-Bold-75" x="493.066406"/>
       <use xlink:href="#DejaVuSans-Bold-6c" x="564.257812"/>
       <use xlink:href="#DejaVuSans-Bold-61" x="598.535156"/>
       <use xlink:href="#DejaVuSans-Bold-72" x="666.015625"/>
       <use xlink:href="#DejaVuSans-Bold-5f" x="715.332031"/>
       <use xlink:href="#DejaVuSans-Bold-4d" x="765.332031"/>
       <use xlink:href="#DejaVuSans-Bold-61" x="864.84375"/>
       <use xlink:href="#DejaVuSans-Bold-74" x="932.324219"/>
       <use xlink:href="#DejaVuSans-Bold-72" x="980.126953"/>
       <use xlink:href="#DejaVuSans-Bold-69" x="1029.443359"/>
       <use xlink:href="#DejaVuSans-Bold-78" x="1063.720703"/>
      </g>
     </g>
    </g>
    <g id="ytick_6">
     <g id="line2d_15">
      <g>
       <use xlink:href="#mc4e145565e" x="169.47" y="162.504387" style="stroke: #000000; stroke-width: 0.8"/>
      </g>
     </g>
     <g id="text_16">
      <!-- Induced_Senescence -->
      <g transform="translate(36.97125 166.683528) scale(0.11 -0.11)">
       <use xlink:href="#DejaVuSans-Bold-49"/>
       <use xlink:href="#DejaVuSans-Bold-6e" x="37.207031"/>
       <use xlink:href="#DejaVuSans-Bold-64" x="108.398438"/>
       <use xlink:href="#DejaVuSans-Bold-75" x="179.980469"/>
       <use xlink:href="#DejaVuSans-Bold-63" x="251.171875"/>
       <use xlink:href="#DejaVuSans-Bold-65" x="310.449219"/>
       <use xlink:href="#DejaVuSans-Bold-64" x="378.271484"/>
       <use xlink:href="#DejaVuSans-Bold-5f" x="449.853516"/>
       <use xlink:href="#DejaVuSans-Bold-53" x="499.853516"/>
       <use xlink:href="#DejaVuSans-Bold-65" x="571.875"/>
       <use xlink:href="#DejaVuSans-Bold-6e" x="639.697266"/>
       <use xlink:href="#DejaVuSans-Bold-65" x="710.888672"/>
       <use xlink:href="#DejaVuSans-Bold-73" x="778.710938"/>
       <use xlink:href="#DejaVuSans-Bold-63" x="838.232422"/>
       <use xlink:href="#DejaVuSans-Bold-65" x="897.509766"/>
       <use xlink:href="#DejaVuSans-Bold-6e" x="965.332031"/>
       <use xlink:href="#DejaVuSans-Bold-63" x="1036.523438"/>
       <use xlink:href="#DejaVuSans-Bold-65" x="1095.800781"/>
      </g>
     </g>
    </g>
    <g id="ytick_7">
     <g id="line2d_16">
      <g>
       <use xlink:href="#mc4e145565e" x="169.47" y="187.414796" style="stroke: #000000; stroke-width: 0.8"/>
      </g>
     </g>
     <g id="text_17">
      <!-- Cytokines -->
      <g transform="translate(103.987031 191.593936) scale(0.11 -0.11)">
       <use xlink:href="#DejaVuSans-Bold-43"/>
       <use xlink:href="#DejaVuSans-Bold-79" x="73.388672"/>
       <use xlink:href="#DejaVuSans-Bold-74" x="138.574219"/>
       <use xlink:href="#DejaVuSans-Bold-6f" x="186.376953"/>
       <use xlink:href="#DejaVuSans-Bold-6b" x="255.078125"/>
       <use xlink:href="#DejaVuSans-Bold-69" x="321.582031"/>
       <use xlink:href="#DejaVuSans-Bold-6e" x="355.859375"/>
       <use xlink:href="#DejaVuSans-Bold-65" x="427.050781"/>
       <use xlink:href="#DejaVuSans-Bold-73" x="494.873047"/>
      </g>
     </g>
    </g>
    <g id="ytick_8">
     <g id="line2d_17">
      <g>
       <use xlink:href="#mc4e145565e" x="169.47" y="212.325204" style="stroke: #000000; stroke-width: 0.8"/>
      </g>
     </g>
     <g id="text_18">
      <!-- Inflammation -->
      <g transform="translate(82.303281 216.504345) scale(0.11 -0.11)">
       <defs>
        <path id="DejaVuSans-Bold-66" d="M 2841 4863 
L 2841 4128 
L 2222 4128 
Q 1984 4128 1890 4042 
Q 1797 3956 1797 3744 
L 1797 3500 
L 2753 3500 
L 2753 2700 
L 1797 2700 
L 1797 0 
L 678 0 
L 678 2700 
L 122 2700 
L 122 3500 
L 678 3500 
L 678 3744 
Q 678 4316 997 4589 
Q 1316 4863 1984 4863 
L 2841 4863 
z
" transform="scale(0.015625)"/>
       </defs>
       <use xlink:href="#DejaVuSans-Bold-49"/>
       <use xlink:href="#DejaVuSans-Bold-6e" x="37.207031"/>
       <use xlink:href="#DejaVuSans-Bold-66" x="108.398438"/>
       <use xlink:href="#DejaVuSans-Bold-6c" x="151.904297"/>
       <use xlink:href="#DejaVuSans-Bold-61" x="186.181641"/>
       <use xlink:href="#DejaVuSans-Bold-6d" x="253.662109"/>
       <use xlink:href="#DejaVuSans-Bold-6d" x="357.861328"/>
       <use xlink:href="#DejaVuSans-Bold-61" x="462.060547"/>
       <use xlink:href="#DejaVuSans-Bold-74" x="529.541016"/>
       <use xlink:href="#DejaVuSans-Bold-69" x="577.34375"/>
       <use xlink:href="#DejaVuSans-Bold-6f" x="611.621094"/>
       <use xlink:href="#DejaVuSans-Bold-6e" x="680.322266"/>
      </g>
     </g>
    </g>
    <g id="ytick_9">
     <g id="line2d_18">
      <g>
       <use xlink:href="#mc4e145565e" x="169.47" y="237.235613" style="stroke: #000000; stroke-width: 0.8"/>
      </g>
     </g>
     <g id="text_19">
      <!-- Inhibited_Senescence -->
      <g transform="translate(30.692656 241.414753) scale(0.11 -0.11)">
       <defs>
        <path id="DejaVuSans-Bold-62" d="M 2400 722 
Q 2759 722 2948 984 
Q 3138 1247 3138 1747 
Q 3138 2247 2948 2509 
Q 2759 2772 2400 2772 
Q 2041 2772 1848 2508 
Q 1656 2244 1656 1747 
Q 1656 1250 1848 986 
Q 2041 722 2400 722 
z
M 1656 2988 
Q 1888 3294 2169 3439 
Q 2450 3584 2816 3584 
Q 3463 3584 3878 3070 
Q 4294 2556 4294 1747 
Q 4294 938 3878 423 
Q 3463 -91 2816 -91 
Q 2450 -91 2169 54 
Q 1888 200 1656 506 
L 1656 0 
L 538 0 
L 538 4863 
L 1656 4863 
L 1656 2988 
z
" transform="scale(0.015625)"/>
       </defs>
       <use xlink:href="#DejaVuSans-Bold-49"/>
       <use xlink:href="#DejaVuSans-Bold-6e" x="37.207031"/>
       <use xlink:href="#DejaVuSans-Bold-68" x="108.398438"/>
       <use xlink:href="#DejaVuSans-Bold-69" x="179.589844"/>
       <use xlink:href="#DejaVuSans-Bold-62" x="213.867188"/>
       <use xlink:href="#DejaVuSans-Bold-69" x="285.449219"/>
       <use xlink:href="#DejaVuSans-Bold-74" x="319.726562"/>
       <use xlink:href="#DejaVuSans-Bold-65" x="367.529297"/>
       <use xlink:href="#DejaVuSans-Bold-64" x="435.351562"/>
       <use xlink:href="#DejaVuSans-Bold-5f" x="506.933594"/>
       <use xlink:href="#DejaVuSans-Bold-53" x="556.933594"/>
       <use xlink:href="#DejaVuSans-Bold-65" x="628.955078"/>
       <use xlink:href="#DejaVuSans-Bold-6e" x="696.777344"/>
       <use xlink:href="#DejaVuSans-Bold-65" x="767.96875"/>
       <use xlink:href="#DejaVuSans-Bold-73" x="835.791016"/>
       <use xlink:href="#DejaVuSans-Bold-63" x="895.3125"/>
       <use xlink:href="#DejaVuSans-Bold-65" x="954.589844"/>
       <use xlink:href="#DejaVuSans-Bold-6e" x="1022.412109"/>
       <use xlink:href="#DejaVuSans-Bold-63" x="1093.603516"/>
       <use xlink:href="#DejaVuSans-Bold-65" x="1152.880859"/>
      </g>
     </g>
    </g>
    <g id="ytick_10">
     <g id="line2d_19">
      <g>
       <use xlink:href="#mc4e145565e" x="169.47" y="262.146021" style="stroke: #000000; stroke-width: 0.8"/>
      </g>
     </g>
     <g id="text_20">
      <!-- mtDNA_Activated -->
      <g transform="translate(56.650938 266.325162) scale(0.11 -0.11)">
       <use xlink:href="#DejaVuSans-Bold-6d"/>
       <use xlink:href="#DejaVuSans-Bold-74" x="104.199219"/>
       <use xlink:href="#DejaVuSans-Bold-44" x="152.001953"/>
       <use xlink:href="#DejaVuSans-Bold-4e" x="235.009766"/>
       <use xlink:href="#DejaVuSans-Bold-41" x="318.701172"/>
       <use xlink:href="#DejaVuSans-Bold-5f" x="396.09375"/>
       <use xlink:href="#DejaVuSans-Bold-41" x="446.09375"/>
       <use xlink:href="#DejaVuSans-Bold-63" x="523.486328"/>
       <use xlink:href="#DejaVuSans-Bold-74" x="582.763672"/>
       <use xlink:href="#DejaVuSans-Bold-69" x="630.566406"/>
       <use xlink:href="#DejaVuSans-Bold-76" x="664.84375"/>
       <use xlink:href="#DejaVuSans-Bold-61" x="730.029297"/>
       <use xlink:href="#DejaVuSans-Bold-74" x="797.509766"/>
       <use xlink:href="#DejaVuSans-Bold-65" x="845.3125"/>
       <use xlink:href="#DejaVuSans-Bold-64" x="913.134766"/>
      </g>
     </g>
    </g>
    <g id="ytick_11">
     <g id="line2d_20">
      <g>
       <use xlink:href="#mc4e145565e" x="169.47" y="287.05643" style="stroke: #000000; stroke-width: 0.8"/>
      </g>
     </g>
     <g id="text_21">
      <!-- Apoptosis -->
      <g transform="translate(103.473125 291.23557) scale(0.11 -0.11)">
       <use xlink:href="#DejaVuSans-Bold-41"/>
       <use xlink:href="#DejaVuSans-Bold-70" x="77.392578"/>
       <use xlink:href="#DejaVuSans-Bold-6f" x="148.974609"/>
       <use xlink:href="#DejaVuSans-Bold-70" x="217.675781"/>
       <use xlink:href="#DejaVuSans-Bold-74" x="289.257812"/>
       <use xlink:href="#DejaVuSans-Bold-6f" x="337.060547"/>
       <use xlink:href="#DejaVuSans-Bold-73" x="405.761719"/>
       <use xlink:href="#DejaVuSans-Bold-69" x="465.283203"/>
       <use xlink:href="#DejaVuSans-Bold-73" x="499.560547"/>
      </g>
     </g>
    </g>
    <g id="ytick_12">
     <g id="line2d_21">
      <g>
       <use xlink:href="#mc4e145565e" x="169.47" y="311.966838" style="stroke: #000000; stroke-width: 0.8"/>
      </g>
     </g>
     <g id="text_22">
      <!-- Innate_Immune -->
      <g transform="translate(69.435 315.99301) scale(0.11 -0.11)">
       <use xlink:href="#DejaVuSans-Bold-49"/>
       <use xlink:href="#DejaVuSans-Bold-6e" x="37.207031"/>
       <use xlink:href="#DejaVuSans-Bold-6e" x="108.398438"/>
       <use xlink:href="#DejaVuSans-Bold-61" x="179.589844"/>
       <use xlink:href="#DejaVuSans-Bold-74" x="247.070312"/>
       <use xlink:href="#DejaVuSans-Bold-65" x="294.873047"/>
       <use xlink:href="#DejaVuSans-Bold-5f" x="362.695312"/>
       <use xlink:href="#DejaVuSans-Bold-49" x="412.695312"/>
       <use xlink:href="#DejaVuSans-Bold-6d" x="449.902344"/>
       <use xlink:href="#DejaVuSans-Bold-6d" x="554.101562"/>
       <use xlink:href="#DejaVuSans-Bold-75" x="658.300781"/>
       <use xlink:href="#DejaVuSans-Bold-6e" x="729.492188"/>
       <use xlink:href="#DejaVuSans-Bold-65" x="800.683594"/>
      </g>
     </g>
    </g>
    <g id="ytick_13">
     <g id="line2d_22">
      <g>
       <use xlink:href="#mc4e145565e" x="169.47" y="336.877246" style="stroke: #000000; stroke-width: 0.8"/>
      </g>
     </g>
     <g id="text_23">
      <!-- Non_Canonical -->
      <g transform="translate(74.675469 341.056387) scale(0.11 -0.11)">
       <use xlink:href="#DejaVuSans-Bold-4e"/>
       <use xlink:href="#DejaVuSans-Bold-6f" x="83.691406"/>
       <use xlink:href="#DejaVuSans-Bold-6e" x="152.392578"/>
       <use xlink:href="#DejaVuSans-Bold-5f" x="223.583984"/>
       <use xlink:href="#DejaVuSans-Bold-43" x="273.583984"/>
       <use xlink:href="#DejaVuSans-Bold-61" x="346.972656"/>
       <use xlink:href="#DejaVuSans-Bold-6e" x="414.453125"/>
       <use xlink:href="#DejaVuSans-Bold-6f" x="485.644531"/>
       <use xlink:href="#DejaVuSans-Bold-6e" x="554.345703"/>
       <use xlink:href="#DejaVuSans-Bold-69" x="625.537109"/>
       <use xlink:href="#DejaVuSans-Bold-63" x="659.814453"/>
       <use xlink:href="#DejaVuSans-Bold-61" x="719.091797"/>
       <use xlink:href="#DejaVuSans-Bold-6c" x="786.572266"/>
      </g>
     </g>
    </g>
    <g id="ytick_14">
     <g id="line2d_23">
      <g>
       <use xlink:href="#mc4e145565e" x="169.47" y="361.787655" style="stroke: #000000; stroke-width: 0.8"/>
      </g>
     </g>
     <g id="text_24">
      <!-- ISR -->
      <g transform="translate(144.485938 365.966795) scale(0.11 -0.11)">
       <use xlink:href="#DejaVuSans-Bold-49"/>
       <use xlink:href="#DejaVuSans-Bold-53" x="37.207031"/>
       <use xlink:href="#DejaVuSans-Bold-52" x="109.228516"/>
      </g>
     </g>
    </g>
   </g>
   <g id="line2d_24">
    <path d="M 296.639704 388.94 
L 296.639704 10.8 
" clip-path="url(#pc1542a1253)" style="fill: none; stroke: #000000; stroke-width: 0.8; stroke-linecap: square"/>
   </g>
   <g id="patch_17">
    <path d="M 169.47 388.94 
L 169.47 10.8 
" style="fill: none; stroke: #000000; stroke-width: 3; stroke-linejoin: miter; stroke-linecap: square"/>
   </g>
   <g id="patch_18">
    <path d="M 558.034867 388.94 
L 558.034867 10.8 
" style="fill: none; stroke: #000000; stroke-width: 3; stroke-linejoin: miter; stroke-linecap: square"/>
   </g>
   <g id="patch_19">
    <path d="M 169.47 388.94 
L 558.034867 388.94 
" style="fill: none; stroke: #000000; stroke-width: 3; stroke-linejoin: miter; stroke-linecap: square"/>
   </g>
   <g id="patch_20">
    <path d="M 169.47 10.8 
L 558.034867 10.8 
" style="fill: none; stroke: #000000; stroke-width: 3; stroke-linejoin: miter; stroke-linecap: square"/>
   </g>
  </g>
 </g>
 <defs>
  <clipPath id="pc1542a1253">
   <rect x="169.47" y="10.8" width="388.564867" height="378.14"/>
  </clipPath>
 </defs>
</svg>
