<?xml version="1.0" encoding="utf-8" standalone="no"?>
<!DOCTYPE svg PUBLIC "-//W3C//DTD SVG 1.1//EN"
  "http://www.w3.org/Graphics/SVG/1.1/DTD/svg11.dtd">
<svg xmlns:xlink="http://www.w3.org/1999/xlink" width="576pt" height="360pt" viewBox="0 0 576 360" xmlns="http://www.w3.org/2000/svg" version="1.1">
 <metadata>
  <rdf:RDF xmlns:dc="http://purl.org/dc/elements/1.1/" xmlns:cc="http://creativecommons.org/ns#" xmlns:rdf="http://www.w3.org/1999/02/22-rdf-syntax-ns#">
   <cc:Work>
    <dc:type rdf:resource="http://purl.org/dc/dcmitype/StillImage"/>
    <dc:date>2025-07-08T16:41:51.193748</dc:date>
    <dc:format>image/svg+xml</dc:format>
    <dc:creator>
     <cc:Agent>
      <dc:title>Matplotlib v3.10.0, https://matplotlib.org/</dc:title>
     </cc:Agent>
    </dc:creator>
   </cc:Work>
  </rdf:RDF>
 </metadata>
 <defs>
  <style type="text/css">*{stroke-linejoin: round; stroke-linecap: butt}</style>
 </defs>
 <g id="figure_1">
  <g id="patch_1">
   <path d="M 0 360 
L 576 360 
L 576 0 
L 0 0 
z
" style="fill: #ffffff"/>
  </g>
  <g id="axes_1">
   <g id="patch_2">
    <path d="M 68.6 311.56 
L 565.2 311.56 
L 565.2 14.76 
L 68.6 14.76 
z
" style="fill: #ffffff"/>
   </g>
   <g id="patch_3">
    <path d="M 91.172727 163.16 
L 132.21405 163.16 
L 132.21405 259.792558 
L 91.172727 259.792558 
z
" clip-path="url(#p57c00aea14)" style="fill: #1f77b4; stroke: #000000; stroke-linejoin: miter"/>
   </g>
   <g id="patch_4">
    <path d="M 255.338017 163.16 
L 296.379339 163.16 
L 296.379339 105.329556 
L 255.338017 105.329556 
z
" clip-path="url(#p57c00aea14)" style="fill: #1f77b4; stroke: #000000; stroke-linejoin: miter"/>
   </g>
   <g id="patch_5">
    <path d="M 419.503306 163.16 
L 460.544628 163.16 
L 460.544628 124.405908 
L 419.503306 124.405908 
z
" clip-path="url(#p57c00aea14)" style="fill: #1f77b4; stroke: #000000; stroke-linejoin: miter"/>
   </g>
   <g id="patch_6">
    <path d="M 132.21405 163.16 
L 173.255372 163.16 
L 173.255372 233.826667 
L 132.21405 233.826667 
z
" clip-path="url(#p57c00aea14)" style="fill: #d62728; stroke: #000000; stroke-linejoin: miter"/>
   </g>
   <g id="patch_7">
    <path d="M 296.379339 163.16 
L 337.420661 163.16 
L 337.420661 101.365086 
L 296.379339 101.365086 
z
" clip-path="url(#p57c00aea14)" style="fill: #d62728; stroke: #000000; stroke-linejoin: miter"/>
   </g>
   <g id="patch_8">
    <path d="M 460.544628 163.16 
L 501.58595 163.16 
L 501.58595 104.422748 
L 460.544628 104.422748 
z
" clip-path="url(#p57c00aea14)" style="fill: #d62728; stroke: #000000; stroke-linejoin: miter"/>
   </g>
   <g id="patch_9">
    <path d="M 173.255372 163.16 
L 214.296694 163.16 
L 214.296694 284.578182 
L 173.255372 284.578182 
z
" clip-path="url(#p57c00aea14)" style="fill: #2ca02c; stroke: #000000; stroke-linejoin: miter"/>
   </g>
   <g id="patch_10">
    <path d="M 337.420661 163.16 
L 378.461983 163.16 
L 378.461983 109.294025 
L 337.420661 109.294025 
z
" clip-path="url(#p57c00aea14)" style="fill: #2ca02c; stroke: #000000; stroke-linejoin: miter"/>
   </g>
   <g id="patch_11">
    <path d="M 501.58595 163.16 
L 542.627273 163.16 
L 542.627273 143.520234 
L 501.58595 143.520234 
z
" clip-path="url(#p57c00aea14)" style="fill: #2ca02c; stroke: #000000; stroke-linejoin: miter"/>
   </g>
   <g id="matplotlib.axis_1">
    <g id="xtick_1">
     <g id="line2d_1">
      <defs>
       <path id="m1db09e9b1d" d="M 0 0 
L 0 3.5 
" style="stroke: #000000; stroke-width: 0.8"/>
      </defs>
      <g>
       <use xlink:href="#m1db09e9b1d" x="152.734711" y="311.56" style="stroke: #000000; stroke-width: 0.8"/>
      </g>
     </g>
     <g id="text_1">
      <!-- Mitochondria -->
      <g transform="translate(108.135961 327.678125) scale(0.12 -0.12)">
       <defs>
        <path id="DejaVuSans-Bold-4d" d="M 588 4666 
L 2119 4666 
L 3181 2169 
L 4250 4666 
L 5778 4666 
L 5778 0 
L 4641 0 
L 4641 3413 
L 3566 897 
L 2803 897 
L 1728 3413 
L 1728 0 
L 588 0 
L 588 4666 
z
" transform="scale(0.015625)"/>
        <path id="DejaVuSans-Bold-69" d="M 538 3500 
L 1656 3500 
L 1656 0 
L 538 0 
L 538 3500 
z
M 538 4863 
L 1656 4863 
L 1656 3950 
L 538 3950 
L 538 4863 
z
" transform="scale(0.015625)"/>
        <path id="DejaVuSans-Bold-74" d="M 1759 4494 
L 1759 3500 
L 2913 3500 
L 2913 2700 
L 1759 2700 
L 1759 1216 
Q 1759 972 1856 886 
Q 1953 800 2241 800 
L 2816 800 
L 2816 0 
L 1856 0 
Q 1194 0 917 276 
Q 641 553 641 1216 
L 641 2700 
L 84 2700 
L 84 3500 
L 641 3500 
L 641 4494 
L 1759 4494 
z
" transform="scale(0.015625)"/>
        <path id="DejaVuSans-Bold-6f" d="M 2203 2784 
Q 1831 2784 1636 2517 
Q 1441 2250 1441 1747 
Q 1441 1244 1636 976 
Q 1831 709 2203 709 
Q 2569 709 2762 976 
Q 2956 1244 2956 1747 
Q 2956 2250 2762 2517 
Q 2569 2784 2203 2784 
z
M 2203 3584 
Q 3106 3584 3614 3096 
Q 4122 2609 4122 1747 
Q 4122 884 3614 396 
Q 3106 -91 2203 -91 
Q 1297 -91 786 396 
Q 275 884 275 1747 
Q 275 2609 786 3096 
Q 1297 3584 2203 3584 
z
" transform="scale(0.015625)"/>
        <path id="DejaVuSans-Bold-63" d="M 3366 3391 
L 3366 2478 
Q 3138 2634 2908 2709 
Q 2678 2784 2431 2784 
Q 1963 2784 1702 2511 
Q 1441 2238 1441 1747 
Q 1441 1256 1702 982 
Q 1963 709 2431 709 
Q 2694 709 2930 787 
Q 3166 866 3366 1019 
L 3366 103 
Q 3103 6 2833 -42 
Q 2563 -91 2291 -91 
Q 1344 -91 809 395 
Q 275 881 275 1747 
Q 275 2613 809 3098 
Q 1344 3584 2291 3584 
Q 2566 3584 2833 3536 
Q 3100 3488 3366 3391 
z
" transform="scale(0.015625)"/>
        <path id="DejaVuSans-Bold-68" d="M 4056 2131 
L 4056 0 
L 2931 0 
L 2931 347 
L 2931 1625 
Q 2931 2084 2911 2256 
Q 2891 2428 2841 2509 
Q 2775 2619 2662 2680 
Q 2550 2741 2406 2741 
Q 2056 2741 1856 2470 
Q 1656 2200 1656 1722 
L 1656 0 
L 538 0 
L 538 4863 
L 1656 4863 
L 1656 2988 
Q 1909 3294 2193 3439 
Q 2478 3584 2822 3584 
Q 3428 3584 3742 3212 
Q 4056 2841 4056 2131 
z
" transform="scale(0.015625)"/>
        <path id="DejaVuSans-Bold-6e" d="M 4056 2131 
L 4056 0 
L 2931 0 
L 2931 347 
L 2931 1631 
Q 2931 2084 2911 2256 
Q 2891 2428 2841 2509 
Q 2775 2619 2662 2680 
Q 2550 2741 2406 2741 
Q 2056 2741 1856 2470 
Q 1656 2200 1656 1722 
L 1656 0 
L 538 0 
L 538 3500 
L 1656 3500 
L 1656 2988 
Q 1909 3294 2193 3439 
Q 2478 3584 2822 3584 
Q 3428 3584 3742 3212 
Q 4056 2841 4056 2131 
z
" transform="scale(0.015625)"/>
        <path id="DejaVuSans-Bold-64" d="M 2919 2988 
L 2919 4863 
L 4044 4863 
L 4044 0 
L 2919 0 
L 2919 506 
Q 2688 197 2409 53 
Q 2131 -91 1766 -91 
Q 1119 -91 703 423 
Q 288 938 288 1747 
Q 288 2556 703 3070 
Q 1119 3584 1766 3584 
Q 2128 3584 2408 3439 
Q 2688 3294 2919 2988 
z
M 2181 722 
Q 2541 722 2730 984 
Q 2919 1247 2919 1747 
Q 2919 2247 2730 2509 
Q 2541 2772 2181 2772 
Q 1825 2772 1636 2509 
Q 1447 2247 1447 1747 
Q 1447 1247 1636 984 
Q 1825 722 2181 722 
z
" transform="scale(0.015625)"/>
        <path id="DejaVuSans-Bold-72" d="M 3138 2547 
Q 2991 2616 2845 2648 
Q 2700 2681 2553 2681 
Q 2122 2681 1889 2404 
Q 1656 2128 1656 1613 
L 1656 0 
L 538 0 
L 538 3500 
L 1656 3500 
L 1656 2925 
Q 1872 3269 2151 3426 
Q 2431 3584 2822 3584 
Q 2878 3584 2943 3579 
Q 3009 3575 3134 3559 
L 3138 2547 
z
" transform="scale(0.015625)"/>
        <path id="DejaVuSans-Bold-61" d="M 2106 1575 
Q 1756 1575 1579 1456 
Q 1403 1338 1403 1106 
Q 1403 894 1545 773 
Q 1688 653 1941 653 
Q 2256 653 2472 879 
Q 2688 1106 2688 1447 
L 2688 1575 
L 2106 1575 
z
M 3816 1997 
L 3816 0 
L 2688 0 
L 2688 519 
Q 2463 200 2181 54 
Q 1900 -91 1497 -91 
Q 953 -91 614 226 
Q 275 544 275 1050 
Q 275 1666 698 1953 
Q 1122 2241 2028 2241 
L 2688 2241 
L 2688 2328 
Q 2688 2594 2478 2717 
Q 2269 2841 1825 2841 
Q 1466 2841 1156 2769 
Q 847 2697 581 2553 
L 581 3406 
Q 941 3494 1303 3539 
Q 1666 3584 2028 3584 
Q 2975 3584 3395 3211 
Q 3816 2838 3816 1997 
z
" transform="scale(0.015625)"/>
       </defs>
       <use xlink:href="#DejaVuSans-Bold-4d"/>
       <use xlink:href="#DejaVuSans-Bold-69" transform="translate(99.511719 0)"/>
       <use xlink:href="#DejaVuSans-Bold-74" transform="translate(133.789062 0)"/>
       <use xlink:href="#DejaVuSans-Bold-6f" transform="translate(181.591797 0)"/>
       <use xlink:href="#DejaVuSans-Bold-63" transform="translate(250.292969 0)"/>
       <use xlink:href="#DejaVuSans-Bold-68" transform="translate(309.570312 0)"/>
       <use xlink:href="#DejaVuSans-Bold-6f" transform="translate(380.761719 0)"/>
       <use xlink:href="#DejaVuSans-Bold-6e" transform="translate(449.462891 0)"/>
       <use xlink:href="#DejaVuSans-Bold-64" transform="translate(520.654297 0)"/>
       <use xlink:href="#DejaVuSans-Bold-72" transform="translate(592.236328 0)"/>
       <use xlink:href="#DejaVuSans-Bold-69" transform="translate(641.552734 0)"/>
       <use xlink:href="#DejaVuSans-Bold-61" transform="translate(675.830078 0)"/>
      </g>
     </g>
    </g>
    <g id="xtick_2">
     <g id="line2d_2">
      <g>
       <use xlink:href="#m1db09e9b1d" x="316.9" y="311.56" style="stroke: #000000; stroke-width: 0.8"/>
      </g>
     </g>
     <g id="text_2">
      <!-- Central Metabolism -->
      <g transform="translate(250.823125 327.678125) scale(0.12 -0.12)">
       <defs>
        <path id="DejaVuSans-Bold-43" d="M 4288 256 
Q 3956 84 3597 -3 
Q 3238 -91 2847 -91 
Q 1681 -91 1000 561 
Q 319 1213 319 2328 
Q 319 3447 1000 4098 
Q 1681 4750 2847 4750 
Q 3238 4750 3597 4662 
Q 3956 4575 4288 4403 
L 4288 3438 
Q 3953 3666 3628 3772 
Q 3303 3878 2944 3878 
Q 2300 3878 1931 3465 
Q 1563 3053 1563 2328 
Q 1563 1606 1931 1193 
Q 2300 781 2944 781 
Q 3303 781 3628 887 
Q 3953 994 4288 1222 
L 4288 256 
z
" transform="scale(0.015625)"/>
        <path id="DejaVuSans-Bold-65" d="M 4031 1759 
L 4031 1441 
L 1416 1441 
Q 1456 1047 1700 850 
Q 1944 653 2381 653 
Q 2734 653 3104 758 
Q 3475 863 3866 1075 
L 3866 213 
Q 3469 63 3072 -14 
Q 2675 -91 2278 -91 
Q 1328 -91 801 392 
Q 275 875 275 1747 
Q 275 2603 792 3093 
Q 1309 3584 2216 3584 
Q 3041 3584 3536 3087 
Q 4031 2591 4031 1759 
z
M 2881 2131 
Q 2881 2450 2695 2645 
Q 2509 2841 2209 2841 
Q 1884 2841 1681 2658 
Q 1478 2475 1428 2131 
L 2881 2131 
z
" transform="scale(0.015625)"/>
        <path id="DejaVuSans-Bold-6c" d="M 538 4863 
L 1656 4863 
L 1656 0 
L 538 0 
L 538 4863 
z
" transform="scale(0.015625)"/>
        <path id="DejaVuSans-Bold-20" transform="scale(0.015625)"/>
        <path id="DejaVuSans-Bold-62" d="M 2400 722 
Q 2759 722 2948 984 
Q 3138 1247 3138 1747 
Q 3138 2247 2948 2509 
Q 2759 2772 2400 2772 
Q 2041 2772 1848 2508 
Q 1656 2244 1656 1747 
Q 1656 1250 1848 986 
Q 2041 722 2400 722 
z
M 1656 2988 
Q 1888 3294 2169 3439 
Q 2450 3584 2816 3584 
Q 3463 3584 3878 3070 
Q 4294 2556 4294 1747 
Q 4294 938 3878 423 
Q 3463 -91 2816 -91 
Q 2450 -91 2169 54 
Q 1888 200 1656 506 
L 1656 0 
L 538 0 
L 538 4863 
L 1656 4863 
L 1656 2988 
z
" transform="scale(0.015625)"/>
        <path id="DejaVuSans-Bold-73" d="M 3272 3391 
L 3272 2541 
Q 2913 2691 2578 2766 
Q 2244 2841 1947 2841 
Q 1628 2841 1473 2761 
Q 1319 2681 1319 2516 
Q 1319 2381 1436 2309 
Q 1553 2238 1856 2203 
L 2053 2175 
Q 2913 2066 3209 1816 
Q 3506 1566 3506 1031 
Q 3506 472 3093 190 
Q 2681 -91 1863 -91 
Q 1516 -91 1145 -36 
Q 775 19 384 128 
L 384 978 
Q 719 816 1070 734 
Q 1422 653 1784 653 
Q 2113 653 2278 743 
Q 2444 834 2444 1013 
Q 2444 1163 2330 1236 
Q 2216 1309 1875 1350 
L 1678 1375 
Q 931 1469 631 1722 
Q 331 1975 331 2491 
Q 331 3047 712 3315 
Q 1094 3584 1881 3584 
Q 2191 3584 2531 3537 
Q 2872 3491 3272 3391 
z
" transform="scale(0.015625)"/>
        <path id="DejaVuSans-Bold-6d" d="M 3781 2919 
Q 3994 3244 4286 3414 
Q 4578 3584 4928 3584 
Q 5531 3584 5847 3212 
Q 6163 2841 6163 2131 
L 6163 0 
L 5038 0 
L 5038 1825 
Q 5041 1866 5042 1909 
Q 5044 1953 5044 2034 
Q 5044 2406 4934 2573 
Q 4825 2741 4581 2741 
Q 4263 2741 4089 2478 
Q 3916 2216 3909 1719 
L 3909 0 
L 2784 0 
L 2784 1825 
Q 2784 2406 2684 2573 
Q 2584 2741 2328 2741 
Q 2006 2741 1831 2477 
Q 1656 2213 1656 1722 
L 1656 0 
L 531 0 
L 531 3500 
L 1656 3500 
L 1656 2988 
Q 1863 3284 2130 3434 
Q 2397 3584 2719 3584 
Q 3081 3584 3359 3409 
Q 3638 3234 3781 2919 
z
" transform="scale(0.015625)"/>
       </defs>
       <use xlink:href="#DejaVuSans-Bold-43"/>
       <use xlink:href="#DejaVuSans-Bold-65" transform="translate(73.388672 0)"/>
       <use xlink:href="#DejaVuSans-Bold-6e" transform="translate(141.210938 0)"/>
       <use xlink:href="#DejaVuSans-Bold-74" transform="translate(212.402344 0)"/>
       <use xlink:href="#DejaVuSans-Bold-72" transform="translate(260.205078 0)"/>
       <use xlink:href="#DejaVuSans-Bold-61" transform="translate(309.521484 0)"/>
       <use xlink:href="#DejaVuSans-Bold-6c" transform="translate(377.001953 0)"/>
       <use xlink:href="#DejaVuSans-Bold-20" transform="translate(411.279297 0)"/>
       <use xlink:href="#DejaVuSans-Bold-4d" transform="translate(446.09375 0)"/>
       <use xlink:href="#DejaVuSans-Bold-65" transform="translate(545.605469 0)"/>
       <use xlink:href="#DejaVuSans-Bold-74" transform="translate(613.427734 0)"/>
       <use xlink:href="#DejaVuSans-Bold-61" transform="translate(661.230469 0)"/>
       <use xlink:href="#DejaVuSans-Bold-62" transform="translate(728.710938 0)"/>
       <use xlink:href="#DejaVuSans-Bold-6f" transform="translate(800.292969 0)"/>
       <use xlink:href="#DejaVuSans-Bold-6c" transform="translate(868.994141 0)"/>
       <use xlink:href="#DejaVuSans-Bold-69" transform="translate(903.271484 0)"/>
       <use xlink:href="#DejaVuSans-Bold-73" transform="translate(937.548828 0)"/>
       <use xlink:href="#DejaVuSans-Bold-6d" transform="translate(997.070312 0)"/>
      </g>
     </g>
    </g>
    <g id="xtick_3">
     <g id="line2d_3">
      <g>
       <use xlink:href="#m1db09e9b1d" x="481.065289" y="311.56" style="stroke: #000000; stroke-width: 0.8"/>
      </g>
     </g>
     <g id="text_3">
      <!-- Immunity -->
      <g transform="translate(448.950289 327.678125) scale(0.12 -0.12)">
       <defs>
        <path id="DejaVuSans-Bold-49" d="M 588 4666 
L 1791 4666 
L 1791 0 
L 588 0 
L 588 4666 
z
" transform="scale(0.015625)"/>
        <path id="DejaVuSans-Bold-75" d="M 500 1363 
L 500 3500 
L 1625 3500 
L 1625 3150 
Q 1625 2866 1622 2436 
Q 1619 2006 1619 1863 
Q 1619 1441 1641 1255 
Q 1663 1069 1716 984 
Q 1784 875 1895 815 
Q 2006 756 2150 756 
Q 2500 756 2700 1025 
Q 2900 1294 2900 1772 
L 2900 3500 
L 4019 3500 
L 4019 0 
L 2900 0 
L 2900 506 
Q 2647 200 2364 54 
Q 2081 -91 1741 -91 
Q 1134 -91 817 281 
Q 500 653 500 1363 
z
" transform="scale(0.015625)"/>
        <path id="DejaVuSans-Bold-79" d="M 78 3500 
L 1197 3500 
L 2138 1125 
L 2938 3500 
L 4056 3500 
L 2584 -331 
Q 2363 -916 2067 -1148 
Q 1772 -1381 1288 -1381 
L 641 -1381 
L 641 -647 
L 991 -647 
Q 1275 -647 1404 -556 
Q 1534 -466 1606 -231 
L 1638 -134 
L 78 3500 
z
" transform="scale(0.015625)"/>
       </defs>
       <use xlink:href="#DejaVuSans-Bold-49"/>
       <use xlink:href="#DejaVuSans-Bold-6d" transform="translate(37.207031 0)"/>
       <use xlink:href="#DejaVuSans-Bold-6d" transform="translate(141.40625 0)"/>
       <use xlink:href="#DejaVuSans-Bold-75" transform="translate(245.605469 0)"/>
       <use xlink:href="#DejaVuSans-Bold-6e" transform="translate(316.796875 0)"/>
       <use xlink:href="#DejaVuSans-Bold-69" transform="translate(387.988281 0)"/>
       <use xlink:href="#DejaVuSans-Bold-74" transform="translate(422.265625 0)"/>
       <use xlink:href="#DejaVuSans-Bold-79" transform="translate(470.068359 0)"/>
      </g>
     </g>
    </g>
    <g id="text_4">
     <!-- Biochemical Process -->
     <g transform="translate(236.449219 344.905312) scale(0.14 -0.14)">
      <defs>
       <path id="DejaVuSans-Bold-42" d="M 2456 2859 
Q 2741 2859 2887 2984 
Q 3034 3109 3034 3353 
Q 3034 3594 2887 3720 
Q 2741 3847 2456 3847 
L 1791 3847 
L 1791 2859 
L 2456 2859 
z
M 2497 819 
Q 2859 819 3042 972 
Q 3225 1125 3225 1434 
Q 3225 1738 3044 1889 
Q 2863 2041 2497 2041 
L 1791 2041 
L 1791 819 
L 2497 819 
z
M 3616 2497 
Q 4003 2384 4215 2081 
Q 4428 1778 4428 1338 
Q 4428 663 3972 331 
Q 3516 0 2584 0 
L 588 0 
L 588 4666 
L 2394 4666 
Q 3366 4666 3802 4372 
Q 4238 4078 4238 3431 
Q 4238 3091 4078 2852 
Q 3919 2613 3616 2497 
z
" transform="scale(0.015625)"/>
       <path id="DejaVuSans-Bold-50" d="M 588 4666 
L 2584 4666 
Q 3475 4666 3951 4270 
Q 4428 3875 4428 3144 
Q 4428 2409 3951 2014 
Q 3475 1619 2584 1619 
L 1791 1619 
L 1791 0 
L 588 0 
L 588 4666 
z
M 1791 3794 
L 1791 2491 
L 2456 2491 
Q 2806 2491 2997 2661 
Q 3188 2831 3188 3144 
Q 3188 3456 2997 3625 
Q 2806 3794 2456 3794 
L 1791 3794 
z
" transform="scale(0.015625)"/>
      </defs>
      <use xlink:href="#DejaVuSans-Bold-42"/>
      <use xlink:href="#DejaVuSans-Bold-69" transform="translate(76.220703 0)"/>
      <use xlink:href="#DejaVuSans-Bold-6f" transform="translate(110.498047 0)"/>
      <use xlink:href="#DejaVuSans-Bold-63" transform="translate(179.199219 0)"/>
      <use xlink:href="#DejaVuSans-Bold-68" transform="translate(238.476562 0)"/>
      <use xlink:href="#DejaVuSans-Bold-65" transform="translate(309.667969 0)"/>
      <use xlink:href="#DejaVuSans-Bold-6d" transform="translate(377.490234 0)"/>
      <use xlink:href="#DejaVuSans-Bold-69" transform="translate(481.689453 0)"/>
      <use xlink:href="#DejaVuSans-Bold-63" transform="translate(515.966797 0)"/>
      <use xlink:href="#DejaVuSans-Bold-61" transform="translate(575.244141 0)"/>
      <use xlink:href="#DejaVuSans-Bold-6c" transform="translate(642.724609 0)"/>
      <use xlink:href="#DejaVuSans-Bold-20" transform="translate(677.001953 0)"/>
      <use xlink:href="#DejaVuSans-Bold-50" transform="translate(711.816406 0)"/>
      <use xlink:href="#DejaVuSans-Bold-72" transform="translate(785.107422 0)"/>
      <use xlink:href="#DejaVuSans-Bold-6f" transform="translate(834.423828 0)"/>
      <use xlink:href="#DejaVuSans-Bold-63" transform="translate(903.125 0)"/>
      <use xlink:href="#DejaVuSans-Bold-65" transform="translate(962.402344 0)"/>
      <use xlink:href="#DejaVuSans-Bold-73" transform="translate(1030.224609 0)"/>
      <use xlink:href="#DejaVuSans-Bold-73" transform="translate(1089.746094 0)"/>
     </g>
    </g>
   </g>
   <g id="matplotlib.axis_2">
    <g id="ytick_1">
     <g id="line2d_4">
      <defs>
       <path id="mcebc941250" d="M 0 0 
L -3.5 0 
" style="stroke: #000000; stroke-width: 0.8"/>
      </defs>
      <g>
       <use xlink:href="#mcebc941250" x="68.6" y="311.56" style="stroke: #000000; stroke-width: 0.8"/>
      </g>
     </g>
     <g id="text_5">
      <!-- −1.00 -->
      <g transform="translate(28.548438 315.359219) scale(0.1 -0.1)">
       <defs>
        <path id="DejaVuSans-Bold-2212" d="M 678 2375 
L 4684 2375 
L 4684 1638 
L 678 1638 
L 678 2375 
z
" transform="scale(0.015625)"/>
        <path id="DejaVuSans-Bold-31" d="M 750 831 
L 1813 831 
L 1813 3847 
L 722 3622 
L 722 4441 
L 1806 4666 
L 2950 4666 
L 2950 831 
L 4013 831 
L 4013 0 
L 750 0 
L 750 831 
z
" transform="scale(0.015625)"/>
        <path id="DejaVuSans-Bold-2e" d="M 653 1209 
L 1778 1209 
L 1778 0 
L 653 0 
L 653 1209 
z
" transform="scale(0.015625)"/>
        <path id="DejaVuSans-Bold-30" d="M 2944 2338 
Q 2944 3213 2780 3570 
Q 2616 3928 2228 3928 
Q 1841 3928 1675 3570 
Q 1509 3213 1509 2338 
Q 1509 1453 1675 1090 
Q 1841 728 2228 728 
Q 2613 728 2778 1090 
Q 2944 1453 2944 2338 
z
M 4147 2328 
Q 4147 1169 3647 539 
Q 3147 -91 2228 -91 
Q 1306 -91 806 539 
Q 306 1169 306 2328 
Q 306 3491 806 4120 
Q 1306 4750 2228 4750 
Q 3147 4750 3647 4120 
Q 4147 3491 4147 2328 
z
" transform="scale(0.015625)"/>
       </defs>
       <use xlink:href="#DejaVuSans-Bold-2212"/>
       <use xlink:href="#DejaVuSans-Bold-31" transform="translate(83.789062 0)"/>
       <use xlink:href="#DejaVuSans-Bold-2e" transform="translate(153.369141 0)"/>
       <use xlink:href="#DejaVuSans-Bold-30" transform="translate(191.357422 0)"/>
       <use xlink:href="#DejaVuSans-Bold-30" transform="translate(260.9375 0)"/>
      </g>
     </g>
    </g>
    <g id="ytick_2">
     <g id="line2d_5">
      <g>
       <use xlink:href="#mcebc941250" x="68.6" y="274.46" style="stroke: #000000; stroke-width: 0.8"/>
      </g>
     </g>
     <g id="text_6">
      <!-- −0.75 -->
      <g transform="translate(28.548438 278.259219) scale(0.1 -0.1)">
       <defs>
        <path id="DejaVuSans-Bold-37" d="M 428 4666 
L 3944 4666 
L 3944 3988 
L 2125 0 
L 953 0 
L 2675 3781 
L 428 3781 
L 428 4666 
z
" transform="scale(0.015625)"/>
        <path id="DejaVuSans-Bold-35" d="M 678 4666 
L 3669 4666 
L 3669 3781 
L 1638 3781 
L 1638 3059 
Q 1775 3097 1914 3117 
Q 2053 3138 2203 3138 
Q 3056 3138 3531 2711 
Q 4006 2284 4006 1522 
Q 4006 766 3489 337 
Q 2972 -91 2053 -91 
Q 1656 -91 1267 -14 
Q 878 63 494 219 
L 494 1166 
Q 875 947 1217 837 
Q 1559 728 1863 728 
Q 2300 728 2551 942 
Q 2803 1156 2803 1522 
Q 2803 1891 2551 2103 
Q 2300 2316 1863 2316 
Q 1603 2316 1309 2248 
Q 1016 2181 678 2041 
L 678 4666 
z
" transform="scale(0.015625)"/>
       </defs>
       <use xlink:href="#DejaVuSans-Bold-2212"/>
       <use xlink:href="#DejaVuSans-Bold-30" transform="translate(83.789062 0)"/>
       <use xlink:href="#DejaVuSans-Bold-2e" transform="translate(153.369141 0)"/>
       <use xlink:href="#DejaVuSans-Bold-37" transform="translate(191.357422 0)"/>
       <use xlink:href="#DejaVuSans-Bold-35" transform="translate(260.9375 0)"/>
      </g>
     </g>
    </g>
    <g id="ytick_3">
     <g id="line2d_6">
      <g>
       <use xlink:href="#mcebc941250" x="68.6" y="237.36" style="stroke: #000000; stroke-width: 0.8"/>
      </g>
     </g>
     <g id="text_7">
      <!-- −0.50 -->
      <g transform="translate(28.548438 241.159219) scale(0.1 -0.1)">
       <use xlink:href="#DejaVuSans-Bold-2212"/>
       <use xlink:href="#DejaVuSans-Bold-30" transform="translate(83.789062 0)"/>
       <use xlink:href="#DejaVuSans-Bold-2e" transform="translate(153.369141 0)"/>
       <use xlink:href="#DejaVuSans-Bold-35" transform="translate(191.357422 0)"/>
       <use xlink:href="#DejaVuSans-Bold-30" transform="translate(260.9375 0)"/>
      </g>
     </g>
    </g>
    <g id="ytick_4">
     <g id="line2d_7">
      <g>
       <use xlink:href="#mcebc941250" x="68.6" y="200.26" style="stroke: #000000; stroke-width: 0.8"/>
      </g>
     </g>
     <g id="text_8">
      <!-- −0.25 -->
      <g transform="translate(28.548438 204.059219) scale(0.1 -0.1)">
       <defs>
        <path id="DejaVuSans-Bold-32" d="M 1844 884 
L 3897 884 
L 3897 0 
L 506 0 
L 506 884 
L 2209 2388 
Q 2438 2594 2547 2791 
Q 2656 2988 2656 3200 
Q 2656 3528 2436 3728 
Q 2216 3928 1850 3928 
Q 1569 3928 1234 3808 
Q 900 3688 519 3450 
L 519 4475 
Q 925 4609 1322 4679 
Q 1719 4750 2100 4750 
Q 2938 4750 3402 4381 
Q 3866 4013 3866 3353 
Q 3866 2972 3669 2642 
Q 3472 2313 2841 1759 
L 1844 884 
z
" transform="scale(0.015625)"/>
       </defs>
       <use xlink:href="#DejaVuSans-Bold-2212"/>
       <use xlink:href="#DejaVuSans-Bold-30" transform="translate(83.789062 0)"/>
       <use xlink:href="#DejaVuSans-Bold-2e" transform="translate(153.369141 0)"/>
       <use xlink:href="#DejaVuSans-Bold-32" transform="translate(191.357422 0)"/>
       <use xlink:href="#DejaVuSans-Bold-35" transform="translate(260.9375 0)"/>
      </g>
     </g>
    </g>
    <g id="ytick_5">
     <g id="line2d_8">
      <g>
       <use xlink:href="#mcebc941250" x="68.6" y="163.16" style="stroke: #000000; stroke-width: 0.8"/>
      </g>
     </g>
     <g id="text_9">
      <!-- 0.00 -->
      <g transform="translate(36.928125 166.959219) scale(0.1 -0.1)">
       <use xlink:href="#DejaVuSans-Bold-30"/>
       <use xlink:href="#DejaVuSans-Bold-2e" transform="translate(69.580078 0)"/>
       <use xlink:href="#DejaVuSans-Bold-30" transform="translate(107.568359 0)"/>
       <use xlink:href="#DejaVuSans-Bold-30" transform="translate(177.148438 0)"/>
      </g>
     </g>
    </g>
    <g id="ytick_6">
     <g id="line2d_9">
      <g>
       <use xlink:href="#mcebc941250" x="68.6" y="126.06" style="stroke: #000000; stroke-width: 0.8"/>
      </g>
     </g>
     <g id="text_10">
      <!-- 0.25 -->
      <g transform="translate(36.928125 129.859219) scale(0.1 -0.1)">
       <use xlink:href="#DejaVuSans-Bold-30"/>
       <use xlink:href="#DejaVuSans-Bold-2e" transform="translate(69.580078 0)"/>
       <use xlink:href="#DejaVuSans-Bold-32" transform="translate(107.568359 0)"/>
       <use xlink:href="#DejaVuSans-Bold-35" transform="translate(177.148438 0)"/>
      </g>
     </g>
    </g>
    <g id="ytick_7">
     <g id="line2d_10">
      <g>
       <use xlink:href="#mcebc941250" x="68.6" y="88.96" style="stroke: #000000; stroke-width: 0.8"/>
      </g>
     </g>
     <g id="text_11">
      <!-- 0.50 -->
      <g transform="translate(36.928125 92.759219) scale(0.1 -0.1)">
       <use xlink:href="#DejaVuSans-Bold-30"/>
       <use xlink:href="#DejaVuSans-Bold-2e" transform="translate(69.580078 0)"/>
       <use xlink:href="#DejaVuSans-Bold-35" transform="translate(107.568359 0)"/>
       <use xlink:href="#DejaVuSans-Bold-30" transform="translate(177.148438 0)"/>
      </g>
     </g>
    </g>
    <g id="ytick_8">
     <g id="line2d_11">
      <g>
       <use xlink:href="#mcebc941250" x="68.6" y="51.86" style="stroke: #000000; stroke-width: 0.8"/>
      </g>
     </g>
     <g id="text_12">
      <!-- 0.75 -->
      <g transform="translate(36.928125 55.659219) scale(0.1 -0.1)">
       <use xlink:href="#DejaVuSans-Bold-30"/>
       <use xlink:href="#DejaVuSans-Bold-2e" transform="translate(69.580078 0)"/>
       <use xlink:href="#DejaVuSans-Bold-37" transform="translate(107.568359 0)"/>
       <use xlink:href="#DejaVuSans-Bold-35" transform="translate(177.148438 0)"/>
      </g>
     </g>
    </g>
    <g id="ytick_9">
     <g id="line2d_12">
      <g>
       <use xlink:href="#mcebc941250" x="68.6" y="14.76" style="stroke: #000000; stroke-width: 0.8"/>
      </g>
     </g>
     <g id="text_13">
      <!-- 1.00 -->
      <g transform="translate(36.928125 18.559219) scale(0.1 -0.1)">
       <use xlink:href="#DejaVuSans-Bold-31"/>
       <use xlink:href="#DejaVuSans-Bold-2e" transform="translate(69.580078 0)"/>
       <use xlink:href="#DejaVuSans-Bold-30" transform="translate(107.568359 0)"/>
       <use xlink:href="#DejaVuSans-Bold-30" transform="translate(177.148438 0)"/>
      </g>
     </g>
    </g>
    <g id="text_14">
     <!-- Normalized Enrichment Scores -->
     <g transform="translate(21.636875 284.289531) rotate(-90) scale(0.14 -0.14)">
      <defs>
       <path id="DejaVuSans-Bold-4e" d="M 588 4666 
L 1931 4666 
L 3628 1466 
L 3628 4666 
L 4769 4666 
L 4769 0 
L 3425 0 
L 1728 3200 
L 1728 0 
L 588 0 
L 588 4666 
z
" transform="scale(0.015625)"/>
       <path id="DejaVuSans-Bold-7a" d="M 366 3500 
L 3419 3500 
L 3419 2719 
L 1575 800 
L 3419 800 
L 3419 0 
L 288 0 
L 288 781 
L 2131 2700 
L 366 2700 
L 366 3500 
z
" transform="scale(0.015625)"/>
       <path id="DejaVuSans-Bold-45" d="M 588 4666 
L 3834 4666 
L 3834 3756 
L 1791 3756 
L 1791 2888 
L 3713 2888 
L 3713 1978 
L 1791 1978 
L 1791 909 
L 3903 909 
L 3903 0 
L 588 0 
L 588 4666 
z
" transform="scale(0.015625)"/>
       <path id="DejaVuSans-Bold-53" d="M 3834 4519 
L 3834 3531 
Q 3450 3703 3084 3790 
Q 2719 3878 2394 3878 
Q 1963 3878 1756 3759 
Q 1550 3641 1550 3391 
Q 1550 3203 1689 3098 
Q 1828 2994 2194 2919 
L 2706 2816 
Q 3484 2659 3812 2340 
Q 4141 2022 4141 1434 
Q 4141 663 3683 286 
Q 3225 -91 2284 -91 
Q 1841 -91 1394 -6 
Q 947 78 500 244 
L 500 1259 
Q 947 1022 1364 901 
Q 1781 781 2169 781 
Q 2563 781 2772 912 
Q 2981 1044 2981 1288 
Q 2981 1506 2839 1625 
Q 2697 1744 2272 1838 
L 1806 1941 
Q 1106 2091 782 2419 
Q 459 2747 459 3303 
Q 459 4000 909 4375 
Q 1359 4750 2203 4750 
Q 2588 4750 2994 4692 
Q 3400 4634 3834 4519 
z
" transform="scale(0.015625)"/>
      </defs>
      <use xlink:href="#DejaVuSans-Bold-4e"/>
      <use xlink:href="#DejaVuSans-Bold-6f" transform="translate(83.691406 0)"/>
      <use xlink:href="#DejaVuSans-Bold-72" transform="translate(152.392578 0)"/>
      <use xlink:href="#DejaVuSans-Bold-6d" transform="translate(201.708984 0)"/>
      <use xlink:href="#DejaVuSans-Bold-61" transform="translate(305.908203 0)"/>
      <use xlink:href="#DejaVuSans-Bold-6c" transform="translate(373.388672 0)"/>
      <use xlink:href="#DejaVuSans-Bold-69" transform="translate(407.666016 0)"/>
      <use xlink:href="#DejaVuSans-Bold-7a" transform="translate(441.943359 0)"/>
      <use xlink:href="#DejaVuSans-Bold-65" transform="translate(500.146484 0)"/>
      <use xlink:href="#DejaVuSans-Bold-64" transform="translate(567.96875 0)"/>
      <use xlink:href="#DejaVuSans-Bold-20" transform="translate(639.550781 0)"/>
      <use xlink:href="#DejaVuSans-Bold-45" transform="translate(674.365234 0)"/>
      <use xlink:href="#DejaVuSans-Bold-6e" transform="translate(742.675781 0)"/>
      <use xlink:href="#DejaVuSans-Bold-72" transform="translate(813.867188 0)"/>
      <use xlink:href="#DejaVuSans-Bold-69" transform="translate(863.183594 0)"/>
      <use xlink:href="#DejaVuSans-Bold-63" transform="translate(897.460938 0)"/>
      <use xlink:href="#DejaVuSans-Bold-68" transform="translate(956.738281 0)"/>
      <use xlink:href="#DejaVuSans-Bold-6d" transform="translate(1027.929688 0)"/>
      <use xlink:href="#DejaVuSans-Bold-65" transform="translate(1132.128906 0)"/>
      <use xlink:href="#DejaVuSans-Bold-6e" transform="translate(1199.951172 0)"/>
      <use xlink:href="#DejaVuSans-Bold-74" transform="translate(1271.142578 0)"/>
      <use xlink:href="#DejaVuSans-Bold-20" transform="translate(1318.945312 0)"/>
      <use xlink:href="#DejaVuSans-Bold-53" transform="translate(1353.759766 0)"/>
      <use xlink:href="#DejaVuSans-Bold-63" transform="translate(1425.78125 0)"/>
      <use xlink:href="#DejaVuSans-Bold-6f" transform="translate(1485.058594 0)"/>
      <use xlink:href="#DejaVuSans-Bold-72" transform="translate(1553.759766 0)"/>
      <use xlink:href="#DejaVuSans-Bold-65" transform="translate(1603.076172 0)"/>
      <use xlink:href="#DejaVuSans-Bold-73" transform="translate(1670.898438 0)"/>
     </g>
    </g>
   </g>
   <g id="LineCollection_1">
    <path d="M 111.693388 276.714105 
L 111.693388 242.871012 
" clip-path="url(#p57c00aea14)" style="fill: none; stroke: #000000; stroke-width: 1.5"/>
    <path d="M 275.858678 122.020038 
L 275.858678 88.639073 
" clip-path="url(#p57c00aea14)" style="fill: none; stroke: #000000; stroke-width: 1.5"/>
    <path d="M 440.023967 139.289351 
L 440.023967 109.522464 
" clip-path="url(#p57c00aea14)" style="fill: none; stroke: #000000; stroke-width: 1.5"/>
   </g>
   <g id="line2d_13">
    <defs>
     <path id="m042f0c1bd6" d="M 6 0 
L -6 -0 
" style="stroke: #000000"/>
    </defs>
    <g clip-path="url(#p57c00aea14)">
     <use xlink:href="#m042f0c1bd6" x="111.693388" y="276.714105" style="stroke: #000000"/>
     <use xlink:href="#m042f0c1bd6" x="275.858678" y="122.020038" style="stroke: #000000"/>
     <use xlink:href="#m042f0c1bd6" x="440.023967" y="139.289351" style="stroke: #000000"/>
    </g>
   </g>
   <g id="line2d_14">
    <g clip-path="url(#p57c00aea14)">
     <use xlink:href="#m042f0c1bd6" x="111.693388" y="242.871012" style="stroke: #000000"/>
     <use xlink:href="#m042f0c1bd6" x="275.858678" y="88.639073" style="stroke: #000000"/>
     <use xlink:href="#m042f0c1bd6" x="440.023967" y="109.522464" style="stroke: #000000"/>
    </g>
   </g>
   <g id="LineCollection_2">
    <path d="M 152.734711 260.256401 
L 152.734711 207.396933 
" clip-path="url(#p57c00aea14)" style="fill: none; stroke: #000000; stroke-width: 1.5"/>
    <path d="M 316.9 125.131737 
L 316.9 77.598436 
" clip-path="url(#p57c00aea14)" style="fill: none; stroke: #000000; stroke-width: 1.5"/>
    <path d="M 481.065289 125.927056 
L 481.065289 82.918441 
" clip-path="url(#p57c00aea14)" style="fill: none; stroke: #000000; stroke-width: 1.5"/>
   </g>
   <g id="line2d_15">
    <g clip-path="url(#p57c00aea14)">
     <use xlink:href="#m042f0c1bd6" x="152.734711" y="260.256401" style="stroke: #000000"/>
     <use xlink:href="#m042f0c1bd6" x="316.9" y="125.131737" style="stroke: #000000"/>
     <use xlink:href="#m042f0c1bd6" x="481.065289" y="125.927056" style="stroke: #000000"/>
    </g>
   </g>
   <g id="line2d_16">
    <g clip-path="url(#p57c00aea14)">
     <use xlink:href="#m042f0c1bd6" x="152.734711" y="207.396933" style="stroke: #000000"/>
     <use xlink:href="#m042f0c1bd6" x="316.9" y="77.598436" style="stroke: #000000"/>
     <use xlink:href="#m042f0c1bd6" x="481.065289" y="82.918441" style="stroke: #000000"/>
    </g>
   </g>
   <g id="LineCollection_3">
    <path d="M 193.776033 305.872583 
L 193.776033 263.28378 
" clip-path="url(#p57c00aea14)" style="fill: none; stroke: #000000; stroke-width: 1.5"/>
    <path d="M 357.941322 132.84268 
L 357.941322 85.74537 
" clip-path="url(#p57c00aea14)" style="fill: none; stroke: #000000; stroke-width: 1.5"/>
    <path d="M 522.106612 164.090862 
L 522.106612 122.949606 
" clip-path="url(#p57c00aea14)" style="fill: none; stroke: #000000; stroke-width: 1.5"/>
   </g>
   <g id="line2d_17">
    <g clip-path="url(#p57c00aea14)">
     <use xlink:href="#m042f0c1bd6" x="193.776033" y="305.872583" style="stroke: #000000"/>
     <use xlink:href="#m042f0c1bd6" x="357.941322" y="132.84268" style="stroke: #000000"/>
     <use xlink:href="#m042f0c1bd6" x="522.106612" y="164.090862" style="stroke: #000000"/>
    </g>
   </g>
   <g id="line2d_18">
    <g clip-path="url(#p57c00aea14)">
     <use xlink:href="#m042f0c1bd6" x="193.776033" y="263.28378" style="stroke: #000000"/>
     <use xlink:href="#m042f0c1bd6" x="357.941322" y="85.74537" style="stroke: #000000"/>
     <use xlink:href="#m042f0c1bd6" x="522.106612" y="122.949606" style="stroke: #000000"/>
    </g>
   </g>
   <g id="line2d_19">
    <path d="M 68.6 163.16 
L 565.2 163.16 
" clip-path="url(#p57c00aea14)" style="fill: none; stroke-dasharray: 3.7,1.6; stroke-dashoffset: 0; stroke: #000000"/>
   </g>
   <g id="patch_12">
    <path d="M 68.6 311.56 
L 68.6 14.76 
" style="fill: none; stroke: #000000; stroke-width: 2; stroke-linejoin: miter; stroke-linecap: square"/>
   </g>
   <g id="patch_13">
    <path d="M 565.2 311.56 
L 565.2 14.76 
" style="fill: none; stroke: #000000; stroke-width: 2; stroke-linejoin: miter; stroke-linecap: square"/>
   </g>
   <g id="patch_14">
    <path d="M 68.6 311.56 
L 565.2 311.56 
" style="fill: none; stroke: #000000; stroke-width: 2; stroke-linejoin: miter; stroke-linecap: square"/>
   </g>
   <g id="patch_15">
    <path d="M 68.6 14.76 
L 565.2 14.76 
" style="fill: none; stroke: #000000; stroke-width: 2; stroke-linejoin: miter; stroke-linecap: square"/>
   </g>
   <g id="legend_1">
    <g id="patch_16">
     <path d="M 444.21 77.38875 
L 556.8 77.38875 
Q 559.2 77.38875 559.2 74.98875 
L 559.2 23.16 
Q 559.2 20.76 556.8 20.76 
L 444.21 20.76 
Q 441.81 20.76 441.81 23.16 
L 441.81 74.98875 
Q 441.81 77.38875 444.21 77.38875 
z
" style="fill: #ffffff; opacity: 0.8; stroke: #cccccc; stroke-linejoin: miter"/>
    </g>
    <g id="patch_17">
     <path d="M 446.61 34.678125 
L 470.61 34.678125 
L 470.61 26.278125 
L 446.61 26.278125 
z
" style="fill: #1f77b4; stroke: #000000; stroke-linejoin: miter"/>
    </g>
    <g id="text_15">
     <!-- All Data -->
     <g transform="translate(480.21 34.678125) scale(0.12 -0.12)">
      <defs>
       <path id="DejaVuSans-Bold-41" d="M 3419 850 
L 1538 850 
L 1241 0 
L 31 0 
L 1759 4666 
L 3194 4666 
L 4922 0 
L 3713 0 
L 3419 850 
z
M 1838 1716 
L 3116 1716 
L 2478 3572 
L 1838 1716 
z
" transform="scale(0.015625)"/>
       <path id="DejaVuSans-Bold-44" d="M 1791 3756 
L 1791 909 
L 2222 909 
Q 2959 909 3348 1275 
Q 3738 1641 3738 2338 
Q 3738 3031 3350 3393 
Q 2963 3756 2222 3756 
L 1791 3756 
z
M 588 4666 
L 1856 4666 
Q 2919 4666 3439 4514 
Q 3959 4363 4331 4000 
Q 4659 3684 4818 3271 
Q 4978 2859 4978 2338 
Q 4978 1809 4818 1395 
Q 4659 981 4331 666 
Q 3956 303 3431 151 
Q 2906 0 1856 0 
L 588 0 
L 588 4666 
z
" transform="scale(0.015625)"/>
      </defs>
      <use xlink:href="#DejaVuSans-Bold-41"/>
      <use xlink:href="#DejaVuSans-Bold-6c" transform="translate(77.392578 0)"/>
      <use xlink:href="#DejaVuSans-Bold-6c" transform="translate(111.669922 0)"/>
      <use xlink:href="#DejaVuSans-Bold-20" transform="translate(145.947266 0)"/>
      <use xlink:href="#DejaVuSans-Bold-44" transform="translate(180.761719 0)"/>
      <use xlink:href="#DejaVuSans-Bold-61" transform="translate(263.769531 0)"/>
      <use xlink:href="#DejaVuSans-Bold-74" transform="translate(331.25 0)"/>
      <use xlink:href="#DejaVuSans-Bold-61" transform="translate(379.052734 0)"/>
     </g>
    </g>
    <g id="patch_18">
     <path d="M 446.61 52.291875 
L 470.61 52.291875 
L 470.61 43.891875 
L 446.61 43.891875 
z
" style="fill: #d62728; stroke: #000000; stroke-linejoin: miter"/>
    </g>
    <g id="text_16">
     <!-- In-Flight -->
     <g transform="translate(480.21 52.291875) scale(0.12 -0.12)">
      <defs>
       <path id="DejaVuSans-Bold-2d" d="M 347 2297 
L 2309 2297 
L 2309 1388 
L 347 1388 
L 347 2297 
z
" transform="scale(0.015625)"/>
       <path id="DejaVuSans-Bold-46" d="M 588 4666 
L 3834 4666 
L 3834 3756 
L 1791 3756 
L 1791 2888 
L 3713 2888 
L 3713 1978 
L 1791 1978 
L 1791 0 
L 588 0 
L 588 4666 
z
" transform="scale(0.015625)"/>
       <path id="DejaVuSans-Bold-67" d="M 2919 594 
Q 2688 288 2409 144 
Q 2131 0 1766 0 
Q 1125 0 706 504 
Q 288 1009 288 1791 
Q 288 2575 706 3076 
Q 1125 3578 1766 3578 
Q 2131 3578 2409 3434 
Q 2688 3291 2919 2981 
L 2919 3500 
L 4044 3500 
L 4044 353 
Q 4044 -491 3511 -936 
Q 2978 -1381 1966 -1381 
Q 1638 -1381 1331 -1331 
Q 1025 -1281 716 -1178 
L 716 -306 
Q 1009 -475 1290 -558 
Q 1572 -641 1856 -641 
Q 2406 -641 2662 -400 
Q 2919 -159 2919 353 
L 2919 594 
z
M 2181 2772 
Q 1834 2772 1640 2515 
Q 1447 2259 1447 1791 
Q 1447 1309 1634 1061 
Q 1822 813 2181 813 
Q 2531 813 2725 1069 
Q 2919 1325 2919 1791 
Q 2919 2259 2725 2515 
Q 2531 2772 2181 2772 
z
" transform="scale(0.015625)"/>
      </defs>
      <use xlink:href="#DejaVuSans-Bold-49"/>
      <use xlink:href="#DejaVuSans-Bold-6e" transform="translate(37.207031 0)"/>
      <use xlink:href="#DejaVuSans-Bold-2d" transform="translate(108.398438 0)"/>
      <use xlink:href="#DejaVuSans-Bold-46" transform="translate(149.902344 0)"/>
      <use xlink:href="#DejaVuSans-Bold-6c" transform="translate(218.212891 0)"/>
      <use xlink:href="#DejaVuSans-Bold-69" transform="translate(252.490234 0)"/>
      <use xlink:href="#DejaVuSans-Bold-67" transform="translate(286.767578 0)"/>
      <use xlink:href="#DejaVuSans-Bold-68" transform="translate(358.349609 0)"/>
      <use xlink:href="#DejaVuSans-Bold-74" transform="translate(429.541016 0)"/>
     </g>
    </g>
    <g id="patch_19">
     <path d="M 446.61 69.999375 
L 470.61 69.999375 
L 470.61 61.599375 
L 446.61 61.599375 
z
" style="fill: #2ca02c; stroke: #000000; stroke-linejoin: miter"/>
    </g>
    <g id="text_17">
     <!-- Post-Flight -->
     <g transform="translate(480.21 69.999375) scale(0.12 -0.12)">
      <use xlink:href="#DejaVuSans-Bold-50"/>
      <use xlink:href="#DejaVuSans-Bold-6f" transform="translate(73.291016 0)"/>
      <use xlink:href="#DejaVuSans-Bold-73" transform="translate(141.992188 0)"/>
      <use xlink:href="#DejaVuSans-Bold-74" transform="translate(201.513672 0)"/>
      <use xlink:href="#DejaVuSans-Bold-2d" transform="translate(249.316406 0)"/>
      <use xlink:href="#DejaVuSans-Bold-46" transform="translate(290.820312 0)"/>
      <use xlink:href="#DejaVuSans-Bold-6c" transform="translate(359.130859 0)"/>
      <use xlink:href="#DejaVuSans-Bold-69" transform="translate(393.408203 0)"/>
      <use xlink:href="#DejaVuSans-Bold-67" transform="translate(427.685547 0)"/>
      <use xlink:href="#DejaVuSans-Bold-68" transform="translate(499.267578 0)"/>
      <use xlink:href="#DejaVuSans-Bold-74" transform="translate(570.458984 0)"/>
     </g>
    </g>
   </g>
  </g>
 </g>
 <defs>
  <clipPath id="p57c00aea14">
   <rect x="68.6" y="14.76" width="496.6" height="296.8"/>
  </clipPath>
 </defs>
</svg>
