<?xml version="1.0" encoding="utf-8" standalone="no"?>
<!DOCTYPE svg PUBLIC "-//W3C//DTD SVG 1.1//EN"
  "http://www.w3.org/Graphics/SVG/1.1/DTD/svg11.dtd">
<svg xmlns:xlink="http://www.w3.org/1999/xlink" width="648pt" height="432pt" viewBox="0 0 648 432" xmlns="http://www.w3.org/2000/svg" version="1.1">
 <metadata>
  <rdf:RDF xmlns:dc="http://purl.org/dc/elements/1.1/" xmlns:cc="http://creativecommons.org/ns#" xmlns:rdf="http://www.w3.org/1999/02/22-rdf-syntax-ns#">
   <cc:Work>
    <dc:type rdf:resource="http://purl.org/dc/dcmitype/StillImage"/>
    <dc:date>2025-07-08T09:02:23.841116</dc:date>
    <dc:format>image/svg+xml</dc:format>
    <dc:creator>
     <cc:Agent>
      <dc:title>Matplotlib v3.9.4, https://matplotlib.org/</dc:title>
     </cc:Agent>
    </dc:creator>
   </cc:Work>
  </rdf:RDF>
 </metadata>
 <defs>
  <style type="text/css">*{stroke-linejoin: round; stroke-linecap: butt}</style>
 </defs>
 <g id="figure_1">
  <g id="patch_1">
   <path d="M 0 432 
L 648 432 
L 648 0 
L 0 0 
z
" style="fill: #ffffff"/>
  </g>
  <g id="axes_1">
   <g id="patch_2">
    <path d="M 66.17 380.57875 
L 635.04 380.57875 
L 635.04 16.08043 
L 66.17 16.08043 
z
" style="fill: #ffffff"/>
   </g>
   <g id="matplotlib.axis_1">
    <g id="xtick_1">
     <g id="text_1">
      <!-- 5 -->
      <g style="fill: #262626" transform="translate(133.661226 397.599688) scale(0.14 -0.14)">
       <defs>
        <path id="Arial-BoldMT-35" d="M 284 1178 
L 1159 1269 
Q 1197 972 1381 798 
Q 1566 625 1806 625 
Q 2081 625 2272 848 
Q 2463 1072 2463 1522 
Q 2463 1944 2273 2155 
Q 2084 2366 1781 2366 
Q 1403 2366 1103 2031 
L 391 2134 
L 841 4519 
L 3163 4519 
L 3163 3697 
L 1506 3697 
L 1369 2919 
Q 1663 3066 1969 3066 
Q 2553 3066 2959 2641 
Q 3366 2216 3366 1538 
Q 3366 972 3038 528 
Q 2591 -78 1797 -78 
Q 1163 -78 763 262 
Q 363 603 284 1178 
z
" transform="scale(0.015625)"/>
       </defs>
       <use xlink:href="#Arial-BoldMT-35"/>
      </g>
     </g>
    </g>
    <g id="xtick_2">
     <g id="text_2">
      <!-- 10 -->
      <g style="fill: #262626" transform="translate(223.830873 397.599688) scale(0.14 -0.14)">
       <defs>
        <path id="Arial-BoldMT-31" d="M 2519 0 
L 1641 0 
L 1641 3309 
Q 1159 2859 506 2644 
L 506 3441 
Q 850 3553 1253 3867 
Q 1656 4181 1806 4600 
L 2519 4600 
L 2519 0 
z
" transform="scale(0.015625)"/>
        <path id="Arial-BoldMT-30" d="M 1756 4600 
Q 2422 4600 2797 4125 
Q 3244 3563 3244 2259 
Q 3244 959 2794 391 
Q 2422 -78 1756 -78 
Q 1088 -78 678 436 
Q 269 950 269 2269 
Q 269 3563 719 4131 
Q 1091 4600 1756 4600 
z
M 1756 3872 
Q 1597 3872 1472 3770 
Q 1347 3669 1278 3406 
Q 1188 3066 1188 2259 
Q 1188 1453 1269 1151 
Q 1350 850 1473 750 
Q 1597 650 1756 650 
Q 1916 650 2041 751 
Q 2166 853 2234 1116 
Q 2325 1453 2325 2259 
Q 2325 3066 2244 3367 
Q 2163 3669 2039 3770 
Q 1916 3872 1756 3872 
z
" transform="scale(0.015625)"/>
       </defs>
       <use xlink:href="#Arial-BoldMT-31"/>
       <use xlink:href="#Arial-BoldMT-30" x="55.615234"/>
      </g>
     </g>
    </g>
    <g id="xtick_3">
     <g id="text_3">
      <!-- 15 -->
      <g style="fill: #262626" transform="translate(317.893177 397.599688) scale(0.14 -0.14)">
       <use xlink:href="#Arial-BoldMT-31"/>
       <use xlink:href="#Arial-BoldMT-35" x="55.615234"/>
      </g>
     </g>
    </g>
    <g id="xtick_4">
     <g id="text_4">
      <!-- 20 -->
      <g style="fill: #262626" transform="translate(411.955481 397.599688) scale(0.14 -0.14)">
       <defs>
        <path id="Arial-BoldMT-32" d="M 3238 816 
L 3238 0 
L 159 0 
Q 209 463 459 877 
Q 709 1291 1447 1975 
Q 2041 2528 2175 2725 
Q 2356 2997 2356 3263 
Q 2356 3556 2198 3714 
Q 2041 3872 1763 3872 
Q 1488 3872 1325 3706 
Q 1163 3541 1138 3156 
L 263 3244 
Q 341 3969 753 4284 
Q 1166 4600 1784 4600 
Q 2463 4600 2850 4234 
Q 3238 3869 3238 3325 
Q 3238 3016 3127 2736 
Q 3016 2456 2775 2150 
Q 2616 1947 2200 1565 
Q 1784 1184 1673 1059 
Q 1563 934 1494 816 
L 3238 816 
z
" transform="scale(0.015625)"/>
       </defs>
       <use xlink:href="#Arial-BoldMT-32"/>
       <use xlink:href="#Arial-BoldMT-30" x="55.615234"/>
      </g>
     </g>
    </g>
    <g id="xtick_5">
     <g id="text_5">
      <!-- 25 -->
      <g style="fill: #262626" transform="translate(506.017784 397.599688) scale(0.14 -0.14)">
       <use xlink:href="#Arial-BoldMT-32"/>
       <use xlink:href="#Arial-BoldMT-35" x="55.615234"/>
      </g>
     </g>
    </g>
    <g id="xtick_6">
     <g id="text_6">
      <!-- 30 -->
      <g style="fill: #262626" transform="translate(600.080088 397.599688) scale(0.14 -0.14)">
       <defs>
        <path id="Arial-BoldMT-33" d="M 241 1216 
L 1091 1319 
Q 1131 994 1309 822 
Q 1488 650 1741 650 
Q 2013 650 2198 856 
Q 2384 1063 2384 1413 
Q 2384 1744 2206 1937 
Q 2028 2131 1772 2131 
Q 1603 2131 1369 2066 
L 1466 2781 
Q 1822 2772 2009 2936 
Q 2197 3100 2197 3372 
Q 2197 3603 2059 3740 
Q 1922 3878 1694 3878 
Q 1469 3878 1309 3722 
Q 1150 3566 1116 3266 
L 306 3403 
Q 391 3819 561 4067 
Q 731 4316 1036 4458 
Q 1341 4600 1719 4600 
Q 2366 4600 2756 4188 
Q 3078 3850 3078 3425 
Q 3078 2822 2419 2463 
Q 2813 2378 3048 2084 
Q 3284 1791 3284 1375 
Q 3284 772 2843 347 
Q 2403 -78 1747 -78 
Q 1125 -78 715 280 
Q 306 638 241 1216 
z
" transform="scale(0.015625)"/>
       </defs>
       <use xlink:href="#Arial-BoldMT-33"/>
       <use xlink:href="#Arial-BoldMT-30" x="55.615234"/>
      </g>
     </g>
    </g>
    <g id="text_7">
     <!-- Amount Radiation Absorbed (mGy) -->
     <g style="fill: #262626" transform="translate(217.135 416.01) scale(0.16 -0.16)">
      <defs>
       <path id="Arial-BoldMT-41" d="M 4597 0 
L 3591 0 
L 3191 1041 
L 1359 1041 
L 981 0 
L 0 0 
L 1784 4581 
L 2763 4581 
L 4597 0 
z
M 2894 1813 
L 2263 3513 
L 1644 1813 
L 2894 1813 
z
" transform="scale(0.015625)"/>
       <path id="Arial-BoldMT-6d" d="M 394 3319 
L 1203 3319 
L 1203 2866 
Q 1638 3394 2238 3394 
Q 2556 3394 2790 3262 
Q 3025 3131 3175 2866 
Q 3394 3131 3647 3262 
Q 3900 3394 4188 3394 
Q 4553 3394 4806 3245 
Q 5059 3097 5184 2809 
Q 5275 2597 5275 2122 
L 5275 0 
L 4397 0 
L 4397 1897 
Q 4397 2391 4306 2534 
Q 4184 2722 3931 2722 
Q 3747 2722 3584 2609 
Q 3422 2497 3350 2280 
Q 3278 2063 3278 1594 
L 3278 0 
L 2400 0 
L 2400 1819 
Q 2400 2303 2353 2443 
Q 2306 2584 2207 2653 
Q 2109 2722 1941 2722 
Q 1738 2722 1575 2612 
Q 1413 2503 1342 2297 
Q 1272 2091 1272 1613 
L 1272 0 
L 394 0 
L 394 3319 
z
" transform="scale(0.015625)"/>
       <path id="Arial-BoldMT-6f" d="M 256 1706 
Q 256 2144 472 2553 
Q 688 2963 1083 3178 
Q 1478 3394 1966 3394 
Q 2719 3394 3200 2905 
Q 3681 2416 3681 1669 
Q 3681 916 3195 420 
Q 2709 -75 1972 -75 
Q 1516 -75 1102 131 
Q 688 338 472 736 
Q 256 1134 256 1706 
z
M 1156 1659 
Q 1156 1166 1390 903 
Q 1625 641 1969 641 
Q 2313 641 2545 903 
Q 2778 1166 2778 1666 
Q 2778 2153 2545 2415 
Q 2313 2678 1969 2678 
Q 1625 2678 1390 2415 
Q 1156 2153 1156 1659 
z
" transform="scale(0.015625)"/>
       <path id="Arial-BoldMT-75" d="M 2644 0 
L 2644 497 
Q 2463 231 2167 78 
Q 1872 -75 1544 -75 
Q 1209 -75 943 72 
Q 678 219 559 484 
Q 441 750 441 1219 
L 441 3319 
L 1319 3319 
L 1319 1794 
Q 1319 1094 1367 936 
Q 1416 778 1544 686 
Q 1672 594 1869 594 
Q 2094 594 2272 717 
Q 2450 841 2515 1023 
Q 2581 1206 2581 1919 
L 2581 3319 
L 3459 3319 
L 3459 0 
L 2644 0 
z
" transform="scale(0.015625)"/>
       <path id="Arial-BoldMT-6e" d="M 3478 0 
L 2600 0 
L 2600 1694 
Q 2600 2231 2544 2389 
Q 2488 2547 2361 2634 
Q 2234 2722 2056 2722 
Q 1828 2722 1647 2597 
Q 1466 2472 1398 2265 
Q 1331 2059 1331 1503 
L 1331 0 
L 453 0 
L 453 3319 
L 1269 3319 
L 1269 2831 
Q 1703 3394 2363 3394 
Q 2653 3394 2893 3289 
Q 3134 3184 3257 3021 
Q 3381 2859 3429 2653 
Q 3478 2447 3478 2063 
L 3478 0 
z
" transform="scale(0.015625)"/>
       <path id="Arial-BoldMT-74" d="M 1981 3319 
L 1981 2619 
L 1381 2619 
L 1381 1281 
Q 1381 875 1398 808 
Q 1416 741 1477 697 
Q 1538 653 1625 653 
Q 1747 653 1978 738 
L 2053 56 
Q 1747 -75 1359 -75 
Q 1122 -75 931 4 
Q 741 84 652 211 
Q 563 338 528 553 
Q 500 706 500 1172 
L 500 2619 
L 97 2619 
L 97 3319 
L 500 3319 
L 500 3978 
L 1381 4491 
L 1381 3319 
L 1981 3319 
z
" transform="scale(0.015625)"/>
       <path id="Arial-BoldMT-20" transform="scale(0.015625)"/>
       <path id="Arial-BoldMT-52" d="M 469 0 
L 469 4581 
L 2416 4581 
Q 3150 4581 3483 4457 
Q 3816 4334 4016 4018 
Q 4216 3703 4216 3297 
Q 4216 2781 3912 2445 
Q 3609 2109 3006 2022 
Q 3306 1847 3501 1637 
Q 3697 1428 4028 894 
L 4588 0 
L 3481 0 
L 2813 997 
Q 2456 1531 2325 1670 
Q 2194 1809 2047 1861 
Q 1900 1913 1581 1913 
L 1394 1913 
L 1394 0 
L 469 0 
z
M 1394 2644 
L 2078 2644 
Q 2744 2644 2909 2700 
Q 3075 2756 3169 2893 
Q 3263 3031 3263 3238 
Q 3263 3469 3139 3611 
Q 3016 3753 2791 3791 
Q 2678 3806 2116 3806 
L 1394 3806 
L 1394 2644 
z
" transform="scale(0.015625)"/>
       <path id="Arial-BoldMT-61" d="M 1116 2306 
L 319 2450 
Q 453 2931 781 3162 
Q 1109 3394 1756 3394 
Q 2344 3394 2631 3255 
Q 2919 3116 3036 2902 
Q 3153 2688 3153 2116 
L 3144 1091 
Q 3144 653 3186 445 
Q 3228 238 3344 0 
L 2475 0 
Q 2441 88 2391 259 
Q 2369 338 2359 363 
Q 2134 144 1878 34 
Q 1622 -75 1331 -75 
Q 819 -75 523 203 
Q 228 481 228 906 
Q 228 1188 362 1408 
Q 497 1628 739 1745 
Q 981 1863 1438 1950 
Q 2053 2066 2291 2166 
L 2291 2253 
Q 2291 2506 2166 2614 
Q 2041 2722 1694 2722 
Q 1459 2722 1328 2630 
Q 1197 2538 1116 2306 
z
M 2291 1594 
Q 2122 1538 1756 1459 
Q 1391 1381 1278 1306 
Q 1106 1184 1106 997 
Q 1106 813 1243 678 
Q 1381 544 1594 544 
Q 1831 544 2047 700 
Q 2206 819 2256 991 
Q 2291 1103 2291 1419 
L 2291 1594 
z
" transform="scale(0.015625)"/>
       <path id="Arial-BoldMT-64" d="M 3503 0 
L 2688 0 
L 2688 488 
Q 2484 203 2207 64 
Q 1931 -75 1650 -75 
Q 1078 -75 670 386 
Q 263 847 263 1672 
Q 263 2516 659 2955 
Q 1056 3394 1663 3394 
Q 2219 3394 2625 2931 
L 2625 4581 
L 3503 4581 
L 3503 0 
z
M 1159 1731 
Q 1159 1200 1306 963 
Q 1519 619 1900 619 
Q 2203 619 2415 876 
Q 2628 1134 2628 1647 
Q 2628 2219 2422 2470 
Q 2216 2722 1894 2722 
Q 1581 2722 1370 2473 
Q 1159 2225 1159 1731 
z
" transform="scale(0.015625)"/>
       <path id="Arial-BoldMT-69" d="M 459 3769 
L 459 4581 
L 1338 4581 
L 1338 3769 
L 459 3769 
z
M 459 0 
L 459 3319 
L 1338 3319 
L 1338 0 
L 459 0 
z
" transform="scale(0.015625)"/>
       <path id="Arial-BoldMT-62" d="M 422 0 
L 422 4581 
L 1300 4581 
L 1300 2931 
Q 1706 3394 2263 3394 
Q 2869 3394 3266 2955 
Q 3663 2516 3663 1694 
Q 3663 844 3258 384 
Q 2853 -75 2275 -75 
Q 1991 -75 1714 67 
Q 1438 209 1238 488 
L 1238 0 
L 422 0 
z
M 1294 1731 
Q 1294 1216 1456 969 
Q 1684 619 2063 619 
Q 2353 619 2558 867 
Q 2763 1116 2763 1650 
Q 2763 2219 2556 2470 
Q 2350 2722 2028 2722 
Q 1713 2722 1503 2476 
Q 1294 2231 1294 1731 
z
" transform="scale(0.015625)"/>
       <path id="Arial-BoldMT-73" d="M 150 947 
L 1031 1081 
Q 1088 825 1259 692 
Q 1431 559 1741 559 
Q 2081 559 2253 684 
Q 2369 772 2369 919 
Q 2369 1019 2306 1084 
Q 2241 1147 2013 1200 
Q 950 1434 666 1628 
Q 272 1897 272 2375 
Q 272 2806 612 3100 
Q 953 3394 1669 3394 
Q 2350 3394 2681 3172 
Q 3013 2950 3138 2516 
L 2309 2363 
Q 2256 2556 2107 2659 
Q 1959 2763 1684 2763 
Q 1338 2763 1188 2666 
Q 1088 2597 1088 2488 
Q 1088 2394 1175 2328 
Q 1294 2241 1995 2081 
Q 2697 1922 2975 1691 
Q 3250 1456 3250 1038 
Q 3250 581 2869 253 
Q 2488 -75 1741 -75 
Q 1063 -75 667 200 
Q 272 475 150 947 
z
" transform="scale(0.015625)"/>
       <path id="Arial-BoldMT-72" d="M 1300 0 
L 422 0 
L 422 3319 
L 1238 3319 
L 1238 2847 
Q 1447 3181 1614 3287 
Q 1781 3394 1994 3394 
Q 2294 3394 2572 3228 
L 2300 2463 
Q 2078 2606 1888 2606 
Q 1703 2606 1575 2504 
Q 1447 2403 1373 2137 
Q 1300 1872 1300 1025 
L 1300 0 
z
" transform="scale(0.015625)"/>
       <path id="Arial-BoldMT-65" d="M 2381 1056 
L 3256 909 
Q 3088 428 2723 176 
Q 2359 -75 1813 -75 
Q 947 -75 531 491 
Q 203 944 203 1634 
Q 203 2459 634 2926 
Q 1066 3394 1725 3394 
Q 2466 3394 2894 2905 
Q 3322 2416 3303 1406 
L 1103 1406 
Q 1113 1016 1316 798 
Q 1519 581 1822 581 
Q 2028 581 2168 693 
Q 2309 806 2381 1056 
z
M 2431 1944 
Q 2422 2325 2234 2523 
Q 2047 2722 1778 2722 
Q 1491 2722 1303 2513 
Q 1116 2303 1119 1944 
L 2431 1944 
z
" transform="scale(0.015625)"/>
       <path id="Arial-BoldMT-28" d="M 1916 -1347 
L 1313 -1347 
Q 834 -625 584 153 
Q 334 931 334 1659 
Q 334 2563 644 3369 
Q 913 4069 1325 4659 
L 1925 4659 
Q 1497 3713 1336 3048 
Q 1175 2384 1175 1641 
Q 1175 1128 1270 590 
Q 1366 53 1531 -431 
Q 1641 -750 1916 -1347 
z
" transform="scale(0.015625)"/>
       <path id="Arial-BoldMT-47" d="M 2597 1684 
L 2597 2456 
L 4591 2456 
L 4591 631 
Q 4300 350 3748 136 
Q 3197 -78 2631 -78 
Q 1913 -78 1378 223 
Q 844 525 575 1086 
Q 306 1647 306 2306 
Q 306 3022 606 3578 
Q 906 4134 1484 4431 
Q 1925 4659 2581 4659 
Q 3434 4659 3914 4301 
Q 4394 3944 4531 3313 
L 3613 3141 
Q 3516 3478 3248 3673 
Q 2981 3869 2581 3869 
Q 1975 3869 1617 3484 
Q 1259 3100 1259 2344 
Q 1259 1528 1621 1120 
Q 1984 713 2572 713 
Q 2863 713 3155 827 
Q 3447 941 3656 1103 
L 3656 1684 
L 2597 1684 
z
" transform="scale(0.015625)"/>
       <path id="Arial-BoldMT-79" d="M 44 3319 
L 978 3319 
L 1772 963 
L 2547 3319 
L 3456 3319 
L 2284 125 
L 2075 -453 
Q 1959 -744 1854 -897 
Q 1750 -1050 1614 -1145 
Q 1478 -1241 1279 -1294 
Q 1081 -1347 831 -1347 
Q 578 -1347 334 -1294 
L 256 -606 
Q 463 -647 628 -647 
Q 934 -647 1081 -467 
Q 1228 -288 1306 -9 
L 44 3319 
z
" transform="scale(0.015625)"/>
       <path id="Arial-BoldMT-29" d="M 216 -1347 
Q 475 -791 581 -494 
Q 688 -197 778 190 
Q 869 578 912 926 
Q 956 1275 956 1641 
Q 956 2384 797 3048 
Q 638 3713 209 4659 
L 806 4659 
Q 1278 3988 1539 3234 
Q 1800 2481 1800 1706 
Q 1800 1053 1594 306 
Q 1359 -531 822 -1347 
L 216 -1347 
z
" transform="scale(0.015625)"/>
      </defs>
      <use xlink:href="#Arial-BoldMT-41"/>
      <use xlink:href="#Arial-BoldMT-6d" x="72.216797"/>
      <use xlink:href="#Arial-BoldMT-6f" x="161.132812"/>
      <use xlink:href="#Arial-BoldMT-75" x="222.216797"/>
      <use xlink:href="#Arial-BoldMT-6e" x="283.300781"/>
      <use xlink:href="#Arial-BoldMT-74" x="344.384766"/>
      <use xlink:href="#Arial-BoldMT-20" x="377.685547"/>
      <use xlink:href="#Arial-BoldMT-52" x="405.46875"/>
      <use xlink:href="#Arial-BoldMT-61" x="477.685547"/>
      <use xlink:href="#Arial-BoldMT-64" x="533.300781"/>
      <use xlink:href="#Arial-BoldMT-69" x="594.384766"/>
      <use xlink:href="#Arial-BoldMT-61" x="622.167969"/>
      <use xlink:href="#Arial-BoldMT-74" x="677.783203"/>
      <use xlink:href="#Arial-BoldMT-69" x="711.083984"/>
      <use xlink:href="#Arial-BoldMT-6f" x="738.867188"/>
      <use xlink:href="#Arial-BoldMT-6e" x="799.951172"/>
      <use xlink:href="#Arial-BoldMT-20" x="861.035156"/>
      <use xlink:href="#Arial-BoldMT-41" x="885.068359"/>
      <use xlink:href="#Arial-BoldMT-62" x="957.285156"/>
      <use xlink:href="#Arial-BoldMT-73" x="1018.369141"/>
      <use xlink:href="#Arial-BoldMT-6f" x="1073.984375"/>
      <use xlink:href="#Arial-BoldMT-72" x="1135.068359"/>
      <use xlink:href="#Arial-BoldMT-62" x="1173.984375"/>
      <use xlink:href="#Arial-BoldMT-65" x="1235.068359"/>
      <use xlink:href="#Arial-BoldMT-64" x="1290.683594"/>
      <use xlink:href="#Arial-BoldMT-20" x="1351.767578"/>
      <use xlink:href="#Arial-BoldMT-28" x="1379.550781"/>
      <use xlink:href="#Arial-BoldMT-6d" x="1412.851562"/>
      <use xlink:href="#Arial-BoldMT-47" x="1501.767578"/>
      <use xlink:href="#Arial-BoldMT-79" x="1579.550781"/>
      <use xlink:href="#Arial-BoldMT-29" x="1635.166016"/>
     </g>
    </g>
   </g>
   <g id="matplotlib.axis_2">
    <g id="ytick_1">
     <g id="text_8">
      <!-- −2.5 -->
      <g style="fill: #262626" transform="translate(31.533125 372.367211) scale(0.14 -0.14)">
       <defs>
        <path id="Arial-BoldMT-2212" d="M 266 1850 
L 266 2672 
L 3469 2672 
L 3469 1850 
L 266 1850 
z
" transform="scale(0.015625)"/>
        <path id="Arial-BoldMT-2e" d="M 459 0 
L 459 878 
L 1338 878 
L 1338 0 
L 459 0 
z
" transform="scale(0.015625)"/>
       </defs>
       <use xlink:href="#Arial-BoldMT-2212"/>
       <use xlink:href="#Arial-BoldMT-32" x="58.398438"/>
       <use xlink:href="#Arial-BoldMT-2e" x="114.013672"/>
       <use xlink:href="#Arial-BoldMT-35" x="141.796875"/>
      </g>
     </g>
    </g>
    <g id="ytick_2">
     <g id="text_9">
      <!-- −2.0 -->
      <g style="fill: #262626" transform="translate(31.533125 322.485368) scale(0.14 -0.14)">
       <use xlink:href="#Arial-BoldMT-2212"/>
       <use xlink:href="#Arial-BoldMT-32" x="58.398438"/>
       <use xlink:href="#Arial-BoldMT-2e" x="114.013672"/>
       <use xlink:href="#Arial-BoldMT-30" x="141.796875"/>
      </g>
     </g>
    </g>
    <g id="ytick_3">
     <g id="text_10">
      <!-- −1.5 -->
      <g style="fill: #262626" transform="translate(31.533125 272.603526) scale(0.14 -0.14)">
       <use xlink:href="#Arial-BoldMT-2212"/>
       <use xlink:href="#Arial-BoldMT-31" x="58.398438"/>
       <use xlink:href="#Arial-BoldMT-2e" x="114.013672"/>
       <use xlink:href="#Arial-BoldMT-35" x="141.796875"/>
      </g>
     </g>
    </g>
    <g id="ytick_4">
     <g id="text_11">
      <!-- −1.0 -->
      <g style="fill: #262626" transform="translate(31.533125 222.721684) scale(0.14 -0.14)">
       <use xlink:href="#Arial-BoldMT-2212"/>
       <use xlink:href="#Arial-BoldMT-31" x="58.398438"/>
       <use xlink:href="#Arial-BoldMT-2e" x="114.013672"/>
       <use xlink:href="#Arial-BoldMT-30" x="141.796875"/>
      </g>
     </g>
    </g>
    <g id="ytick_5">
     <g id="text_12">
      <!-- −0.5 -->
      <g style="fill: #262626" transform="translate(31.533125 172.839841) scale(0.14 -0.14)">
       <use xlink:href="#Arial-BoldMT-2212"/>
       <use xlink:href="#Arial-BoldMT-30" x="58.398438"/>
       <use xlink:href="#Arial-BoldMT-2e" x="114.013672"/>
       <use xlink:href="#Arial-BoldMT-35" x="141.796875"/>
      </g>
     </g>
    </g>
    <g id="ytick_6">
     <g id="text_13">
      <!-- 0.0 -->
      <g style="fill: #262626" transform="translate(39.71 122.957999) scale(0.14 -0.14)">
       <use xlink:href="#Arial-BoldMT-30"/>
       <use xlink:href="#Arial-BoldMT-2e" x="55.615234"/>
       <use xlink:href="#Arial-BoldMT-30" x="83.398438"/>
      </g>
     </g>
    </g>
    <g id="ytick_7">
     <g id="text_14">
      <!-- 0.5 -->
      <g style="fill: #262626" transform="translate(39.71 73.076156) scale(0.14 -0.14)">
       <use xlink:href="#Arial-BoldMT-30"/>
       <use xlink:href="#Arial-BoldMT-2e" x="55.615234"/>
       <use xlink:href="#Arial-BoldMT-35" x="83.398438"/>
      </g>
     </g>
    </g>
    <g id="ytick_8">
     <g id="text_15">
      <!-- 1.0 -->
      <g style="fill: #262626" transform="translate(39.71 23.194314) scale(0.14 -0.14)">
       <use xlink:href="#Arial-BoldMT-31"/>
       <use xlink:href="#Arial-BoldMT-2e" x="55.615234"/>
       <use xlink:href="#Arial-BoldMT-30" x="83.398438"/>
      </g>
     </g>
    </g>
    <g id="text_16">
     <!-- Normalized Enrichment Scores -->
     <g style="fill: #262626" transform="translate(24.375625 316.58334) rotate(-90) scale(0.16 -0.16)">
      <defs>
       <path id="Arial-BoldMT-4e" d="M 475 0 
L 475 4581 
L 1375 4581 
L 3250 1522 
L 3250 4581 
L 4109 4581 
L 4109 0 
L 3181 0 
L 1334 2988 
L 1334 0 
L 475 0 
z
" transform="scale(0.015625)"/>
       <path id="Arial-BoldMT-6c" d="M 459 0 
L 459 4581 
L 1338 4581 
L 1338 0 
L 459 0 
z
" transform="scale(0.015625)"/>
       <path id="Arial-BoldMT-7a" d="M 106 0 
L 106 684 
L 1350 2113 
Q 1656 2463 1803 2609 
Q 1650 2600 1400 2597 
L 228 2591 
L 228 3319 
L 2972 3319 
L 2972 2697 
L 1703 1234 
L 1256 750 
Q 1622 772 1709 772 
L 3069 772 
L 3069 0 
L 106 0 
z
" transform="scale(0.015625)"/>
       <path id="Arial-BoldMT-45" d="M 466 0 
L 466 4581 
L 3863 4581 
L 3863 3806 
L 1391 3806 
L 1391 2791 
L 3691 2791 
L 3691 2019 
L 1391 2019 
L 1391 772 
L 3950 772 
L 3950 0 
L 466 0 
z
" transform="scale(0.015625)"/>
       <path id="Arial-BoldMT-63" d="M 3353 2338 
L 2488 2181 
Q 2444 2441 2289 2572 
Q 2134 2703 1888 2703 
Q 1559 2703 1364 2476 
Q 1169 2250 1169 1719 
Q 1169 1128 1367 884 
Q 1566 641 1900 641 
Q 2150 641 2309 783 
Q 2469 925 2534 1272 
L 3397 1125 
Q 3263 531 2881 228 
Q 2500 -75 1859 -75 
Q 1131 -75 698 384 
Q 266 844 266 1656 
Q 266 2478 700 2936 
Q 1134 3394 1875 3394 
Q 2481 3394 2839 3133 
Q 3197 2872 3353 2338 
z
" transform="scale(0.015625)"/>
       <path id="Arial-BoldMT-68" d="M 1334 4581 
L 1334 2897 
Q 1759 3394 2350 3394 
Q 2653 3394 2897 3281 
Q 3141 3169 3264 2994 
Q 3388 2819 3433 2606 
Q 3478 2394 3478 1947 
L 3478 0 
L 2600 0 
L 2600 1753 
Q 2600 2275 2550 2415 
Q 2500 2556 2373 2639 
Q 2247 2722 2056 2722 
Q 1838 2722 1666 2615 
Q 1494 2509 1414 2295 
Q 1334 2081 1334 1663 
L 1334 0 
L 456 0 
L 456 4581 
L 1334 4581 
z
" transform="scale(0.015625)"/>
       <path id="Arial-BoldMT-53" d="M 231 1491 
L 1131 1578 
Q 1213 1125 1461 912 
Q 1709 700 2131 700 
Q 2578 700 2804 889 
Q 3031 1078 3031 1331 
Q 3031 1494 2936 1608 
Q 2841 1722 2603 1806 
Q 2441 1863 1863 2006 
Q 1119 2191 819 2459 
Q 397 2838 397 3381 
Q 397 3731 595 4036 
Q 794 4341 1167 4500 
Q 1541 4659 2069 4659 
Q 2931 4659 3367 4281 
Q 3803 3903 3825 3272 
L 2900 3231 
Q 2841 3584 2645 3739 
Q 2450 3894 2059 3894 
Q 1656 3894 1428 3728 
Q 1281 3622 1281 3444 
Q 1281 3281 1419 3166 
Q 1594 3019 2269 2859 
Q 2944 2700 3267 2529 
Q 3591 2359 3773 2064 
Q 3956 1769 3956 1334 
Q 3956 941 3737 597 
Q 3519 253 3119 86 
Q 2719 -81 2122 -81 
Q 1253 -81 787 320 
Q 322 722 231 1491 
z
" transform="scale(0.015625)"/>
      </defs>
      <use xlink:href="#Arial-BoldMT-4e"/>
      <use xlink:href="#Arial-BoldMT-6f" x="72.216797"/>
      <use xlink:href="#Arial-BoldMT-72" x="133.300781"/>
      <use xlink:href="#Arial-BoldMT-6d" x="172.216797"/>
      <use xlink:href="#Arial-BoldMT-61" x="261.132812"/>
      <use xlink:href="#Arial-BoldMT-6c" x="316.748047"/>
      <use xlink:href="#Arial-BoldMT-69" x="344.53125"/>
      <use xlink:href="#Arial-BoldMT-7a" x="372.314453"/>
      <use xlink:href="#Arial-BoldMT-65" x="422.314453"/>
      <use xlink:href="#Arial-BoldMT-64" x="477.929688"/>
      <use xlink:href="#Arial-BoldMT-20" x="539.013672"/>
      <use xlink:href="#Arial-BoldMT-45" x="566.796875"/>
      <use xlink:href="#Arial-BoldMT-6e" x="633.496094"/>
      <use xlink:href="#Arial-BoldMT-72" x="694.580078"/>
      <use xlink:href="#Arial-BoldMT-69" x="733.496094"/>
      <use xlink:href="#Arial-BoldMT-63" x="761.279297"/>
      <use xlink:href="#Arial-BoldMT-68" x="816.894531"/>
      <use xlink:href="#Arial-BoldMT-6d" x="877.978516"/>
      <use xlink:href="#Arial-BoldMT-65" x="966.894531"/>
      <use xlink:href="#Arial-BoldMT-6e" x="1022.509766"/>
      <use xlink:href="#Arial-BoldMT-74" x="1083.59375"/>
      <use xlink:href="#Arial-BoldMT-20" x="1116.894531"/>
      <use xlink:href="#Arial-BoldMT-53" x="1144.677734"/>
      <use xlink:href="#Arial-BoldMT-63" x="1211.376953"/>
      <use xlink:href="#Arial-BoldMT-6f" x="1266.992188"/>
      <use xlink:href="#Arial-BoldMT-72" x="1328.076172"/>
      <use xlink:href="#Arial-BoldMT-65" x="1366.992188"/>
      <use xlink:href="#Arial-BoldMT-73" x="1422.607422"/>
     </g>
    </g>
   </g>
   <g id="line2d_1">
    <path d="M 92.027727 80.760566 
L 112.81786 95.369477 
L 133.607992 109.708485 
L 154.398125 123.777589 
L 175.188257 137.57679 
L 195.97839 151.106087 
L 216.768522 164.365481 
L 237.558655 177.354971 
L 258.348787 190.074557 
L 279.13892 202.52424 
L 299.929052 214.70402 
L 320.719185 226.613896 
L 341.509317 238.253868 
L 362.29945 249.623937 
L 383.089582 260.724102 
L 403.879714 271.554364 
L 424.669847 282.114722 
L 445.459979 292.405177 
L 466.250112 302.425728 
L 487.040244 312.176376 
L 507.830377 321.65712 
L 528.620509 330.86796 
L 549.410642 339.808897 
L 570.200774 348.479931 
L 590.990907 356.881061 
L 609.182273 364.010645 
L 609.182273 364.010645 
" clip-path="url(#pfb72fb8fe5)" style="fill: none; stroke: #ff0000; stroke-width: 1.5; stroke-linecap: round"/>
   </g>
   <g id="line2d_2">
    <path d="M 92.027727 32.648535 
L 105.02156 45.581909 
L 118.015393 58.252449 
L 131.009226 70.660156 
L 144.003058 82.805029 
L 156.996891 94.687069 
L 169.990724 106.306276 
L 182.984557 117.662649 
L 195.97839 128.756188 
L 208.972222 139.586894 
L 221.966055 150.154767 
L 234.959888 160.459806 
L 247.953721 170.502012 
L 260.947554 180.281384 
L 273.941386 189.797923 
L 286.935219 199.051629 
L 299.929052 208.042501 
L 312.922885 216.770539 
L 325.916718 225.235744 
L 338.91055 233.438116 
L 351.904383 241.377654 
L 364.898216 249.054359 
L 377.892049 256.468231 
L 390.885882 263.619268 
L 403.879714 270.507473 
L 416.873547 277.132844 
L 429.86738 283.495382 
L 442.861213 289.595086 
L 455.855046 295.431956 
L 468.848878 301.005994 
L 481.842711 306.317198 
L 494.836544 311.365568 
L 507.830377 316.151105 
L 520.82421 320.673808 
L 533.818042 324.933678 
L 546.811875 328.930715 
L 559.805708 332.664918 
L 572.799541 336.136288 
L 585.793374 339.344824 
L 598.787206 342.290527 
L 609.182273 344.457849 
L 609.182273 344.457849 
" clip-path="url(#pfb72fb8fe5)" style="fill: none; stroke: #008000; stroke-width: 1.5; stroke-linecap: round"/>
   </g>
   <g id="line2d_3">
    <path d="M 92.027727 74.546966 
L 107.620327 86.167061 
L 123.212926 97.46449 
L 138.805525 108.439253 
L 154.398125 119.091351 
L 167.391958 127.721618 
L 180.38579 136.127811 
L 193.379623 144.309931 
L 206.373456 152.267978 
L 219.367289 160.001951 
L 232.361122 167.51185 
L 245.354954 174.797676 
L 258.348787 181.859428 
L 271.34262 188.697107 
L 284.336453 195.310713 
L 297.330286 201.700244 
L 310.324118 207.865703 
L 323.317951 213.807088 
L 336.311784 219.524399 
L 349.305617 225.017637 
L 362.29945 230.286801 
L 375.293282 235.331892 
L 388.287115 240.152909 
L 401.280948 244.749853 
L 414.274781 249.122723 
L 427.268614 253.27152 
L 440.262446 257.196243 
L 453.256279 260.896892 
L 466.250112 264.373469 
L 479.243945 267.625971 
L 492.237778 270.6544 
L 505.23161 273.458756 
L 518.225443 276.039038 
L 531.219276 278.395246 
L 544.213109 280.527382 
L 557.206942 282.435443 
L 570.200774 284.119431 
L 583.194607 285.579346 
L 596.18844 286.815187 
L 609.182273 287.826954 
L 609.182273 287.826954 
" clip-path="url(#pfb72fb8fe5)" style="fill: none; stroke: #0000ff; stroke-width: 1.5; stroke-linecap: round"/>
   </g>
   <g id="line2d_4">
    <path d="M 92.027727 94.246957 
L 110.219093 104.890665 
L 128.410459 115.290902 
L 146.601825 125.447666 
L 164.793191 135.360959 
L 182.984557 145.03078 
L 201.175923 154.457129 
L 219.367289 163.640006 
L 237.558655 172.579411 
L 255.750021 181.275345 
L 273.941386 189.727806 
L 292.132752 197.936796 
L 310.324118 205.902314 
L 328.515484 213.62436 
L 346.70685 221.102934 
L 364.898216 228.338037 
L 383.089582 235.329667 
L 401.280948 242.077826 
L 419.472314 248.582513 
L 437.66368 254.843728 
L 455.855046 260.861471 
L 474.046412 266.635742 
L 492.237778 272.166542 
L 510.429143 277.453869 
L 528.620509 282.497725 
L 546.811875 287.298109 
L 565.003241 291.855021 
L 583.194607 296.168461 
L 601.385973 300.23843 
L 609.182273 301.908169 
L 609.182273 301.908169 
" clip-path="url(#pfb72fb8fe5)" style="fill: none; stroke: #ff00ff; stroke-width: 1.5; stroke-linecap: round"/>
   </g>
   <g id="line2d_5">
    <path d="M 92.027727 55.682269 
L 107.620327 69.214222 
L 123.212926 82.411269 
L 138.805525 95.27341 
L 154.398125 107.800645 
L 169.990724 119.992974 
L 185.583323 131.850398 
L 198.577156 141.475753 
L 211.570989 150.868535 
L 224.564822 160.028743 
L 237.558655 168.956378 
L 250.552487 177.65144 
L 263.54632 186.113928 
L 276.540153 194.343842 
L 289.533986 202.341183 
L 302.527819 210.10595 
L 315.521651 217.638144 
L 328.515484 224.937765 
L 341.509317 232.004812 
L 354.50315 238.839286 
L 367.496983 245.441186 
L 380.490815 251.810512 
L 393.484648 257.947265 
L 406.478481 263.851445 
L 419.472314 269.523051 
L 432.466147 274.962083 
L 445.459979 280.168543 
L 458.453812 285.142428 
L 471.447645 289.88374 
L 484.441478 294.392479 
L 497.435311 298.668644 
L 510.429143 302.712236 
L 523.422976 306.523254 
L 536.416809 310.101699 
L 549.410642 313.44757 
L 562.404475 316.560868 
L 575.398307 319.441592 
L 588.39214 322.089743 
L 601.385973 324.50532 
L 609.182273 325.843031 
L 609.182273 325.843031 
" clip-path="url(#pfb72fb8fe5)" style="fill: none; stroke: #ffa500; stroke-width: 1.5; stroke-linecap: round"/>
   </g>
   <g id="line2d_6">
    <path d="M 66.17 117.94753 
L 635.04 117.94753 
" clip-path="url(#pfb72fb8fe5)" style="fill: none; stroke-dasharray: 5.55,2.4; stroke-dashoffset: 0; stroke: #000000; stroke-width: 1.5"/>
   </g>
   <g id="patch_3">
    <path d="M 66.17 380.57875 
L 66.17 16.08043 
" style="fill: none; stroke: #262626; stroke-width: 3; stroke-linejoin: miter; stroke-linecap: square"/>
   </g>
   <g id="patch_4">
    <path d="M 635.04 380.57875 
L 635.04 16.08043 
" style="fill: none; stroke: #262626; stroke-width: 3; stroke-linejoin: miter; stroke-linecap: square"/>
   </g>
   <g id="patch_5">
    <path d="M 66.17 380.57875 
L 635.04 380.57875 
" style="fill: none; stroke: #262626; stroke-width: 3; stroke-linejoin: miter; stroke-linecap: square"/>
   </g>
   <g id="patch_6">
    <path d="M 66.17 16.08043 
L 635.04 16.08043 
" style="fill: none; stroke: #262626; stroke-width: 3; stroke-linejoin: miter; stroke-linecap: square"/>
   </g>
   <g id="legend_1">
    <g id="patch_7">
     <path d="M 73.87 375.07875 
L 220.303125 375.07875 
Q 222.503125 375.07875 222.503125 372.87875 
L 222.503125 279.371406 
Q 222.503125 277.171406 220.303125 277.171406 
L 73.87 277.171406 
Q 71.67 277.171406 71.67 279.371406 
L 71.67 372.87875 
Q 71.67 375.07875 73.87 375.07875 
z
" style="fill: #ffffff; opacity: 0.8; stroke: #cccccc; stroke-linejoin: miter"/>
    </g>
    <g id="text_17">
     <!-- Mitochondrial Processes -->
     <g style="fill: #262626" transform="translate(76.07 290.160781) scale(0.12 -0.12)">
      <defs>
       <path id="Arial-BoldMT-4d" d="M 453 0 
L 453 4581 
L 1838 4581 
L 2669 1456 
L 3491 4581 
L 4878 4581 
L 4878 0 
L 4019 0 
L 4019 3606 
L 3109 0 
L 2219 0 
L 1313 3606 
L 1313 0 
L 453 0 
z
" transform="scale(0.015625)"/>
       <path id="Arial-BoldMT-50" d="M 466 0 
L 466 4581 
L 1950 4581 
Q 2794 4581 3050 4513 
Q 3444 4409 3709 4064 
Q 3975 3719 3975 3172 
Q 3975 2750 3822 2462 
Q 3669 2175 3433 2011 
Q 3197 1847 2953 1794 
Q 2622 1728 1994 1728 
L 1391 1728 
L 1391 0 
L 466 0 
z
M 1391 3806 
L 1391 2506 
L 1897 2506 
Q 2444 2506 2628 2578 
Q 2813 2650 2917 2803 
Q 3022 2956 3022 3159 
Q 3022 3409 2875 3571 
Q 2728 3734 2503 3775 
Q 2338 3806 1838 3806 
L 1391 3806 
z
" transform="scale(0.015625)"/>
      </defs>
      <use xlink:href="#Arial-BoldMT-4d"/>
      <use xlink:href="#Arial-BoldMT-69" x="83.300781"/>
      <use xlink:href="#Arial-BoldMT-74" x="111.083984"/>
      <use xlink:href="#Arial-BoldMT-6f" x="144.384766"/>
      <use xlink:href="#Arial-BoldMT-63" x="205.46875"/>
      <use xlink:href="#Arial-BoldMT-68" x="261.083984"/>
      <use xlink:href="#Arial-BoldMT-6f" x="322.167969"/>
      <use xlink:href="#Arial-BoldMT-6e" x="383.251953"/>
      <use xlink:href="#Arial-BoldMT-64" x="444.335938"/>
      <use xlink:href="#Arial-BoldMT-72" x="505.419922"/>
      <use xlink:href="#Arial-BoldMT-69" x="544.335938"/>
      <use xlink:href="#Arial-BoldMT-61" x="572.119141"/>
      <use xlink:href="#Arial-BoldMT-6c" x="627.734375"/>
      <use xlink:href="#Arial-BoldMT-20" x="655.517578"/>
      <use xlink:href="#Arial-BoldMT-50" x="683.300781"/>
      <use xlink:href="#Arial-BoldMT-72" x="750"/>
      <use xlink:href="#Arial-BoldMT-6f" x="788.916016"/>
      <use xlink:href="#Arial-BoldMT-63" x="850"/>
      <use xlink:href="#Arial-BoldMT-65" x="905.615234"/>
      <use xlink:href="#Arial-BoldMT-73" x="961.230469"/>
      <use xlink:href="#Arial-BoldMT-73" x="1016.845703"/>
      <use xlink:href="#Arial-BoldMT-65" x="1072.460938"/>
      <use xlink:href="#Arial-BoldMT-73" x="1128.076172"/>
     </g>
    </g>
    <g id="line2d_7">
     <path d="M 80.040703 302.186562 
L 91.040703 302.186562 
L 102.040703 302.186562 
" style="fill: none; stroke: #ff0000; stroke-width: 1.5; stroke-linecap: round"/>
    </g>
    <g id="text_18">
     <!-- MT_Central_Dogma -->
     <g style="fill: #262626" transform="translate(110.840703 306.036563) scale(0.11 -0.11)">
      <defs>
       <path id="Arial-BoldMT-54" d="M 1497 0 
L 1497 3806 
L 138 3806 
L 138 4581 
L 3778 4581 
L 3778 3806 
L 2422 3806 
L 2422 0 
L 1497 0 
z
" transform="scale(0.015625)"/>
       <path id="Arial-BoldMT-5f" d="M -59 -1266 
L -59 -697 
L 3591 -697 
L 3591 -1266 
L -59 -1266 
z
" transform="scale(0.015625)"/>
       <path id="Arial-BoldMT-43" d="M 3397 1684 
L 4294 1400 
Q 4088 650 3608 286 
Q 3128 -78 2391 -78 
Q 1478 -78 890 545 
Q 303 1169 303 2250 
Q 303 3394 893 4026 
Q 1484 4659 2447 4659 
Q 3288 4659 3813 4163 
Q 4125 3869 4281 3319 
L 3366 3100 
Q 3284 3456 3026 3662 
Q 2769 3869 2400 3869 
Q 1891 3869 1573 3503 
Q 1256 3138 1256 2319 
Q 1256 1450 1568 1081 
Q 1881 713 2381 713 
Q 2750 713 3015 947 
Q 3281 1181 3397 1684 
z
" transform="scale(0.015625)"/>
       <path id="Arial-BoldMT-44" d="M 463 4581 
L 2153 4581 
Q 2725 4581 3025 4494 
Q 3428 4375 3715 4072 
Q 4003 3769 4153 3330 
Q 4303 2891 4303 2247 
Q 4303 1681 4163 1272 
Q 3991 772 3672 463 
Q 3431 228 3022 97 
Q 2716 0 2203 0 
L 463 0 
L 463 4581 
z
M 1388 3806 
L 1388 772 
L 2078 772 
Q 2466 772 2638 816 
Q 2863 872 3011 1006 
Q 3159 1141 3253 1448 
Q 3347 1756 3347 2288 
Q 3347 2819 3253 3103 
Q 3159 3388 2990 3547 
Q 2822 3706 2563 3763 
Q 2369 3806 1803 3806 
L 1388 3806 
z
" transform="scale(0.015625)"/>
       <path id="Arial-BoldMT-67" d="M 378 -219 
L 1381 -341 
Q 1406 -516 1497 -581 
Q 1622 -675 1891 -675 
Q 2234 -675 2406 -572 
Q 2522 -503 2581 -350 
Q 2622 -241 2622 53 
L 2622 538 
Q 2228 0 1628 0 
Q 959 0 569 566 
Q 263 1013 263 1678 
Q 263 2513 664 2953 
Q 1066 3394 1663 3394 
Q 2278 3394 2678 2853 
L 2678 3319 
L 3500 3319 
L 3500 341 
Q 3500 -247 3403 -537 
Q 3306 -828 3131 -993 
Q 2956 -1159 2664 -1253 
Q 2372 -1347 1925 -1347 
Q 1081 -1347 728 -1058 
Q 375 -769 375 -325 
Q 375 -281 378 -219 
z
M 1163 1728 
Q 1163 1200 1367 954 
Q 1572 709 1872 709 
Q 2194 709 2416 961 
Q 2638 1213 2638 1706 
Q 2638 2222 2425 2472 
Q 2213 2722 1888 2722 
Q 1572 2722 1367 2476 
Q 1163 2231 1163 1728 
z
" transform="scale(0.015625)"/>
      </defs>
      <use xlink:href="#Arial-BoldMT-4d"/>
      <use xlink:href="#Arial-BoldMT-54" x="83.300781"/>
      <use xlink:href="#Arial-BoldMT-5f" x="144.384766"/>
      <use xlink:href="#Arial-BoldMT-43" x="200"/>
      <use xlink:href="#Arial-BoldMT-65" x="272.216797"/>
      <use xlink:href="#Arial-BoldMT-6e" x="327.832031"/>
      <use xlink:href="#Arial-BoldMT-74" x="388.916016"/>
      <use xlink:href="#Arial-BoldMT-72" x="422.216797"/>
      <use xlink:href="#Arial-BoldMT-61" x="461.132812"/>
      <use xlink:href="#Arial-BoldMT-6c" x="516.748047"/>
      <use xlink:href="#Arial-BoldMT-5f" x="544.53125"/>
      <use xlink:href="#Arial-BoldMT-44" x="600.146484"/>
      <use xlink:href="#Arial-BoldMT-6f" x="672.363281"/>
      <use xlink:href="#Arial-BoldMT-67" x="733.447266"/>
      <use xlink:href="#Arial-BoldMT-6d" x="794.53125"/>
      <use xlink:href="#Arial-BoldMT-61" x="883.447266"/>
     </g>
    </g>
    <g id="line2d_8">
     <path d="M 80.040703 317.875312 
L 91.040703 317.875312 
L 102.040703 317.875312 
" style="fill: none; stroke: #008000; stroke-width: 1.5; stroke-linecap: round"/>
    </g>
    <g id="text_19">
     <!-- OXPHOS -->
     <g style="fill: #262626" transform="translate(110.840703 321.725312) scale(0.11 -0.11)">
      <defs>
       <path id="Arial-BoldMT-4f" d="M 278 2263 
Q 278 2963 488 3438 
Q 644 3788 914 4066 
Q 1184 4344 1506 4478 
Q 1934 4659 2494 4659 
Q 3506 4659 4114 4031 
Q 4722 3403 4722 2284 
Q 4722 1175 4119 548 
Q 3516 -78 2506 -78 
Q 1484 -78 881 545 
Q 278 1169 278 2263 
z
M 1231 2294 
Q 1231 1516 1590 1114 
Q 1950 713 2503 713 
Q 3056 713 3411 1111 
Q 3766 1509 3766 2306 
Q 3766 3094 3420 3481 
Q 3075 3869 2503 3869 
Q 1931 3869 1581 3476 
Q 1231 3084 1231 2294 
z
" transform="scale(0.015625)"/>
       <path id="Arial-BoldMT-58" d="M 0 0 
L 1566 2391 
L 147 4581 
L 1228 4581 
L 2147 3109 
L 3047 4581 
L 4119 4581 
L 2694 2356 
L 4259 0 
L 3144 0 
L 2128 1584 
L 1109 0 
L 0 0 
z
" transform="scale(0.015625)"/>
       <path id="Arial-BoldMT-48" d="M 469 0 
L 469 4581 
L 1394 4581 
L 1394 2778 
L 3206 2778 
L 3206 4581 
L 4131 4581 
L 4131 0 
L 3206 0 
L 3206 2003 
L 1394 2003 
L 1394 0 
L 469 0 
z
" transform="scale(0.015625)"/>
      </defs>
      <use xlink:href="#Arial-BoldMT-4f"/>
      <use xlink:href="#Arial-BoldMT-58" x="77.783203"/>
      <use xlink:href="#Arial-BoldMT-50" x="144.482422"/>
      <use xlink:href="#Arial-BoldMT-48" x="211.181641"/>
      <use xlink:href="#Arial-BoldMT-4f" x="283.398438"/>
      <use xlink:href="#Arial-BoldMT-53" x="361.181641"/>
     </g>
    </g>
    <g id="line2d_9">
     <path d="M 80.040703 333.419688 
L 91.040703 333.419688 
L 102.040703 333.419688 
" style="fill: none; stroke: #0000ff; stroke-width: 1.5; stroke-linecap: round"/>
    </g>
    <g id="text_20">
     <!-- MT_Ribosome -->
     <g style="fill: #262626" transform="translate(110.840703 337.269688) scale(0.11 -0.11)">
      <use xlink:href="#Arial-BoldMT-4d"/>
      <use xlink:href="#Arial-BoldMT-54" x="83.300781"/>
      <use xlink:href="#Arial-BoldMT-5f" x="144.384766"/>
      <use xlink:href="#Arial-BoldMT-52" x="200"/>
      <use xlink:href="#Arial-BoldMT-69" x="272.216797"/>
      <use xlink:href="#Arial-BoldMT-62" x="300"/>
      <use xlink:href="#Arial-BoldMT-6f" x="361.083984"/>
      <use xlink:href="#Arial-BoldMT-73" x="422.167969"/>
      <use xlink:href="#Arial-BoldMT-6f" x="477.783203"/>
      <use xlink:href="#Arial-BoldMT-6d" x="538.867188"/>
      <use xlink:href="#Arial-BoldMT-65" x="627.783203"/>
     </g>
    </g>
    <g id="line2d_10">
     <path d="M 80.040703 348.969219 
L 91.040703 348.969219 
L 102.040703 348.969219 
" style="fill: none; stroke: #ff00ff; stroke-width: 1.5; stroke-linecap: round"/>
    </g>
    <g id="text_21">
     <!-- MT_Protein_Import -->
     <g style="fill: #262626" transform="translate(110.840703 352.819219) scale(0.11 -0.11)">
      <defs>
       <path id="Arial-BoldMT-49" d="M 438 0 
L 438 4581 
L 1363 4581 
L 1363 0 
L 438 0 
z
" transform="scale(0.015625)"/>
       <path id="Arial-BoldMT-70" d="M 434 3319 
L 1253 3319 
L 1253 2831 
Q 1413 3081 1684 3237 
Q 1956 3394 2288 3394 
Q 2866 3394 3269 2941 
Q 3672 2488 3672 1678 
Q 3672 847 3265 386 
Q 2859 -75 2281 -75 
Q 2006 -75 1782 34 
Q 1559 144 1313 409 
L 1313 -1263 
L 434 -1263 
L 434 3319 
z
M 1303 1716 
Q 1303 1156 1525 889 
Q 1747 622 2066 622 
Q 2372 622 2575 867 
Q 2778 1113 2778 1672 
Q 2778 2194 2568 2447 
Q 2359 2700 2050 2700 
Q 1728 2700 1515 2451 
Q 1303 2203 1303 1716 
z
" transform="scale(0.015625)"/>
      </defs>
      <use xlink:href="#Arial-BoldMT-4d"/>
      <use xlink:href="#Arial-BoldMT-54" x="83.300781"/>
      <use xlink:href="#Arial-BoldMT-5f" x="144.384766"/>
      <use xlink:href="#Arial-BoldMT-50" x="200"/>
      <use xlink:href="#Arial-BoldMT-72" x="266.699219"/>
      <use xlink:href="#Arial-BoldMT-6f" x="305.615234"/>
      <use xlink:href="#Arial-BoldMT-74" x="366.699219"/>
      <use xlink:href="#Arial-BoldMT-65" x="400"/>
      <use xlink:href="#Arial-BoldMT-69" x="455.615234"/>
      <use xlink:href="#Arial-BoldMT-6e" x="483.398438"/>
      <use xlink:href="#Arial-BoldMT-5f" x="544.482422"/>
      <use xlink:href="#Arial-BoldMT-49" x="600.097656"/>
      <use xlink:href="#Arial-BoldMT-6d" x="627.880859"/>
      <use xlink:href="#Arial-BoldMT-70" x="716.796875"/>
      <use xlink:href="#Arial-BoldMT-6f" x="777.880859"/>
      <use xlink:href="#Arial-BoldMT-72" x="838.964844"/>
      <use xlink:href="#Arial-BoldMT-74" x="877.880859"/>
     </g>
    </g>
    <g id="line2d_11">
     <path d="M 80.040703 364.652812 
L 91.040703 364.652812 
L 102.040703 364.652812 
" style="fill: none; stroke: #ffa500; stroke-width: 1.5; stroke-linecap: round"/>
    </g>
    <g id="text_22">
     <!-- Complex_I_V -->
     <g style="fill: #262626" transform="translate(110.840703 368.502813) scale(0.11 -0.11)">
      <defs>
       <path id="Arial-BoldMT-78" d="M 38 0 
L 1234 1709 
L 88 3319 
L 1159 3319 
L 1747 2406 
L 2366 3319 
L 3397 3319 
L 2272 1747 
L 3500 0 
L 2422 0 
L 1747 1028 
L 1066 0 
L 38 0 
z
" transform="scale(0.015625)"/>
       <path id="Arial-BoldMT-56" d="M 1634 0 
L -3 4581 
L 1000 4581 
L 2159 1191 
L 3281 4581 
L 4263 4581 
L 2622 0 
L 1634 0 
z
" transform="scale(0.015625)"/>
      </defs>
      <use xlink:href="#Arial-BoldMT-43"/>
      <use xlink:href="#Arial-BoldMT-6f" x="72.216797"/>
      <use xlink:href="#Arial-BoldMT-6d" x="133.300781"/>
      <use xlink:href="#Arial-BoldMT-70" x="222.216797"/>
      <use xlink:href="#Arial-BoldMT-6c" x="283.300781"/>
      <use xlink:href="#Arial-BoldMT-65" x="311.083984"/>
      <use xlink:href="#Arial-BoldMT-78" x="366.699219"/>
      <use xlink:href="#Arial-BoldMT-5f" x="422.314453"/>
      <use xlink:href="#Arial-BoldMT-49" x="477.929688"/>
      <use xlink:href="#Arial-BoldMT-5f" x="505.712891"/>
      <use xlink:href="#Arial-BoldMT-56" x="561.328125"/>
     </g>
    </g>
   </g>
  </g>
 </g>
 <defs>
  <clipPath id="pfb72fb8fe5">
   <rect x="66.17" y="16.08043" width="568.87" height="364.49832"/>
  </clipPath>
 </defs>
</svg>
