<?xml version="1.0" encoding="utf-8" standalone="no"?>
<!DOCTYPE svg PUBLIC "-//W3C//DTD SVG 1.1//EN"
  "http://www.w3.org/Graphics/SVG/1.1/DTD/svg11.dtd">
<svg xmlns:xlink="http://www.w3.org/1999/xlink" width="648pt" height="432pt" viewBox="0 0 648 432" xmlns="http://www.w3.org/2000/svg" version="1.1">
 <metadata>
  <rdf:RDF xmlns:dc="http://purl.org/dc/elements/1.1/" xmlns:cc="http://creativecommons.org/ns#" xmlns:rdf="http://www.w3.org/1999/02/22-rdf-syntax-ns#">
   <cc:Work>
    <dc:type rdf:resource="http://purl.org/dc/dcmitype/StillImage"/>
    <dc:date>2025-07-08T09:29:09.116213</dc:date>
    <dc:format>image/svg+xml</dc:format>
    <dc:creator>
     <cc:Agent>
      <dc:title>Matplotlib v3.9.4, https://matplotlib.org/</dc:title>
     </cc:Agent>
    </dc:creator>
   </cc:Work>
  </rdf:RDF>
 </metadata>
 <defs>
  <style type="text/css">*{stroke-linejoin: round; stroke-linecap: butt}</style>
 </defs>
 <g id="figure_1">
  <g id="patch_1">
   <path d="M 0 432 
L 648 432 
L 648 0 
L 0 0 
z
" style="fill: #ffffff"/>
  </g>
  <g id="axes_1">
   <g id="patch_2">
    <path d="M 66.17 380.57875 
L 635.04 380.57875 
L 635.04 12.96 
L 66.17 12.96 
z
" style="fill: #ffffff"/>
   </g>
   <g id="matplotlib.axis_1">
    <g id="xtick_1">
     <g id="text_1">
      <!-- 5 -->
      <g style="fill: #262626" transform="translate(133.661226 397.599688) scale(0.14 -0.14)">
       <defs>
        <path id="Arial-BoldMT-35" d="M 284 1178 
L 1159 1269 
Q 1197 972 1381 798 
Q 1566 625 1806 625 
Q 2081 625 2272 848 
Q 2463 1072 2463 1522 
Q 2463 1944 2273 2155 
Q 2084 2366 1781 2366 
Q 1403 2366 1103 2031 
L 391 2134 
L 841 4519 
L 3163 4519 
L 3163 3697 
L 1506 3697 
L 1369 2919 
Q 1663 3066 1969 3066 
Q 2553 3066 2959 2641 
Q 3366 2216 3366 1538 
Q 3366 972 3038 528 
Q 2591 -78 1797 -78 
Q 1163 -78 763 262 
Q 363 603 284 1178 
z
" transform="scale(0.015625)"/>
       </defs>
       <use xlink:href="#Arial-BoldMT-35"/>
      </g>
     </g>
    </g>
    <g id="xtick_2">
     <g id="text_2">
      <!-- 10 -->
      <g style="fill: #262626" transform="translate(223.830873 397.599688) scale(0.14 -0.14)">
       <defs>
        <path id="Arial-BoldMT-31" d="M 2519 0 
L 1641 0 
L 1641 3309 
Q 1159 2859 506 2644 
L 506 3441 
Q 850 3553 1253 3867 
Q 1656 4181 1806 4600 
L 2519 4600 
L 2519 0 
z
" transform="scale(0.015625)"/>
        <path id="Arial-BoldMT-30" d="M 1756 4600 
Q 2422 4600 2797 4125 
Q 3244 3563 3244 2259 
Q 3244 959 2794 391 
Q 2422 -78 1756 -78 
Q 1088 -78 678 436 
Q 269 950 269 2269 
Q 269 3563 719 4131 
Q 1091 4600 1756 4600 
z
M 1756 3872 
Q 1597 3872 1472 3770 
Q 1347 3669 1278 3406 
Q 1188 3066 1188 2259 
Q 1188 1453 1269 1151 
Q 1350 850 1473 750 
Q 1597 650 1756 650 
Q 1916 650 2041 751 
Q 2166 853 2234 1116 
Q 2325 1453 2325 2259 
Q 2325 3066 2244 3367 
Q 2163 3669 2039 3770 
Q 1916 3872 1756 3872 
z
" transform="scale(0.015625)"/>
       </defs>
       <use xlink:href="#Arial-BoldMT-31"/>
       <use xlink:href="#Arial-BoldMT-30" x="55.615234"/>
      </g>
     </g>
    </g>
    <g id="xtick_3">
     <g id="text_3">
      <!-- 15 -->
      <g style="fill: #262626" transform="translate(317.893177 397.599688) scale(0.14 -0.14)">
       <use xlink:href="#Arial-BoldMT-31"/>
       <use xlink:href="#Arial-BoldMT-35" x="55.615234"/>
      </g>
     </g>
    </g>
    <g id="xtick_4">
     <g id="text_4">
      <!-- 20 -->
      <g style="fill: #262626" transform="translate(411.955481 397.599688) scale(0.14 -0.14)">
       <defs>
        <path id="Arial-BoldMT-32" d="M 3238 816 
L 3238 0 
L 159 0 
Q 209 463 459 877 
Q 709 1291 1447 1975 
Q 2041 2528 2175 2725 
Q 2356 2997 2356 3263 
Q 2356 3556 2198 3714 
Q 2041 3872 1763 3872 
Q 1488 3872 1325 3706 
Q 1163 3541 1138 3156 
L 263 3244 
Q 341 3969 753 4284 
Q 1166 4600 1784 4600 
Q 2463 4600 2850 4234 
Q 3238 3869 3238 3325 
Q 3238 3016 3127 2736 
Q 3016 2456 2775 2150 
Q 2616 1947 2200 1565 
Q 1784 1184 1673 1059 
Q 1563 934 1494 816 
L 3238 816 
z
" transform="scale(0.015625)"/>
       </defs>
       <use xlink:href="#Arial-BoldMT-32"/>
       <use xlink:href="#Arial-BoldMT-30" x="55.615234"/>
      </g>
     </g>
    </g>
    <g id="xtick_5">
     <g id="text_5">
      <!-- 25 -->
      <g style="fill: #262626" transform="translate(506.017784 397.599688) scale(0.14 -0.14)">
       <use xlink:href="#Arial-BoldMT-32"/>
       <use xlink:href="#Arial-BoldMT-35" x="55.615234"/>
      </g>
     </g>
    </g>
    <g id="xtick_6">
     <g id="text_6">
      <!-- 30 -->
      <g style="fill: #262626" transform="translate(600.080088 397.599688) scale(0.14 -0.14)">
       <defs>
        <path id="Arial-BoldMT-33" d="M 241 1216 
L 1091 1319 
Q 1131 994 1309 822 
Q 1488 650 1741 650 
Q 2013 650 2198 856 
Q 2384 1063 2384 1413 
Q 2384 1744 2206 1937 
Q 2028 2131 1772 2131 
Q 1603 2131 1369 2066 
L 1466 2781 
Q 1822 2772 2009 2936 
Q 2197 3100 2197 3372 
Q 2197 3603 2059 3740 
Q 1922 3878 1694 3878 
Q 1469 3878 1309 3722 
Q 1150 3566 1116 3266 
L 306 3403 
Q 391 3819 561 4067 
Q 731 4316 1036 4458 
Q 1341 4600 1719 4600 
Q 2366 4600 2756 4188 
Q 3078 3850 3078 3425 
Q 3078 2822 2419 2463 
Q 2813 2378 3048 2084 
Q 3284 1791 3284 1375 
Q 3284 772 2843 347 
Q 2403 -78 1747 -78 
Q 1125 -78 715 280 
Q 306 638 241 1216 
z
" transform="scale(0.015625)"/>
       </defs>
       <use xlink:href="#Arial-BoldMT-33"/>
       <use xlink:href="#Arial-BoldMT-30" x="55.615234"/>
      </g>
     </g>
    </g>
    <g id="text_7">
     <!-- Amount Radiation Absorbed (mGy) -->
     <g style="fill: #262626" transform="translate(217.135 416.01) scale(0.16 -0.16)">
      <defs>
       <path id="Arial-BoldMT-41" d="M 4597 0 
L 3591 0 
L 3191 1041 
L 1359 1041 
L 981 0 
L 0 0 
L 1784 4581 
L 2763 4581 
L 4597 0 
z
M 2894 1813 
L 2263 3513 
L 1644 1813 
L 2894 1813 
z
" transform="scale(0.015625)"/>
       <path id="Arial-BoldMT-6d" d="M 394 3319 
L 1203 3319 
L 1203 2866 
Q 1638 3394 2238 3394 
Q 2556 3394 2790 3262 
Q 3025 3131 3175 2866 
Q 3394 3131 3647 3262 
Q 3900 3394 4188 3394 
Q 4553 3394 4806 3245 
Q 5059 3097 5184 2809 
Q 5275 2597 5275 2122 
L 5275 0 
L 4397 0 
L 4397 1897 
Q 4397 2391 4306 2534 
Q 4184 2722 3931 2722 
Q 3747 2722 3584 2609 
Q 3422 2497 3350 2280 
Q 3278 2063 3278 1594 
L 3278 0 
L 2400 0 
L 2400 1819 
Q 2400 2303 2353 2443 
Q 2306 2584 2207 2653 
Q 2109 2722 1941 2722 
Q 1738 2722 1575 2612 
Q 1413 2503 1342 2297 
Q 1272 2091 1272 1613 
L 1272 0 
L 394 0 
L 394 3319 
z
" transform="scale(0.015625)"/>
       <path id="Arial-BoldMT-6f" d="M 256 1706 
Q 256 2144 472 2553 
Q 688 2963 1083 3178 
Q 1478 3394 1966 3394 
Q 2719 3394 3200 2905 
Q 3681 2416 3681 1669 
Q 3681 916 3195 420 
Q 2709 -75 1972 -75 
Q 1516 -75 1102 131 
Q 688 338 472 736 
Q 256 1134 256 1706 
z
M 1156 1659 
Q 1156 1166 1390 903 
Q 1625 641 1969 641 
Q 2313 641 2545 903 
Q 2778 1166 2778 1666 
Q 2778 2153 2545 2415 
Q 2313 2678 1969 2678 
Q 1625 2678 1390 2415 
Q 1156 2153 1156 1659 
z
" transform="scale(0.015625)"/>
       <path id="Arial-BoldMT-75" d="M 2644 0 
L 2644 497 
Q 2463 231 2167 78 
Q 1872 -75 1544 -75 
Q 1209 -75 943 72 
Q 678 219 559 484 
Q 441 750 441 1219 
L 441 3319 
L 1319 3319 
L 1319 1794 
Q 1319 1094 1367 936 
Q 1416 778 1544 686 
Q 1672 594 1869 594 
Q 2094 594 2272 717 
Q 2450 841 2515 1023 
Q 2581 1206 2581 1919 
L 2581 3319 
L 3459 3319 
L 3459 0 
L 2644 0 
z
" transform="scale(0.015625)"/>
       <path id="Arial-BoldMT-6e" d="M 3478 0 
L 2600 0 
L 2600 1694 
Q 2600 2231 2544 2389 
Q 2488 2547 2361 2634 
Q 2234 2722 2056 2722 
Q 1828 2722 1647 2597 
Q 1466 2472 1398 2265 
Q 1331 2059 1331 1503 
L 1331 0 
L 453 0 
L 453 3319 
L 1269 3319 
L 1269 2831 
Q 1703 3394 2363 3394 
Q 2653 3394 2893 3289 
Q 3134 3184 3257 3021 
Q 3381 2859 3429 2653 
Q 3478 2447 3478 2063 
L 3478 0 
z
" transform="scale(0.015625)"/>
       <path id="Arial-BoldMT-74" d="M 1981 3319 
L 1981 2619 
L 1381 2619 
L 1381 1281 
Q 1381 875 1398 808 
Q 1416 741 1477 697 
Q 1538 653 1625 653 
Q 1747 653 1978 738 
L 2053 56 
Q 1747 -75 1359 -75 
Q 1122 -75 931 4 
Q 741 84 652 211 
Q 563 338 528 553 
Q 500 706 500 1172 
L 500 2619 
L 97 2619 
L 97 3319 
L 500 3319 
L 500 3978 
L 1381 4491 
L 1381 3319 
L 1981 3319 
z
" transform="scale(0.015625)"/>
       <path id="Arial-BoldMT-20" transform="scale(0.015625)"/>
       <path id="Arial-BoldMT-52" d="M 469 0 
L 469 4581 
L 2416 4581 
Q 3150 4581 3483 4457 
Q 3816 4334 4016 4018 
Q 4216 3703 4216 3297 
Q 4216 2781 3912 2445 
Q 3609 2109 3006 2022 
Q 3306 1847 3501 1637 
Q 3697 1428 4028 894 
L 4588 0 
L 3481 0 
L 2813 997 
Q 2456 1531 2325 1670 
Q 2194 1809 2047 1861 
Q 1900 1913 1581 1913 
L 1394 1913 
L 1394 0 
L 469 0 
z
M 1394 2644 
L 2078 2644 
Q 2744 2644 2909 2700 
Q 3075 2756 3169 2893 
Q 3263 3031 3263 3238 
Q 3263 3469 3139 3611 
Q 3016 3753 2791 3791 
Q 2678 3806 2116 3806 
L 1394 3806 
L 1394 2644 
z
" transform="scale(0.015625)"/>
       <path id="Arial-BoldMT-61" d="M 1116 2306 
L 319 2450 
Q 453 2931 781 3162 
Q 1109 3394 1756 3394 
Q 2344 3394 2631 3255 
Q 2919 3116 3036 2902 
Q 3153 2688 3153 2116 
L 3144 1091 
Q 3144 653 3186 445 
Q 3228 238 3344 0 
L 2475 0 
Q 2441 88 2391 259 
Q 2369 338 2359 363 
Q 2134 144 1878 34 
Q 1622 -75 1331 -75 
Q 819 -75 523 203 
Q 228 481 228 906 
Q 228 1188 362 1408 
Q 497 1628 739 1745 
Q 981 1863 1438 1950 
Q 2053 2066 2291 2166 
L 2291 2253 
Q 2291 2506 2166 2614 
Q 2041 2722 1694 2722 
Q 1459 2722 1328 2630 
Q 1197 2538 1116 2306 
z
M 2291 1594 
Q 2122 1538 1756 1459 
Q 1391 1381 1278 1306 
Q 1106 1184 1106 997 
Q 1106 813 1243 678 
Q 1381 544 1594 544 
Q 1831 544 2047 700 
Q 2206 819 2256 991 
Q 2291 1103 2291 1419 
L 2291 1594 
z
" transform="scale(0.015625)"/>
       <path id="Arial-BoldMT-64" d="M 3503 0 
L 2688 0 
L 2688 488 
Q 2484 203 2207 64 
Q 1931 -75 1650 -75 
Q 1078 -75 670 386 
Q 263 847 263 1672 
Q 263 2516 659 2955 
Q 1056 3394 1663 3394 
Q 2219 3394 2625 2931 
L 2625 4581 
L 3503 4581 
L 3503 0 
z
M 1159 1731 
Q 1159 1200 1306 963 
Q 1519 619 1900 619 
Q 2203 619 2415 876 
Q 2628 1134 2628 1647 
Q 2628 2219 2422 2470 
Q 2216 2722 1894 2722 
Q 1581 2722 1370 2473 
Q 1159 2225 1159 1731 
z
" transform="scale(0.015625)"/>
       <path id="Arial-BoldMT-69" d="M 459 3769 
L 459 4581 
L 1338 4581 
L 1338 3769 
L 459 3769 
z
M 459 0 
L 459 3319 
L 1338 3319 
L 1338 0 
L 459 0 
z
" transform="scale(0.015625)"/>
       <path id="Arial-BoldMT-62" d="M 422 0 
L 422 4581 
L 1300 4581 
L 1300 2931 
Q 1706 3394 2263 3394 
Q 2869 3394 3266 2955 
Q 3663 2516 3663 1694 
Q 3663 844 3258 384 
Q 2853 -75 2275 -75 
Q 1991 -75 1714 67 
Q 1438 209 1238 488 
L 1238 0 
L 422 0 
z
M 1294 1731 
Q 1294 1216 1456 969 
Q 1684 619 2063 619 
Q 2353 619 2558 867 
Q 2763 1116 2763 1650 
Q 2763 2219 2556 2470 
Q 2350 2722 2028 2722 
Q 1713 2722 1503 2476 
Q 1294 2231 1294 1731 
z
" transform="scale(0.015625)"/>
       <path id="Arial-BoldMT-73" d="M 150 947 
L 1031 1081 
Q 1088 825 1259 692 
Q 1431 559 1741 559 
Q 2081 559 2253 684 
Q 2369 772 2369 919 
Q 2369 1019 2306 1084 
Q 2241 1147 2013 1200 
Q 950 1434 666 1628 
Q 272 1897 272 2375 
Q 272 2806 612 3100 
Q 953 3394 1669 3394 
Q 2350 3394 2681 3172 
Q 3013 2950 3138 2516 
L 2309 2363 
Q 2256 2556 2107 2659 
Q 1959 2763 1684 2763 
Q 1338 2763 1188 2666 
Q 1088 2597 1088 2488 
Q 1088 2394 1175 2328 
Q 1294 2241 1995 2081 
Q 2697 1922 2975 1691 
Q 3250 1456 3250 1038 
Q 3250 581 2869 253 
Q 2488 -75 1741 -75 
Q 1063 -75 667 200 
Q 272 475 150 947 
z
" transform="scale(0.015625)"/>
       <path id="Arial-BoldMT-72" d="M 1300 0 
L 422 0 
L 422 3319 
L 1238 3319 
L 1238 2847 
Q 1447 3181 1614 3287 
Q 1781 3394 1994 3394 
Q 2294 3394 2572 3228 
L 2300 2463 
Q 2078 2606 1888 2606 
Q 1703 2606 1575 2504 
Q 1447 2403 1373 2137 
Q 1300 1872 1300 1025 
L 1300 0 
z
" transform="scale(0.015625)"/>
       <path id="Arial-BoldMT-65" d="M 2381 1056 
L 3256 909 
Q 3088 428 2723 176 
Q 2359 -75 1813 -75 
Q 947 -75 531 491 
Q 203 944 203 1634 
Q 203 2459 634 2926 
Q 1066 3394 1725 3394 
Q 2466 3394 2894 2905 
Q 3322 2416 3303 1406 
L 1103 1406 
Q 1113 1016 1316 798 
Q 1519 581 1822 581 
Q 2028 581 2168 693 
Q 2309 806 2381 1056 
z
M 2431 1944 
Q 2422 2325 2234 2523 
Q 2047 2722 1778 2722 
Q 1491 2722 1303 2513 
Q 1116 2303 1119 1944 
L 2431 1944 
z
" transform="scale(0.015625)"/>
       <path id="Arial-BoldMT-28" d="M 1916 -1347 
L 1313 -1347 
Q 834 -625 584 153 
Q 334 931 334 1659 
Q 334 2563 644 3369 
Q 913 4069 1325 4659 
L 1925 4659 
Q 1497 3713 1336 3048 
Q 1175 2384 1175 1641 
Q 1175 1128 1270 590 
Q 1366 53 1531 -431 
Q 1641 -750 1916 -1347 
z
" transform="scale(0.015625)"/>
       <path id="Arial-BoldMT-47" d="M 2597 1684 
L 2597 2456 
L 4591 2456 
L 4591 631 
Q 4300 350 3748 136 
Q 3197 -78 2631 -78 
Q 1913 -78 1378 223 
Q 844 525 575 1086 
Q 306 1647 306 2306 
Q 306 3022 606 3578 
Q 906 4134 1484 4431 
Q 1925 4659 2581 4659 
Q 3434 4659 3914 4301 
Q 4394 3944 4531 3313 
L 3613 3141 
Q 3516 3478 3248 3673 
Q 2981 3869 2581 3869 
Q 1975 3869 1617 3484 
Q 1259 3100 1259 2344 
Q 1259 1528 1621 1120 
Q 1984 713 2572 713 
Q 2863 713 3155 827 
Q 3447 941 3656 1103 
L 3656 1684 
L 2597 1684 
z
" transform="scale(0.015625)"/>
       <path id="Arial-BoldMT-79" d="M 44 3319 
L 978 3319 
L 1772 963 
L 2547 3319 
L 3456 3319 
L 2284 125 
L 2075 -453 
Q 1959 -744 1854 -897 
Q 1750 -1050 1614 -1145 
Q 1478 -1241 1279 -1294 
Q 1081 -1347 831 -1347 
Q 578 -1347 334 -1294 
L 256 -606 
Q 463 -647 628 -647 
Q 934 -647 1081 -467 
Q 1228 -288 1306 -9 
L 44 3319 
z
" transform="scale(0.015625)"/>
       <path id="Arial-BoldMT-29" d="M 216 -1347 
Q 475 -791 581 -494 
Q 688 -197 778 190 
Q 869 578 912 926 
Q 956 1275 956 1641 
Q 956 2384 797 3048 
Q 638 3713 209 4659 
L 806 4659 
Q 1278 3988 1539 3234 
Q 1800 2481 1800 1706 
Q 1800 1053 1594 306 
Q 1359 -531 822 -1347 
L 216 -1347 
z
" transform="scale(0.015625)"/>
      </defs>
      <use xlink:href="#Arial-BoldMT-41"/>
      <use xlink:href="#Arial-BoldMT-6d" x="72.216797"/>
      <use xlink:href="#Arial-BoldMT-6f" x="161.132812"/>
      <use xlink:href="#Arial-BoldMT-75" x="222.216797"/>
      <use xlink:href="#Arial-BoldMT-6e" x="283.300781"/>
      <use xlink:href="#Arial-BoldMT-74" x="344.384766"/>
      <use xlink:href="#Arial-BoldMT-20" x="377.685547"/>
      <use xlink:href="#Arial-BoldMT-52" x="405.46875"/>
      <use xlink:href="#Arial-BoldMT-61" x="477.685547"/>
      <use xlink:href="#Arial-BoldMT-64" x="533.300781"/>
      <use xlink:href="#Arial-BoldMT-69" x="594.384766"/>
      <use xlink:href="#Arial-BoldMT-61" x="622.167969"/>
      <use xlink:href="#Arial-BoldMT-74" x="677.783203"/>
      <use xlink:href="#Arial-BoldMT-69" x="711.083984"/>
      <use xlink:href="#Arial-BoldMT-6f" x="738.867188"/>
      <use xlink:href="#Arial-BoldMT-6e" x="799.951172"/>
      <use xlink:href="#Arial-BoldMT-20" x="861.035156"/>
      <use xlink:href="#Arial-BoldMT-41" x="885.068359"/>
      <use xlink:href="#Arial-BoldMT-62" x="957.285156"/>
      <use xlink:href="#Arial-BoldMT-73" x="1018.369141"/>
      <use xlink:href="#Arial-BoldMT-6f" x="1073.984375"/>
      <use xlink:href="#Arial-BoldMT-72" x="1135.068359"/>
      <use xlink:href="#Arial-BoldMT-62" x="1173.984375"/>
      <use xlink:href="#Arial-BoldMT-65" x="1235.068359"/>
      <use xlink:href="#Arial-BoldMT-64" x="1290.683594"/>
      <use xlink:href="#Arial-BoldMT-20" x="1351.767578"/>
      <use xlink:href="#Arial-BoldMT-28" x="1379.550781"/>
      <use xlink:href="#Arial-BoldMT-6d" x="1412.851562"/>
      <use xlink:href="#Arial-BoldMT-47" x="1501.767578"/>
      <use xlink:href="#Arial-BoldMT-79" x="1579.550781"/>
      <use xlink:href="#Arial-BoldMT-29" x="1635.166016"/>
     </g>
    </g>
   </g>
   <g id="matplotlib.axis_2">
    <g id="ytick_1">
     <g id="text_8">
      <!-- −0.6 -->
      <g style="fill: #262626" transform="translate(31.533125 365.559169) scale(0.14 -0.14)">
       <defs>
        <path id="Arial-BoldMT-2212" d="M 266 1850 
L 266 2672 
L 3469 2672 
L 3469 1850 
L 266 1850 
z
" transform="scale(0.015625)"/>
        <path id="Arial-BoldMT-2e" d="M 459 0 
L 459 878 
L 1338 878 
L 1338 0 
L 459 0 
z
" transform="scale(0.015625)"/>
        <path id="Arial-BoldMT-36" d="M 3247 3459 
L 2397 3366 
Q 2366 3628 2234 3753 
Q 2103 3878 1894 3878 
Q 1616 3878 1423 3628 
Q 1231 3378 1181 2588 
Q 1509 2975 1997 2975 
Q 2547 2975 2939 2556 
Q 3331 2138 3331 1475 
Q 3331 772 2918 347 
Q 2506 -78 1859 -78 
Q 1166 -78 719 461 
Q 272 1000 272 2228 
Q 272 3488 737 4044 
Q 1203 4600 1947 4600 
Q 2469 4600 2811 4308 
Q 3153 4016 3247 3459 
z
M 1256 1544 
Q 1256 1116 1453 883 
Q 1650 650 1903 650 
Q 2147 650 2309 840 
Q 2472 1031 2472 1466 
Q 2472 1913 2297 2120 
Q 2122 2328 1859 2328 
Q 1606 2328 1431 2129 
Q 1256 1931 1256 1544 
z
" transform="scale(0.015625)"/>
       </defs>
       <use xlink:href="#Arial-BoldMT-2212"/>
       <use xlink:href="#Arial-BoldMT-30" x="58.398438"/>
       <use xlink:href="#Arial-BoldMT-2e" x="114.013672"/>
       <use xlink:href="#Arial-BoldMT-36" x="141.796875"/>
      </g>
     </g>
    </g>
    <g id="ytick_2">
     <g id="text_9">
      <!-- −0.4 -->
      <g style="fill: #262626" transform="translate(31.533125 317.757752) scale(0.14 -0.14)">
       <defs>
        <path id="Arial-BoldMT-34" d="M 1994 0 
L 1994 922 
L 119 922 
L 119 1691 
L 2106 4600 
L 2844 4600 
L 2844 1694 
L 3413 1694 
L 3413 922 
L 2844 922 
L 2844 0 
L 1994 0 
z
M 1994 1694 
L 1994 3259 
L 941 1694 
L 1994 1694 
z
" transform="scale(0.015625)"/>
       </defs>
       <use xlink:href="#Arial-BoldMT-2212"/>
       <use xlink:href="#Arial-BoldMT-30" x="58.398438"/>
       <use xlink:href="#Arial-BoldMT-2e" x="114.013672"/>
       <use xlink:href="#Arial-BoldMT-34" x="141.796875"/>
      </g>
     </g>
    </g>
    <g id="ytick_3">
     <g id="text_10">
      <!-- −0.2 -->
      <g style="fill: #262626" transform="translate(31.533125 269.956336) scale(0.14 -0.14)">
       <use xlink:href="#Arial-BoldMT-2212"/>
       <use xlink:href="#Arial-BoldMT-30" x="58.398438"/>
       <use xlink:href="#Arial-BoldMT-2e" x="114.013672"/>
       <use xlink:href="#Arial-BoldMT-32" x="141.796875"/>
      </g>
     </g>
    </g>
    <g id="ytick_4">
     <g id="text_11">
      <!-- 0.0 -->
      <g style="fill: #262626" transform="translate(39.71 222.154919) scale(0.14 -0.14)">
       <use xlink:href="#Arial-BoldMT-30"/>
       <use xlink:href="#Arial-BoldMT-2e" x="55.615234"/>
       <use xlink:href="#Arial-BoldMT-30" x="83.398438"/>
      </g>
     </g>
    </g>
    <g id="ytick_5">
     <g id="text_12">
      <!-- 0.2 -->
      <g style="fill: #262626" transform="translate(39.71 174.353502) scale(0.14 -0.14)">
       <use xlink:href="#Arial-BoldMT-30"/>
       <use xlink:href="#Arial-BoldMT-2e" x="55.615234"/>
       <use xlink:href="#Arial-BoldMT-32" x="83.398438"/>
      </g>
     </g>
    </g>
    <g id="ytick_6">
     <g id="text_13">
      <!-- 0.4 -->
      <g style="fill: #262626" transform="translate(39.71 126.552085) scale(0.14 -0.14)">
       <use xlink:href="#Arial-BoldMT-30"/>
       <use xlink:href="#Arial-BoldMT-2e" x="55.615234"/>
       <use xlink:href="#Arial-BoldMT-34" x="83.398438"/>
      </g>
     </g>
    </g>
    <g id="ytick_7">
     <g id="text_14">
      <!-- 0.6 -->
      <g style="fill: #262626" transform="translate(39.71 78.750669) scale(0.14 -0.14)">
       <use xlink:href="#Arial-BoldMT-30"/>
       <use xlink:href="#Arial-BoldMT-2e" x="55.615234"/>
       <use xlink:href="#Arial-BoldMT-36" x="83.398438"/>
      </g>
     </g>
    </g>
    <g id="ytick_8">
     <g id="text_15">
      <!-- 0.8 -->
      <g style="fill: #262626" transform="translate(39.71 30.949252) scale(0.14 -0.14)">
       <defs>
        <path id="Arial-BoldMT-38" d="M 1025 2472 
Q 684 2616 529 2867 
Q 375 3119 375 3419 
Q 375 3931 733 4265 
Q 1091 4600 1750 4600 
Q 2403 4600 2764 4265 
Q 3125 3931 3125 3419 
Q 3125 3100 2959 2851 
Q 2794 2603 2494 2472 
Q 2875 2319 3073 2025 
Q 3272 1731 3272 1347 
Q 3272 713 2867 316 
Q 2463 -81 1791 -81 
Q 1166 -81 750 247 
Q 259 634 259 1309 
Q 259 1681 443 1992 
Q 628 2303 1025 2472 
z
M 1206 3356 
Q 1206 3094 1354 2947 
Q 1503 2800 1750 2800 
Q 2000 2800 2150 2948 
Q 2300 3097 2300 3359 
Q 2300 3606 2151 3754 
Q 2003 3903 1759 3903 
Q 1506 3903 1356 3753 
Q 1206 3603 1206 3356 
z
M 1125 1394 
Q 1125 1031 1311 828 
Q 1497 625 1775 625 
Q 2047 625 2225 820 
Q 2403 1016 2403 1384 
Q 2403 1706 2222 1901 
Q 2041 2097 1763 2097 
Q 1441 2097 1283 1875 
Q 1125 1653 1125 1394 
z
" transform="scale(0.015625)"/>
       </defs>
       <use xlink:href="#Arial-BoldMT-30"/>
       <use xlink:href="#Arial-BoldMT-2e" x="55.615234"/>
       <use xlink:href="#Arial-BoldMT-38" x="83.398438"/>
      </g>
     </g>
    </g>
    <g id="text_16">
     <!-- Normalized Enrichment Scores -->
     <g style="fill: #262626" transform="translate(24.375625 315.023125) rotate(-90) scale(0.16 -0.16)">
      <defs>
       <path id="Arial-BoldMT-4e" d="M 475 0 
L 475 4581 
L 1375 4581 
L 3250 1522 
L 3250 4581 
L 4109 4581 
L 4109 0 
L 3181 0 
L 1334 2988 
L 1334 0 
L 475 0 
z
" transform="scale(0.015625)"/>
       <path id="Arial-BoldMT-6c" d="M 459 0 
L 459 4581 
L 1338 4581 
L 1338 0 
L 459 0 
z
" transform="scale(0.015625)"/>
       <path id="Arial-BoldMT-7a" d="M 106 0 
L 106 684 
L 1350 2113 
Q 1656 2463 1803 2609 
Q 1650 2600 1400 2597 
L 228 2591 
L 228 3319 
L 2972 3319 
L 2972 2697 
L 1703 1234 
L 1256 750 
Q 1622 772 1709 772 
L 3069 772 
L 3069 0 
L 106 0 
z
" transform="scale(0.015625)"/>
       <path id="Arial-BoldMT-45" d="M 466 0 
L 466 4581 
L 3863 4581 
L 3863 3806 
L 1391 3806 
L 1391 2791 
L 3691 2791 
L 3691 2019 
L 1391 2019 
L 1391 772 
L 3950 772 
L 3950 0 
L 466 0 
z
" transform="scale(0.015625)"/>
       <path id="Arial-BoldMT-63" d="M 3353 2338 
L 2488 2181 
Q 2444 2441 2289 2572 
Q 2134 2703 1888 2703 
Q 1559 2703 1364 2476 
Q 1169 2250 1169 1719 
Q 1169 1128 1367 884 
Q 1566 641 1900 641 
Q 2150 641 2309 783 
Q 2469 925 2534 1272 
L 3397 1125 
Q 3263 531 2881 228 
Q 2500 -75 1859 -75 
Q 1131 -75 698 384 
Q 266 844 266 1656 
Q 266 2478 700 2936 
Q 1134 3394 1875 3394 
Q 2481 3394 2839 3133 
Q 3197 2872 3353 2338 
z
" transform="scale(0.015625)"/>
       <path id="Arial-BoldMT-68" d="M 1334 4581 
L 1334 2897 
Q 1759 3394 2350 3394 
Q 2653 3394 2897 3281 
Q 3141 3169 3264 2994 
Q 3388 2819 3433 2606 
Q 3478 2394 3478 1947 
L 3478 0 
L 2600 0 
L 2600 1753 
Q 2600 2275 2550 2415 
Q 2500 2556 2373 2639 
Q 2247 2722 2056 2722 
Q 1838 2722 1666 2615 
Q 1494 2509 1414 2295 
Q 1334 2081 1334 1663 
L 1334 0 
L 456 0 
L 456 4581 
L 1334 4581 
z
" transform="scale(0.015625)"/>
       <path id="Arial-BoldMT-53" d="M 231 1491 
L 1131 1578 
Q 1213 1125 1461 912 
Q 1709 700 2131 700 
Q 2578 700 2804 889 
Q 3031 1078 3031 1331 
Q 3031 1494 2936 1608 
Q 2841 1722 2603 1806 
Q 2441 1863 1863 2006 
Q 1119 2191 819 2459 
Q 397 2838 397 3381 
Q 397 3731 595 4036 
Q 794 4341 1167 4500 
Q 1541 4659 2069 4659 
Q 2931 4659 3367 4281 
Q 3803 3903 3825 3272 
L 2900 3231 
Q 2841 3584 2645 3739 
Q 2450 3894 2059 3894 
Q 1656 3894 1428 3728 
Q 1281 3622 1281 3444 
Q 1281 3281 1419 3166 
Q 1594 3019 2269 2859 
Q 2944 2700 3267 2529 
Q 3591 2359 3773 2064 
Q 3956 1769 3956 1334 
Q 3956 941 3737 597 
Q 3519 253 3119 86 
Q 2719 -81 2122 -81 
Q 1253 -81 787 320 
Q 322 722 231 1491 
z
" transform="scale(0.015625)"/>
      </defs>
      <use xlink:href="#Arial-BoldMT-4e"/>
      <use xlink:href="#Arial-BoldMT-6f" x="72.216797"/>
      <use xlink:href="#Arial-BoldMT-72" x="133.300781"/>
      <use xlink:href="#Arial-BoldMT-6d" x="172.216797"/>
      <use xlink:href="#Arial-BoldMT-61" x="261.132812"/>
      <use xlink:href="#Arial-BoldMT-6c" x="316.748047"/>
      <use xlink:href="#Arial-BoldMT-69" x="344.53125"/>
      <use xlink:href="#Arial-BoldMT-7a" x="372.314453"/>
      <use xlink:href="#Arial-BoldMT-65" x="422.314453"/>
      <use xlink:href="#Arial-BoldMT-64" x="477.929688"/>
      <use xlink:href="#Arial-BoldMT-20" x="539.013672"/>
      <use xlink:href="#Arial-BoldMT-45" x="566.796875"/>
      <use xlink:href="#Arial-BoldMT-6e" x="633.496094"/>
      <use xlink:href="#Arial-BoldMT-72" x="694.580078"/>
      <use xlink:href="#Arial-BoldMT-69" x="733.496094"/>
      <use xlink:href="#Arial-BoldMT-63" x="761.279297"/>
      <use xlink:href="#Arial-BoldMT-68" x="816.894531"/>
      <use xlink:href="#Arial-BoldMT-6d" x="877.978516"/>
      <use xlink:href="#Arial-BoldMT-65" x="966.894531"/>
      <use xlink:href="#Arial-BoldMT-6e" x="1022.509766"/>
      <use xlink:href="#Arial-BoldMT-74" x="1083.59375"/>
      <use xlink:href="#Arial-BoldMT-20" x="1116.894531"/>
      <use xlink:href="#Arial-BoldMT-53" x="1144.677734"/>
      <use xlink:href="#Arial-BoldMT-63" x="1211.376953"/>
      <use xlink:href="#Arial-BoldMT-6f" x="1266.992188"/>
      <use xlink:href="#Arial-BoldMT-72" x="1328.076172"/>
      <use xlink:href="#Arial-BoldMT-65" x="1366.992188"/>
      <use xlink:href="#Arial-BoldMT-73" x="1422.607422"/>
     </g>
    </g>
   </g>
   <g id="line2d_1">
    <path d="M 125.30697 246.592135 
L 153.598264 230.295391 
L 181.889558 213.732657 
L 210.180852 196.903932 
L 238.472146 179.809216 
L 266.76344 162.44851 
L 295.054734 144.821813 
L 323.346028 126.929125 
L 351.637322 108.770446 
L 379.928616 90.345777 
L 408.21991 71.655117 
L 436.511204 52.698466 
L 456.481529 39.157154 
L 456.481529 39.157154 
" clip-path="url(#pd4df694eab)" style="fill: none; stroke: #ff0000; stroke-width: 1.5; stroke-linecap: round"/>
   </g>
   <g id="line2d_2">
    <path d="M 92.027727 270.616671 
L 99.824027 257.018397 
L 107.620327 243.815068 
L 115.416626 231.006686 
L 123.212926 218.59325 
L 131.009226 206.574759 
L 138.805525 194.951215 
L 146.601825 183.722617 
L 154.398125 172.888965 
L 162.194424 162.450258 
L 169.990724 152.406498 
L 177.787024 142.757684 
L 185.583323 133.503816 
L 193.379623 124.644893 
L 201.175923 116.180917 
L 208.972222 108.111887 
L 216.768522 100.437803 
L 224.564822 93.158664 
L 232.361122 86.274472 
L 240.157421 79.785226 
L 247.953721 73.690926 
L 255.750021 67.991572 
L 263.54632 62.687163 
L 271.34262 57.777701 
L 276.540153 54.724141 
L 281.737686 51.846112 
L 286.935219 49.143615 
L 292.132752 46.616649 
L 297.330286 44.265215 
L 302.527819 42.089312 
L 307.725352 40.088941 
L 312.922885 38.264102 
L 318.120418 36.614794 
L 323.317951 35.141018 
L 328.515484 33.842773 
L 333.713017 32.72006 
L 338.91055 31.772878 
L 344.108084 31.001228 
L 349.305617 30.405109 
L 354.50315 29.984522 
L 359.700683 29.739467 
L 364.898216 29.669943 
L 370.095749 29.775951 
L 375.293282 30.05749 
L 380.490815 30.514561 
L 385.688349 31.147163 
L 390.885882 31.955297 
L 396.083415 32.938963 
L 401.280948 34.09816 
L 406.478481 35.432888 
L 411.676014 36.943148 
L 416.873547 38.62894 
L 422.07108 40.490263 
L 427.268614 42.527118 
L 432.466147 44.739505 
L 437.66368 47.127423 
L 442.861213 49.690872 
L 448.058746 52.429853 
L 453.256279 55.344366 
L 458.453812 58.43441 
L 463.651345 61.699986 
L 471.447645 66.927471 
L 479.243945 72.549902 
L 487.040244 78.567279 
L 494.836544 84.979603 
L 502.632844 91.786872 
L 510.429143 98.989087 
L 518.225443 106.586249 
L 526.021743 114.578356 
L 533.818042 122.965409 
L 541.614342 131.747408 
L 549.410642 140.924354 
L 557.206942 150.496245 
L 565.003241 160.463082 
L 572.799541 170.824866 
L 580.595841 181.581595 
L 588.39214 192.73327 
L 596.18844 204.279892 
L 603.98474 216.221459 
L 609.182273 224.401918 
L 609.182273 224.401918 
" clip-path="url(#pd4df694eab)" style="fill: none; stroke-dasharray: 5.55,2.4; stroke-dashoffset: 0; stroke: #ff0000; stroke-width: 1.5"/>
   </g>
   <g id="line2d_3">
    <path d="M 125.30697 58.851705 
L 135.292133 72.461405 
L 145.277295 85.662672 
L 155.262458 98.455507 
L 165.247621 110.839909 
L 175.232783 122.81588 
L 185.217946 134.383418 
L 193.538915 143.711036 
L 201.859883 152.75502 
L 210.180852 161.515371 
L 218.501821 169.992089 
L 226.82279 178.185173 
L 235.143759 186.094623 
L 243.464727 193.72044 
L 251.785696 201.062624 
L 260.106665 208.121174 
L 268.427634 214.89609 
L 276.748603 221.387373 
L 285.069571 227.595022 
L 293.39054 233.519038 
L 301.711509 239.15942 
L 310.032478 244.516169 
L 318.353447 249.589284 
L 326.674416 254.378765 
L 334.995384 258.884613 
L 343.316353 263.106828 
L 351.637322 267.045409 
L 359.958291 270.700356 
L 368.27926 274.07167 
L 376.600228 277.159351 
L 384.921197 279.963398 
L 393.242166 282.483811 
L 401.563135 284.720591 
L 409.884104 286.673737 
L 418.205072 288.34325 
L 424.861848 289.474644 
L 431.518623 290.424513 
L 438.175398 291.192856 
L 444.832173 291.779673 
L 451.488948 292.184966 
L 456.481529 292.369809 
L 456.481529 292.369809 
" clip-path="url(#pd4df694eab)" style="fill: none; stroke: #008000; stroke-width: 1.5; stroke-linecap: round"/>
   </g>
   <g id="line2d_4">
    <path d="M 92.027727 195.020355 
L 102.422794 203.970896 
L 112.81786 212.677701 
L 123.212926 221.140772 
L 133.607992 229.360108 
L 144.003058 237.335709 
L 154.398125 245.067574 
L 164.793191 252.555705 
L 175.188257 259.800101 
L 185.583323 266.800762 
L 195.97839 273.557688 
L 206.373456 280.070879 
L 216.768522 286.340335 
L 227.163588 292.366056 
L 237.558655 298.148042 
L 247.953721 303.686293 
L 258.348787 308.980809 
L 268.743853 314.03159 
L 279.13892 318.838636 
L 289.533986 323.401948 
L 299.929052 327.721524 
L 310.324118 331.797365 
L 320.719185 335.629472 
L 331.114251 339.217843 
L 341.509317 342.562479 
L 351.904383 345.663381 
L 362.29945 348.520547 
L 372.694516 351.133979 
L 383.089582 353.503675 
L 393.484648 355.629637 
L 403.879714 357.511863 
L 414.274781 359.150355 
L 424.669847 360.545111 
L 435.064913 361.696133 
L 445.459979 362.60342 
L 455.855046 363.266971 
L 466.250112 363.686788 
L 476.645178 363.86287 
L 487.040244 363.795217 
L 497.435311 363.483829 
L 507.830377 362.928705 
L 518.225443 362.129847 
L 528.620509 361.087254 
L 539.015576 359.800926 
L 549.410642 358.270863 
L 559.805708 356.497065 
L 570.200774 354.479532 
L 580.595841 352.218264 
L 590.990907 349.713262 
L 601.385973 346.964524 
L 609.182273 344.743019 
L 609.182273 344.743019 
" clip-path="url(#pd4df694eab)" style="fill: none; stroke-dasharray: 5.55,2.4; stroke-dashoffset: 0; stroke: #008000; stroke-width: 1.5"/>
   </g>
   <g id="line2d_5">
    <path d="M 125.30697 138.458422 
L 131.963745 146.401611 
L 138.62052 153.960773 
L 145.277295 161.135908 
L 151.93407 167.927015 
L 158.590846 174.334096 
L 165.247621 180.35715 
L 171.904396 185.996177 
L 176.896977 189.973429 
L 181.889558 193.734667 
L 186.88214 197.279889 
L 191.874721 200.609095 
L 196.867302 203.722287 
L 201.859883 206.619463 
L 206.852465 209.300625 
L 211.845046 211.765771 
L 216.837627 214.014901 
L 221.830209 216.048017 
L 226.82279 217.865117 
L 231.815371 219.466203 
L 236.807952 220.851273 
L 241.800534 222.020327 
L 246.793115 222.973367 
L 251.785696 223.710391 
L 256.778278 224.231401 
L 261.770859 224.536395 
L 266.76344 224.625374 
L 271.756021 224.498337 
L 276.748603 224.155286 
L 281.741184 223.596219 
L 286.733765 222.821137 
L 291.726347 221.83004 
L 296.718928 220.622927 
L 301.711509 219.1998 
L 306.70409 217.560657 
L 311.696672 215.705499 
L 316.689253 213.634326 
L 321.681834 211.347138 
L 326.674416 208.843934 
L 331.666997 206.124715 
L 336.659578 203.189481 
L 341.652159 200.038232 
L 346.644741 196.670968 
L 351.637322 193.087688 
L 356.629903 189.288394 
L 361.622485 185.273084 
L 368.27926 179.583314 
L 374.936035 173.509516 
L 381.59281 167.051692 
L 388.249585 160.209841 
L 394.90636 152.983963 
L 401.563135 145.374057 
L 408.21991 137.380125 
L 414.876685 129.002166 
L 421.53346 120.240179 
L 428.190235 111.094166 
L 434.84701 101.564126 
L 441.503785 91.650058 
L 448.16056 81.351964 
L 454.817335 70.669842 
L 456.481529 67.939308 
L 456.481529 67.939308 
" clip-path="url(#pd4df694eab)" style="fill: none; stroke: #0000ff; stroke-width: 1.5; stroke-linecap: round"/>
   </g>
   <g id="line2d_6">
    <path d="M 92.027727 167.591247 
L 102.422794 172.871071 
L 112.81786 177.824275 
L 120.614159 181.324834 
L 128.410459 184.64167 
L 136.206759 187.774783 
L 144.003058 190.724172 
L 151.799358 193.489838 
L 159.595658 196.07178 
L 167.391958 198.469999 
L 175.188257 200.684495 
L 182.984557 202.715268 
L 190.780857 204.562317 
L 198.577156 206.225642 
L 206.373456 207.705245 
L 214.169756 209.001124 
L 221.966055 210.11328 
L 229.762355 211.041712 
L 237.558655 211.786421 
L 245.354954 212.347407 
L 253.151254 212.724669 
L 260.947554 212.918208 
L 268.743853 212.928024 
L 276.540153 212.754116 
L 284.336453 212.396485 
L 292.132752 211.855131 
L 299.929052 211.130053 
L 307.725352 210.221252 
L 315.521651 209.128728 
L 323.317951 207.85248 
L 331.114251 206.392509 
L 338.91055 204.748814 
L 346.70685 202.921397 
L 354.50315 200.910255 
L 362.29945 198.715391 
L 370.095749 196.336803 
L 377.892049 193.774492 
L 385.688349 191.028457 
L 393.484648 188.0987 
L 401.280948 184.985218 
L 409.077248 181.688014 
L 416.873547 178.207086 
L 424.669847 174.542435 
L 435.064913 169.370441 
L 445.459979 163.871829 
L 455.855046 158.046597 
L 466.250112 151.894745 
L 476.645178 145.416275 
L 487.040244 138.611185 
L 497.435311 131.479476 
L 507.830377 124.021147 
L 518.225443 116.236199 
L 528.620509 108.124632 
L 539.015576 99.686446 
L 549.410642 90.921641 
L 559.805708 81.830216 
L 570.200774 72.412172 
L 580.595841 62.667508 
L 590.990907 52.596225 
L 601.385973 42.198324 
L 609.182273 34.185553 
L 609.182273 34.185553 
" clip-path="url(#pd4df694eab)" style="fill: none; stroke-dasharray: 5.55,2.4; stroke-dashoffset: 0; stroke: #0000ff; stroke-width: 1.5"/>
   </g>
   <g id="line2d_7">
    <path d="M 66.17 217.14445 
L 635.04 217.14445 
" clip-path="url(#pd4df694eab)" style="fill: none; stroke-dasharray: 5.55,2.4; stroke-dashoffset: 0; stroke: #000000; stroke-width: 1.5"/>
   </g>
   <g id="patch_3">
    <path d="M 66.17 380.57875 
L 66.17 12.96 
" style="fill: none; stroke: #262626; stroke-width: 3; stroke-linejoin: miter; stroke-linecap: square"/>
   </g>
   <g id="patch_4">
    <path d="M 635.04 380.57875 
L 635.04 12.96 
" style="fill: none; stroke: #262626; stroke-width: 3; stroke-linejoin: miter; stroke-linecap: square"/>
   </g>
   <g id="patch_5">
    <path d="M 66.17 380.57875 
L 635.04 380.57875 
" style="fill: none; stroke: #262626; stroke-width: 3; stroke-linejoin: miter; stroke-linecap: square"/>
   </g>
   <g id="patch_6">
    <path d="M 66.17 12.96 
L 635.04 12.96 
" style="fill: none; stroke: #262626; stroke-width: 3; stroke-linejoin: miter; stroke-linecap: square"/>
   </g>
   <g id="legend_1">
    <g id="patch_7">
     <path d="M 73.87 375.07875 
L 196.98375 375.07875 
Q 199.18375 375.07875 199.18375 372.87875 
L 199.18375 263.612188 
Q 199.18375 261.412188 196.98375 261.412188 
L 73.87 261.412188 
Q 71.67 261.412188 71.67 263.612188 
L 71.67 372.87875 
Q 71.67 375.07875 73.87 375.07875 
z
" style="fill: #ffffff; opacity: 0.8; stroke: #cccccc; stroke-linejoin: miter"/>
    </g>
    <g id="text_17">
     <!-- Metabolic Processes -->
     <g style="fill: #262626" transform="translate(76.07 274.401563) scale(0.12 -0.12)">
      <defs>
       <path id="Arial-BoldMT-4d" d="M 453 0 
L 453 4581 
L 1838 4581 
L 2669 1456 
L 3491 4581 
L 4878 4581 
L 4878 0 
L 4019 0 
L 4019 3606 
L 3109 0 
L 2219 0 
L 1313 3606 
L 1313 0 
L 453 0 
z
" transform="scale(0.015625)"/>
       <path id="Arial-BoldMT-50" d="M 466 0 
L 466 4581 
L 1950 4581 
Q 2794 4581 3050 4513 
Q 3444 4409 3709 4064 
Q 3975 3719 3975 3172 
Q 3975 2750 3822 2462 
Q 3669 2175 3433 2011 
Q 3197 1847 2953 1794 
Q 2622 1728 1994 1728 
L 1391 1728 
L 1391 0 
L 466 0 
z
M 1391 3806 
L 1391 2506 
L 1897 2506 
Q 2444 2506 2628 2578 
Q 2813 2650 2917 2803 
Q 3022 2956 3022 3159 
Q 3022 3409 2875 3571 
Q 2728 3734 2503 3775 
Q 2338 3806 1838 3806 
L 1391 3806 
z
" transform="scale(0.015625)"/>
      </defs>
      <use xlink:href="#Arial-BoldMT-4d"/>
      <use xlink:href="#Arial-BoldMT-65" x="83.300781"/>
      <use xlink:href="#Arial-BoldMT-74" x="138.916016"/>
      <use xlink:href="#Arial-BoldMT-61" x="172.216797"/>
      <use xlink:href="#Arial-BoldMT-62" x="227.832031"/>
      <use xlink:href="#Arial-BoldMT-6f" x="288.916016"/>
      <use xlink:href="#Arial-BoldMT-6c" x="350"/>
      <use xlink:href="#Arial-BoldMT-69" x="377.783203"/>
      <use xlink:href="#Arial-BoldMT-63" x="405.566406"/>
      <use xlink:href="#Arial-BoldMT-20" x="461.181641"/>
      <use xlink:href="#Arial-BoldMT-50" x="488.964844"/>
      <use xlink:href="#Arial-BoldMT-72" x="555.664062"/>
      <use xlink:href="#Arial-BoldMT-6f" x="594.580078"/>
      <use xlink:href="#Arial-BoldMT-63" x="655.664062"/>
      <use xlink:href="#Arial-BoldMT-65" x="711.279297"/>
      <use xlink:href="#Arial-BoldMT-73" x="766.894531"/>
      <use xlink:href="#Arial-BoldMT-73" x="822.509766"/>
      <use xlink:href="#Arial-BoldMT-65" x="878.125"/>
      <use xlink:href="#Arial-BoldMT-73" x="933.740234"/>
     </g>
    </g>
    <g id="line2d_8">
     <path d="M 79.686953 286.325938 
L 90.686953 286.325938 
L 101.686953 286.325938 
" style="fill: none; stroke: #ff0000; stroke-width: 1.5; stroke-linecap: round"/>
    </g>
    <g id="text_18">
     <!-- HIF1a_IF -->
     <g style="fill: #262626" transform="translate(110.486953 290.175938) scale(0.11 -0.11)">
      <defs>
       <path id="Arial-BoldMT-48" d="M 469 0 
L 469 4581 
L 1394 4581 
L 1394 2778 
L 3206 2778 
L 3206 4581 
L 4131 4581 
L 4131 0 
L 3206 0 
L 3206 2003 
L 1394 2003 
L 1394 0 
L 469 0 
z
" transform="scale(0.015625)"/>
       <path id="Arial-BoldMT-49" d="M 438 0 
L 438 4581 
L 1363 4581 
L 1363 0 
L 438 0 
z
" transform="scale(0.015625)"/>
       <path id="Arial-BoldMT-46" d="M 472 0 
L 472 4581 
L 3613 4581 
L 3613 3806 
L 1397 3806 
L 1397 2722 
L 3309 2722 
L 3309 1947 
L 1397 1947 
L 1397 0 
L 472 0 
z
" transform="scale(0.015625)"/>
       <path id="Arial-BoldMT-5f" d="M -59 -1266 
L -59 -697 
L 3591 -697 
L 3591 -1266 
L -59 -1266 
z
" transform="scale(0.015625)"/>
      </defs>
      <use xlink:href="#Arial-BoldMT-48"/>
      <use xlink:href="#Arial-BoldMT-49" x="72.216797"/>
      <use xlink:href="#Arial-BoldMT-46" x="100"/>
      <use xlink:href="#Arial-BoldMT-31" x="161.083984"/>
      <use xlink:href="#Arial-BoldMT-61" x="216.699219"/>
      <use xlink:href="#Arial-BoldMT-5f" x="272.314453"/>
      <use xlink:href="#Arial-BoldMT-49" x="327.929688"/>
      <use xlink:href="#Arial-BoldMT-46" x="355.712891"/>
     </g>
    </g>
    <g id="line2d_9">
     <path d="M 79.686953 301.908125 
L 90.686953 301.908125 
L 101.686953 301.908125 
" style="fill: none; stroke-dasharray: 5.55,2.4; stroke-dashoffset: 0; stroke: #ff0000; stroke-width: 1.5"/>
    </g>
    <g id="text_19">
     <!-- HIF1a_PF -->
     <g style="fill: #262626" transform="translate(110.486953 305.758125) scale(0.11 -0.11)">
      <use xlink:href="#Arial-BoldMT-48"/>
      <use xlink:href="#Arial-BoldMT-49" x="72.216797"/>
      <use xlink:href="#Arial-BoldMT-46" x="100"/>
      <use xlink:href="#Arial-BoldMT-31" x="161.083984"/>
      <use xlink:href="#Arial-BoldMT-61" x="216.699219"/>
      <use xlink:href="#Arial-BoldMT-5f" x="272.314453"/>
      <use xlink:href="#Arial-BoldMT-50" x="327.929688"/>
      <use xlink:href="#Arial-BoldMT-46" x="394.628906"/>
     </g>
    </g>
    <g id="line2d_10">
     <path d="M 79.686953 317.457656 
L 90.686953 317.457656 
L 101.686953 317.457656 
" style="fill: none; stroke: #008000; stroke-width: 1.5; stroke-linecap: round"/>
    </g>
    <g id="text_20">
     <!-- Metabolism_IF -->
     <g style="fill: #262626" transform="translate(110.486953 321.307656) scale(0.11 -0.11)">
      <use xlink:href="#Arial-BoldMT-4d"/>
      <use xlink:href="#Arial-BoldMT-65" x="83.300781"/>
      <use xlink:href="#Arial-BoldMT-74" x="138.916016"/>
      <use xlink:href="#Arial-BoldMT-61" x="172.216797"/>
      <use xlink:href="#Arial-BoldMT-62" x="227.832031"/>
      <use xlink:href="#Arial-BoldMT-6f" x="288.916016"/>
      <use xlink:href="#Arial-BoldMT-6c" x="350"/>
      <use xlink:href="#Arial-BoldMT-69" x="377.783203"/>
      <use xlink:href="#Arial-BoldMT-73" x="405.566406"/>
      <use xlink:href="#Arial-BoldMT-6d" x="461.181641"/>
      <use xlink:href="#Arial-BoldMT-5f" x="550.097656"/>
      <use xlink:href="#Arial-BoldMT-49" x="605.712891"/>
      <use xlink:href="#Arial-BoldMT-46" x="633.496094"/>
     </g>
    </g>
    <g id="line2d_11">
     <path d="M 79.686953 333.007187 
L 90.686953 333.007187 
L 101.686953 333.007187 
" style="fill: none; stroke-dasharray: 5.55,2.4; stroke-dashoffset: 0; stroke: #008000; stroke-width: 1.5"/>
    </g>
    <g id="text_21">
     <!-- Metabolism_PF -->
     <g style="fill: #262626" transform="translate(110.486953 336.857188) scale(0.11 -0.11)">
      <use xlink:href="#Arial-BoldMT-4d"/>
      <use xlink:href="#Arial-BoldMT-65" x="83.300781"/>
      <use xlink:href="#Arial-BoldMT-74" x="138.916016"/>
      <use xlink:href="#Arial-BoldMT-61" x="172.216797"/>
      <use xlink:href="#Arial-BoldMT-62" x="227.832031"/>
      <use xlink:href="#Arial-BoldMT-6f" x="288.916016"/>
      <use xlink:href="#Arial-BoldMT-6c" x="350"/>
      <use xlink:href="#Arial-BoldMT-69" x="377.783203"/>
      <use xlink:href="#Arial-BoldMT-73" x="405.566406"/>
      <use xlink:href="#Arial-BoldMT-6d" x="461.181641"/>
      <use xlink:href="#Arial-BoldMT-5f" x="550.097656"/>
      <use xlink:href="#Arial-BoldMT-50" x="605.712891"/>
      <use xlink:href="#Arial-BoldMT-46" x="672.412109"/>
     </g>
    </g>
    <g id="line2d_12">
     <path d="M 79.686953 348.690781 
L 90.686953 348.690781 
L 101.686953 348.690781 
" style="fill: none; stroke: #0000ff; stroke-width: 1.5; stroke-linecap: round"/>
    </g>
    <g id="text_22">
     <!-- Glycolysis_IF -->
     <g style="fill: #262626" transform="translate(110.486953 352.540781) scale(0.11 -0.11)">
      <use xlink:href="#Arial-BoldMT-47"/>
      <use xlink:href="#Arial-BoldMT-6c" x="77.783203"/>
      <use xlink:href="#Arial-BoldMT-79" x="105.566406"/>
      <use xlink:href="#Arial-BoldMT-63" x="161.181641"/>
      <use xlink:href="#Arial-BoldMT-6f" x="216.796875"/>
      <use xlink:href="#Arial-BoldMT-6c" x="277.880859"/>
      <use xlink:href="#Arial-BoldMT-79" x="305.664062"/>
      <use xlink:href="#Arial-BoldMT-73" x="361.279297"/>
      <use xlink:href="#Arial-BoldMT-69" x="416.894531"/>
      <use xlink:href="#Arial-BoldMT-73" x="444.677734"/>
      <use xlink:href="#Arial-BoldMT-5f" x="500.292969"/>
      <use xlink:href="#Arial-BoldMT-49" x="555.908203"/>
      <use xlink:href="#Arial-BoldMT-46" x="583.691406"/>
     </g>
    </g>
    <g id="line2d_13">
     <path d="M 79.686953 364.513594 
L 90.686953 364.513594 
L 101.686953 364.513594 
" style="fill: none; stroke-dasharray: 5.55,2.4; stroke-dashoffset: 0; stroke: #0000ff; stroke-width: 1.5"/>
    </g>
    <g id="text_23">
     <!-- Glycolysis_PF -->
     <g style="fill: #262626" transform="translate(110.486953 368.363594) scale(0.11 -0.11)">
      <use xlink:href="#Arial-BoldMT-47"/>
      <use xlink:href="#Arial-BoldMT-6c" x="77.783203"/>
      <use xlink:href="#Arial-BoldMT-79" x="105.566406"/>
      <use xlink:href="#Arial-BoldMT-63" x="161.181641"/>
      <use xlink:href="#Arial-BoldMT-6f" x="216.796875"/>
      <use xlink:href="#Arial-BoldMT-6c" x="277.880859"/>
      <use xlink:href="#Arial-BoldMT-79" x="305.664062"/>
      <use xlink:href="#Arial-BoldMT-73" x="361.279297"/>
      <use xlink:href="#Arial-BoldMT-69" x="416.894531"/>
      <use xlink:href="#Arial-BoldMT-73" x="444.677734"/>
      <use xlink:href="#Arial-BoldMT-5f" x="500.292969"/>
      <use xlink:href="#Arial-BoldMT-50" x="555.908203"/>
      <use xlink:href="#Arial-BoldMT-46" x="622.607422"/>
     </g>
    </g>
   </g>
  </g>
 </g>
 <defs>
  <clipPath id="pd4df694eab">
   <rect x="66.17" y="12.96" width="568.87" height="367.61875"/>
  </clipPath>
 </defs>
</svg>
