<?xml version="1.0" encoding="utf-8" standalone="no"?>
<!DOCTYPE svg PUBLIC "-//W3C//DTD SVG 1.1//EN"
  "http://www.w3.org/Graphics/SVG/1.1/DTD/svg11.dtd">
<svg xmlns:xlink="http://www.w3.org/1999/xlink" width="1296pt" height="540pt" viewBox="0 0 1296 540" xmlns="http://www.w3.org/2000/svg" version="1.1">
 <metadata>
  <rdf:RDF xmlns:dc="http://purl.org/dc/elements/1.1/" xmlns:cc="http://creativecommons.org/ns#" xmlns:rdf="http://www.w3.org/1999/02/22-rdf-syntax-ns#">
   <cc:Work>
    <dc:type rdf:resource="http://purl.org/dc/dcmitype/StillImage"/>
    <dc:date>2025-07-08T12:50:59.972759</dc:date>
    <dc:format>image/svg+xml</dc:format>
    <dc:creator>
     <cc:Agent>
      <dc:title>Matplotlib v3.9.4, https://matplotlib.org/</dc:title>
     </cc:Agent>
    </dc:creator>
   </cc:Work>
  </rdf:RDF>
 </metadata>
 <defs>
  <style type="text/css">*{stroke-linejoin: round; stroke-linecap: butt}</style>
 </defs>
 <g id="figure_1">
  <g id="patch_1">
   <path d="M 0 540 
L 1296 540 
L 1296 0 
L 0 0 
z
" style="fill: #ffffff"/>
  </g>
  <g id="axes_1">
   <g id="patch_2">
    <path d="M 162 480.6 
L 649.572816 480.6 
L 649.572816 64.8 
L 162 64.8 
z
" style="fill: #ffffff"/>
   </g>
   <g id="matplotlib.axis_1">
    <g id="xtick_1">
     <g id="text_1">
      <!-- 5 -->
      <g style="fill: #262626" transform="translate(219.289759 500.120938) scale(0.14 -0.14)">
       <defs>
        <path id="Arial-BoldMT-35" d="M 284 1178 
L 1159 1269 
Q 1197 972 1381 798 
Q 1566 625 1806 625 
Q 2081 625 2272 848 
Q 2463 1072 2463 1522 
Q 2463 1944 2273 2155 
Q 2084 2366 1781 2366 
Q 1403 2366 1103 2031 
L 391 2134 
L 841 4519 
L 3163 4519 
L 3163 3697 
L 1506 3697 
L 1369 2919 
Q 1663 3066 1969 3066 
Q 2553 3066 2959 2641 
Q 3366 2216 3366 1538 
Q 3366 972 3038 528 
Q 2591 -78 1797 -78 
Q 1163 -78 763 262 
Q 363 603 284 1178 
z
" transform="scale(0.015625)"/>
       </defs>
       <use xlink:href="#Arial-BoldMT-35"/>
      </g>
     </g>
    </g>
    <g id="xtick_2">
     <g id="text_2">
      <!-- 10 -->
      <g style="fill: #262626" transform="translate(296.016967 500.120938) scale(0.14 -0.14)">
       <defs>
        <path id="Arial-BoldMT-31" d="M 2519 0 
L 1641 0 
L 1641 3309 
Q 1159 2859 506 2644 
L 506 3441 
Q 850 3553 1253 3867 
Q 1656 4181 1806 4600 
L 2519 4600 
L 2519 0 
z
" transform="scale(0.015625)"/>
        <path id="Arial-BoldMT-30" d="M 1756 4600 
Q 2422 4600 2797 4125 
Q 3244 3563 3244 2259 
Q 3244 959 2794 391 
Q 2422 -78 1756 -78 
Q 1088 -78 678 436 
Q 269 950 269 2269 
Q 269 3563 719 4131 
Q 1091 4600 1756 4600 
z
M 1756 3872 
Q 1597 3872 1472 3770 
Q 1347 3669 1278 3406 
Q 1188 3066 1188 2259 
Q 1188 1453 1269 1151 
Q 1350 850 1473 750 
Q 1597 650 1756 650 
Q 1916 650 2041 751 
Q 2166 853 2234 1116 
Q 2325 1453 2325 2259 
Q 2325 3066 2244 3367 
Q 2163 3669 2039 3770 
Q 1916 3872 1756 3872 
z
" transform="scale(0.015625)"/>
       </defs>
       <use xlink:href="#Arial-BoldMT-31"/>
       <use xlink:href="#Arial-BoldMT-30" x="55.615234"/>
      </g>
     </g>
    </g>
    <g id="xtick_3">
     <g id="text_3">
      <!-- 15 -->
      <g style="fill: #262626" transform="translate(376.636831 500.120938) scale(0.14 -0.14)">
       <use xlink:href="#Arial-BoldMT-31"/>
       <use xlink:href="#Arial-BoldMT-35" x="55.615234"/>
      </g>
     </g>
    </g>
    <g id="xtick_4">
     <g id="text_4">
      <!-- 20 -->
      <g style="fill: #262626" transform="translate(457.256696 500.120938) scale(0.14 -0.14)">
       <defs>
        <path id="Arial-BoldMT-32" d="M 3238 816 
L 3238 0 
L 159 0 
Q 209 463 459 877 
Q 709 1291 1447 1975 
Q 2041 2528 2175 2725 
Q 2356 2997 2356 3263 
Q 2356 3556 2198 3714 
Q 2041 3872 1763 3872 
Q 1488 3872 1325 3706 
Q 1163 3541 1138 3156 
L 263 3244 
Q 341 3969 753 4284 
Q 1166 4600 1784 4600 
Q 2463 4600 2850 4234 
Q 3238 3869 3238 3325 
Q 3238 3016 3127 2736 
Q 3016 2456 2775 2150 
Q 2616 1947 2200 1565 
Q 1784 1184 1673 1059 
Q 1563 934 1494 816 
L 3238 816 
z
" transform="scale(0.015625)"/>
       </defs>
       <use xlink:href="#Arial-BoldMT-32"/>
       <use xlink:href="#Arial-BoldMT-30" x="55.615234"/>
      </g>
     </g>
    </g>
    <g id="xtick_5">
     <g id="text_5">
      <!-- 25 -->
      <g style="fill: #262626" transform="translate(537.87656 500.120938) scale(0.14 -0.14)">
       <use xlink:href="#Arial-BoldMT-32"/>
       <use xlink:href="#Arial-BoldMT-35" x="55.615234"/>
      </g>
     </g>
    </g>
    <g id="xtick_6">
     <g id="text_6">
      <!-- 30 -->
      <g style="fill: #262626" transform="translate(618.496424 500.120938) scale(0.14 -0.14)">
       <defs>
        <path id="Arial-BoldMT-33" d="M 241 1216 
L 1091 1319 
Q 1131 994 1309 822 
Q 1488 650 1741 650 
Q 2013 650 2198 856 
Q 2384 1063 2384 1413 
Q 2384 1744 2206 1937 
Q 2028 2131 1772 2131 
Q 1603 2131 1369 2066 
L 1466 2781 
Q 1822 2772 2009 2936 
Q 2197 3100 2197 3372 
Q 2197 3603 2059 3740 
Q 1922 3878 1694 3878 
Q 1469 3878 1309 3722 
Q 1150 3566 1116 3266 
L 306 3403 
Q 391 3819 561 4067 
Q 731 4316 1036 4458 
Q 1341 4600 1719 4600 
Q 2366 4600 2756 4188 
Q 3078 3850 3078 3425 
Q 3078 2822 2419 2463 
Q 2813 2378 3048 2084 
Q 3284 1791 3284 1375 
Q 3284 772 2843 347 
Q 2403 -78 1747 -78 
Q 1125 -78 715 280 
Q 306 638 241 1216 
z
" transform="scale(0.015625)"/>
       </defs>
       <use xlink:href="#Arial-BoldMT-33"/>
       <use xlink:href="#Arial-BoldMT-30" x="55.615234"/>
      </g>
     </g>
    </g>
    <g id="text_7">
     <!-- Radiation Absorbed (mGy) -->
     <g style="fill: #262626" transform="translate(298.438048 519.259219) scale(0.17 -0.17)">
      <defs>
       <path id="Arial-BoldMT-52" d="M 469 0 
L 469 4581 
L 2416 4581 
Q 3150 4581 3483 4457 
Q 3816 4334 4016 4018 
Q 4216 3703 4216 3297 
Q 4216 2781 3912 2445 
Q 3609 2109 3006 2022 
Q 3306 1847 3501 1637 
Q 3697 1428 4028 894 
L 4588 0 
L 3481 0 
L 2813 997 
Q 2456 1531 2325 1670 
Q 2194 1809 2047 1861 
Q 1900 1913 1581 1913 
L 1394 1913 
L 1394 0 
L 469 0 
z
M 1394 2644 
L 2078 2644 
Q 2744 2644 2909 2700 
Q 3075 2756 3169 2893 
Q 3263 3031 3263 3238 
Q 3263 3469 3139 3611 
Q 3016 3753 2791 3791 
Q 2678 3806 2116 3806 
L 1394 3806 
L 1394 2644 
z
" transform="scale(0.015625)"/>
       <path id="Arial-BoldMT-61" d="M 1116 2306 
L 319 2450 
Q 453 2931 781 3162 
Q 1109 3394 1756 3394 
Q 2344 3394 2631 3255 
Q 2919 3116 3036 2902 
Q 3153 2688 3153 2116 
L 3144 1091 
Q 3144 653 3186 445 
Q 3228 238 3344 0 
L 2475 0 
Q 2441 88 2391 259 
Q 2369 338 2359 363 
Q 2134 144 1878 34 
Q 1622 -75 1331 -75 
Q 819 -75 523 203 
Q 228 481 228 906 
Q 228 1188 362 1408 
Q 497 1628 739 1745 
Q 981 1863 1438 1950 
Q 2053 2066 2291 2166 
L 2291 2253 
Q 2291 2506 2166 2614 
Q 2041 2722 1694 2722 
Q 1459 2722 1328 2630 
Q 1197 2538 1116 2306 
z
M 2291 1594 
Q 2122 1538 1756 1459 
Q 1391 1381 1278 1306 
Q 1106 1184 1106 997 
Q 1106 813 1243 678 
Q 1381 544 1594 544 
Q 1831 544 2047 700 
Q 2206 819 2256 991 
Q 2291 1103 2291 1419 
L 2291 1594 
z
" transform="scale(0.015625)"/>
       <path id="Arial-BoldMT-64" d="M 3503 0 
L 2688 0 
L 2688 488 
Q 2484 203 2207 64 
Q 1931 -75 1650 -75 
Q 1078 -75 670 386 
Q 263 847 263 1672 
Q 263 2516 659 2955 
Q 1056 3394 1663 3394 
Q 2219 3394 2625 2931 
L 2625 4581 
L 3503 4581 
L 3503 0 
z
M 1159 1731 
Q 1159 1200 1306 963 
Q 1519 619 1900 619 
Q 2203 619 2415 876 
Q 2628 1134 2628 1647 
Q 2628 2219 2422 2470 
Q 2216 2722 1894 2722 
Q 1581 2722 1370 2473 
Q 1159 2225 1159 1731 
z
" transform="scale(0.015625)"/>
       <path id="Arial-BoldMT-69" d="M 459 3769 
L 459 4581 
L 1338 4581 
L 1338 3769 
L 459 3769 
z
M 459 0 
L 459 3319 
L 1338 3319 
L 1338 0 
L 459 0 
z
" transform="scale(0.015625)"/>
       <path id="Arial-BoldMT-74" d="M 1981 3319 
L 1981 2619 
L 1381 2619 
L 1381 1281 
Q 1381 875 1398 808 
Q 1416 741 1477 697 
Q 1538 653 1625 653 
Q 1747 653 1978 738 
L 2053 56 
Q 1747 -75 1359 -75 
Q 1122 -75 931 4 
Q 741 84 652 211 
Q 563 338 528 553 
Q 500 706 500 1172 
L 500 2619 
L 97 2619 
L 97 3319 
L 500 3319 
L 500 3978 
L 1381 4491 
L 1381 3319 
L 1981 3319 
z
" transform="scale(0.015625)"/>
       <path id="Arial-BoldMT-6f" d="M 256 1706 
Q 256 2144 472 2553 
Q 688 2963 1083 3178 
Q 1478 3394 1966 3394 
Q 2719 3394 3200 2905 
Q 3681 2416 3681 1669 
Q 3681 916 3195 420 
Q 2709 -75 1972 -75 
Q 1516 -75 1102 131 
Q 688 338 472 736 
Q 256 1134 256 1706 
z
M 1156 1659 
Q 1156 1166 1390 903 
Q 1625 641 1969 641 
Q 2313 641 2545 903 
Q 2778 1166 2778 1666 
Q 2778 2153 2545 2415 
Q 2313 2678 1969 2678 
Q 1625 2678 1390 2415 
Q 1156 2153 1156 1659 
z
" transform="scale(0.015625)"/>
       <path id="Arial-BoldMT-6e" d="M 3478 0 
L 2600 0 
L 2600 1694 
Q 2600 2231 2544 2389 
Q 2488 2547 2361 2634 
Q 2234 2722 2056 2722 
Q 1828 2722 1647 2597 
Q 1466 2472 1398 2265 
Q 1331 2059 1331 1503 
L 1331 0 
L 453 0 
L 453 3319 
L 1269 3319 
L 1269 2831 
Q 1703 3394 2363 3394 
Q 2653 3394 2893 3289 
Q 3134 3184 3257 3021 
Q 3381 2859 3429 2653 
Q 3478 2447 3478 2063 
L 3478 0 
z
" transform="scale(0.015625)"/>
       <path id="Arial-BoldMT-20" transform="scale(0.015625)"/>
       <path id="Arial-BoldMT-41" d="M 4597 0 
L 3591 0 
L 3191 1041 
L 1359 1041 
L 981 0 
L 0 0 
L 1784 4581 
L 2763 4581 
L 4597 0 
z
M 2894 1813 
L 2263 3513 
L 1644 1813 
L 2894 1813 
z
" transform="scale(0.015625)"/>
       <path id="Arial-BoldMT-62" d="M 422 0 
L 422 4581 
L 1300 4581 
L 1300 2931 
Q 1706 3394 2263 3394 
Q 2869 3394 3266 2955 
Q 3663 2516 3663 1694 
Q 3663 844 3258 384 
Q 2853 -75 2275 -75 
Q 1991 -75 1714 67 
Q 1438 209 1238 488 
L 1238 0 
L 422 0 
z
M 1294 1731 
Q 1294 1216 1456 969 
Q 1684 619 2063 619 
Q 2353 619 2558 867 
Q 2763 1116 2763 1650 
Q 2763 2219 2556 2470 
Q 2350 2722 2028 2722 
Q 1713 2722 1503 2476 
Q 1294 2231 1294 1731 
z
" transform="scale(0.015625)"/>
       <path id="Arial-BoldMT-73" d="M 150 947 
L 1031 1081 
Q 1088 825 1259 692 
Q 1431 559 1741 559 
Q 2081 559 2253 684 
Q 2369 772 2369 919 
Q 2369 1019 2306 1084 
Q 2241 1147 2013 1200 
Q 950 1434 666 1628 
Q 272 1897 272 2375 
Q 272 2806 612 3100 
Q 953 3394 1669 3394 
Q 2350 3394 2681 3172 
Q 3013 2950 3138 2516 
L 2309 2363 
Q 2256 2556 2107 2659 
Q 1959 2763 1684 2763 
Q 1338 2763 1188 2666 
Q 1088 2597 1088 2488 
Q 1088 2394 1175 2328 
Q 1294 2241 1995 2081 
Q 2697 1922 2975 1691 
Q 3250 1456 3250 1038 
Q 3250 581 2869 253 
Q 2488 -75 1741 -75 
Q 1063 -75 667 200 
Q 272 475 150 947 
z
" transform="scale(0.015625)"/>
       <path id="Arial-BoldMT-72" d="M 1300 0 
L 422 0 
L 422 3319 
L 1238 3319 
L 1238 2847 
Q 1447 3181 1614 3287 
Q 1781 3394 1994 3394 
Q 2294 3394 2572 3228 
L 2300 2463 
Q 2078 2606 1888 2606 
Q 1703 2606 1575 2504 
Q 1447 2403 1373 2137 
Q 1300 1872 1300 1025 
L 1300 0 
z
" transform="scale(0.015625)"/>
       <path id="Arial-BoldMT-65" d="M 2381 1056 
L 3256 909 
Q 3088 428 2723 176 
Q 2359 -75 1813 -75 
Q 947 -75 531 491 
Q 203 944 203 1634 
Q 203 2459 634 2926 
Q 1066 3394 1725 3394 
Q 2466 3394 2894 2905 
Q 3322 2416 3303 1406 
L 1103 1406 
Q 1113 1016 1316 798 
Q 1519 581 1822 581 
Q 2028 581 2168 693 
Q 2309 806 2381 1056 
z
M 2431 1944 
Q 2422 2325 2234 2523 
Q 2047 2722 1778 2722 
Q 1491 2722 1303 2513 
Q 1116 2303 1119 1944 
L 2431 1944 
z
" transform="scale(0.015625)"/>
       <path id="Arial-BoldMT-28" d="M 1916 -1347 
L 1313 -1347 
Q 834 -625 584 153 
Q 334 931 334 1659 
Q 334 2563 644 3369 
Q 913 4069 1325 4659 
L 1925 4659 
Q 1497 3713 1336 3048 
Q 1175 2384 1175 1641 
Q 1175 1128 1270 590 
Q 1366 53 1531 -431 
Q 1641 -750 1916 -1347 
z
" transform="scale(0.015625)"/>
       <path id="Arial-BoldMT-6d" d="M 394 3319 
L 1203 3319 
L 1203 2866 
Q 1638 3394 2238 3394 
Q 2556 3394 2790 3262 
Q 3025 3131 3175 2866 
Q 3394 3131 3647 3262 
Q 3900 3394 4188 3394 
Q 4553 3394 4806 3245 
Q 5059 3097 5184 2809 
Q 5275 2597 5275 2122 
L 5275 0 
L 4397 0 
L 4397 1897 
Q 4397 2391 4306 2534 
Q 4184 2722 3931 2722 
Q 3747 2722 3584 2609 
Q 3422 2497 3350 2280 
Q 3278 2063 3278 1594 
L 3278 0 
L 2400 0 
L 2400 1819 
Q 2400 2303 2353 2443 
Q 2306 2584 2207 2653 
Q 2109 2722 1941 2722 
Q 1738 2722 1575 2612 
Q 1413 2503 1342 2297 
Q 1272 2091 1272 1613 
L 1272 0 
L 394 0 
L 394 3319 
z
" transform="scale(0.015625)"/>
       <path id="Arial-BoldMT-47" d="M 2597 1684 
L 2597 2456 
L 4591 2456 
L 4591 631 
Q 4300 350 3748 136 
Q 3197 -78 2631 -78 
Q 1913 -78 1378 223 
Q 844 525 575 1086 
Q 306 1647 306 2306 
Q 306 3022 606 3578 
Q 906 4134 1484 4431 
Q 1925 4659 2581 4659 
Q 3434 4659 3914 4301 
Q 4394 3944 4531 3313 
L 3613 3141 
Q 3516 3478 3248 3673 
Q 2981 3869 2581 3869 
Q 1975 3869 1617 3484 
Q 1259 3100 1259 2344 
Q 1259 1528 1621 1120 
Q 1984 713 2572 713 
Q 2863 713 3155 827 
Q 3447 941 3656 1103 
L 3656 1684 
L 2597 1684 
z
" transform="scale(0.015625)"/>
       <path id="Arial-BoldMT-79" d="M 44 3319 
L 978 3319 
L 1772 963 
L 2547 3319 
L 3456 3319 
L 2284 125 
L 2075 -453 
Q 1959 -744 1854 -897 
Q 1750 -1050 1614 -1145 
Q 1478 -1241 1279 -1294 
Q 1081 -1347 831 -1347 
Q 578 -1347 334 -1294 
L 256 -606 
Q 463 -647 628 -647 
Q 934 -647 1081 -467 
Q 1228 -288 1306 -9 
L 44 3319 
z
" transform="scale(0.015625)"/>
       <path id="Arial-BoldMT-29" d="M 216 -1347 
Q 475 -791 581 -494 
Q 688 -197 778 190 
Q 869 578 912 926 
Q 956 1275 956 1641 
Q 956 2384 797 3048 
Q 638 3713 209 4659 
L 806 4659 
Q 1278 3988 1539 3234 
Q 1800 2481 1800 1706 
Q 1800 1053 1594 306 
Q 1359 -531 822 -1347 
L 216 -1347 
z
" transform="scale(0.015625)"/>
      </defs>
      <use xlink:href="#Arial-BoldMT-52"/>
      <use xlink:href="#Arial-BoldMT-61" x="72.216797"/>
      <use xlink:href="#Arial-BoldMT-64" x="127.832031"/>
      <use xlink:href="#Arial-BoldMT-69" x="188.916016"/>
      <use xlink:href="#Arial-BoldMT-61" x="216.699219"/>
      <use xlink:href="#Arial-BoldMT-74" x="272.314453"/>
      <use xlink:href="#Arial-BoldMT-69" x="305.615234"/>
      <use xlink:href="#Arial-BoldMT-6f" x="333.398438"/>
      <use xlink:href="#Arial-BoldMT-6e" x="394.482422"/>
      <use xlink:href="#Arial-BoldMT-20" x="455.566406"/>
      <use xlink:href="#Arial-BoldMT-41" x="479.599609"/>
      <use xlink:href="#Arial-BoldMT-62" x="551.816406"/>
      <use xlink:href="#Arial-BoldMT-73" x="612.900391"/>
      <use xlink:href="#Arial-BoldMT-6f" x="668.515625"/>
      <use xlink:href="#Arial-BoldMT-72" x="729.599609"/>
      <use xlink:href="#Arial-BoldMT-62" x="768.515625"/>
      <use xlink:href="#Arial-BoldMT-65" x="829.599609"/>
      <use xlink:href="#Arial-BoldMT-64" x="885.214844"/>
      <use xlink:href="#Arial-BoldMT-20" x="946.298828"/>
      <use xlink:href="#Arial-BoldMT-28" x="974.082031"/>
      <use xlink:href="#Arial-BoldMT-6d" x="1007.382812"/>
      <use xlink:href="#Arial-BoldMT-47" x="1096.298828"/>
      <use xlink:href="#Arial-BoldMT-79" x="1174.082031"/>
      <use xlink:href="#Arial-BoldMT-29" x="1229.697266"/>
     </g>
    </g>
   </g>
   <g id="matplotlib.axis_2">
    <g id="ytick_1">
     <g id="text_8">
      <!-- −0.6 -->
      <g style="fill: #262626" transform="translate(124.863125 462.955219) scale(0.14 -0.14)">
       <defs>
        <path id="Arial-BoldMT-2212" d="M 266 1850 
L 266 2672 
L 3469 2672 
L 3469 1850 
L 266 1850 
z
" transform="scale(0.015625)"/>
        <path id="Arial-BoldMT-2e" d="M 459 0 
L 459 878 
L 1338 878 
L 1338 0 
L 459 0 
z
" transform="scale(0.015625)"/>
        <path id="Arial-BoldMT-36" d="M 3247 3459 
L 2397 3366 
Q 2366 3628 2234 3753 
Q 2103 3878 1894 3878 
Q 1616 3878 1423 3628 
Q 1231 3378 1181 2588 
Q 1509 2975 1997 2975 
Q 2547 2975 2939 2556 
Q 3331 2138 3331 1475 
Q 3331 772 2918 347 
Q 2506 -78 1859 -78 
Q 1166 -78 719 461 
Q 272 1000 272 2228 
Q 272 3488 737 4044 
Q 1203 4600 1947 4600 
Q 2469 4600 2811 4308 
Q 3153 4016 3247 3459 
z
M 1256 1544 
Q 1256 1116 1453 883 
Q 1650 650 1903 650 
Q 2147 650 2309 840 
Q 2472 1031 2472 1466 
Q 2472 1913 2297 2120 
Q 2122 2328 1859 2328 
Q 1606 2328 1431 2129 
Q 1256 1931 1256 1544 
z
" transform="scale(0.015625)"/>
       </defs>
       <use xlink:href="#Arial-BoldMT-2212"/>
       <use xlink:href="#Arial-BoldMT-30" x="58.398438"/>
       <use xlink:href="#Arial-BoldMT-2e" x="114.013672"/>
       <use xlink:href="#Arial-BoldMT-36" x="141.796875"/>
      </g>
     </g>
    </g>
    <g id="ytick_2">
     <g id="text_9">
      <!-- −0.4 -->
      <g style="fill: #262626" transform="translate(124.863125 408.888801) scale(0.14 -0.14)">
       <defs>
        <path id="Arial-BoldMT-34" d="M 1994 0 
L 1994 922 
L 119 922 
L 119 1691 
L 2106 4600 
L 2844 4600 
L 2844 1694 
L 3413 1694 
L 3413 922 
L 2844 922 
L 2844 0 
L 1994 0 
z
M 1994 1694 
L 1994 3259 
L 941 1694 
L 1994 1694 
z
" transform="scale(0.015625)"/>
       </defs>
       <use xlink:href="#Arial-BoldMT-2212"/>
       <use xlink:href="#Arial-BoldMT-30" x="58.398438"/>
       <use xlink:href="#Arial-BoldMT-2e" x="114.013672"/>
       <use xlink:href="#Arial-BoldMT-34" x="141.796875"/>
      </g>
     </g>
    </g>
    <g id="ytick_3">
     <g id="text_10">
      <!-- −0.2 -->
      <g style="fill: #262626" transform="translate(124.863125 354.822382) scale(0.14 -0.14)">
       <use xlink:href="#Arial-BoldMT-2212"/>
       <use xlink:href="#Arial-BoldMT-30" x="58.398438"/>
       <use xlink:href="#Arial-BoldMT-2e" x="114.013672"/>
       <use xlink:href="#Arial-BoldMT-32" x="141.796875"/>
      </g>
     </g>
    </g>
    <g id="ytick_4">
     <g id="text_11">
      <!-- 0.0 -->
      <g style="fill: #262626" transform="translate(133.04 300.755964) scale(0.14 -0.14)">
       <use xlink:href="#Arial-BoldMT-30"/>
       <use xlink:href="#Arial-BoldMT-2e" x="55.615234"/>
       <use xlink:href="#Arial-BoldMT-30" x="83.398438"/>
      </g>
     </g>
    </g>
    <g id="ytick_5">
     <g id="text_12">
      <!-- 0.2 -->
      <g style="fill: #262626" transform="translate(133.04 246.689546) scale(0.14 -0.14)">
       <use xlink:href="#Arial-BoldMT-30"/>
       <use xlink:href="#Arial-BoldMT-2e" x="55.615234"/>
       <use xlink:href="#Arial-BoldMT-32" x="83.398438"/>
      </g>
     </g>
    </g>
    <g id="ytick_6">
     <g id="text_13">
      <!-- 0.4 -->
      <g style="fill: #262626" transform="translate(133.04 192.623128) scale(0.14 -0.14)">
       <use xlink:href="#Arial-BoldMT-30"/>
       <use xlink:href="#Arial-BoldMT-2e" x="55.615234"/>
       <use xlink:href="#Arial-BoldMT-34" x="83.398438"/>
      </g>
     </g>
    </g>
    <g id="ytick_7">
     <g id="text_14">
      <!-- 0.6 -->
      <g style="fill: #262626" transform="translate(133.04 138.55671) scale(0.14 -0.14)">
       <use xlink:href="#Arial-BoldMT-30"/>
       <use xlink:href="#Arial-BoldMT-2e" x="55.615234"/>
       <use xlink:href="#Arial-BoldMT-36" x="83.398438"/>
      </g>
     </g>
    </g>
    <g id="ytick_8">
     <g id="text_15">
      <!-- 0.8 -->
      <g style="fill: #262626" transform="translate(133.04 84.490291) scale(0.14 -0.14)">
       <defs>
        <path id="Arial-BoldMT-38" d="M 1025 2472 
Q 684 2616 529 2867 
Q 375 3119 375 3419 
Q 375 3931 733 4265 
Q 1091 4600 1750 4600 
Q 2403 4600 2764 4265 
Q 3125 3931 3125 3419 
Q 3125 3100 2959 2851 
Q 2794 2603 2494 2472 
Q 2875 2319 3073 2025 
Q 3272 1731 3272 1347 
Q 3272 713 2867 316 
Q 2463 -81 1791 -81 
Q 1166 -81 750 247 
Q 259 634 259 1309 
Q 259 1681 443 1992 
Q 628 2303 1025 2472 
z
M 1206 3356 
Q 1206 3094 1354 2947 
Q 1503 2800 1750 2800 
Q 2000 2800 2150 2948 
Q 2300 3097 2300 3359 
Q 2300 3606 2151 3754 
Q 2003 3903 1759 3903 
Q 1506 3903 1356 3753 
Q 1206 3603 1206 3356 
z
M 1125 1394 
Q 1125 1031 1311 828 
Q 1497 625 1775 625 
Q 2047 625 2225 820 
Q 2403 1016 2403 1384 
Q 2403 1706 2222 1901 
Q 2041 2097 1763 2097 
Q 1441 2097 1283 1875 
Q 1125 1653 1125 1394 
z
" transform="scale(0.015625)"/>
       </defs>
       <use xlink:href="#Arial-BoldMT-30"/>
       <use xlink:href="#Arial-BoldMT-2e" x="55.615234"/>
       <use xlink:href="#Arial-BoldMT-38" x="83.398438"/>
      </g>
     </g>
    </g>
   </g>
   <g id="line2d_1">
    <path d="M 212.685709 329.052685 
L 235.507531 311.712641 
L 258.329354 294.106098 
L 281.151176 276.233057 
L 303.972999 258.093516 
L 328.221186 238.528251 
L 352.469372 218.662133 
L 376.717559 198.495163 
L 400.965745 178.02734 
L 425.213931 157.258666 
L 449.462118 136.189138 
L 473.710304 114.818759 
L 496.532127 94.430634 
L 496.532127 94.430634 
" clip-path="url(#p7a036e7952)" style="fill: none; stroke: #ff0000; stroke-width: 1.5; stroke-linecap: round"/>
   </g>
   <g id="line2d_2">
    <path d="M 184.162401 356.225951 
L 190.844532 340.845445 
L 197.526662 325.911647 
L 204.208793 311.424559 
L 210.890924 297.384179 
L 217.573055 283.790508 
L 224.255186 270.643546 
L 230.937317 257.943293 
L 237.619448 245.689749 
L 244.301579 233.882914 
L 250.983709 222.522787 
L 257.66584 211.60937 
L 264.347971 201.142661 
L 271.030102 191.122661 
L 277.712233 181.54937 
L 284.394364 172.422787 
L 291.076495 163.742914 
L 297.758625 155.509749 
L 304.440756 147.723294 
L 311.122887 140.383547 
L 317.805018 133.490509 
L 324.487149 127.044179 
L 331.16928 121.044559 
L 335.624034 117.292984 
L 340.078788 113.739946 
L 344.533541 110.385445 
L 348.988295 107.229481 
L 353.443049 104.272055 
L 357.897803 101.513166 
L 362.352557 98.952815 
L 366.807311 96.591 
L 371.262065 94.427723 
L 375.716819 92.462983 
L 380.171573 90.69678 
L 384.626327 89.129115 
L 389.081081 87.759987 
L 393.535835 86.589396 
L 397.990588 85.617342 
L 402.445342 84.843826 
L 406.900096 84.268847 
L 411.35485 83.892405 
L 415.809604 83.714501 
L 420.264358 83.735134 
L 424.719112 83.954304 
L 429.173866 84.372011 
L 433.62862 84.988255 
L 438.083374 85.803037 
L 442.538128 86.816356 
L 446.992881 88.028213 
L 451.447635 89.438606 
L 455.902389 91.047537 
L 460.357143 92.855005 
L 464.811897 94.861011 
L 469.266651 97.065553 
L 473.721405 99.468633 
L 478.176159 102.070251 
L 482.630913 104.870405 
L 487.085667 107.869097 
L 491.540421 111.066326 
L 495.995174 114.462092 
L 500.449928 118.056396 
L 504.904682 121.849236 
L 509.359436 125.840614 
L 516.041567 132.199939 
L 522.723698 139.005972 
L 529.405829 146.258714 
L 536.08796 153.958166 
L 542.770091 162.104325 
L 549.452221 170.697194 
L 556.134352 179.736772 
L 562.816483 189.223058 
L 569.498614 199.156053 
L 576.180745 209.535758 
L 582.862876 220.362171 
L 589.545007 231.635292 
L 596.227137 243.355123 
L 602.909268 255.521663 
L 609.591399 268.134911 
L 616.27353 281.194868 
L 622.955661 294.701534 
L 627.410415 303.95415 
L 627.410415 303.95415 
" clip-path="url(#p7a036e7952)" style="fill: none; stroke-dasharray: 5.55,2.4; stroke-dashoffset: 0; stroke: #ff0000; stroke-width: 1.5"/>
   </g>
   <g id="line2d_3">
    <path d="M 212.685709 116.706414 
L 221.243892 132.099843 
L 229.802076 147.031309 
L 238.360259 161.500812 
L 246.918443 175.508353 
L 255.476626 189.053931 
L 264.03481 202.137546 
L 272.592993 214.759199 
L 281.151176 226.918889 
L 288.282996 236.699075 
L 295.414816 246.158455 
L 302.546635 255.297027 
L 309.678455 264.114791 
L 316.810274 272.611748 
L 323.942094 280.787898 
L 331.073913 288.64324 
L 338.205733 296.177775 
L 345.337552 303.391503 
L 352.469372 310.284423 
L 359.601192 316.856535 
L 366.733011 323.10784 
L 373.864831 329.038338 
L 380.99665 334.648029 
L 388.12847 339.936911 
L 395.260289 344.904987 
L 402.392109 349.552255 
L 409.523928 353.878716 
L 416.655748 357.884369 
L 422.361204 360.85791 
L 428.066659 363.626135 
L 433.772115 366.189042 
L 439.477571 368.546633 
L 445.183026 370.698908 
L 450.888482 372.645865 
L 456.593938 374.387506 
L 462.299393 375.92383 
L 468.004849 377.254837 
L 473.710304 378.380528 
L 479.41576 379.300901 
L 485.121216 380.015958 
L 490.826671 380.525699 
L 496.532127 380.830122 
L 496.532127 380.830122 
" clip-path="url(#p7a036e7952)" style="fill: none; stroke: #008000; stroke-width: 1.5; stroke-linecap: round"/>
   </g>
   <g id="line2d_4">
    <path d="M 184.162401 270.721748 
L 193.071909 280.845374 
L 201.981416 290.693321 
L 210.890924 300.265588 
L 219.800432 309.562175 
L 228.70994 318.583083 
L 237.619448 327.328311 
L 246.528955 335.797859 
L 255.438463 343.991728 
L 264.347971 351.909917 
L 273.257479 359.552427 
L 282.166987 366.919256 
L 291.076495 374.010407 
L 299.986002 380.825877 
L 308.89551 387.365668 
L 317.805018 393.62978 
L 326.714526 399.618212 
L 335.624034 405.330964 
L 344.533541 410.768036 
L 353.443049 415.929429 
L 362.352557 420.815142 
L 371.262065 425.425176 
L 380.171573 429.75953 
L 389.081081 433.818205 
L 397.990588 437.601199 
L 406.900096 441.108514 
L 415.809604 444.34015 
L 424.719112 447.296106 
L 433.62862 449.976382 
L 442.538128 452.380979 
L 451.447635 454.509896 
L 460.357143 456.363133 
L 469.266651 457.940691 
L 478.176159 459.242569 
L 487.085667 460.268767 
L 495.995174 461.019286 
L 504.904682 461.494125 
L 513.81419 461.693285 
L 522.723698 461.616765 
L 531.633206 461.264565 
L 540.542714 460.636686 
L 549.452221 459.733127 
L 558.361729 458.553889 
L 567.271237 457.09897 
L 576.180745 455.368373 
L 585.090253 453.362095 
L 593.99976 451.080138 
L 602.909268 448.522502 
L 611.818776 445.689185 
L 620.728284 442.580189 
L 627.410415 440.067528 
L 627.410415 440.067528 
" clip-path="url(#p7a036e7952)" style="fill: none; stroke-dasharray: 5.55,2.4; stroke-dashoffset: 0; stroke: #008000; stroke-width: 1.5"/>
   </g>
   <g id="line2d_5">
    <path d="M 212.685709 206.746633 
L 218.391164 215.730881 
L 224.09662 224.28077 
L 229.802076 232.3963 
L 235.507531 240.077472 
L 241.212987 247.324284 
L 246.918443 254.136738 
L 252.623898 260.514833 
L 256.90299 265.013357 
L 261.182082 269.267553 
L 265.461173 273.277423 
L 269.740265 277.042966 
L 274.019357 280.564182 
L 278.298449 283.841071 
L 282.57754 286.873634 
L 286.856632 289.661869 
L 291.135724 292.205778 
L 295.414816 294.50536 
L 299.693907 296.560616 
L 303.972999 298.371544 
L 308.252091 299.938146 
L 312.531183 301.26042 
L 316.810274 302.338368 
L 321.089366 303.171989 
L 325.368458 303.761284 
L 329.647549 304.106251 
L 333.926641 304.206892 
L 338.205733 304.063206 
L 342.484825 303.675193 
L 346.763916 303.042853 
L 351.043008 302.166186 
L 355.3221 301.045193 
L 359.601192 299.679873 
L 363.880283 298.070226 
L 368.159375 296.216252 
L 372.438467 294.117951 
L 376.717559 291.775324 
L 380.99665 289.188369 
L 385.275742 286.357088 
L 389.554834 283.28148 
L 393.833925 279.961545 
L 398.113017 276.397284 
L 402.392109 272.588695 
L 406.671201 268.53578 
L 410.950292 264.238538 
L 415.229384 259.696969 
L 420.93484 253.26148 
L 426.640295 246.391632 
L 432.345751 239.087426 
L 438.051207 231.34886 
L 443.756662 223.175936 
L 449.462118 214.568653 
L 455.167574 205.527011 
L 460.873029 196.051011 
L 466.578485 186.140651 
L 472.283941 175.795933 
L 477.989396 165.016856 
L 483.694852 153.803421 
L 489.400308 142.155626 
L 495.105763 130.073473 
L 496.532127 126.985066 
L 496.532127 126.985066 
" clip-path="url(#p7a036e7952)" style="fill: none; stroke: #0000ff; stroke-width: 1.5; stroke-linecap: round"/>
   </g>
   <g id="line2d_6">
    <path d="M 184.162401 239.697697 
L 190.844532 244.211191 
L 197.526662 248.516882 
L 204.208793 252.61477 
L 210.890924 256.504856 
L 217.573055 260.187139 
L 224.255186 263.661619 
L 230.937317 266.928297 
L 237.619448 269.987172 
L 244.301579 272.838244 
L 250.983709 275.481514 
L 257.66584 277.916981 
L 264.347971 280.144645 
L 271.030102 282.164507 
L 277.712233 283.976565 
L 284.394364 285.580822 
L 291.076495 286.977275 
L 297.758625 288.165926 
L 304.440756 289.146774 
L 311.122887 289.919819 
L 317.805018 290.485062 
L 324.487149 290.842502 
L 331.16928 290.992139 
L 337.851411 290.933974 
L 344.533541 290.668005 
L 351.215672 290.194235 
L 357.897803 289.512661 
L 364.579934 288.623285 
L 371.262065 287.526106 
L 377.944196 286.221124 
L 384.626327 284.70834 
L 391.308458 282.987753 
L 397.990588 281.059364 
L 404.672719 278.923171 
L 411.35485 276.579176 
L 418.036981 274.027378 
L 424.719112 271.267778 
L 431.401243 268.300375 
L 438.083374 265.125169 
L 444.765504 261.74216 
L 451.447635 258.151349 
L 458.129766 254.352735 
L 464.811897 250.346319 
L 471.494028 246.132099 
L 478.176159 241.710077 
L 484.85829 237.080253 
L 491.540421 232.242625 
L 500.449928 225.469207 
L 509.359436 218.326361 
L 518.268944 210.814089 
L 527.178452 202.932389 
L 536.08796 194.681263 
L 544.997467 186.060709 
L 553.906975 177.070729 
L 562.816483 167.711321 
L 571.725991 157.982487 
L 580.635499 147.884225 
L 589.545007 137.416536 
L 598.454514 126.579421 
L 607.364022 115.372878 
L 616.27353 103.796909 
L 625.183038 91.851512 
L 627.410415 88.80744 
L 627.410415 88.80744 
" clip-path="url(#p7a036e7952)" style="fill: none; stroke-dasharray: 5.55,2.4; stroke-dashoffset: 0; stroke: #0000ff; stroke-width: 1.5"/>
   </g>
   <g id="line2d_7">
    <path d="M 162 295.745495 
L 649.572816 295.745495 
" clip-path="url(#p7a036e7952)" style="fill: none; stroke-dasharray: 5.55,2.4; stroke-dashoffset: 0; stroke: #000000; stroke-width: 1.5"/>
   </g>
   <g id="patch_3">
    <path d="M 162 480.6 
L 162 64.8 
" style="fill: none; stroke: #262626; stroke-width: 2; stroke-linejoin: miter; stroke-linecap: square"/>
   </g>
   <g id="patch_4">
    <path d="M 649.572816 480.6 
L 649.572816 64.8 
" style="fill: none; stroke: #262626; stroke-width: 2; stroke-linejoin: miter; stroke-linecap: square"/>
   </g>
   <g id="patch_5">
    <path d="M 162 480.6 
L 649.572816 480.6 
" style="fill: none; stroke: #262626; stroke-width: 2; stroke-linejoin: miter; stroke-linecap: square"/>
   </g>
   <g id="patch_6">
    <path d="M 162 64.8 
L 649.572816 64.8 
" style="fill: none; stroke: #262626; stroke-width: 2; stroke-linejoin: miter; stroke-linecap: square"/>
   </g>
   <g id="legend_1">
    <g id="patch_7">
     <path d="M 169.7 475.1 
L 292.81375 475.1 
Q 295.01375 475.1 295.01375 472.9 
L 295.01375 363.633438 
Q 295.01375 361.433438 292.81375 361.433438 
L 169.7 361.433438 
Q 167.5 361.433438 167.5 363.633438 
L 167.5 472.9 
Q 167.5 475.1 169.7 475.1 
z
" style="fill: #ffffff; opacity: 0.8; stroke: #cccccc; stroke-linejoin: miter"/>
    </g>
    <g id="text_16">
     <!-- Metabolic Processes -->
     <g style="fill: #262626" transform="translate(171.9 374.422813) scale(0.12 -0.12)">
      <defs>
       <path id="Arial-BoldMT-4d" d="M 453 0 
L 453 4581 
L 1838 4581 
L 2669 1456 
L 3491 4581 
L 4878 4581 
L 4878 0 
L 4019 0 
L 4019 3606 
L 3109 0 
L 2219 0 
L 1313 3606 
L 1313 0 
L 453 0 
z
" transform="scale(0.015625)"/>
       <path id="Arial-BoldMT-6c" d="M 459 0 
L 459 4581 
L 1338 4581 
L 1338 0 
L 459 0 
z
" transform="scale(0.015625)"/>
       <path id="Arial-BoldMT-63" d="M 3353 2338 
L 2488 2181 
Q 2444 2441 2289 2572 
Q 2134 2703 1888 2703 
Q 1559 2703 1364 2476 
Q 1169 2250 1169 1719 
Q 1169 1128 1367 884 
Q 1566 641 1900 641 
Q 2150 641 2309 783 
Q 2469 925 2534 1272 
L 3397 1125 
Q 3263 531 2881 228 
Q 2500 -75 1859 -75 
Q 1131 -75 698 384 
Q 266 844 266 1656 
Q 266 2478 700 2936 
Q 1134 3394 1875 3394 
Q 2481 3394 2839 3133 
Q 3197 2872 3353 2338 
z
" transform="scale(0.015625)"/>
       <path id="Arial-BoldMT-50" d="M 466 0 
L 466 4581 
L 1950 4581 
Q 2794 4581 3050 4513 
Q 3444 4409 3709 4064 
Q 3975 3719 3975 3172 
Q 3975 2750 3822 2462 
Q 3669 2175 3433 2011 
Q 3197 1847 2953 1794 
Q 2622 1728 1994 1728 
L 1391 1728 
L 1391 0 
L 466 0 
z
M 1391 3806 
L 1391 2506 
L 1897 2506 
Q 2444 2506 2628 2578 
Q 2813 2650 2917 2803 
Q 3022 2956 3022 3159 
Q 3022 3409 2875 3571 
Q 2728 3734 2503 3775 
Q 2338 3806 1838 3806 
L 1391 3806 
z
" transform="scale(0.015625)"/>
      </defs>
      <use xlink:href="#Arial-BoldMT-4d"/>
      <use xlink:href="#Arial-BoldMT-65" x="83.300781"/>
      <use xlink:href="#Arial-BoldMT-74" x="138.916016"/>
      <use xlink:href="#Arial-BoldMT-61" x="172.216797"/>
      <use xlink:href="#Arial-BoldMT-62" x="227.832031"/>
      <use xlink:href="#Arial-BoldMT-6f" x="288.916016"/>
      <use xlink:href="#Arial-BoldMT-6c" x="350"/>
      <use xlink:href="#Arial-BoldMT-69" x="377.783203"/>
      <use xlink:href="#Arial-BoldMT-63" x="405.566406"/>
      <use xlink:href="#Arial-BoldMT-20" x="461.181641"/>
      <use xlink:href="#Arial-BoldMT-50" x="488.964844"/>
      <use xlink:href="#Arial-BoldMT-72" x="555.664062"/>
      <use xlink:href="#Arial-BoldMT-6f" x="594.580078"/>
      <use xlink:href="#Arial-BoldMT-63" x="655.664062"/>
      <use xlink:href="#Arial-BoldMT-65" x="711.279297"/>
      <use xlink:href="#Arial-BoldMT-73" x="766.894531"/>
      <use xlink:href="#Arial-BoldMT-73" x="822.509766"/>
      <use xlink:href="#Arial-BoldMT-65" x="878.125"/>
      <use xlink:href="#Arial-BoldMT-73" x="933.740234"/>
     </g>
    </g>
    <g id="line2d_8">
     <path d="M 175.516953 386.347188 
L 186.516953 386.347188 
L 197.516953 386.347188 
" style="fill: none; stroke: #ff0000; stroke-width: 1.5; stroke-linecap: round"/>
    </g>
    <g id="text_17">
     <!-- HIF1a_IF -->
     <g style="fill: #262626" transform="translate(206.316953 390.197188) scale(0.11 -0.11)">
      <defs>
       <path id="Arial-BoldMT-48" d="M 469 0 
L 469 4581 
L 1394 4581 
L 1394 2778 
L 3206 2778 
L 3206 4581 
L 4131 4581 
L 4131 0 
L 3206 0 
L 3206 2003 
L 1394 2003 
L 1394 0 
L 469 0 
z
" transform="scale(0.015625)"/>
       <path id="Arial-BoldMT-49" d="M 438 0 
L 438 4581 
L 1363 4581 
L 1363 0 
L 438 0 
z
" transform="scale(0.015625)"/>
       <path id="Arial-BoldMT-46" d="M 472 0 
L 472 4581 
L 3613 4581 
L 3613 3806 
L 1397 3806 
L 1397 2722 
L 3309 2722 
L 3309 1947 
L 1397 1947 
L 1397 0 
L 472 0 
z
" transform="scale(0.015625)"/>
       <path id="Arial-BoldMT-5f" d="M -59 -1266 
L -59 -697 
L 3591 -697 
L 3591 -1266 
L -59 -1266 
z
" transform="scale(0.015625)"/>
      </defs>
      <use xlink:href="#Arial-BoldMT-48"/>
      <use xlink:href="#Arial-BoldMT-49" x="72.216797"/>
      <use xlink:href="#Arial-BoldMT-46" x="100"/>
      <use xlink:href="#Arial-BoldMT-31" x="161.083984"/>
      <use xlink:href="#Arial-BoldMT-61" x="216.699219"/>
      <use xlink:href="#Arial-BoldMT-5f" x="272.314453"/>
      <use xlink:href="#Arial-BoldMT-49" x="327.929688"/>
      <use xlink:href="#Arial-BoldMT-46" x="355.712891"/>
     </g>
    </g>
    <g id="line2d_9">
     <path d="M 175.516953 401.929375 
L 186.516953 401.929375 
L 197.516953 401.929375 
" style="fill: none; stroke-dasharray: 5.55,2.4; stroke-dashoffset: 0; stroke: #ff0000; stroke-width: 1.5"/>
    </g>
    <g id="text_18">
     <!-- HIF1a_PF -->
     <g style="fill: #262626" transform="translate(206.316953 405.779375) scale(0.11 -0.11)">
      <use xlink:href="#Arial-BoldMT-48"/>
      <use xlink:href="#Arial-BoldMT-49" x="72.216797"/>
      <use xlink:href="#Arial-BoldMT-46" x="100"/>
      <use xlink:href="#Arial-BoldMT-31" x="161.083984"/>
      <use xlink:href="#Arial-BoldMT-61" x="216.699219"/>
      <use xlink:href="#Arial-BoldMT-5f" x="272.314453"/>
      <use xlink:href="#Arial-BoldMT-50" x="327.929688"/>
      <use xlink:href="#Arial-BoldMT-46" x="394.628906"/>
     </g>
    </g>
    <g id="line2d_10">
     <path d="M 175.516953 417.478906 
L 186.516953 417.478906 
L 197.516953 417.478906 
" style="fill: none; stroke: #008000; stroke-width: 1.5; stroke-linecap: round"/>
    </g>
    <g id="text_19">
     <!-- Metabolism_IF -->
     <g style="fill: #262626" transform="translate(206.316953 421.328906) scale(0.11 -0.11)">
      <use xlink:href="#Arial-BoldMT-4d"/>
      <use xlink:href="#Arial-BoldMT-65" x="83.300781"/>
      <use xlink:href="#Arial-BoldMT-74" x="138.916016"/>
      <use xlink:href="#Arial-BoldMT-61" x="172.216797"/>
      <use xlink:href="#Arial-BoldMT-62" x="227.832031"/>
      <use xlink:href="#Arial-BoldMT-6f" x="288.916016"/>
      <use xlink:href="#Arial-BoldMT-6c" x="350"/>
      <use xlink:href="#Arial-BoldMT-69" x="377.783203"/>
      <use xlink:href="#Arial-BoldMT-73" x="405.566406"/>
      <use xlink:href="#Arial-BoldMT-6d" x="461.181641"/>
      <use xlink:href="#Arial-BoldMT-5f" x="550.097656"/>
      <use xlink:href="#Arial-BoldMT-49" x="605.712891"/>
      <use xlink:href="#Arial-BoldMT-46" x="633.496094"/>
     </g>
    </g>
    <g id="line2d_11">
     <path d="M 175.516953 433.028437 
L 186.516953 433.028437 
L 197.516953 433.028437 
" style="fill: none; stroke-dasharray: 5.55,2.4; stroke-dashoffset: 0; stroke: #008000; stroke-width: 1.5"/>
    </g>
    <g id="text_20">
     <!-- Metabolism_PF -->
     <g style="fill: #262626" transform="translate(206.316953 436.878438) scale(0.11 -0.11)">
      <use xlink:href="#Arial-BoldMT-4d"/>
      <use xlink:href="#Arial-BoldMT-65" x="83.300781"/>
      <use xlink:href="#Arial-BoldMT-74" x="138.916016"/>
      <use xlink:href="#Arial-BoldMT-61" x="172.216797"/>
      <use xlink:href="#Arial-BoldMT-62" x="227.832031"/>
      <use xlink:href="#Arial-BoldMT-6f" x="288.916016"/>
      <use xlink:href="#Arial-BoldMT-6c" x="350"/>
      <use xlink:href="#Arial-BoldMT-69" x="377.783203"/>
      <use xlink:href="#Arial-BoldMT-73" x="405.566406"/>
      <use xlink:href="#Arial-BoldMT-6d" x="461.181641"/>
      <use xlink:href="#Arial-BoldMT-5f" x="550.097656"/>
      <use xlink:href="#Arial-BoldMT-50" x="605.712891"/>
      <use xlink:href="#Arial-BoldMT-46" x="672.412109"/>
     </g>
    </g>
    <g id="line2d_12">
     <path d="M 175.516953 448.712031 
L 186.516953 448.712031 
L 197.516953 448.712031 
" style="fill: none; stroke: #0000ff; stroke-width: 1.5; stroke-linecap: round"/>
    </g>
    <g id="text_21">
     <!-- Glycolysis_IF -->
     <g style="fill: #262626" transform="translate(206.316953 452.562031) scale(0.11 -0.11)">
      <use xlink:href="#Arial-BoldMT-47"/>
      <use xlink:href="#Arial-BoldMT-6c" x="77.783203"/>
      <use xlink:href="#Arial-BoldMT-79" x="105.566406"/>
      <use xlink:href="#Arial-BoldMT-63" x="161.181641"/>
      <use xlink:href="#Arial-BoldMT-6f" x="216.796875"/>
      <use xlink:href="#Arial-BoldMT-6c" x="277.880859"/>
      <use xlink:href="#Arial-BoldMT-79" x="305.664062"/>
      <use xlink:href="#Arial-BoldMT-73" x="361.279297"/>
      <use xlink:href="#Arial-BoldMT-69" x="416.894531"/>
      <use xlink:href="#Arial-BoldMT-73" x="444.677734"/>
      <use xlink:href="#Arial-BoldMT-5f" x="500.292969"/>
      <use xlink:href="#Arial-BoldMT-49" x="555.908203"/>
      <use xlink:href="#Arial-BoldMT-46" x="583.691406"/>
     </g>
    </g>
    <g id="line2d_13">
     <path d="M 175.516953 464.534844 
L 186.516953 464.534844 
L 197.516953 464.534844 
" style="fill: none; stroke-dasharray: 5.55,2.4; stroke-dashoffset: 0; stroke: #0000ff; stroke-width: 1.5"/>
    </g>
    <g id="text_22">
     <!-- Glycolysis_PF -->
     <g style="fill: #262626" transform="translate(206.316953 468.384844) scale(0.11 -0.11)">
      <use xlink:href="#Arial-BoldMT-47"/>
      <use xlink:href="#Arial-BoldMT-6c" x="77.783203"/>
      <use xlink:href="#Arial-BoldMT-79" x="105.566406"/>
      <use xlink:href="#Arial-BoldMT-63" x="161.181641"/>
      <use xlink:href="#Arial-BoldMT-6f" x="216.796875"/>
      <use xlink:href="#Arial-BoldMT-6c" x="277.880859"/>
      <use xlink:href="#Arial-BoldMT-79" x="305.664062"/>
      <use xlink:href="#Arial-BoldMT-73" x="361.279297"/>
      <use xlink:href="#Arial-BoldMT-69" x="416.894531"/>
      <use xlink:href="#Arial-BoldMT-73" x="444.677734"/>
      <use xlink:href="#Arial-BoldMT-5f" x="500.292969"/>
      <use xlink:href="#Arial-BoldMT-50" x="555.908203"/>
      <use xlink:href="#Arial-BoldMT-46" x="622.607422"/>
     </g>
    </g>
   </g>
  </g>
  <g id="axes_2">
   <g id="patch_8">
    <path d="M 678.827184 480.6 
L 1166.4 480.6 
L 1166.4 64.8 
L 678.827184 64.8 
z
" style="fill: #ffffff"/>
   </g>
   <g id="matplotlib.axis_3">
    <g id="xtick_7">
     <g id="text_23">
      <!-- 5 -->
      <g style="fill: #262626" transform="translate(736.116943 500.120938) scale(0.14 -0.14)">
       <use xlink:href="#Arial-BoldMT-35"/>
      </g>
     </g>
    </g>
    <g id="xtick_8">
     <g id="text_24">
      <!-- 10 -->
      <g style="fill: #262626" transform="translate(812.844151 500.120938) scale(0.14 -0.14)">
       <use xlink:href="#Arial-BoldMT-31"/>
       <use xlink:href="#Arial-BoldMT-30" x="55.615234"/>
      </g>
     </g>
    </g>
    <g id="xtick_9">
     <g id="text_25">
      <!-- 15 -->
      <g style="fill: #262626" transform="translate(893.464016 500.120938) scale(0.14 -0.14)">
       <use xlink:href="#Arial-BoldMT-31"/>
       <use xlink:href="#Arial-BoldMT-35" x="55.615234"/>
      </g>
     </g>
    </g>
    <g id="xtick_10">
     <g id="text_26">
      <!-- 20 -->
      <g style="fill: #262626" transform="translate(974.08388 500.120938) scale(0.14 -0.14)">
       <use xlink:href="#Arial-BoldMT-32"/>
       <use xlink:href="#Arial-BoldMT-30" x="55.615234"/>
      </g>
     </g>
    </g>
    <g id="xtick_11">
     <g id="text_27">
      <!-- 25 -->
      <g style="fill: #262626" transform="translate(1054.703744 500.120938) scale(0.14 -0.14)">
       <use xlink:href="#Arial-BoldMT-32"/>
       <use xlink:href="#Arial-BoldMT-35" x="55.615234"/>
      </g>
     </g>
    </g>
    <g id="xtick_12">
     <g id="text_28">
      <!-- 30 -->
      <g style="fill: #262626" transform="translate(1135.323609 500.120938) scale(0.14 -0.14)">
       <use xlink:href="#Arial-BoldMT-33"/>
       <use xlink:href="#Arial-BoldMT-30" x="55.615234"/>
      </g>
     </g>
    </g>
    <g id="text_29">
     <!-- Radiation Absorbed (mGy) -->
     <g style="fill: #262626" transform="translate(815.265233 519.259219) scale(0.17 -0.17)">
      <use xlink:href="#Arial-BoldMT-52"/>
      <use xlink:href="#Arial-BoldMT-61" x="72.216797"/>
      <use xlink:href="#Arial-BoldMT-64" x="127.832031"/>
      <use xlink:href="#Arial-BoldMT-69" x="188.916016"/>
      <use xlink:href="#Arial-BoldMT-61" x="216.699219"/>
      <use xlink:href="#Arial-BoldMT-74" x="272.314453"/>
      <use xlink:href="#Arial-BoldMT-69" x="305.615234"/>
      <use xlink:href="#Arial-BoldMT-6f" x="333.398438"/>
      <use xlink:href="#Arial-BoldMT-6e" x="394.482422"/>
      <use xlink:href="#Arial-BoldMT-20" x="455.566406"/>
      <use xlink:href="#Arial-BoldMT-41" x="479.599609"/>
      <use xlink:href="#Arial-BoldMT-62" x="551.816406"/>
      <use xlink:href="#Arial-BoldMT-73" x="612.900391"/>
      <use xlink:href="#Arial-BoldMT-6f" x="668.515625"/>
      <use xlink:href="#Arial-BoldMT-72" x="729.599609"/>
      <use xlink:href="#Arial-BoldMT-62" x="768.515625"/>
      <use xlink:href="#Arial-BoldMT-65" x="829.599609"/>
      <use xlink:href="#Arial-BoldMT-64" x="885.214844"/>
      <use xlink:href="#Arial-BoldMT-20" x="946.298828"/>
      <use xlink:href="#Arial-BoldMT-28" x="974.082031"/>
      <use xlink:href="#Arial-BoldMT-6d" x="1007.382812"/>
      <use xlink:href="#Arial-BoldMT-47" x="1096.298828"/>
      <use xlink:href="#Arial-BoldMT-79" x="1174.082031"/>
      <use xlink:href="#Arial-BoldMT-29" x="1229.697266"/>
     </g>
    </g>
   </g>
   <g id="matplotlib.axis_4">
    <g id="ytick_9"/>
    <g id="ytick_10"/>
    <g id="ytick_11"/>
    <g id="ytick_12"/>
    <g id="ytick_13"/>
    <g id="ytick_14"/>
    <g id="ytick_15"/>
    <g id="ytick_16"/>
   </g>
   <g id="line2d_14">
    <path d="M 729.512893 262.254788 
L 739.497441 267.855909 
L 749.481988 273.191491 
L 759.466535 278.261535 
L 769.451083 283.066041 
L 779.43563 287.605008 
L 789.420177 291.878437 
L 799.404725 295.886328 
L 809.389272 299.628681 
L 819.37382 303.105496 
L 829.358367 306.316772 
L 839.342914 309.26251 
L 849.327462 311.94271 
L 859.312009 314.357372 
L 869.296556 316.506495 
L 877.85474 318.137254 
L 886.412923 319.572923 
L 894.971107 320.813504 
L 903.52929 321.858995 
L 912.087474 322.709396 
L 920.645657 323.364709 
L 929.203841 323.824932 
L 937.762024 324.090066 
L 946.320208 324.16011 
L 954.878391 324.035065 
L 963.436575 323.714931 
L 971.994758 323.199707 
L 980.552942 322.489394 
L 989.111125 321.583992 
L 997.669309 320.483501 
L 1006.227492 319.18792 
L 1013.359312 317.959243 
L 1013.359312 317.959243 
" clip-path="url(#pabe8f94e7b)" style="fill: none; stroke: #ff00ff; stroke-width: 1.5; stroke-linecap: round"/>
   </g>
   <g id="line2d_15">
    <path d="M 700.989585 411.691798 
L 709.899093 393.70462 
L 718.808601 376.259501 
L 727.718109 359.35644 
L 736.627616 342.995437 
L 745.537124 327.176493 
L 754.446632 311.899607 
L 763.35614 297.16478 
L 772.265648 282.972011 
L 781.175156 269.321301 
L 787.857286 259.438994 
L 794.539417 249.861595 
L 801.221548 240.589104 
L 807.903679 231.62152 
L 814.58581 222.958845 
L 821.267941 214.601077 
L 827.950072 206.548218 
L 834.632202 198.800266 
L 841.314333 191.357222 
L 847.996464 184.219086 
L 854.678595 177.385858 
L 861.360726 170.857537 
L 868.042857 164.634125 
L 874.724988 158.71562 
L 881.407119 153.102024 
L 888.089249 147.793335 
L 894.77138 142.789554 
L 901.453511 138.090681 
L 908.135642 133.696716 
L 914.817773 129.607659 
L 921.499904 125.823509 
L 928.182035 122.344268 
L 934.864165 119.169934 
L 941.546296 116.300508 
L 948.228427 113.73599 
L 954.910558 111.47638 
L 961.592689 109.521678 
L 968.27482 107.871884 
L 974.956951 106.526997 
L 981.639082 105.487019 
L 988.321212 104.751948 
L 995.003343 104.321785 
L 1001.685474 104.19653 
L 1008.367605 104.376183 
L 1015.049736 104.860744 
L 1021.731867 105.650213 
L 1028.413998 106.74459 
L 1035.096128 108.143874 
L 1041.778259 109.848066 
L 1048.46039 111.857167 
L 1055.142521 114.171175 
L 1061.824652 116.790091 
L 1068.506783 119.713914 
L 1075.188914 122.942646 
L 1081.871045 126.476286 
L 1088.553175 130.314833 
L 1095.235306 134.458289 
L 1101.917437 138.906652 
L 1108.599568 143.659923 
L 1115.281699 148.718102 
L 1121.96383 154.081189 
L 1128.645961 159.749183 
L 1135.328091 165.722086 
L 1142.010222 171.999896 
L 1144.237599 174.160257 
L 1144.237599 174.160257 
" clip-path="url(#pabe8f94e7b)" style="fill: none; stroke-dasharray: 5.55,2.4; stroke-dashoffset: 0; stroke: #ff00ff; stroke-width: 1.5"/>
   </g>
   <g id="line2d_16">
    <path d="M 729.512893 303.101874 
L 745.202896 303.886923 
L 760.892899 304.464923 
L 776.582902 304.835875 
L 792.272905 304.999779 
L 807.962908 304.956635 
L 823.652911 304.706443 
L 839.342914 304.249202 
L 855.032917 303.584913 
L 870.72292 302.713575 
L 886.412923 301.63519 
L 902.102926 300.349756 
L 917.792929 298.857274 
L 933.482932 297.157743 
L 949.172936 295.251165 
L 964.862939 293.137538 
L 980.552942 290.816863 
L 996.242945 288.28914 
L 1011.932948 285.554368 
L 1013.359312 285.295485 
L 1013.359312 285.295485 
" clip-path="url(#pabe8f94e7b)" style="fill: none; stroke: #ffa500; stroke-width: 1.5; stroke-linecap: round"/>
   </g>
   <g id="line2d_17">
    <path d="M 700.989585 199.019375 
L 712.12647 210.809636 
L 723.263355 222.274944 
L 734.40024 233.415299 
L 745.537124 244.230701 
L 756.674009 254.721149 
L 767.810894 264.886644 
L 778.947779 274.727186 
L 790.084663 284.242775 
L 801.221548 293.433411 
L 812.358433 302.299093 
L 823.495318 310.839822 
L 834.632202 319.055598 
L 845.769087 326.946421 
L 856.905972 334.51229 
L 868.042857 341.753206 
L 879.179742 348.66917 
L 888.089249 353.967974 
L 896.998757 359.058808 
L 905.908265 363.941672 
L 914.817773 368.616566 
L 923.727281 373.08349 
L 932.636789 377.342443 
L 941.546296 381.393427 
L 950.455804 385.236441 
L 959.365312 388.871485 
L 968.27482 392.298558 
L 977.184328 395.517662 
L 986.093835 398.528795 
L 995.003343 401.331959 
L 1003.912851 403.927152 
L 1012.822359 406.314376 
L 1021.731867 408.493629 
L 1030.641375 410.464912 
L 1039.550882 412.228225 
L 1048.46039 413.783568 
L 1057.369898 415.130942 
L 1066.279406 416.270345 
L 1075.188914 417.201777 
L 1084.098421 417.92524 
L 1093.007929 418.440733 
L 1101.917437 418.748256 
L 1110.826945 418.847809 
L 1119.736453 418.739391 
L 1128.645961 418.423004 
L 1137.555468 417.898647 
L 1144.237599 417.368898 
L 1144.237599 417.368898 
" clip-path="url(#pabe8f94e7b)" style="fill: none; stroke-dasharray: 5.55,2.4; stroke-dashoffset: 0; stroke: #ffa500; stroke-width: 1.5"/>
   </g>
   <g id="line2d_18">
    <path d="M 678.827184 295.745495 
L 1166.4 295.745495 
" clip-path="url(#pabe8f94e7b)" style="fill: none; stroke-dasharray: 5.55,2.4; stroke-dashoffset: 0; stroke: #000000; stroke-width: 1.5"/>
   </g>
   <g id="patch_9">
    <path d="M 678.827184 480.6 
L 678.827184 64.8 
" style="fill: none; stroke: #262626; stroke-width: 2; stroke-linejoin: miter; stroke-linecap: square"/>
   </g>
   <g id="patch_10">
    <path d="M 1166.4 480.6 
L 1166.4 64.8 
" style="fill: none; stroke: #262626; stroke-width: 2; stroke-linejoin: miter; stroke-linecap: square"/>
   </g>
   <g id="patch_11">
    <path d="M 678.827184 480.6 
L 1166.4 480.6 
" style="fill: none; stroke: #262626; stroke-width: 2; stroke-linejoin: miter; stroke-linecap: square"/>
   </g>
   <g id="patch_12">
    <path d="M 678.827184 64.8 
L 1166.4 64.8 
" style="fill: none; stroke: #262626; stroke-width: 2; stroke-linejoin: miter; stroke-linecap: square"/>
   </g>
   <g id="legend_2">
    <g id="patch_13">
     <path d="M 686.527184 152.52375 
L 857.417341 152.52375 
Q 859.617341 152.52375 859.617341 150.32375 
L 859.617341 72.5 
Q 859.617341 70.3 857.417341 70.3 
L 686.527184 70.3 
Q 684.327184 70.3 684.327184 72.5 
L 684.327184 150.32375 
Q 684.327184 152.52375 686.527184 152.52375 
z
" style="fill: #ffffff; opacity: 0.8; stroke: #cccccc; stroke-linejoin: miter"/>
    </g>
    <g id="text_30">
     <!-- Metabolic Processes -->
     <g style="fill: #262626" transform="translate(712.615388 83.289375) scale(0.12 -0.12)">
      <use xlink:href="#Arial-BoldMT-4d"/>
      <use xlink:href="#Arial-BoldMT-65" x="83.300781"/>
      <use xlink:href="#Arial-BoldMT-74" x="138.916016"/>
      <use xlink:href="#Arial-BoldMT-61" x="172.216797"/>
      <use xlink:href="#Arial-BoldMT-62" x="227.832031"/>
      <use xlink:href="#Arial-BoldMT-6f" x="288.916016"/>
      <use xlink:href="#Arial-BoldMT-6c" x="350"/>
      <use xlink:href="#Arial-BoldMT-69" x="377.783203"/>
      <use xlink:href="#Arial-BoldMT-63" x="405.566406"/>
      <use xlink:href="#Arial-BoldMT-20" x="461.181641"/>
      <use xlink:href="#Arial-BoldMT-50" x="488.964844"/>
      <use xlink:href="#Arial-BoldMT-72" x="555.664062"/>
      <use xlink:href="#Arial-BoldMT-6f" x="594.580078"/>
      <use xlink:href="#Arial-BoldMT-63" x="655.664062"/>
      <use xlink:href="#Arial-BoldMT-65" x="711.279297"/>
      <use xlink:href="#Arial-BoldMT-73" x="766.894531"/>
      <use xlink:href="#Arial-BoldMT-73" x="822.509766"/>
      <use xlink:href="#Arial-BoldMT-65" x="878.125"/>
      <use xlink:href="#Arial-BoldMT-73" x="933.740234"/>
     </g>
    </g>
    <g id="line2d_19">
     <path d="M 688.727184 95.315156 
L 699.727184 95.315156 
L 710.727184 95.315156 
" style="fill: none; stroke: #ff00ff; stroke-width: 1.5; stroke-linecap: round"/>
    </g>
    <g id="text_31">
     <!-- Antioxidant_Defenses_IF -->
     <g style="fill: #262626" transform="translate(719.527184 99.165156) scale(0.11 -0.11)">
      <defs>
       <path id="Arial-BoldMT-78" d="M 38 0 
L 1234 1709 
L 88 3319 
L 1159 3319 
L 1747 2406 
L 2366 3319 
L 3397 3319 
L 2272 1747 
L 3500 0 
L 2422 0 
L 1747 1028 
L 1066 0 
L 38 0 
z
" transform="scale(0.015625)"/>
       <path id="Arial-BoldMT-44" d="M 463 4581 
L 2153 4581 
Q 2725 4581 3025 4494 
Q 3428 4375 3715 4072 
Q 4003 3769 4153 3330 
Q 4303 2891 4303 2247 
Q 4303 1681 4163 1272 
Q 3991 772 3672 463 
Q 3431 228 3022 97 
Q 2716 0 2203 0 
L 463 0 
L 463 4581 
z
M 1388 3806 
L 1388 772 
L 2078 772 
Q 2466 772 2638 816 
Q 2863 872 3011 1006 
Q 3159 1141 3253 1448 
Q 3347 1756 3347 2288 
Q 3347 2819 3253 3103 
Q 3159 3388 2990 3547 
Q 2822 3706 2563 3763 
Q 2369 3806 1803 3806 
L 1388 3806 
z
" transform="scale(0.015625)"/>
       <path id="Arial-BoldMT-66" d="M 75 3319 
L 563 3319 
L 563 3569 
Q 563 3988 652 4194 
Q 741 4400 980 4529 
Q 1219 4659 1584 4659 
Q 1959 4659 2319 4547 
L 2200 3934 
Q 1991 3984 1797 3984 
Q 1606 3984 1523 3895 
Q 1441 3806 1441 3553 
L 1441 3319 
L 2097 3319 
L 2097 2628 
L 1441 2628 
L 1441 0 
L 563 0 
L 563 2628 
L 75 2628 
L 75 3319 
z
" transform="scale(0.015625)"/>
      </defs>
      <use xlink:href="#Arial-BoldMT-41"/>
      <use xlink:href="#Arial-BoldMT-6e" x="72.216797"/>
      <use xlink:href="#Arial-BoldMT-74" x="133.300781"/>
      <use xlink:href="#Arial-BoldMT-69" x="166.601562"/>
      <use xlink:href="#Arial-BoldMT-6f" x="194.384766"/>
      <use xlink:href="#Arial-BoldMT-78" x="255.46875"/>
      <use xlink:href="#Arial-BoldMT-69" x="311.083984"/>
      <use xlink:href="#Arial-BoldMT-64" x="338.867188"/>
      <use xlink:href="#Arial-BoldMT-61" x="399.951172"/>
      <use xlink:href="#Arial-BoldMT-6e" x="455.566406"/>
      <use xlink:href="#Arial-BoldMT-74" x="516.650391"/>
      <use xlink:href="#Arial-BoldMT-5f" x="549.951172"/>
      <use xlink:href="#Arial-BoldMT-44" x="605.566406"/>
      <use xlink:href="#Arial-BoldMT-65" x="677.783203"/>
      <use xlink:href="#Arial-BoldMT-66" x="733.398438"/>
      <use xlink:href="#Arial-BoldMT-65" x="766.699219"/>
      <use xlink:href="#Arial-BoldMT-6e" x="822.314453"/>
      <use xlink:href="#Arial-BoldMT-73" x="883.398438"/>
      <use xlink:href="#Arial-BoldMT-65" x="939.013672"/>
      <use xlink:href="#Arial-BoldMT-73" x="994.628906"/>
      <use xlink:href="#Arial-BoldMT-5f" x="1050.244141"/>
      <use xlink:href="#Arial-BoldMT-49" x="1105.859375"/>
      <use xlink:href="#Arial-BoldMT-46" x="1133.642578"/>
     </g>
    </g>
    <g id="line2d_20">
     <path d="M 688.727184 110.99875 
L 699.727184 110.99875 
L 710.727184 110.99875 
" style="fill: none; stroke-dasharray: 5.55,2.4; stroke-dashoffset: 0; stroke: #ff00ff; stroke-width: 1.5"/>
    </g>
    <g id="text_32">
     <!-- Antioxidant_Defenses_PF -->
     <g style="fill: #262626" transform="translate(719.527184 114.84875) scale(0.11 -0.11)">
      <use xlink:href="#Arial-BoldMT-41"/>
      <use xlink:href="#Arial-BoldMT-6e" x="72.216797"/>
      <use xlink:href="#Arial-BoldMT-74" x="133.300781"/>
      <use xlink:href="#Arial-BoldMT-69" x="166.601562"/>
      <use xlink:href="#Arial-BoldMT-6f" x="194.384766"/>
      <use xlink:href="#Arial-BoldMT-78" x="255.46875"/>
      <use xlink:href="#Arial-BoldMT-69" x="311.083984"/>
      <use xlink:href="#Arial-BoldMT-64" x="338.867188"/>
      <use xlink:href="#Arial-BoldMT-61" x="399.951172"/>
      <use xlink:href="#Arial-BoldMT-6e" x="455.566406"/>
      <use xlink:href="#Arial-BoldMT-74" x="516.650391"/>
      <use xlink:href="#Arial-BoldMT-5f" x="549.951172"/>
      <use xlink:href="#Arial-BoldMT-44" x="605.566406"/>
      <use xlink:href="#Arial-BoldMT-65" x="677.783203"/>
      <use xlink:href="#Arial-BoldMT-66" x="733.398438"/>
      <use xlink:href="#Arial-BoldMT-65" x="766.699219"/>
      <use xlink:href="#Arial-BoldMT-6e" x="822.314453"/>
      <use xlink:href="#Arial-BoldMT-73" x="883.398438"/>
      <use xlink:href="#Arial-BoldMT-65" x="939.013672"/>
      <use xlink:href="#Arial-BoldMT-73" x="994.628906"/>
      <use xlink:href="#Arial-BoldMT-5f" x="1050.244141"/>
      <use xlink:href="#Arial-BoldMT-50" x="1105.859375"/>
      <use xlink:href="#Arial-BoldMT-46" x="1172.558594"/>
     </g>
    </g>
    <g id="line2d_21">
     <path d="M 688.727184 126.548281 
L 699.727184 126.548281 
L 710.727184 126.548281 
" style="fill: none; stroke: #ffa500; stroke-width: 1.5; stroke-linecap: round"/>
    </g>
    <g id="text_33">
     <!-- Peroxisome_IF -->
     <g style="fill: #262626" transform="translate(719.527184 130.398281) scale(0.11 -0.11)">
      <use xlink:href="#Arial-BoldMT-50"/>
      <use xlink:href="#Arial-BoldMT-65" x="66.699219"/>
      <use xlink:href="#Arial-BoldMT-72" x="122.314453"/>
      <use xlink:href="#Arial-BoldMT-6f" x="161.230469"/>
      <use xlink:href="#Arial-BoldMT-78" x="222.314453"/>
      <use xlink:href="#Arial-BoldMT-69" x="277.929688"/>
      <use xlink:href="#Arial-BoldMT-73" x="305.712891"/>
      <use xlink:href="#Arial-BoldMT-6f" x="361.328125"/>
      <use xlink:href="#Arial-BoldMT-6d" x="422.412109"/>
      <use xlink:href="#Arial-BoldMT-65" x="511.328125"/>
      <use xlink:href="#Arial-BoldMT-5f" x="566.943359"/>
      <use xlink:href="#Arial-BoldMT-49" x="622.558594"/>
      <use xlink:href="#Arial-BoldMT-46" x="650.341797"/>
     </g>
    </g>
    <g id="line2d_22">
     <path d="M 688.727184 142.097813 
L 699.727184 142.097813 
L 710.727184 142.097813 
" style="fill: none; stroke-dasharray: 5.55,2.4; stroke-dashoffset: 0; stroke: #ffa500; stroke-width: 1.5"/>
    </g>
    <g id="text_34">
     <!-- Peroxisome_PF -->
     <g style="fill: #262626" transform="translate(719.527184 145.947812) scale(0.11 -0.11)">
      <use xlink:href="#Arial-BoldMT-50"/>
      <use xlink:href="#Arial-BoldMT-65" x="66.699219"/>
      <use xlink:href="#Arial-BoldMT-72" x="122.314453"/>
      <use xlink:href="#Arial-BoldMT-6f" x="161.230469"/>
      <use xlink:href="#Arial-BoldMT-78" x="222.314453"/>
      <use xlink:href="#Arial-BoldMT-69" x="277.929688"/>
      <use xlink:href="#Arial-BoldMT-73" x="305.712891"/>
      <use xlink:href="#Arial-BoldMT-6f" x="361.328125"/>
      <use xlink:href="#Arial-BoldMT-6d" x="422.412109"/>
      <use xlink:href="#Arial-BoldMT-65" x="511.328125"/>
      <use xlink:href="#Arial-BoldMT-5f" x="566.943359"/>
      <use xlink:href="#Arial-BoldMT-50" x="622.558594"/>
      <use xlink:href="#Arial-BoldMT-46" x="689.257812"/>
     </g>
    </g>
   </g>
  </g>
  <g id="text_35">
   <!-- Normalized Enrichment Scores -->
   <g style="fill: #262626" transform="translate(116.564063 403.035469) rotate(-90) scale(0.18 -0.18)">
    <defs>
     <path id="Arial-BoldMT-4e" d="M 475 0 
L 475 4581 
L 1375 4581 
L 3250 1522 
L 3250 4581 
L 4109 4581 
L 4109 0 
L 3181 0 
L 1334 2988 
L 1334 0 
L 475 0 
z
" transform="scale(0.015625)"/>
     <path id="Arial-BoldMT-7a" d="M 106 0 
L 106 684 
L 1350 2113 
Q 1656 2463 1803 2609 
Q 1650 2600 1400 2597 
L 228 2591 
L 228 3319 
L 2972 3319 
L 2972 2697 
L 1703 1234 
L 1256 750 
Q 1622 772 1709 772 
L 3069 772 
L 3069 0 
L 106 0 
z
" transform="scale(0.015625)"/>
     <path id="Arial-BoldMT-45" d="M 466 0 
L 466 4581 
L 3863 4581 
L 3863 3806 
L 1391 3806 
L 1391 2791 
L 3691 2791 
L 3691 2019 
L 1391 2019 
L 1391 772 
L 3950 772 
L 3950 0 
L 466 0 
z
" transform="scale(0.015625)"/>
     <path id="Arial-BoldMT-68" d="M 1334 4581 
L 1334 2897 
Q 1759 3394 2350 3394 
Q 2653 3394 2897 3281 
Q 3141 3169 3264 2994 
Q 3388 2819 3433 2606 
Q 3478 2394 3478 1947 
L 3478 0 
L 2600 0 
L 2600 1753 
Q 2600 2275 2550 2415 
Q 2500 2556 2373 2639 
Q 2247 2722 2056 2722 
Q 1838 2722 1666 2615 
Q 1494 2509 1414 2295 
Q 1334 2081 1334 1663 
L 1334 0 
L 456 0 
L 456 4581 
L 1334 4581 
z
" transform="scale(0.015625)"/>
     <path id="Arial-BoldMT-53" d="M 231 1491 
L 1131 1578 
Q 1213 1125 1461 912 
Q 1709 700 2131 700 
Q 2578 700 2804 889 
Q 3031 1078 3031 1331 
Q 3031 1494 2936 1608 
Q 2841 1722 2603 1806 
Q 2441 1863 1863 2006 
Q 1119 2191 819 2459 
Q 397 2838 397 3381 
Q 397 3731 595 4036 
Q 794 4341 1167 4500 
Q 1541 4659 2069 4659 
Q 2931 4659 3367 4281 
Q 3803 3903 3825 3272 
L 2900 3231 
Q 2841 3584 2645 3739 
Q 2450 3894 2059 3894 
Q 1656 3894 1428 3728 
Q 1281 3622 1281 3444 
Q 1281 3281 1419 3166 
Q 1594 3019 2269 2859 
Q 2944 2700 3267 2529 
Q 3591 2359 3773 2064 
Q 3956 1769 3956 1334 
Q 3956 941 3737 597 
Q 3519 253 3119 86 
Q 2719 -81 2122 -81 
Q 1253 -81 787 320 
Q 322 722 231 1491 
z
" transform="scale(0.015625)"/>
    </defs>
    <use xlink:href="#Arial-BoldMT-4e"/>
    <use xlink:href="#Arial-BoldMT-6f" x="72.216797"/>
    <use xlink:href="#Arial-BoldMT-72" x="133.300781"/>
    <use xlink:href="#Arial-BoldMT-6d" x="172.216797"/>
    <use xlink:href="#Arial-BoldMT-61" x="261.132812"/>
    <use xlink:href="#Arial-BoldMT-6c" x="316.748047"/>
    <use xlink:href="#Arial-BoldMT-69" x="344.53125"/>
    <use xlink:href="#Arial-BoldMT-7a" x="372.314453"/>
    <use xlink:href="#Arial-BoldMT-65" x="422.314453"/>
    <use xlink:href="#Arial-BoldMT-64" x="477.929688"/>
    <use xlink:href="#Arial-BoldMT-20" x="539.013672"/>
    <use xlink:href="#Arial-BoldMT-45" x="566.796875"/>
    <use xlink:href="#Arial-BoldMT-6e" x="633.496094"/>
    <use xlink:href="#Arial-BoldMT-72" x="694.580078"/>
    <use xlink:href="#Arial-BoldMT-69" x="733.496094"/>
    <use xlink:href="#Arial-BoldMT-63" x="761.279297"/>
    <use xlink:href="#Arial-BoldMT-68" x="816.894531"/>
    <use xlink:href="#Arial-BoldMT-6d" x="877.978516"/>
    <use xlink:href="#Arial-BoldMT-65" x="966.894531"/>
    <use xlink:href="#Arial-BoldMT-6e" x="1022.509766"/>
    <use xlink:href="#Arial-BoldMT-74" x="1083.59375"/>
    <use xlink:href="#Arial-BoldMT-20" x="1116.894531"/>
    <use xlink:href="#Arial-BoldMT-53" x="1144.677734"/>
    <use xlink:href="#Arial-BoldMT-63" x="1211.376953"/>
    <use xlink:href="#Arial-BoldMT-6f" x="1266.992188"/>
    <use xlink:href="#Arial-BoldMT-72" x="1328.076172"/>
    <use xlink:href="#Arial-BoldMT-65" x="1366.992188"/>
    <use xlink:href="#Arial-BoldMT-73" x="1422.607422"/>
   </g>
  </g>
 </g>
 <defs>
  <clipPath id="p7a036e7952">
   <rect x="162" y="64.8" width="487.572816" height="415.8"/>
  </clipPath>
  <clipPath id="pabe8f94e7b">
   <rect x="678.827184" y="64.8" width="487.572816" height="415.8"/>
  </clipPath>
 </defs>
</svg>
